<svg width="501" height="489" viewBox="0 0 501 489" fill="none" xmlns="http://www.w3.org/2000/svg">
<path d="M500.176 279.817L352.513 184L217.001 392.837L364.665 488.654L500.176 279.817Z" fill="white"/>
<path d="M388.431 452.027L379.963 465.078L336.991 263.25L377.777 200.395L387.01 206.386L348.701 265.423L388.431 452.027Z" fill="#ED723D"/>
<path d="M374.031 474.22L365.563 487.27L317.079 259.581L362.09 190.215L371.316 196.201L328.792 261.735L374.031 474.22Z" fill="#F3AF28"/>
<path d="M345.384 440.801L304.376 449.533L252.166 415.655L293.175 406.923L272.095 307.931L305.973 255.723L345.384 440.801Z" fill="#133C3E"/>
<path d="M388.935 288.269C389.056 288.554 389.109 288.859 389.1 289.185C389.089 289.512 388.974 289.844 388.757 290.178C388.54 290.513 388.268 290.769 387.955 290.925C387.643 291.082 387.315 291.163 386.972 291.17C386.637 291.179 386.296 291.13 385.952 291.024C385.606 290.917 385.276 290.763 384.966 290.562L381.483 288.302L381.722 287.934C381.81 287.981 381.94 288.044 382.113 288.126C382.287 288.207 382.418 288.254 382.508 288.268C382.647 288.289 382.765 288.274 382.863 288.222C382.96 288.169 383.052 288.079 383.134 287.952L386.564 282.666C386.64 282.549 386.688 282.431 386.707 282.316C386.725 282.2 386.693 282.077 386.613 281.945C386.543 281.827 386.453 281.712 386.344 281.601C386.233 281.491 386.137 281.403 386.056 281.341L386.295 280.972L389.69 283.175C389.953 283.346 390.187 283.535 390.394 283.742C390.602 283.95 390.771 284.19 390.903 284.463C391.028 284.716 391.089 284.989 391.086 285.281C391.083 285.573 390.985 285.869 390.792 286.166C390.624 286.426 390.428 286.626 390.203 286.768C389.978 286.909 389.735 286.997 389.471 287.032C389.222 287.068 388.965 287.065 388.698 287.027C388.431 286.989 388.161 286.919 387.889 286.815L387.859 286.861C388.053 287.023 388.254 287.228 388.463 287.478C388.671 287.729 388.831 287.992 388.94 288.27L388.935 288.269ZM388.402 286.346C388.625 286.281 388.82 286.175 388.985 286.031C389.15 285.887 389.31 285.693 389.467 285.451C389.73 285.046 389.826 284.657 389.755 284.284C389.684 283.911 389.411 283.57 388.935 283.261C388.825 283.19 388.684 283.102 388.514 282.999C388.343 282.896 388.2 282.809 388.083 282.739L386.248 285.569L386.904 285.995C387.187 286.178 387.453 286.299 387.701 286.357C387.95 286.414 388.183 286.411 388.402 286.346ZM387.597 289.161C387.879 288.726 387.966 288.274 387.855 287.804C387.745 287.334 387.418 286.923 386.876 286.571C386.654 286.428 386.466 286.31 386.31 286.216C386.155 286.123 386.038 286.053 385.959 286.007L384.278 288.599C384.136 288.816 384.118 289.038 384.222 289.262C384.327 289.487 384.536 289.701 384.85 289.905C385.365 290.24 385.856 290.344 386.324 290.22C386.792 290.097 387.215 289.744 387.594 289.159L387.597 289.161Z" fill="#1D1D1B"/>
<path d="M395.6 297.461L393.62 296.175C393.628 295.203 393.617 294.352 393.588 293.622C393.559 292.892 393.509 292.126 393.442 291.325L392.689 290.836L391.176 293.168C391.097 293.289 391.048 293.407 391.026 293.523C391.005 293.639 391.041 293.762 391.134 293.89C391.181 293.955 391.275 294.048 391.416 294.17C391.558 294.291 391.682 294.389 391.787 294.462L391.548 294.831L388.438 292.813L388.677 292.445C388.765 292.492 388.892 292.557 389.061 292.642C389.231 292.727 389.353 292.775 389.435 292.787C389.567 292.81 389.685 292.794 389.788 292.737C389.89 292.681 389.985 292.585 390.073 292.45L393.523 287.133C393.602 287.012 393.654 286.893 393.68 286.778C393.706 286.662 393.671 286.539 393.574 286.408C393.507 286.321 393.414 286.22 393.292 286.104C393.17 285.988 393.064 285.896 392.972 285.826L393.211 285.458L396.606 287.661C396.917 287.863 397.187 288.084 397.419 288.326C397.651 288.567 397.83 288.83 397.959 289.115C398.084 289.393 398.138 289.683 398.121 289.989C398.104 290.295 397.993 290.605 397.789 290.919C397.606 291.202 397.399 291.425 397.172 291.587C396.946 291.749 396.694 291.854 396.423 291.903C396.172 291.95 395.9 291.958 395.612 291.925C395.324 291.893 395.023 291.829 394.712 291.735C394.763 292.451 394.802 293.052 394.829 293.535C394.857 294.018 394.891 294.609 394.935 295.306C394.953 295.611 394.991 295.854 395.05 296.031C395.109 296.209 395.179 296.368 395.26 296.509C395.32 296.612 395.411 296.719 395.53 296.831C395.648 296.943 395.752 297.03 395.84 297.091L395.601 297.459L395.6 297.461ZM396.431 290.211C396.719 289.767 396.821 289.33 396.734 288.905C396.646 288.479 396.37 288.114 395.903 287.812L395.022 287.24L392.977 290.391L393.656 290.832C394.133 291.141 394.629 291.247 395.145 291.147C395.662 291.048 396.09 290.736 396.43 290.213L396.431 290.211Z" fill="#1D1D1B"/>
<path d="M406.032 295.017C406.137 295.566 406.126 296.141 405.997 296.737C405.87 297.335 405.618 297.923 405.242 298.504C404.865 299.084 404.424 299.558 403.929 299.913C403.434 300.269 402.911 300.506 402.361 300.626C401.825 300.75 401.286 300.763 400.745 300.667C400.203 300.57 399.692 300.366 399.212 300.055C398.701 299.723 398.29 299.32 397.981 298.846C397.672 298.373 397.472 297.865 397.384 297.321C397.29 296.785 397.31 296.218 397.444 295.625C397.576 295.031 397.82 294.461 398.174 293.916C398.562 293.318 399.002 292.845 399.492 292.499C399.982 292.152 400.501 291.913 401.053 291.784C401.597 291.657 402.144 291.642 402.69 291.741C403.236 291.841 403.744 292.043 404.215 292.348C404.685 292.654 405.102 293.053 405.415 293.517C405.728 293.982 405.934 294.48 406.033 295.016L406.032 295.017ZM401.876 299.73C402.273 299.541 402.646 299.277 402.992 298.937C403.338 298.597 403.67 298.181 403.988 297.69C404.307 297.199 404.567 296.69 404.742 296.205C404.917 295.72 405.005 295.266 405.009 294.846C405.009 294.429 404.919 294.046 404.739 293.695C404.559 293.345 404.284 293.05 403.915 292.811C403.5 292.541 403.086 292.408 402.672 292.41C402.258 292.412 401.856 292.512 401.468 292.711C401.098 292.903 400.738 293.174 400.389 293.527C400.04 293.88 399.72 294.281 399.429 294.73C399.106 295.228 398.86 295.705 398.689 296.165C398.519 296.624 398.429 297.072 398.422 297.508C398.411 297.933 398.493 298.323 398.664 298.677C398.836 299.032 399.12 299.338 399.513 299.593C399.883 299.833 400.272 299.964 400.682 299.983C401.092 300.004 401.49 299.918 401.88 299.728L401.876 299.73Z" fill="#1D1D1B"/>
<path d="M406.906 305.048C406.469 304.764 406.104 304.403 405.815 303.97C405.524 303.536 405.329 303.056 405.229 302.53C405.133 302.005 405.145 301.449 405.265 300.863C405.386 300.274 405.637 299.688 406.019 299.101C406.4 298.513 406.836 298.037 407.326 297.675C407.816 297.313 408.332 297.062 408.874 296.921C409.41 296.782 409.953 296.76 410.503 296.85C411.052 296.941 411.569 297.144 412.056 297.46C412.419 297.695 412.718 297.953 412.953 298.233C413.189 298.513 413.385 298.821 413.547 299.155L413.987 298.941L414.402 299.21L412.746 301.863L412.322 301.587C412.432 301.296 412.529 300.964 412.613 300.594C412.697 300.223 412.732 299.887 412.717 299.583C412.704 299.24 412.626 298.929 412.485 298.648C412.344 298.367 412.127 298.131 411.833 297.941C411.498 297.724 411.139 297.597 410.754 297.558C410.37 297.519 409.978 297.578 409.579 297.731C409.198 297.881 408.809 298.135 408.414 298.493C408.019 298.851 407.649 299.297 407.304 299.829C406.999 300.299 406.779 300.769 406.643 301.238C406.507 301.709 406.454 302.163 406.481 302.604C406.511 303.04 406.624 303.44 406.818 303.802C407.012 304.164 407.296 304.466 407.67 304.708C407.95 304.89 408.235 305.013 408.526 305.077C408.819 305.141 409.097 305.155 409.363 305.123C409.635 305.083 409.899 305.009 410.155 304.901C410.411 304.792 410.655 304.651 410.886 304.477L411.154 304.915C410.385 305.452 409.652 305.717 408.96 305.712C408.266 305.706 407.582 305.484 406.906 305.045L406.906 305.048Z" fill="#1D1D1B"/>
<path d="M418.213 312.133L415.161 310.153L415.4 309.784C415.488 309.831 415.614 309.898 415.781 309.987C415.947 310.076 416.068 310.125 416.145 310.134C416.276 310.159 416.392 310.146 416.496 310.094C416.6 310.041 416.694 309.946 416.782 309.811L418.48 307.194L415.022 304.951L413.361 307.511C413.283 307.632 413.237 307.747 413.223 307.855C413.208 307.964 413.24 308.087 413.317 308.226C413.355 308.295 413.439 308.394 413.57 308.523C413.7 308.652 413.807 308.747 413.891 308.805L413.652 309.174L410.6 307.193L410.839 306.825C410.926 306.872 411.053 306.938 411.22 307.027C411.386 307.116 411.507 307.165 411.584 307.175C411.714 307.199 411.831 307.186 411.935 307.134C412.038 307.081 412.133 306.986 412.22 306.852L415.663 301.545C415.735 301.435 415.778 301.318 415.792 301.198C415.806 301.078 415.776 300.955 415.699 300.832C415.634 300.726 415.547 300.614 415.437 300.492C415.326 300.372 415.226 300.276 415.132 300.205L415.371 299.837L418.423 301.817L418.184 302.186C418.085 302.127 417.957 302.066 417.799 302.002C417.642 301.938 417.52 301.896 417.435 301.876C417.291 301.842 417.168 301.859 417.066 301.93C416.964 302.001 416.875 302.093 416.8 302.208L415.321 304.488L418.778 306.731L420.224 304.503C420.296 304.393 420.339 304.276 420.353 304.155C420.367 304.035 420.337 303.913 420.259 303.789C420.194 303.683 420.107 303.57 419.996 303.449C419.885 303.328 419.785 303.232 419.693 303.163L419.932 302.794L422.984 304.775L422.745 305.143C422.646 305.085 422.518 305.023 422.36 304.959C422.203 304.896 422.081 304.854 421.996 304.833C421.852 304.799 421.729 304.816 421.627 304.887C421.525 304.958 421.435 305.051 421.361 305.165L417.921 310.467C417.842 310.588 417.796 310.704 417.782 310.812C417.768 310.921 417.8 311.044 417.876 311.182C417.914 311.251 417.999 311.351 418.129 311.48C418.26 311.609 418.367 311.703 418.451 311.762L418.212 312.13L418.213 312.133Z" fill="#1D1D1B"/>
<path d="M431.218 310.646C431.119 310.587 430.965 310.516 430.752 310.432C430.541 310.349 430.352 310.308 430.186 310.308C430.017 310.311 429.829 310.422 429.623 310.642C429.417 310.862 429.196 311.151 428.963 311.51L426.888 314.708C426.623 315.116 426.31 315.415 425.945 315.605C425.58 315.795 425.198 315.899 424.795 315.912C424.401 315.921 424.027 315.869 423.671 315.753C423.317 315.638 423.001 315.491 422.725 315.312C422.283 315.025 421.926 314.711 421.656 314.371C421.386 314.032 421.196 313.687 421.09 313.338C420.987 312.991 420.958 312.651 421.005 312.322C421.053 311.992 421.166 311.688 421.345 311.412L424.166 307.065C424.245 306.944 424.289 306.83 424.303 306.723C424.316 306.615 424.285 306.489 424.209 306.341C424.153 306.235 424.068 306.126 423.953 306.009C423.838 305.891 423.739 305.802 423.656 305.739L423.896 305.37L426.959 307.358L426.719 307.727C426.62 307.668 426.488 307.604 426.324 307.535C426.159 307.467 426.034 307.423 425.95 307.403C425.806 307.369 425.683 307.386 425.581 307.457C425.479 307.528 425.389 307.621 425.316 307.734L422.682 311.793C422.554 311.99 422.442 312.21 422.346 312.454C422.249 312.699 422.204 312.955 422.211 313.225C422.222 313.502 422.305 313.776 422.458 314.047C422.61 314.318 422.89 314.585 423.293 314.847C423.674 315.094 424.031 315.24 424.367 315.286C424.702 315.332 425.009 315.305 425.284 315.205C425.547 315.111 425.774 314.98 425.964 314.816C426.155 314.65 426.318 314.464 426.452 314.257L428.408 311.243C428.657 310.86 428.833 310.529 428.935 310.25C429.037 309.97 429.06 309.759 429.002 309.613C428.937 309.448 428.816 309.274 428.638 309.09C428.461 308.905 428.319 308.774 428.212 308.695L428.451 308.327L431.457 310.277L431.218 310.646Z" fill="#1D1D1B"/>
<path d="M434.439 322.662L432.458 321.377C432.467 320.405 432.456 319.553 432.427 318.824C432.398 318.094 432.348 317.328 432.281 316.527L431.528 316.038L430.015 318.369C429.936 318.49 429.886 318.609 429.865 318.725C429.844 318.84 429.88 318.964 429.973 319.092C430.019 319.157 430.114 319.249 430.255 319.372C430.397 319.493 430.521 319.59 430.625 319.664L430.386 320.033L427.277 318.015L427.516 317.647C427.604 317.694 427.731 317.759 427.9 317.844C428.069 317.928 428.192 317.977 428.273 317.989C428.406 318.011 428.524 317.995 428.627 317.938C428.729 317.883 428.824 317.786 428.912 317.652L432.362 312.334C432.44 312.213 432.492 312.095 432.518 311.98C432.545 311.864 432.51 311.741 432.413 311.61C432.346 311.522 432.253 311.421 432.131 311.306C432.009 311.19 431.903 311.098 431.811 311.028L432.05 310.66L435.445 312.863C435.756 313.065 436.026 313.286 436.258 313.527C436.489 313.769 436.668 314.032 436.798 314.317C436.923 314.595 436.977 314.885 436.96 315.19C436.943 315.496 436.832 315.807 436.628 316.121C436.445 316.404 436.238 316.627 436.011 316.789C435.784 316.951 435.533 317.056 435.262 317.104C435.011 317.152 434.739 317.16 434.451 317.127C434.163 317.095 433.862 317.031 433.55 316.937C433.602 317.652 433.641 318.253 433.668 318.736C433.696 319.22 433.73 319.81 433.774 320.508C433.792 320.813 433.83 321.056 433.889 321.233C433.948 321.41 434.018 321.57 434.098 321.711C434.159 321.814 434.25 321.921 434.369 322.033C434.487 322.145 434.591 322.232 434.679 322.293L434.44 322.661L434.439 322.662ZM435.269 315.413C435.558 314.969 435.66 314.532 435.572 314.107C435.486 313.68 435.208 313.316 434.742 313.013L433.861 312.442L431.816 315.593L432.495 316.033C432.972 316.343 433.468 316.448 433.984 316.349C434.501 316.249 434.929 315.938 435.269 315.415L435.269 315.413Z" fill="#1D1D1B"/>
<path d="M442.312 324.693L440.766 326.768L434.662 322.807L434.901 322.438C435.009 322.499 435.157 322.574 435.344 322.664C435.531 322.754 435.659 322.803 435.726 322.813C435.87 322.833 435.991 322.816 436.089 322.761C436.186 322.706 436.276 322.616 436.359 322.486L439.789 317.2C439.864 317.086 439.91 316.973 439.929 316.86C439.948 316.747 439.916 316.624 439.83 316.491C439.766 316.385 439.666 316.265 439.533 316.128C439.397 315.992 439.286 315.889 439.198 315.822L439.437 315.453L445.128 319.146L443.978 320.919L443.589 320.667C443.69 320.359 443.721 319.984 443.684 319.538C443.646 319.094 443.532 318.79 443.343 318.629C443.244 318.546 443.123 318.452 442.98 318.349C442.836 318.246 442.669 318.132 442.478 318.008L441.323 317.258L439.426 320.181L440.255 320.72C440.522 320.892 440.732 320.994 440.887 321.023C441.042 321.052 441.205 321.04 441.374 320.982C441.515 320.93 441.667 320.84 441.828 320.707C441.99 320.574 442.129 320.438 442.242 320.301L442.631 320.553L440.762 323.434L440.373 323.182C440.467 323.007 440.543 322.807 440.603 322.583C440.663 322.36 440.686 322.185 440.674 322.06C440.654 321.855 440.59 321.689 440.48 321.559C440.37 321.43 440.203 321.291 439.979 321.145L439.15 320.607L437.72 322.811C437.577 323.031 437.479 323.215 437.427 323.363C437.375 323.511 437.373 323.646 437.421 323.771C437.469 323.894 437.564 324.016 437.708 324.136C437.85 324.256 438.066 324.409 438.353 324.595L438.804 324.888C438.99 325.009 439.153 325.104 439.289 325.174C439.428 325.245 439.581 325.307 439.744 325.363C439.908 325.417 440.039 325.432 440.138 325.408C440.405 325.345 440.735 325.202 441.128 324.978C441.521 324.754 441.793 324.579 441.945 324.451L442.318 324.693L442.312 324.693Z" fill="#1D1D1B"/>
<path d="M415.788 321.126C415.533 321.518 415.238 321.812 414.902 322.005C414.566 322.199 414.221 322.311 413.864 322.342C413.505 322.372 413.148 322.336 412.79 322.235C412.433 322.133 412.096 321.98 411.778 321.773L409.861 320.529L410.011 320.298C410.073 320.339 410.16 320.387 410.268 320.44C410.377 320.493 410.452 320.523 410.495 320.529C410.579 320.543 410.654 320.532 410.717 320.496C410.781 320.46 410.84 320.402 410.891 320.324L413.056 316.986C413.104 316.913 413.135 316.838 413.147 316.763C413.161 316.689 413.141 316.609 413.09 316.527C413.043 316.45 412.987 316.379 412.918 316.313C412.848 316.247 412.788 316.194 412.734 316.152L412.884 315.92L414.906 317.232C415.185 317.413 415.43 317.634 415.643 317.894C415.857 318.155 416.017 318.423 416.123 318.698C416.269 319.067 416.317 319.458 416.269 319.873C416.219 320.285 416.058 320.704 415.782 321.128L415.788 321.126ZM414.989 320.605C415.19 320.295 415.332 319.988 415.412 319.684C415.491 319.38 415.512 319.082 415.476 318.792C415.442 318.517 415.348 318.257 415.197 318.014C415.044 317.77 414.836 317.561 414.568 317.387C414.478 317.329 414.378 317.266 414.262 317.197C414.149 317.127 414.064 317.076 414.008 317.044L411.702 320.598C411.574 320.795 411.542 320.969 411.608 321.12C411.675 321.271 411.827 321.424 412.066 321.579C412.342 321.759 412.614 321.866 412.884 321.902C413.155 321.938 413.41 321.911 413.65 321.821C413.903 321.726 414.137 321.579 414.356 321.379C414.574 321.18 414.785 320.921 414.988 320.607L414.989 320.605Z" fill="#1D1D1B"/>
<path d="M419.648 324.942L418.676 326.247L414.837 323.756L414.987 323.525C415.055 323.563 415.148 323.61 415.265 323.667C415.383 323.724 415.463 323.755 415.506 323.761C415.596 323.774 415.672 323.763 415.734 323.728C415.796 323.692 415.852 323.636 415.904 323.556L418.061 320.23C418.108 320.158 418.137 320.086 418.15 320.017C418.161 319.945 418.141 319.869 418.088 319.784C418.048 319.718 417.985 319.642 417.9 319.556C417.815 319.47 417.745 319.405 417.689 319.363L417.839 319.132L421.419 321.455L420.696 322.569L420.451 322.411C420.514 322.218 420.535 321.98 420.511 321.702C420.488 321.422 420.416 321.232 420.296 321.13C420.234 321.078 420.158 321.019 420.068 320.955C419.977 320.89 419.873 320.818 419.753 320.741L419.026 320.269L417.833 322.107L418.355 322.446C418.522 322.554 418.655 322.617 418.753 322.636C418.851 322.655 418.953 322.646 419.059 322.611C419.147 322.579 419.243 322.521 419.346 322.437C419.448 322.355 419.535 322.268 419.606 322.183L419.85 322.342L418.674 324.154L418.43 323.995C418.489 323.885 418.536 323.759 418.573 323.619C418.61 323.479 418.625 323.369 418.618 323.288C418.604 323.16 418.565 323.055 418.496 322.973C418.427 322.892 418.321 322.804 418.18 322.713L417.658 322.374L416.758 323.761C416.668 323.899 416.606 324.016 416.574 324.109C416.541 324.202 416.54 324.287 416.57 324.365C416.601 324.443 416.66 324.52 416.75 324.595C416.839 324.671 416.975 324.767 417.155 324.884L417.44 325.068C417.557 325.144 417.658 325.205 417.745 325.247C417.833 325.293 417.929 325.332 418.031 325.365C418.133 325.399 418.217 325.409 418.279 325.395C418.447 325.355 418.654 325.265 418.901 325.124C419.149 324.983 419.319 324.872 419.415 324.793L419.65 324.946L419.648 324.942Z" fill="#1D1D1B"/>
<path d="M423.493 326.357C423.52 326.529 423.515 326.694 423.477 326.855C423.439 327.014 423.366 327.181 423.255 327.352C422.989 327.761 422.62 327.999 422.146 328.069C421.673 328.138 421.211 328.028 420.764 327.737C420.557 327.603 420.371 327.437 420.206 327.239C420.041 327.041 419.913 326.847 419.823 326.659L419.528 326.806L419.267 326.637L420.249 325.023L420.513 325.194C420.44 325.425 420.389 325.644 420.359 325.848C420.33 326.053 420.33 326.262 420.36 326.477C420.39 326.678 420.456 326.865 420.558 327.04C420.659 327.214 420.81 327.365 421.01 327.495C421.159 327.592 421.303 327.659 421.44 327.692C421.577 327.725 421.705 327.728 421.82 327.702C421.936 327.675 422.042 327.624 422.139 327.55C422.236 327.475 422.324 327.375 422.406 327.248C422.526 327.063 422.587 326.857 422.586 326.629C422.586 326.4 422.509 326.179 422.356 325.962C422.251 325.814 422.13 325.647 421.992 325.46C421.854 325.274 421.738 325.107 421.644 324.96C421.459 324.674 421.356 324.389 421.335 324.105C421.315 323.821 421.403 323.527 421.602 323.22C421.716 323.044 421.858 322.903 422.029 322.797C422.2 322.692 422.39 322.622 422.6 322.588C422.799 322.557 423.005 322.565 423.219 322.613C423.432 322.66 423.633 322.744 423.82 322.866C424.034 323.004 424.203 323.161 424.329 323.335C424.455 323.51 424.559 323.686 424.642 323.863L424.919 323.728L425.18 323.897L424.21 325.449L423.946 325.278C424.012 325.071 424.067 324.867 424.112 324.667C424.156 324.468 424.173 324.272 424.163 324.08C424.151 323.892 424.102 323.718 424.016 323.555C423.93 323.393 423.789 323.248 423.594 323.121C423.388 322.987 423.169 322.94 422.938 322.978C422.706 323.016 422.528 323.131 422.404 323.321C422.281 323.511 422.213 323.717 422.221 323.909C422.23 324.102 422.296 324.298 422.419 324.499C422.528 324.678 422.641 324.844 422.758 325C422.876 325.155 422.986 325.31 423.087 325.466C423.181 325.608 423.264 325.753 423.339 325.902C423.414 326.053 423.465 326.204 423.49 326.358L423.493 326.357Z" fill="#1D1D1B"/>
<path d="M425.003 330.353L422.921 329.002L423.071 328.77C423.132 328.804 423.22 328.852 423.337 328.916C423.454 328.981 423.54 329.017 423.598 329.03C423.689 329.048 423.765 329.043 423.829 329.015C423.894 328.988 423.954 328.93 424.011 328.843L426.185 325.492C426.235 325.416 426.264 325.344 426.273 325.279C426.282 325.211 426.254 325.133 426.187 325.039C426.139 324.971 426.073 324.894 425.989 324.806C425.905 324.719 425.833 324.653 425.772 324.607L425.922 324.376L428.005 325.728L427.855 325.959C427.785 325.918 427.7 325.874 427.598 325.827C427.496 325.78 427.402 325.746 427.318 325.723C427.219 325.695 427.137 325.702 427.069 325.743C427.002 325.784 426.947 325.839 426.9 325.912L424.728 329.259C424.682 329.331 424.656 329.405 424.652 329.48C424.647 329.556 424.674 329.635 424.729 329.717C424.763 329.764 424.824 329.831 424.914 329.919C425.005 330.006 425.084 330.075 425.155 330.123L425.005 330.354L425.003 330.353Z" fill="#1D1D1B"/>
<path d="M431.256 331.789C431.2 331.762 431.123 331.726 431.025 331.683C430.928 331.64 430.844 331.614 430.773 331.605C430.687 331.595 430.61 331.611 430.544 331.653C430.478 331.696 430.419 331.757 430.367 331.838L430.134 332.197C429.965 332.458 429.852 332.634 429.797 332.728C429.741 332.82 429.696 332.898 429.663 332.959C429.288 332.902 428.937 332.815 428.604 332.699C428.272 332.582 427.968 332.435 427.692 332.256C427.397 332.065 427.148 331.824 426.946 331.536C426.745 331.247 426.608 330.934 426.535 330.597C426.462 330.257 426.462 329.899 426.532 329.525C426.601 329.15 426.756 328.78 426.992 328.415C427.229 328.051 427.491 327.775 427.803 327.548C428.114 327.321 428.449 327.168 428.805 327.084C429.153 327 429.508 326.992 429.872 327.056C430.236 327.12 430.581 327.259 430.907 327.47C431.169 327.64 431.375 327.818 431.527 328.008C431.679 328.195 431.801 328.383 431.89 328.568L432.167 328.433L432.428 328.602L431.409 330.238L431.141 330.064C431.21 329.856 431.268 329.644 431.313 329.428C431.357 329.211 431.37 328.999 431.353 328.793C431.336 328.587 431.276 328.394 431.176 328.212C431.075 328.031 430.918 327.871 430.706 327.734C430.473 327.583 430.234 327.495 429.991 327.471C429.747 327.448 429.497 327.485 429.241 327.585C428.991 327.679 428.743 327.838 428.495 328.061C428.249 328.284 428.017 328.563 427.801 328.896C427.611 329.189 427.466 329.49 427.368 329.795C427.271 330.101 427.228 330.392 427.24 330.669C427.25 330.949 427.319 331.211 427.45 331.454C427.58 331.696 427.774 331.9 428.031 332.067C428.223 332.191 428.416 332.274 428.612 332.318C428.808 332.362 428.96 332.372 429.067 332.349C429.158 332.247 429.242 332.139 429.317 332.024C429.392 331.908 429.457 331.811 429.509 331.731L429.674 331.477C429.733 331.386 429.774 331.296 429.794 331.209C429.815 331.122 429.797 331.037 429.739 330.953C429.688 330.874 429.608 330.787 429.495 330.69C429.383 330.594 429.293 330.521 429.227 330.472L429.381 330.234L431.408 331.549L431.254 331.787L431.256 331.789Z" fill="#1D1D1B"/>
<path d="M438.022 332.556C437.959 332.519 437.856 332.475 437.708 332.426C437.56 332.377 437.449 332.352 437.372 332.351C437.258 332.354 437.138 332.425 437.012 332.561C436.884 332.699 436.744 332.884 436.59 333.122L434.392 336.509L434.108 336.325L433.761 330.72L432.212 333.106C432.039 333.374 431.922 333.59 431.863 333.755C431.803 333.921 431.789 334.057 431.82 334.161C431.839 334.242 431.913 334.354 432.043 334.496C432.173 334.638 432.262 334.727 432.311 334.762L432.161 334.993L430.264 333.763L430.414 333.532C430.475 333.565 430.589 333.608 430.752 333.66C430.915 333.712 431.024 333.734 431.08 333.726C431.196 333.714 431.308 333.655 431.417 333.549C431.527 333.442 431.679 333.238 431.875 332.936L433.353 330.657C433.418 330.558 433.465 330.446 433.497 330.323C433.527 330.2 433.53 330.093 433.507 330.001C433.475 329.878 433.41 329.749 433.308 329.611C433.208 329.473 433.117 329.375 433.037 329.317L433.187 329.086L434.508 329.944L434.819 335.157L436.246 332.957C436.421 332.688 436.538 332.47 436.598 332.303C436.656 332.136 436.67 332.007 436.635 331.917C436.601 331.837 436.528 331.732 436.416 331.603C436.303 331.474 436.213 331.384 436.144 331.334L436.294 331.103L438.175 332.323L438.025 332.554L438.022 332.556Z" fill="#1D1D1B"/>
<path d="M283.174 95.8168L135.511 0.00012207L-0.000479951 208.837L147.663 304.653L283.174 95.8168Z" fill="white"/>
<path d="M234.868 123.616L26.5087 167.983L60.3817 115.782L182.665 89.7426L168.053 21.1165L220.255 54.9894L234.868 123.616Z" fill="#133C3E"/>
<path d="M265.772 122.635L257.303 135.686L13.8235 187.533L22.2927 174.481L265.772 122.635Z" fill="#F3AF28"/>
<path d="M253.087 142.183L244.619 155.234L1.13985 207.079L9.60808 194.028L253.087 142.183Z" fill="#91CEC3"/>
<path d="M176.168 85.496L64.6207 109.249L73.0889 96.1986L163.118 77.0278L148.512 8.4366L161.563 16.9048L176.168 85.496Z" fill="#ED723D"/>
<path d="M113.974 208.219C114.08 208.472 114.129 208.743 114.119 209.032C114.109 209.321 114.009 209.616 113.815 209.913C113.622 210.211 113.382 210.438 113.106 210.575C112.829 210.713 112.538 210.787 112.234 210.793C111.937 210.801 111.636 210.756 111.329 210.663C111.023 210.569 110.732 210.432 110.456 210.253L107.369 208.25L107.581 207.924C107.658 207.966 107.774 208.022 107.928 208.093C108.082 208.164 108.198 208.206 108.277 208.219C108.4 208.237 108.504 208.223 108.591 208.177C108.677 208.131 108.758 208.052 108.831 207.939L111.871 203.254C111.939 203.149 111.981 203.047 111.997 202.943C112.013 202.842 111.986 202.731 111.913 202.615C111.851 202.508 111.772 202.407 111.675 202.309C111.578 202.211 111.492 202.135 111.421 202.079L111.632 201.752L114.641 203.705C114.873 203.855 115.081 204.023 115.265 204.208C115.448 204.393 115.599 204.604 115.716 204.847C115.827 205.071 115.881 205.313 115.879 205.572C115.877 205.832 115.788 206.093 115.618 206.355C115.469 206.585 115.296 206.763 115.096 206.888C114.897 207.014 114.682 207.093 114.447 207.124C114.226 207.155 113.999 207.154 113.762 207.12C113.525 207.086 113.285 207.023 113.045 206.933L113.018 206.974C113.19 207.116 113.37 207.298 113.554 207.52C113.738 207.742 113.88 207.977 113.976 208.221L113.974 208.219ZM113.502 206.514C113.7 206.456 113.872 206.363 114.019 206.236C114.165 206.108 114.308 205.936 114.447 205.721C114.68 205.362 114.765 205.017 114.701 204.686C114.638 204.356 114.395 204.053 113.974 203.78C113.876 203.716 113.752 203.64 113.601 203.548C113.45 203.455 113.322 203.378 113.22 203.316L111.592 205.824L112.174 206.202C112.424 206.364 112.66 206.471 112.881 206.523C113.101 206.575 113.309 206.573 113.503 206.515L113.502 206.514ZM112.789 209.01C113.039 208.624 113.116 208.223 113.018 207.808C112.921 207.391 112.631 207.028 112.15 206.715C111.954 206.588 111.787 206.484 111.649 206.4C111.512 206.317 111.409 206.256 111.339 206.214L109.849 208.511C109.724 208.704 109.707 208.9 109.8 209.099C109.893 209.298 110.078 209.488 110.357 209.669C110.814 209.966 111.248 210.058 111.663 209.949C112.078 209.839 112.453 209.526 112.789 209.008L112.789 209.01Z" fill="#1D1D1B"/>
<path d="M119.883 216.368L118.128 215.229C118.134 214.367 118.126 213.612 118.099 212.965C118.074 212.317 118.03 211.64 117.969 210.93L117.302 210.497L115.961 212.563C115.891 212.67 115.847 212.775 115.828 212.878C115.809 212.982 115.841 213.09 115.923 213.205C115.965 213.263 116.049 213.345 116.174 213.453C116.299 213.561 116.409 213.646 116.502 213.712L116.29 214.038L113.534 212.25L113.746 211.924C113.823 211.966 113.936 212.024 114.087 212.099C114.235 212.174 114.346 212.217 114.418 212.228C114.536 212.249 114.641 212.234 114.731 212.184C114.821 212.134 114.906 212.051 114.984 211.931L118.042 207.217C118.112 207.11 118.159 207.005 118.181 206.903C118.203 206.8 118.173 206.692 118.086 206.575C118.028 206.499 117.944 206.408 117.836 206.305C117.729 206.203 117.634 206.12 117.552 206.059L117.764 205.732L120.772 207.685C121.048 207.864 121.288 208.06 121.494 208.273C121.699 208.487 121.859 208.72 121.973 208.972C122.084 209.218 122.131 209.476 122.116 209.747C122.101 210.017 122.004 210.292 121.823 210.571C121.66 210.822 121.478 211.019 121.276 211.163C121.075 211.307 120.852 211.4 120.612 211.443C120.389 211.485 120.149 211.492 119.893 211.463C119.638 211.434 119.373 211.378 119.095 211.295C119.141 211.929 119.174 212.461 119.199 212.891C119.224 213.32 119.255 213.843 119.294 214.459C119.309 214.73 119.344 214.945 119.396 215.103C119.448 215.261 119.509 215.402 119.581 215.526C119.636 215.618 119.714 215.714 119.82 215.813C119.926 215.912 120.017 215.989 120.095 216.044L119.884 216.37L119.883 216.368ZM120.619 209.942C120.875 209.548 120.965 209.162 120.888 208.784C120.811 208.405 120.566 208.082 120.153 207.814L119.373 207.308L117.561 210.1L118.163 210.491C118.586 210.766 119.026 210.858 119.483 210.77C119.94 210.682 120.32 210.407 120.621 209.942L120.619 209.942Z" fill="#1D1D1B"/>
<path d="M129.128 214.202C129.221 214.69 129.211 215.197 129.099 215.727C128.985 216.256 128.763 216.778 128.428 217.293C128.094 217.809 127.705 218.227 127.266 218.543C126.827 218.859 126.362 219.069 125.876 219.175C125.401 219.284 124.922 219.296 124.443 219.211C123.963 219.125 123.51 218.945 123.084 218.669C122.631 218.376 122.267 218.02 121.994 217.599C121.719 217.179 121.544 216.729 121.465 216.247C121.381 215.771 121.399 215.269 121.517 214.743C121.634 214.216 121.85 213.711 122.164 213.227C122.508 212.697 122.897 212.279 123.331 211.971C123.766 211.664 124.226 211.452 124.714 211.338C125.197 211.224 125.68 211.212 126.164 211.3C126.648 211.388 127.1 211.567 127.516 211.837C127.932 212.107 128.302 212.463 128.58 212.873C128.859 213.284 129.041 213.726 129.129 214.201L129.128 214.202ZM125.446 218.38C125.798 218.212 126.127 217.978 126.433 217.676C126.739 217.374 127.034 217.007 127.316 216.572C127.598 216.137 127.829 215.686 127.984 215.257C128.14 214.826 128.218 214.425 128.221 214.052C128.221 213.683 128.142 213.342 127.982 213.032C127.823 212.722 127.578 212.461 127.251 212.248C126.884 212.01 126.516 211.891 126.15 211.893C125.784 211.895 125.427 211.983 125.082 212.16C124.754 212.33 124.435 212.571 124.125 212.884C123.816 213.197 123.532 213.552 123.273 213.95C122.987 214.391 122.768 214.815 122.617 215.223C122.467 215.63 122.388 216.027 122.38 216.414C122.371 216.791 122.443 217.136 122.594 217.451C122.747 217.766 122.997 218.035 123.347 218.262C123.674 218.475 124.019 218.59 124.382 218.607C124.746 218.625 125.097 218.55 125.442 218.382L125.446 218.38Z" fill="#1D1D1B"/>
<path d="M129.904 223.092C129.515 222.84 129.192 222.522 128.935 222.137C128.679 221.752 128.505 221.327 128.417 220.86C128.332 220.396 128.343 219.902 128.451 219.383C128.558 218.863 128.781 218.341 129.118 217.82C129.456 217.3 129.842 216.878 130.278 216.557C130.712 216.237 131.17 216.014 131.65 215.89C132.125 215.768 132.607 215.746 133.093 215.828C133.58 215.908 134.039 216.088 134.471 216.369C134.792 216.577 135.057 216.805 135.265 217.054C135.473 217.303 135.649 217.576 135.791 217.872L136.181 217.681L136.548 217.92L135.081 220.271L134.704 220.026C134.802 219.768 134.888 219.475 134.962 219.147C135.036 218.818 135.067 218.52 135.055 218.251C135.043 217.947 134.975 217.671 134.849 217.421C134.723 217.172 134.531 216.964 134.27 216.795C133.974 216.602 133.655 216.489 133.314 216.455C132.973 216.421 132.627 216.472 132.272 216.607C131.933 216.741 131.589 216.966 131.24 217.284C130.891 217.602 130.563 217.997 130.257 218.468C129.986 218.886 129.791 219.302 129.67 219.718C129.55 220.135 129.501 220.538 129.527 220.93C129.554 221.318 129.654 221.67 129.825 221.992C129.998 222.313 130.249 222.58 130.58 222.795C130.827 222.955 131.081 223.064 131.339 223.122C131.598 223.179 131.846 223.193 132.082 223.163C132.321 223.127 132.555 223.061 132.784 222.965C133.012 222.87 133.226 222.744 133.431 222.589L133.668 222.978C132.985 223.453 132.337 223.689 131.722 223.685C131.107 223.68 130.5 223.483 129.9 223.094L129.904 223.092Z" fill="#1D1D1B"/>
<path d="M139.924 229.372L137.219 227.617L137.43 227.29C137.507 227.333 137.62 227.392 137.768 227.47C137.914 227.548 138.022 227.593 138.091 227.601C138.207 227.624 138.31 227.612 138.402 227.565C138.494 227.519 138.578 227.434 138.655 227.314L140.16 224.995L137.096 223.006L135.623 225.275C135.554 225.383 135.513 225.484 135.501 225.58C135.489 225.677 135.516 225.786 135.585 225.909C135.619 225.97 135.693 226.059 135.809 226.172C135.924 226.286 136.018 226.37 136.093 226.422L135.881 226.749L133.175 224.993L133.387 224.667C133.464 224.709 133.576 224.768 133.724 224.847C133.871 224.925 133.979 224.97 134.047 224.977C134.163 225.001 134.266 224.988 134.358 224.941C134.449 224.894 134.534 224.81 134.612 224.691L137.664 219.987C137.728 219.889 137.766 219.786 137.779 219.679C137.793 219.571 137.764 219.464 137.696 219.354C137.639 219.261 137.561 219.16 137.464 219.053C137.365 218.946 137.276 218.861 137.195 218.799L137.406 218.473L140.112 220.228L139.9 220.554C139.813 220.502 139.699 220.447 139.56 220.391C139.42 220.336 139.313 220.299 139.237 220.281C139.109 220.25 139 220.266 138.909 220.328C138.818 220.391 138.739 220.474 138.674 220.574L137.362 222.596L140.427 224.584L141.709 222.609C141.772 222.511 141.81 222.408 141.823 222.301C141.837 222.194 141.808 222.086 141.74 221.976C141.683 221.883 141.605 221.783 141.509 221.675C141.41 221.569 141.32 221.484 141.239 221.421L141.451 221.095L144.156 222.85L143.944 223.177C143.857 223.124 143.743 223.07 143.604 223.014C143.464 222.958 143.357 222.921 143.281 222.903C143.153 222.872 143.044 222.888 142.953 222.951C142.862 223.013 142.784 223.096 142.718 223.196L139.669 227.895C139.6 228.002 139.559 228.104 139.547 228.2C139.535 228.296 139.562 228.405 139.631 228.529C139.665 228.59 139.739 228.678 139.854 228.792C139.97 228.906 140.064 228.99 140.139 229.042L139.927 229.368L139.924 229.372Z" fill="#1D1D1B"/>
<path d="M151.452 228.054C151.364 228.001 151.227 227.939 151.039 227.865C150.851 227.792 150.684 227.755 150.536 227.755C150.386 227.758 150.219 227.857 150.037 228.052C149.855 228.246 149.66 228.502 149.452 228.822L147.613 231.656C147.378 232.018 147.1 232.284 146.776 232.452C146.453 232.622 146.113 232.712 145.757 232.724C145.407 232.733 145.075 232.685 144.761 232.584C144.446 232.482 144.166 232.351 143.921 232.192C143.53 231.938 143.214 231.659 142.974 231.359C142.734 231.058 142.566 230.752 142.472 230.442C142.379 230.135 142.354 229.834 142.397 229.541C142.439 229.248 142.539 228.98 142.699 228.734L145.2 224.88C145.27 224.773 145.31 224.671 145.321 224.576C145.333 224.481 145.305 224.369 145.238 224.238C145.19 224.145 145.114 224.048 145.011 223.944C144.908 223.841 144.821 223.761 144.749 223.705L144.961 223.378L147.676 225.14L147.464 225.466C147.377 225.413 147.261 225.357 147.114 225.297C146.968 225.237 146.858 225.198 146.782 225.18C146.654 225.149 146.545 225.165 146.454 225.228C146.363 225.291 146.284 225.373 146.219 225.474L143.884 229.072C143.771 229.246 143.671 229.442 143.585 229.659C143.498 229.875 143.459 230.103 143.465 230.34C143.475 230.587 143.548 230.829 143.683 231.07C143.819 231.31 144.066 231.546 144.425 231.779C144.762 231.997 145.079 232.128 145.376 232.168C145.674 232.209 145.945 232.185 146.19 232.095C146.423 232.011 146.625 231.896 146.793 231.75C146.962 231.603 147.106 231.438 147.225 231.254L148.959 228.582C149.179 228.243 149.335 227.949 149.426 227.701C149.517 227.453 149.537 227.265 149.485 227.137C149.427 226.991 149.32 226.837 149.162 226.673C149.005 226.51 148.879 226.394 148.786 226.324L148.997 225.998L151.662 227.727L151.45 228.053L151.452 228.054Z" fill="#1D1D1B"/>
<path d="M154.307 238.705L152.552 237.566C152.558 236.705 152.55 235.95 152.523 235.303C152.498 234.654 152.454 233.977 152.393 233.267L151.726 232.834L150.385 234.9C150.315 235.008 150.27 235.112 150.251 235.216C150.233 235.319 150.265 235.427 150.347 235.542C150.388 235.6 150.473 235.682 150.598 235.79C150.723 235.898 150.833 235.983 150.926 236.049L150.714 236.376L147.958 234.587L148.17 234.261C148.247 234.303 148.36 234.361 148.511 234.436C148.659 234.511 148.77 234.554 148.842 234.566C148.96 234.586 149.064 234.571 149.155 234.521C149.245 234.472 149.33 234.388 149.408 234.268L152.466 229.555C152.536 229.447 152.583 229.342 152.604 229.24C152.627 229.137 152.597 229.029 152.51 228.913C152.451 228.836 152.368 228.745 152.26 228.642C152.153 228.54 152.058 228.457 151.976 228.396L152.188 228.07L155.196 230.022C155.472 230.201 155.712 230.397 155.918 230.61C156.123 230.824 156.283 231.057 156.397 231.309C156.508 231.555 156.555 231.814 156.54 232.084C156.525 232.354 156.427 232.629 156.247 232.908C156.083 233.159 155.902 233.356 155.7 233.5C155.499 233.644 155.276 233.737 155.036 233.78C154.813 233.823 154.573 233.829 154.317 233.8C154.061 233.772 153.796 233.716 153.518 233.632C153.564 234.266 153.598 234.798 153.623 235.228C153.647 235.657 153.679 236.18 153.718 236.796C153.733 237.067 153.767 237.283 153.82 237.44C153.872 237.598 153.933 237.74 154.005 237.864C154.059 237.955 154.138 238.051 154.244 238.15C154.349 238.249 154.441 238.326 154.519 238.381L154.307 238.707L154.307 238.705ZM155.043 232.28C155.299 231.885 155.389 231.499 155.312 231.121C155.235 230.742 154.99 230.42 154.577 230.151L153.797 229.645L151.985 232.438L152.587 232.828C153.01 233.103 153.45 233.195 153.907 233.107C154.364 233.019 154.744 232.744 155.045 232.279L155.043 232.28Z" fill="#1D1D1B"/>
<path d="M161.286 240.506L159.916 242.345L154.505 238.834L154.717 238.508C154.813 238.562 154.944 238.628 155.11 238.706C155.277 238.786 155.389 238.83 155.449 238.838C155.577 238.855 155.684 238.84 155.77 238.791C155.855 238.742 155.935 238.661 156.009 238.548L159.049 233.863C159.114 233.762 159.156 233.662 159.173 233.561C159.189 233.461 159.16 233.352 159.086 233.234C159.028 233.141 158.941 233.034 158.822 232.912C158.701 232.791 158.603 232.7 158.525 232.64L158.736 232.313L163.78 235.586L162.761 237.157L162.417 236.934C162.507 236.661 162.536 236.328 162.502 235.934C162.468 235.539 162.368 235.271 162.2 235.127C162.113 235.053 162.006 234.971 161.878 234.88C161.751 234.787 161.603 234.687 161.434 234.578L160.41 233.914L158.729 236.505L159.465 236.982C159.7 237.135 159.887 237.225 160.024 237.251C160.162 237.277 160.305 237.265 160.456 237.214C160.581 237.17 160.716 237.087 160.86 236.97C161.003 236.853 161.126 236.733 161.226 236.611L161.57 236.834L159.912 239.389L159.568 239.165C159.652 239.011 159.719 238.834 159.772 238.635C159.826 238.436 159.845 238.28 159.836 238.17C159.818 237.989 159.761 237.841 159.664 237.726C159.567 237.611 159.419 237.488 159.22 237.359L158.485 236.882L157.217 238.835C157.09 239.031 157.004 239.194 156.957 239.325C156.911 239.456 156.91 239.577 156.951 239.686C156.993 239.797 157.078 239.904 157.204 240.011C157.33 240.116 157.521 240.254 157.776 240.419L158.175 240.678C158.341 240.786 158.484 240.869 158.604 240.931C158.729 240.995 158.863 241.051 159.008 241.099C159.153 241.146 159.269 241.16 159.356 241.139C159.593 241.084 159.884 240.956 160.233 240.758C160.582 240.559 160.822 240.404 160.958 240.291L161.288 240.505L161.286 240.506Z" fill="#1D1D1B"/>
<path d="M137.773 237.341C137.547 237.689 137.285 237.95 136.989 238.121C136.692 238.292 136.384 238.392 136.069 238.419C135.751 238.444 135.434 238.412 135.117 238.323C134.801 238.232 134.502 238.095 134.221 237.914L132.522 236.811L132.655 236.606C132.711 236.642 132.788 236.684 132.883 236.73C132.98 236.778 133.047 236.803 133.085 236.809C133.16 236.823 133.225 236.811 133.283 236.779C133.34 236.747 133.393 236.696 133.438 236.626L135.357 233.668C135.4 233.603 135.427 233.537 135.439 233.47C135.451 233.404 135.434 233.333 135.388 233.261C135.346 233.193 135.297 233.13 135.236 233.072C135.176 233.013 135.121 232.966 135.073 232.929L135.207 232.724L136.999 233.887C137.245 234.047 137.463 234.243 137.653 234.474C137.843 234.705 137.985 234.942 138.078 235.186C138.207 235.514 138.251 235.861 138.208 236.227C138.165 236.593 138.022 236.964 137.777 237.34L137.773 237.341ZM137.065 236.88C137.244 236.606 137.368 236.333 137.44 236.063C137.511 235.792 137.529 235.529 137.496 235.272C137.465 235.028 137.383 234.799 137.249 234.582C137.114 234.367 136.928 234.181 136.691 234.027C136.612 233.976 136.522 233.919 136.421 233.858C136.32 233.796 136.244 233.751 136.195 233.721L134.151 236.871C134.037 237.046 134.008 237.2 134.068 237.335C134.126 237.469 134.262 237.604 134.473 237.741C134.718 237.899 134.959 237.994 135.199 238.026C135.439 238.059 135.665 238.035 135.878 237.955C136.102 237.871 136.311 237.739 136.503 237.563C136.695 237.386 136.883 237.158 137.065 236.878L137.065 236.88Z" fill="#1D1D1B"/>
<path d="M141.194 240.725L140.334 241.882L136.929 239.672L137.062 239.467C137.124 239.501 137.205 239.542 137.309 239.593C137.414 239.643 137.485 239.67 137.523 239.675C137.602 239.686 137.671 239.676 137.725 239.646C137.779 239.616 137.83 239.565 137.876 239.493L139.789 236.546C139.83 236.482 139.856 236.419 139.867 236.357C139.877 236.294 139.86 236.225 139.812 236.151C139.776 236.093 139.72 236.024 139.645 235.948C139.571 235.873 139.508 235.814 139.459 235.777L139.592 235.572L142.765 237.631L142.124 238.619L141.908 238.479C141.965 238.307 141.981 238.098 141.96 237.85C141.939 237.603 141.875 237.434 141.77 237.342C141.716 237.295 141.648 237.244 141.568 237.186C141.488 237.128 141.395 237.066 141.289 236.997L140.644 236.579L139.587 238.209L140.049 238.509C140.197 238.605 140.315 238.662 140.401 238.678C140.487 238.695 140.579 238.687 140.673 238.655C140.751 238.627 140.836 238.576 140.927 238.501C141.018 238.427 141.094 238.352 141.158 238.276L141.374 238.417L140.332 240.024L140.115 239.883C140.167 239.786 140.21 239.674 140.243 239.549C140.277 239.424 140.29 239.326 140.283 239.256C140.272 239.142 140.235 239.049 140.174 238.977C140.113 238.904 140.02 238.828 139.895 238.747L139.432 238.447L138.635 239.676C138.555 239.8 138.5 239.902 138.472 239.984C138.444 240.066 138.442 240.142 138.467 240.211C138.494 240.28 138.547 240.347 138.627 240.415C138.707 240.482 138.826 240.567 138.986 240.671L139.238 240.834C139.342 240.902 139.432 240.955 139.508 240.992C139.587 241.032 139.67 241.067 139.762 241.097C139.853 241.127 139.926 241.136 139.982 241.122C140.13 241.087 140.315 241.008 140.533 240.883C140.753 240.759 140.904 240.66 140.989 240.589L141.197 240.724L141.194 240.725Z" fill="#1D1D1B"/>
<path d="M144.601 241.979C144.626 242.132 144.622 242.278 144.587 242.42C144.553 242.562 144.489 242.708 144.391 242.86C144.156 243.222 143.829 243.435 143.408 243.496C142.988 243.557 142.58 243.459 142.183 243.202C142 243.082 141.836 242.936 141.689 242.759C141.543 242.583 141.429 242.413 141.349 242.245L141.089 242.375L140.857 242.225L141.728 240.794L141.962 240.946C141.897 241.151 141.852 241.345 141.826 241.525C141.799 241.706 141.8 241.892 141.828 242.082C141.854 242.262 141.913 242.427 142.002 242.582C142.091 242.736 142.226 242.87 142.403 242.985C142.536 243.071 142.663 243.129 142.785 243.159C142.907 243.188 143.019 243.191 143.121 243.167C143.224 243.143 143.319 243.098 143.404 243.032C143.49 242.965 143.569 242.876 143.641 242.764C143.748 242.6 143.801 242.418 143.8 242.216C143.799 242.015 143.732 241.818 143.596 241.626C143.503 241.494 143.395 241.347 143.272 241.18C143.149 241.016 143.047 240.868 142.965 240.737C142.801 240.484 142.71 240.23 142.692 239.979C142.674 239.727 142.753 239.466 142.928 239.195C143.03 239.039 143.155 238.913 143.307 238.82C143.458 238.727 143.626 238.664 143.813 238.635C143.99 238.607 144.172 238.615 144.361 238.657C144.551 238.698 144.728 238.773 144.894 238.881C145.083 239.003 145.233 239.141 145.345 239.297C145.457 239.451 145.549 239.607 145.623 239.765L145.869 239.644L146.1 239.794L145.24 241.17L145.006 241.019C145.065 240.835 145.115 240.654 145.154 240.479C145.193 240.301 145.208 240.127 145.198 239.957C145.188 239.792 145.145 239.637 145.069 239.493C144.993 239.348 144.867 239.22 144.694 239.108C144.511 238.989 144.318 238.947 144.112 238.982C143.907 239.015 143.749 239.117 143.639 239.287C143.529 239.457 143.47 239.637 143.477 239.808C143.484 239.979 143.542 240.152 143.653 240.33C143.748 240.488 143.85 240.636 143.953 240.774C144.058 240.911 144.155 241.05 144.245 241.188C144.328 241.313 144.403 241.442 144.468 241.574C144.534 241.707 144.579 241.841 144.602 241.978L144.601 241.979Z" fill="#1D1D1B"/>
<path d="M145.941 245.52L144.095 244.322L144.228 244.117C144.283 244.146 144.362 244.19 144.466 244.246C144.569 244.301 144.645 244.335 144.696 244.347C144.775 244.364 144.845 244.358 144.9 244.335C144.957 244.31 145.011 244.26 145.061 244.182L146.989 241.211C147.033 241.144 147.058 241.081 147.067 241.023C147.074 240.964 147.05 240.894 146.992 240.811C146.949 240.751 146.89 240.682 146.816 240.605C146.741 240.527 146.678 240.469 146.625 240.429L146.759 240.224L148.605 241.422L148.472 241.627C148.411 241.589 148.335 241.552 148.244 241.51C148.153 241.469 148.071 241.438 147.997 241.417C147.909 241.393 147.835 241.399 147.777 241.435C147.719 241.471 147.667 241.52 147.626 241.584L145.7 244.552C145.659 244.616 145.636 244.681 145.633 244.748C145.63 244.816 145.652 244.886 145.7 244.958C145.731 244.999 145.785 245.059 145.866 245.137C145.945 245.214 146.016 245.275 146.079 245.318L145.946 245.523L145.941 245.52Z" fill="#1D1D1B"/>
<path d="M151.484 246.793C151.434 246.768 151.366 246.737 151.28 246.699C151.195 246.661 151.119 246.637 151.057 246.629C150.981 246.621 150.913 246.634 150.855 246.672C150.796 246.709 150.743 246.764 150.698 246.835L150.491 247.153C150.341 247.384 150.241 247.541 150.192 247.623C150.142 247.705 150.103 247.774 150.072 247.829C149.741 247.779 149.428 247.701 149.133 247.599C148.839 247.495 148.57 247.365 148.325 247.206C148.063 247.036 147.843 246.824 147.664 246.567C147.484 246.311 147.365 246.034 147.3 245.735C147.235 245.432 147.234 245.116 147.296 244.784C147.359 244.452 147.495 244.125 147.705 243.801C147.915 243.477 148.147 243.232 148.423 243.033C148.7 242.833 148.996 242.695 149.312 242.622C149.621 242.548 149.935 242.54 150.258 242.596C150.58 242.653 150.887 242.777 151.175 242.964C151.406 243.114 151.589 243.273 151.724 243.44C151.859 243.606 151.966 243.772 152.047 243.937L152.293 243.816L152.524 243.966L151.62 245.416L151.383 245.263C151.445 245.078 151.496 244.889 151.535 244.698C151.575 244.506 151.586 244.318 151.571 244.136C151.556 243.955 151.503 243.783 151.415 243.621C151.325 243.461 151.187 243.319 150.997 243.196C150.79 243.062 150.58 242.985 150.363 242.964C150.147 242.944 149.925 242.976 149.698 243.064C149.475 243.147 149.257 243.288 149.038 243.486C148.818 243.683 148.614 243.93 148.423 244.225C148.254 244.484 148.126 244.751 148.039 245.021C147.953 245.291 147.914 245.55 147.925 245.795C147.934 246.044 147.996 246.276 148.111 246.491C148.227 246.706 148.399 246.887 148.626 247.034C148.796 247.145 148.968 247.219 149.142 247.259C149.315 247.298 149.449 247.306 149.545 247.286C149.625 247.195 149.698 247.1 149.766 246.999C149.832 246.897 149.89 246.811 149.936 246.74L150.082 246.515C150.134 246.434 150.17 246.355 150.189 246.279C150.208 246.202 150.192 246.126 150.141 246.052C150.095 245.982 150.024 245.905 149.925 245.819C149.826 245.734 149.745 245.67 149.687 245.626L149.824 245.416L151.621 246.582L151.484 246.793Z" fill="#1D1D1B"/>
<path d="M157.48 247.472C157.425 247.438 157.331 247.401 157.201 247.357C157.071 247.313 156.972 247.291 156.904 247.292C156.804 247.294 156.697 247.357 156.584 247.478C156.47 247.6 156.346 247.764 156.209 247.975L154.261 250.977L154.01 250.814L153.701 245.847L152.328 247.962C152.175 248.199 152.071 248.391 152.018 248.538C151.966 248.684 151.953 248.805 151.979 248.899C151.997 248.97 152.062 249.069 152.177 249.196C152.292 249.322 152.371 249.4 152.415 249.431L152.282 249.636L150.6 248.545L150.733 248.34C150.787 248.369 150.888 248.407 151.032 248.454C151.177 248.5 151.273 248.52 151.322 248.513C151.425 248.503 151.524 248.451 151.621 248.356C151.717 248.261 151.854 248.08 152.028 247.812L153.339 245.792C153.396 245.703 153.438 245.605 153.465 245.497C153.491 245.388 153.494 245.293 153.474 245.211C153.446 245.102 153.388 244.987 153.298 244.865C153.209 244.744 153.129 244.657 153.059 244.606L153.192 244.4L154.364 245.161L154.641 249.782L155.906 247.832C156.061 247.593 156.165 247.4 156.217 247.252C156.268 247.104 156.281 246.99 156.249 246.91C156.219 246.838 156.155 246.746 156.055 246.631C155.955 246.518 155.876 246.437 155.815 246.392L155.948 246.186L157.615 247.268L157.481 247.473L157.48 247.472Z" fill="#1D1D1B"/>
<path d="M442.177 122.817L294.514 27.0001L159.002 235.837L306.666 331.653L442.177 122.817Z" fill="white"/>
<path d="M371.987 77.2714L244.237 104.482L252.706 91.4297L358.936 68.8032L371.987 77.2714Z" fill="#ED723D"/>
<path d="M349.021 62.3693L259.144 81.509L267.612 68.4586L335.971 53.9011L349.021 62.3693Z" fill="#133C3E"/>
<path d="M320.197 295.459L299.661 327.108L290.435 321.122L316.957 280.248L320.197 295.459Z" fill="#133C3E"/>
<path d="M314.689 269.593L283.973 316.929L274.741 310.938L311.447 254.369L314.689 269.593Z" fill="#133C3E"/>
<path d="M401.285 133.148L409.731 172.813L440.951 124.701L401.285 133.148Z" fill="#ED723D"/>
<path d="M395.349 129.295L386.24 86.5203L381.929 83.7228L339.159 92.8326L349.025 139.16L395.349 129.295Z" fill="#F3AF28"/>
<path d="M438.123 120.187L392.177 90.3728L400.242 128.253L438.123 120.187Z" fill="#91CEC3"/>
<path d="M369.419 234.939L400.591 186.9L360.985 195.333L369.419 234.939Z" fill="#ED723D"/>
<path d="M350.065 144.054L359.943 190.437L404.443 180.962L405.878 178.752L396.389 134.19L350.065 144.054Z" fill="#133C3E"/>
<path d="M344.129 140.202L334.264 93.876L287.941 103.742L297.805 150.066L344.129 140.202Z" fill="#ED723D"/>
<path d="M360.231 249.098L320.686 257.519L329.106 297.065L360.231 249.098Z" fill="#91CEC3"/>
<path d="M345.171 145.096L298.848 154.96L308.725 201.344L355.048 191.48L345.171 145.096Z" fill="#91CEC3"/>
<path d="M364.084 243.16L365.565 240.877L356.089 196.376L309.765 206.24L319.642 252.624L364.084 243.16Z" fill="#F3AF28"/>
<path d="M234.3 189.311C234.421 189.596 234.474 189.901 234.465 190.227C234.454 190.554 234.339 190.886 234.122 191.22C233.905 191.555 233.633 191.811 233.321 191.967C233.008 192.124 232.68 192.205 232.337 192.212C232.003 192.221 231.662 192.172 231.317 192.066C230.971 191.959 230.643 191.806 230.332 191.604L226.848 189.344L227.087 188.976C227.175 189.023 227.306 189.086 227.479 189.168C227.653 189.248 227.784 189.296 227.873 189.31C228.013 189.331 228.13 189.316 228.228 189.264C228.326 189.211 228.417 189.122 228.5 188.994L231.93 183.708C232.006 183.591 232.053 183.473 232.072 183.358C232.091 183.242 232.059 183.119 231.978 182.987C231.908 182.869 231.818 182.754 231.709 182.643C231.599 182.533 231.503 182.445 231.421 182.383L231.661 182.015L235.055 184.217C235.318 184.388 235.552 184.577 235.76 184.785C235.967 184.992 236.136 185.232 236.268 185.505C236.393 185.758 236.454 186.031 236.452 186.323C236.449 186.615 236.351 186.911 236.157 187.208C235.989 187.468 235.794 187.668 235.568 187.81C235.343 187.951 235.101 188.039 234.836 188.075C234.587 188.11 234.33 188.107 234.063 188.069C233.796 188.031 233.527 187.961 233.254 187.857L233.224 187.903C233.419 188.065 233.619 188.27 233.828 188.52C234.037 188.771 234.196 189.035 234.305 189.312L234.3 189.311ZM233.767 187.388C233.991 187.323 234.185 187.217 234.35 187.073C234.515 186.929 234.675 186.736 234.832 186.494C235.095 186.088 235.191 185.7 235.12 185.326C235.049 184.953 234.776 184.612 234.3 184.303C234.19 184.232 234.05 184.145 233.879 184.041C233.708 183.938 233.566 183.852 233.45 183.78L231.614 186.609L232.27 187.036C232.553 187.219 232.819 187.339 233.067 187.398C233.316 187.455 233.55 187.452 233.768 187.387L233.767 187.388ZM232.962 190.203C233.245 189.768 233.331 189.316 233.221 188.846C233.11 188.376 232.784 187.966 232.241 187.614C232.02 187.47 231.831 187.352 231.676 187.258C231.52 187.165 231.403 187.095 231.324 187.05L229.643 189.641C229.502 189.858 229.483 190.08 229.587 190.304C229.692 190.529 229.901 190.744 230.215 190.947C230.73 191.282 231.221 191.386 231.689 191.263C232.158 191.139 232.58 190.786 232.96 190.201L232.962 190.203Z" fill="#1D1D1B"/>
<path d="M240.966 198.505L238.985 197.22C238.993 196.248 238.982 195.396 238.953 194.666C238.924 193.937 238.875 193.17 238.807 192.369L238.054 191.88L236.541 194.212C236.463 194.333 236.413 194.451 236.392 194.567C236.371 194.683 236.406 194.807 236.499 194.935C236.546 195 236.641 195.092 236.781 195.214C236.923 195.335 237.047 195.433 237.152 195.507L236.913 195.875L233.803 193.858L234.043 193.489C234.13 193.536 234.257 193.602 234.427 193.686C234.596 193.771 234.719 193.82 234.8 193.832C234.932 193.854 235.049 193.837 235.153 193.781C235.256 193.724 235.351 193.629 235.438 193.494L238.888 188.177C238.967 188.056 239.019 187.937 239.045 187.823C239.072 187.707 239.036 187.583 238.939 187.453C238.872 187.365 238.779 187.264 238.657 187.148C238.536 187.032 238.429 186.94 238.337 186.871L238.576 186.502L241.971 188.705C242.282 188.907 242.552 189.129 242.784 189.37C243.016 189.611 243.195 189.874 243.325 190.159C243.449 190.437 243.503 190.727 243.486 191.033C243.469 191.339 243.358 191.65 243.155 191.964C242.971 192.246 242.764 192.47 242.538 192.632C242.309 192.793 242.059 192.899 241.787 192.949C241.536 192.996 241.265 193.004 240.977 192.971C240.688 192.939 240.388 192.875 240.076 192.781C240.128 193.496 240.167 194.097 240.193 194.58C240.22 195.065 240.255 195.654 240.3 196.352C240.318 196.657 240.355 196.9 240.414 197.077C240.473 197.254 240.543 197.414 240.624 197.555C240.684 197.658 240.775 197.765 240.894 197.877C241.013 197.989 241.117 198.076 241.204 198.138L240.965 198.506L240.966 198.505ZM241.796 191.256C242.084 190.811 242.186 190.375 242.099 189.949C242.013 189.522 241.735 189.159 241.268 188.856L240.387 188.284L238.343 191.436L239.021 191.876C239.498 192.186 239.994 192.291 240.511 192.192C241.027 192.092 241.455 191.781 241.795 191.257L241.796 191.256Z" fill="#1D1D1B"/>
<path d="M251.397 196.06C251.502 196.609 251.491 197.184 251.363 197.78C251.236 198.378 250.984 198.966 250.607 199.546C250.23 200.127 249.79 200.6 249.295 200.955C248.799 201.312 248.276 201.548 247.727 201.669C247.19 201.793 246.651 201.806 246.11 201.71C245.568 201.613 245.057 201.409 244.577 201.098C244.066 200.766 243.655 200.364 243.346 199.889C243.037 199.416 242.837 198.908 242.75 198.364C242.655 197.828 242.675 197.261 242.809 196.668C242.941 196.074 243.186 195.504 243.539 194.959C243.928 194.36 244.367 193.888 244.857 193.541C245.347 193.195 245.868 192.957 246.418 192.827C246.963 192.699 247.509 192.685 248.055 192.784C248.601 192.884 249.109 193.086 249.58 193.391C250.05 193.696 250.467 194.096 250.78 194.56C251.093 195.024 251.299 195.523 251.398 196.059L251.397 196.06ZM247.242 200.773C247.638 200.584 248.011 200.32 248.357 199.98C248.703 199.64 249.035 199.224 249.353 198.733C249.672 198.242 249.933 197.733 250.107 197.247C250.282 196.762 250.37 196.309 250.374 195.889C250.374 195.472 250.285 195.089 250.104 194.738C249.924 194.388 249.65 194.093 249.28 193.853C248.865 193.584 248.451 193.451 248.037 193.453C247.624 193.455 247.221 193.555 246.833 193.753C246.463 193.946 246.103 194.217 245.754 194.57C245.406 194.923 245.085 195.324 244.794 195.773C244.471 196.27 244.225 196.748 244.055 197.207C243.884 197.667 243.794 198.115 243.788 198.551C243.776 198.976 243.858 199.365 244.03 199.72C244.201 200.075 244.484 200.38 244.879 200.636C245.248 200.876 245.637 201.007 246.048 201.026C246.457 201.046 246.855 200.961 247.245 200.771L247.242 200.773Z" fill="#1D1D1B"/>
<path d="M252.269 206.091C251.832 205.807 251.467 205.447 251.178 205.014C250.887 204.58 250.692 204.1 250.593 203.574C250.497 203.05 250.51 202.494 250.63 201.907C250.751 201.319 251.002 200.732 251.383 200.145C251.764 199.558 252.2 199.082 252.69 198.719C253.18 198.357 253.696 198.107 254.238 197.966C254.775 197.827 255.317 197.804 255.867 197.894C256.416 197.986 256.934 198.188 257.42 198.504C257.783 198.74 258.082 198.997 258.317 199.278C258.553 199.558 258.75 199.865 258.911 200.2L259.352 199.985L259.766 200.254L258.111 202.907L257.685 202.631C257.795 202.339 257.892 202.008 257.976 201.637C258.06 201.267 258.095 200.93 258.081 200.627C258.068 200.285 257.99 199.973 257.849 199.692C257.707 199.411 257.491 199.176 257.197 198.985C256.863 198.768 256.503 198.641 256.118 198.602C255.734 198.563 255.342 198.622 254.944 198.775C254.562 198.925 254.173 199.179 253.778 199.538C253.384 199.896 253.013 200.341 252.669 200.873C252.363 201.343 252.143 201.813 252.007 202.283C251.871 202.753 251.818 203.208 251.845 203.648C251.875 204.085 251.988 204.485 252.182 204.847C252.377 205.208 252.66 205.51 253.033 205.752C253.313 205.934 253.598 206.057 253.889 206.12C254.181 206.184 254.46 206.199 254.726 206.167C254.998 206.127 255.262 206.053 255.518 205.944C255.773 205.836 256.018 205.695 256.249 205.52L256.517 205.959C255.748 206.495 255.015 206.76 254.323 206.755C253.629 206.75 252.945 206.527 252.269 206.089L252.269 206.091Z" fill="#1D1D1B"/>
<path d="M263.577 213.177L260.525 211.196L260.764 210.828C260.851 210.875 260.978 210.942 261.144 211.03C261.311 211.119 261.431 211.168 261.508 211.178C261.638 211.204 261.756 211.19 261.859 211.137C261.963 211.084 262.058 210.989 262.145 210.855L263.843 208.238L260.386 205.994L258.725 208.554C258.646 208.675 258.6 208.79 258.586 208.899C258.572 209.007 258.604 209.131 258.68 209.269C258.718 209.338 258.803 209.437 258.933 209.567C259.064 209.696 259.171 209.79 259.255 209.849L259.015 210.217L255.963 208.237L256.202 207.868C256.29 207.915 256.416 207.982 256.583 208.071C256.749 208.159 256.87 208.209 256.947 208.218C257.077 208.244 257.194 208.23 257.298 208.177C257.402 208.125 257.496 208.03 257.584 207.895L261.028 202.587C261.099 202.477 261.142 202.36 261.156 202.24C261.171 202.12 261.14 201.997 261.062 201.873C260.997 201.768 260.91 201.655 260.8 201.533C260.689 201.413 260.588 201.317 260.496 201.247L260.735 200.879L263.788 202.86L263.549 203.228C263.449 203.169 263.321 203.108 263.164 203.044C263.006 202.98 262.885 202.938 262.799 202.918C262.656 202.883 262.532 202.901 262.43 202.972C262.328 203.043 262.239 203.135 262.165 203.25L260.685 205.53L264.143 207.773L265.589 205.545C265.66 205.435 265.703 205.318 265.717 205.197C265.732 205.077 265.701 204.955 265.623 204.831C265.558 204.725 265.471 204.613 265.361 204.491C265.249 204.37 265.149 204.274 265.056 204.204L265.295 203.836L268.347 205.816L268.108 206.185C268.009 206.126 267.881 206.064 267.723 206.001C267.566 205.937 267.444 205.895 267.359 205.874C267.215 205.839 267.092 205.857 266.99 205.928C266.888 205.999 266.798 206.092 266.724 206.206L263.284 211.509C263.205 211.63 263.159 211.745 263.145 211.853C263.131 211.962 263.163 212.085 263.239 212.224C263.277 212.293 263.362 212.392 263.492 212.521C263.623 212.65 263.73 212.745 263.814 212.803L263.574 213.171L263.577 213.177Z" fill="#1D1D1B"/>
<path d="M276.583 211.69C276.484 211.632 276.329 211.56 276.117 211.477C275.906 211.394 275.717 211.352 275.55 211.352C275.381 211.357 275.194 211.467 274.987 211.687C274.781 211.906 274.56 212.196 274.328 212.555L272.253 215.752C271.988 216.16 271.674 216.459 271.309 216.649C270.944 216.839 270.562 216.943 270.16 216.956C269.766 216.965 269.391 216.914 269.036 216.797C268.681 216.683 268.365 216.536 268.088 216.356C267.646 216.069 267.29 215.755 267.019 215.415C266.749 215.075 266.56 214.73 266.454 214.381C266.35 214.034 266.322 213.695 266.369 213.366C266.417 213.036 266.529 212.732 266.708 212.456L269.529 208.108C269.608 207.987 269.653 207.873 269.666 207.766C269.68 207.659 269.648 207.532 269.572 207.384C269.517 207.279 269.431 207.169 269.316 207.052C269.201 206.935 269.102 206.846 269.02 206.782L269.259 206.414L272.322 208.402L272.083 208.77C271.984 208.712 271.852 208.647 271.687 208.579C271.523 208.511 271.398 208.467 271.313 208.447C271.17 208.411 271.046 208.43 270.944 208.501C270.842 208.572 270.753 208.664 270.679 208.777L268.045 212.837C267.917 213.034 267.806 213.253 267.709 213.498C267.612 213.742 267.567 213.999 267.574 214.268C267.585 214.546 267.668 214.82 267.821 215.091C267.974 215.362 268.253 215.628 268.657 215.89C269.036 216.136 269.394 216.284 269.73 216.329C270.065 216.375 270.372 216.348 270.648 216.249C270.91 216.154 271.138 216.024 271.327 215.859C271.518 215.693 271.681 215.507 271.815 215.301L273.771 212.287C274.02 211.903 274.196 211.573 274.298 211.293C274.4 211.014 274.423 210.803 274.365 210.657C274.3 210.493 274.179 210.318 274.002 210.133C273.824 209.948 273.683 209.818 273.576 209.739L273.815 209.37L276.821 211.321L276.582 211.689L276.583 211.69Z" fill="#1D1D1B"/>
<path d="M279.805 223.707L277.824 222.422C277.832 221.45 277.821 220.598 277.792 219.868C277.763 219.139 277.714 218.372 277.646 217.571L276.893 217.082L275.38 219.414C275.301 219.535 275.252 219.653 275.231 219.769C275.21 219.885 275.245 220.009 275.338 220.136C275.385 220.202 275.479 220.294 275.62 220.416C275.762 220.537 275.886 220.635 275.991 220.709L275.752 221.077L272.642 219.06L272.881 218.691C272.969 218.738 273.096 218.804 273.266 218.888C273.435 218.973 273.558 219.022 273.639 219.034C273.771 219.056 273.89 219.04 273.992 218.983C274.095 218.926 274.189 218.831 274.277 218.696L277.727 213.379C277.806 213.258 277.858 213.139 277.884 213.025C277.911 212.909 277.875 212.785 277.778 212.655C277.711 212.567 277.618 212.466 277.496 212.35C277.374 212.234 277.268 212.142 277.176 212.073L277.415 211.704L280.81 213.907C281.121 214.109 281.391 214.331 281.623 214.572C281.855 214.813 282.034 215.076 282.163 215.361C282.288 215.639 282.342 215.929 282.325 216.235C282.308 216.541 282.197 216.852 281.993 217.166C281.81 217.448 281.603 217.672 281.376 217.834C281.15 217.996 280.898 218.101 280.626 218.15C280.375 218.198 280.103 218.205 279.815 218.173C279.527 218.141 279.227 218.077 278.915 217.983C278.966 218.698 279.005 219.299 279.032 219.782C279.059 220.267 279.094 220.856 279.139 221.553C279.157 221.859 279.194 222.102 279.253 222.279C279.312 222.456 279.382 222.616 279.463 222.757C279.523 222.86 279.614 222.967 279.733 223.079C279.852 223.191 279.956 223.278 280.043 223.34L279.804 223.708L279.805 223.707ZM280.635 216.458C280.923 216.013 281.025 215.577 280.938 215.151C280.851 214.724 280.574 214.361 280.107 214.058L279.226 213.486L277.181 216.638L277.86 217.078C278.337 217.388 278.833 217.493 279.349 217.394C279.866 217.294 280.294 216.983 280.634 216.459L280.635 216.458Z" fill="#1D1D1B"/>
<path d="M287.677 225.738L286.132 227.813L280.027 223.851L280.266 223.483C280.374 223.543 280.522 223.618 280.709 223.709C280.897 223.797 281.025 223.848 281.091 223.858C281.235 223.878 281.356 223.86 281.454 223.805C281.551 223.751 281.641 223.66 281.725 223.531L285.155 218.245C285.229 218.131 285.275 218.018 285.294 217.905C285.314 217.792 285.281 217.67 285.196 217.536C285.131 217.43 285.032 217.309 284.898 217.172C284.762 217.036 284.651 216.933 284.563 216.866L284.803 216.498L290.494 220.191L289.343 221.964L288.954 221.711C289.055 221.404 289.087 221.028 289.049 220.583C289.011 220.139 288.897 219.835 288.708 219.674C288.609 219.59 288.489 219.496 288.345 219.394C288.201 219.291 288.034 219.176 287.843 219.053L286.688 218.303L284.791 221.226L285.62 221.764C285.887 221.937 286.097 222.039 286.252 222.068C286.407 222.097 286.57 222.084 286.739 222.026C286.88 221.975 287.032 221.884 287.194 221.751C287.355 221.618 287.493 221.484 287.608 221.346L287.996 221.598L286.127 224.479L285.738 224.226C285.832 224.052 285.908 223.852 285.968 223.628C286.028 223.404 286.051 223.23 286.04 223.103C286.02 222.899 285.957 222.732 285.846 222.602C285.737 222.472 285.569 222.334 285.345 222.188L284.516 221.65L283.086 223.854C282.943 224.074 282.844 224.259 282.793 224.406C282.742 224.554 282.739 224.689 282.786 224.813C282.834 224.936 282.929 225.058 283.073 225.178C283.215 225.298 283.431 225.451 283.717 225.638L284.169 225.93C284.355 226.051 284.517 226.147 284.654 226.216C284.793 226.287 284.946 226.35 285.109 226.405C285.272 226.461 285.404 226.475 285.503 226.45C285.769 226.387 286.1 226.244 286.493 226.02C286.886 225.796 287.158 225.621 287.31 225.494L287.682 225.735L287.677 225.738Z" fill="#1D1D1B"/>
<path d="M226.661 199.789C226.406 200.182 226.111 200.476 225.775 200.669C225.439 200.863 225.094 200.975 224.737 201.006C224.378 201.036 224.021 200.999 223.663 200.899C223.306 200.796 222.969 200.643 222.651 200.437L220.734 199.193L220.884 198.962C220.947 199.002 221.033 199.051 221.142 199.104C221.25 199.157 221.326 199.187 221.368 199.193C221.452 199.207 221.527 199.195 221.59 199.159C221.657 199.123 221.713 199.065 221.764 198.988L223.929 195.65C223.977 195.577 224.008 195.502 224.02 195.427C224.034 195.353 224.013 195.274 223.963 195.191C223.916 195.114 223.86 195.043 223.791 194.977C223.722 194.91 223.661 194.858 223.608 194.815L223.757 194.584L225.779 195.896C226.058 196.077 226.303 196.298 226.517 196.558C226.73 196.818 226.89 197.086 226.996 197.362C227.142 197.731 227.19 198.122 227.142 198.536C227.092 198.949 226.931 199.367 226.656 199.792L226.661 199.789ZM225.864 199.27C226.065 198.96 226.207 198.652 226.286 198.348C226.365 198.044 226.388 197.748 226.351 197.457C226.317 197.182 226.223 196.922 226.071 196.679C225.918 196.435 225.71 196.226 225.442 196.052C225.352 195.994 225.252 195.931 225.137 195.862C225.024 195.792 224.937 195.74 224.883 195.708L222.577 199.262C222.449 199.459 222.417 199.634 222.483 199.785C222.549 199.936 222.701 200.089 222.94 200.244C223.216 200.423 223.489 200.53 223.759 200.567C224.029 200.603 224.285 200.575 224.525 200.484C224.778 200.389 225.013 200.242 225.231 200.042C225.45 199.842 225.66 199.584 225.864 199.27Z" fill="#1D1D1B"/>
<path d="M230.521 203.606L229.549 204.911L225.71 202.419L225.86 202.188C225.928 202.227 226.021 202.273 226.138 202.33C226.256 202.387 226.336 202.418 226.379 202.425C226.469 202.437 226.545 202.427 226.607 202.391C226.669 202.356 226.725 202.299 226.777 202.219L228.935 198.894C228.981 198.822 229.011 198.75 229.023 198.68C229.034 198.609 229.015 198.532 228.961 198.447C228.921 198.381 228.858 198.305 228.773 198.219C228.688 198.133 228.618 198.068 228.562 198.026L228.712 197.795L232.292 200.118L231.569 201.233L231.324 201.074C231.387 200.881 231.408 200.644 231.384 200.365C231.361 200.085 231.289 199.896 231.17 199.793C231.107 199.741 231.031 199.682 230.941 199.618C230.85 199.553 230.746 199.482 230.626 199.404L229.899 198.932L228.706 200.77L229.228 201.109C229.395 201.217 229.528 201.281 229.626 201.3C229.724 201.319 229.826 201.31 229.932 201.274C230.021 201.243 230.116 201.185 230.219 201.101C230.322 201.017 230.408 200.932 230.479 200.846L230.723 201.005L229.547 202.817L229.303 202.658C229.362 202.548 229.409 202.422 229.446 202.282C229.483 202.142 229.499 202.032 229.491 201.952C229.478 201.823 229.438 201.718 229.369 201.637C229.3 201.555 229.194 201.468 229.053 201.376L228.531 201.037L227.631 202.424C227.541 202.563 227.479 202.679 227.447 202.772C227.414 202.865 227.413 202.951 227.443 203.029C227.474 203.106 227.533 203.183 227.623 203.259C227.713 203.335 227.848 203.43 228.028 203.547L228.313 203.732C228.43 203.808 228.531 203.868 228.618 203.91C228.706 203.956 228.801 203.994 228.904 204.029C229.008 204.063 229.09 204.072 229.152 204.058C229.319 204.018 229.527 203.929 229.774 203.787C230.02 203.646 230.192 203.535 230.288 203.456L230.523 203.609L230.521 203.606Z" fill="#1D1D1B"/>
<path d="M234.367 205.021C234.394 205.193 234.389 205.358 234.351 205.519C234.313 205.678 234.24 205.845 234.129 206.016C233.863 206.425 233.494 206.663 233.02 206.732C232.547 206.802 232.086 206.69 231.639 206.4C231.432 206.266 231.246 206.099 231.081 205.901C230.916 205.703 230.788 205.51 230.698 205.322L230.403 205.469L230.142 205.299L231.124 203.685L231.388 203.857C231.315 204.088 231.264 204.306 231.234 204.51C231.205 204.716 231.205 204.924 231.235 205.139C231.265 205.34 231.331 205.528 231.433 205.702C231.534 205.876 231.685 206.028 231.885 206.158C232.034 206.255 232.178 206.321 232.315 206.354C232.452 206.387 232.58 206.39 232.695 206.365C232.811 206.337 232.917 206.287 233.014 206.212C233.111 206.138 233.199 206.037 233.281 205.91C233.401 205.726 233.462 205.519 233.461 205.291C233.461 205.063 233.384 204.841 233.231 204.624C233.126 204.477 233.005 204.309 232.867 204.123C232.729 203.937 232.612 203.77 232.519 203.623C232.334 203.336 232.231 203.051 232.21 202.768C232.19 202.484 232.278 202.189 232.477 201.882C232.591 201.707 232.733 201.565 232.904 201.46C233.075 201.354 233.265 201.284 233.475 201.25C233.674 201.22 233.88 201.227 234.094 201.276C234.307 201.323 234.508 201.407 234.695 201.528C234.909 201.667 235.078 201.823 235.204 201.998C235.33 202.172 235.434 202.348 235.517 202.525L235.794 202.39L236.055 202.559L235.085 204.111L234.821 203.94C234.887 203.734 234.942 203.53 234.987 203.329C235.032 203.13 235.048 202.934 235.038 202.742C235.026 202.555 234.977 202.38 234.891 202.218C234.805 202.056 234.664 201.91 234.47 201.784C234.263 201.65 234.044 201.603 233.813 201.64C233.581 201.679 233.403 201.793 233.279 201.983C233.156 202.174 233.088 202.379 233.097 202.572C233.105 202.765 233.171 202.96 233.294 203.161C233.403 203.341 233.516 203.507 233.633 203.662C233.751 203.817 233.861 203.972 233.962 204.129C234.056 204.27 234.139 204.415 234.215 204.565C234.289 204.715 234.34 204.866 234.365 205.02L234.367 205.021Z" fill="#1D1D1B"/>
<path d="M235.878 209.018L233.796 207.666L233.946 207.435C234.007 207.469 234.097 207.517 234.212 207.581C234.329 207.645 234.415 207.682 234.473 207.694C234.564 207.712 234.64 207.708 234.704 207.68C234.769 207.652 234.829 207.595 234.886 207.508L237.06 204.156C237.11 204.08 237.139 204.008 237.148 203.943C237.157 203.876 237.129 203.797 237.062 203.704C237.014 203.636 236.948 203.558 236.864 203.471C236.78 203.383 236.708 203.317 236.647 203.272L236.797 203.041L238.88 204.392L238.73 204.623C238.66 204.582 238.574 204.538 238.473 204.492C238.371 204.444 238.277 204.411 238.193 204.387C238.094 204.359 238.01 204.365 237.945 204.406C237.879 204.446 237.823 204.503 237.776 204.575L235.604 207.922C235.557 207.994 235.532 208.068 235.528 208.143C235.523 208.219 235.549 208.298 235.604 208.38C235.639 208.428 235.7 208.494 235.79 208.582C235.88 208.669 235.96 208.738 236.031 208.786L235.881 209.017L235.878 209.018Z" fill="#1D1D1B"/>
<path d="M242.13 210.452C242.074 210.426 241.997 210.389 241.899 210.347C241.802 210.303 241.718 210.278 241.647 210.268C241.56 210.259 241.484 210.275 241.418 210.317C241.352 210.359 241.293 210.421 241.241 210.501L241.008 210.86C240.838 211.121 240.726 211.297 240.671 211.391C240.614 211.484 240.57 211.561 240.536 211.623C240.162 211.565 239.811 211.478 239.478 211.363C239.146 211.246 238.842 211.099 238.566 210.92C238.271 210.728 238.021 210.487 237.819 210.2C237.619 209.911 237.482 209.598 237.41 209.262C237.337 208.921 237.336 208.563 237.407 208.189C237.476 207.815 237.631 207.444 237.868 207.08C238.104 206.715 238.366 206.439 238.678 206.213C238.989 205.988 239.324 205.832 239.68 205.748C240.028 205.665 240.383 205.656 240.747 205.72C241.111 205.784 241.456 205.923 241.782 206.135C242.044 206.304 242.25 206.483 242.402 206.672C242.554 206.86 242.676 207.047 242.765 207.232L243.042 207.097L243.303 207.266L242.284 208.902L242.016 208.728C242.085 208.52 242.143 208.309 242.188 208.092C242.232 207.875 242.245 207.664 242.228 207.458C242.211 207.252 242.151 207.058 242.051 206.877C241.95 206.696 241.793 206.536 241.581 206.398C241.348 206.247 241.109 206.16 240.865 206.135C240.621 206.112 240.371 206.148 240.115 206.249C239.864 206.343 239.617 206.501 239.369 206.725C239.122 206.947 238.891 207.226 238.675 207.559C238.484 207.853 238.34 208.153 238.242 208.459C238.144 208.764 238.102 209.056 238.114 209.332C238.123 209.613 238.193 209.874 238.323 210.117C238.454 210.36 238.648 210.564 238.905 210.73C239.097 210.855 239.29 210.938 239.486 210.982C239.681 211.025 239.833 211.035 239.941 211.012C240.032 210.911 240.116 210.803 240.191 210.687C240.266 210.572 240.33 210.475 240.382 210.395L240.547 210.14C240.607 210.049 240.647 209.96 240.667 209.872C240.689 209.786 240.671 209.7 240.613 209.617C240.562 209.537 240.481 209.45 240.368 209.354C240.256 209.258 240.167 209.184 240.1 209.135L240.255 208.897L242.282 210.213L242.127 210.451L242.13 210.452Z" fill="#1D1D1B"/>
<path d="M248.896 211.22C248.833 211.183 248.728 211.139 248.582 211.09C248.434 211.041 248.323 211.017 248.246 211.015C248.132 211.019 248.013 211.09 247.886 211.226C247.758 211.363 247.618 211.549 247.464 211.787L245.266 215.173L244.982 214.989L244.635 209.385L243.086 211.771C242.913 212.039 242.796 212.255 242.737 212.419C242.678 212.584 242.663 212.721 242.694 212.826C242.713 212.906 242.787 213.018 242.917 213.16C243.047 213.303 243.136 213.391 243.185 213.427L243.035 213.658L241.138 212.427L241.288 212.196C241.349 212.23 241.463 212.272 241.626 212.324C241.789 212.376 241.898 212.399 241.953 212.392C242.069 212.38 242.181 212.321 242.29 212.215C242.4 212.108 242.552 211.903 242.748 211.602L244.227 209.323C244.292 209.222 244.339 209.112 244.37 208.989C244.4 208.865 244.403 208.759 244.38 208.667C244.348 208.544 244.283 208.415 244.182 208.276C244.082 208.137 243.991 208.04 243.911 207.982L244.061 207.751L245.382 208.608L245.693 213.822L247.12 211.622C247.295 211.353 247.412 211.135 247.472 210.967C247.53 210.8 247.544 210.672 247.509 210.582C247.475 210.501 247.402 210.396 247.29 210.268C247.177 210.138 247.087 210.049 247.019 209.999L247.169 209.767L249.049 210.988L248.899 211.219L248.896 211.22Z" fill="#1D1D1B"/>
</svg>
