<svg width="40" height="40" viewBox="0 0 40 40" fill="none" xmlns="http://www.w3.org/2000/svg">
<path d="M28.7297 23.9859L34.5613 29.8174C35.1931 30.4493 35.5433 31.2904 35.5433 32.1879C35.5433 33.0853 35.1931 33.9265 34.5613 34.5583C33.9294 35.1902 33.0843 35.5403 32.1908 35.5403C31.2974 35.5403 30.4522 35.1902 29.8204 34.5583L23.9888 28.7268C23.357 28.0949 23.0068 27.2498 23.0068 26.3563C23.0068 25.4629 23.357 24.6177 23.9888 23.9859C25.2968 22.6779 27.4218 22.6779 28.7297 23.9859Z" fill="#FFA14A"/>
<path d="M13.6459 16.9954C12.7524 16.9954 11.9113 16.6452 11.2754 16.0134L5.44387 10.1818C4.1359 8.87387 4.1359 6.74892 5.44387 5.44094C6.75185 4.13297 8.8768 4.13297 10.1848 5.44094L16.0163 11.2725C16.6482 11.9043 16.9983 12.7495 16.9983 13.6429C16.9983 14.5364 16.6482 15.3815 16.0163 16.0134C15.3845 16.6452 14.5433 16.9954 13.6459 16.9954Z" fill="#FFA14A"/>
<path d="M28.6851 21.028C27.1719 21.028 25.8398 20.0058 25.4494 18.5449C25.216 17.6796 25.3367 16.7781 25.7835 16.0014C26.2302 15.2246 26.9546 14.6692 27.8199 14.4398L35.7844 12.3068C36.6497 12.0734 37.5512 12.1942 38.3279 12.6409C39.1047 13.0876 39.6601 13.812 39.8895 14.6773C40.3684 16.4602 39.3059 18.3034 37.519 18.7823L29.5544 20.9153C29.2727 20.9918 28.9789 21.028 28.6851 21.028Z" fill="#FFA14A"/>
<path d="M2.48532 21.2206L10.4499 19.0876C11.3152 18.8542 12.2166 18.9749 12.9934 19.4216C13.7701 19.8684 14.3215 20.5928 14.5549 21.4581C15.0338 23.2409 13.9713 25.0842 12.1845 25.5631L4.2199 27.6961C3.93818 27.7726 3.64439 27.8088 3.3506 27.8088C1.83737 27.8088 0.505252 26.7865 0.114872 25.3216C-0.364048 23.5387 0.698429 21.6955 2.48532 21.2166V21.2206Z" fill="#FFA14A"/>
<path d="M19.4251 12.9949C18.9783 12.2182 18.8576 11.3167 19.091 10.4514L21.224 2.48687C21.4574 1.62159 22.0088 0.897174 22.7855 0.45045C23.5623 0.00372684 24.4638 -0.117009 25.3291 0.116414C26.1943 0.349837 26.9187 0.901198 27.3655 1.67793C27.8122 2.45467 27.9329 3.35616 27.6995 4.22144L25.5665 12.186C25.1761 13.6469 23.844 14.6691 22.3308 14.6691C22.037 14.6691 21.7432 14.6289 21.4615 14.5564C20.5962 14.323 19.8718 13.7717 19.4251 12.9949Z" fill="#FFA14A"/>
<path d="M14.438 27.8174C14.6715 26.9522 15.2228 26.2277 15.9996 25.781C16.7763 25.3343 17.6778 25.2136 18.5431 25.447C20.33 25.9259 21.3924 27.7691 20.9135 29.552L18.7805 37.5166C18.3901 38.9815 17.058 39.9997 15.5448 39.9997C15.255 39.9997 14.9612 39.9595 14.6755 39.883C12.8926 39.4041 11.8261 37.5608 12.305 35.778L14.438 27.8134V27.8174Z" fill="#FFA14A"/>
</svg>
