<svg width="60" height="60" viewBox="0 0 60 60" fill="none" xmlns="http://www.w3.org/2000/svg">
<path d="M59.7675 44.2153C58.7636 46.6453 44.6682 42.5863 39.7213 41.1013C40.2087 43.5193 43.2643 59.0038 40.2874 59.9541C37.1167 60.9659 28.8549 44.936 27.8968 43.0603C21.8228 51.9351 15.1864 60.4934 12.8237 59.2873C11.7105 58.7188 10.8355 55.6183 15.2884 40.598C6.03138 42.932 0.977378 43.2665 0.12861 41.6015C-0.893555 39.5975 4.1772 34.6955 15.3431 26.8955C11.8584 24.7085 3.54773 19.2282 4.47081 16.5402C5.64378 13.1224 21.0834 16.1547 23.7389 16.6894C25.4758 6.97464 28.6035 -0.156394 31.4165 0.00260707C34.3453 0.168358 37.4176 8.26314 38.5665 19.7262C39.5581 19.2919 57.5906 11.4784 59.7777 14.8264C61.2778 17.1229 55.045 24.2465 45.2977 32.3052C50.034 35.204 60.6935 41.9713 59.7668 44.2153H59.7675Z" fill="#FFA14A"/>
</svg>
