<svg width="361" height="195" viewBox="0 0 361 195" fill="none" xmlns="http://www.w3.org/2000/svg">
<path d="M259.671 156.551V138.328C259.671 123.237 269.442 111.171 269.795 97.5925C270.183 83.1344 278.296 72.1588 291.312 59.1782C306.269 44.2628 319.32 34.0964 328.915 24.9501C336.604 17.6331 351.525 -7.55425 359.356 2.2252C367.187 12.0047 345.07 22.3469 334.382 30.3323C321.013 40.2877 295.404 60.8668 299.531 75.1138C303.165 87.7075 313.535 67.9023 318.967 75.2897C324.364 82.6067 298 96.0636 298 126L298 195H87.8857C68.9434 195 63.6876 190.427 54.5515 181.984C39.7011 168.23 24.3568 193.206 7.53094 180.683C-8.76576 168.581 3.22748 148.565 25.9088 125.946C48.9429 102.975 82.7004 70.7869 93.1063 56.8916C106.017 39.6897 115.647 23.7189 124.465 31.4932C132.613 38.6695 109.438 56.2584 97.6919 65.3695C85.9456 74.4806 40.5476 118.805 34.6568 131.504C29.1893 143.324 45.4508 152.681 61.1125 138.997C76.7743 125.313 84.7463 104.206 94.4467 109.025C106.193 114.9 76.8096 131.187 72.8941 140.298C68.9787 149.41 76.8096 156.586 92.5066 156.586H259.742L259.671 156.551Z" fill="url(#paint0_linear_298_254)"/>
<defs>
<linearGradient id="paint0_linear_298_254" x1="338.333" y1="-18.8112" x2="73.4444" y2="246.768" gradientUnits="userSpaceOnUse">
<stop stop-color="#FF0055"/>
<stop offset="1" stop-color="#8C00FF"/>
</linearGradient>
</defs>
</svg>
