<svg width="64" height="38" viewBox="0 0 64 38" fill="none" xmlns="http://www.w3.org/2000/svg">
<path d="M24.0408 33.3845V36H2V33.3845C2 26.884 6.93353 21.6152 13.0203 21.6152C19.1067 21.6152 24.0408 26.8826 24.0408 33.3845Z" stroke="#001D08" stroke-width="2.5" stroke-miterlimit="10" stroke-linecap="round" stroke-linejoin="round"/>
<path d="M19.1433 15.077C19.1433 18.6881 16.4022 21.6153 13.0209 21.6153C9.63953 21.6153 6.89844 18.688 6.89844 15.077C6.89844 11.4657 9.63965 8.53833 13.0209 8.53833C16.4022 8.53833 19.1433 11.4657 19.1433 15.077Z" stroke="#001D08" stroke-width="2.5" stroke-miterlimit="10" stroke-linecap="round" stroke-linejoin="round"/>
<path d="M61.9998 33.3845V36H39.959V33.3845C39.959 26.9014 44.8769 21.6152 50.9795 21.6152C57.0659 21.6152 61.9998 26.8825 61.9998 33.3845Z" stroke="#001D08" stroke-width="2.5" stroke-miterlimit="10" stroke-linecap="round" stroke-linejoin="round"/>
<path d="M57.1013 15.077C57.1013 18.6881 54.3601 21.6153 50.9789 21.6153C47.5975 21.6153 44.8564 18.688 44.8564 15.077C44.8564 11.4657 47.5975 8.53833 50.9789 8.53833C54.3601 8.53833 57.1013 11.4657 57.1013 15.077Z" stroke="#001D08" stroke-width="2.5" stroke-miterlimit="10" stroke-linecap="round" stroke-linejoin="round"/>
<path d="M21.0684 25.3449C21.754 19.5613 26.3849 15.0769 31.9993 15.0769C37.6027 15.0769 42.2406 19.547 42.9315 25.3449" stroke="#001D08" stroke-width="2.5" stroke-miterlimit="10" stroke-linecap="round" stroke-linejoin="round"/>
<path d="M40.5862 29.4617H23.4141" stroke="#001D08" stroke-width="2.5" stroke-miterlimit="10" stroke-linecap="round" stroke-linejoin="round"/>
<path d="M38.1218 8.53837C38.1218 12.1495 35.3807 15.077 31.9994 15.077C28.618 15.077 25.877 12.1494 25.877 8.53837C25.877 4.92725 28.618 2 31.9994 2C35.3807 1.99987 38.1218 4.92725 38.1218 8.53837Z" stroke="#001D08" stroke-width="2.5" stroke-miterlimit="10" stroke-linecap="round" stroke-linejoin="round"/>
</svg>
