<svg width="410" height="339" viewBox="0 0 410 339" fill="none" xmlns="http://www.w3.org/2000/svg">
<g opacity="0.5">
<path d="M282.829 76.1095C282.829 76.1095 282.822 76.1901 282.808 76.1987C282.797 76.1489 282.807 76.1043 282.829 76.1095Z" fill="#FF3D00"/>
<path d="M281.811 77.1184C281.413 77.4217 280.667 77.8651 280.282 78.0663C280.225 78.158 280.242 78.1853 280.305 78.1651C279.902 78.4905 277.541 80.3512 277.07 77.8844C276.901 77.6113 280.134 75.5121 280.872 75.0551C282.421 74.9637 280.517 73.2339 282.737 76.2042C282.806 76.0103 281.814 77.1542 281.819 77.1321L281.811 77.1184Z" fill="#FF3D00"/>
<path d="M271.044 87.5522C271.044 87.5522 271.032 87.6552 271.008 87.7083C270.987 87.6447 271.012 87.5916 271.044 87.5522Z" fill="#FF3D00"/>
<path d="M269.534 89.9628C268.872 90.8456 267.923 92.0577 267.311 92.7773C267.234 92.9575 267.251 92.9848 267.329 92.8983C267.259 92.9985 267.221 93.0596 267.126 93.1189L267.153 93.1019C267.344 92.9835 263.506 98.4054 262.923 95.4223C262.948 95.4633 263.164 94.9891 262.913 95.3151C264.119 93.0552 266.285 89.842 268.256 87.9016L268.243 87.91C270.16 86.5516 268.158 86.0353 270.891 87.7613C271.013 87.44 269.484 89.7293 269.521 89.9712L269.534 89.9628Z" fill="#FF3D00"/>
<path d="M259.437 106.258C259.437 106.258 259.447 106.365 259.431 106.431C259.397 106.377 259.399 106.319 259.437 106.258Z" fill="#FF3D00"/>
<path d="M258.413 108.934C257.943 109.943 257.238 111.306 256.765 112.128C256.732 112.319 256.749 112.346 256.819 112.246C256.771 112.352 256.742 112.426 256.655 112.499L256.682 112.482C256.916 112.281 253.986 118.406 252.966 115.542C253.006 115.574 253.125 115.066 252.943 115.443C253.701 113.008 255.222 109.457 256.764 107.159C258.354 105.456 256.32 105.375 259.336 106.491C259.392 106.154 258.34 108.695 258.435 108.939L258.413 108.934Z" fill="#FF3D00"/>
<path d="M251.484 126.836C251.484 126.836 251.516 126.948 251.505 126.993C251.472 126.938 251.446 126.897 251.484 126.836Z" fill="#FF3D00"/>
<path d="M246.925 137.164L246.936 137.118C246.936 137.118 246.939 137.155 246.925 137.164Z" fill="#FF3D00"/>
<path d="M250.999 129.65C250.722 130.728 250.295 132.202 250.002 133.102C250.005 133.289 250.03 133.33 250.07 133.211C250.044 133.322 250.028 133.388 249.972 133.48L249.955 133.452C250.158 133.232 248.601 139.772 246.982 137.223C247.035 137.247 247.039 136.734 246.923 137.127C247.132 134.598 247.941 130.752 249.036 128.221C250.277 126.261 248.245 126.519 251.427 127.079C251.419 126.762 250.86 129.395 250.999 129.65Z" fill="#FF3D00"/>
<path d="M248.397 148.497C248.397 148.497 248.456 148.592 248.482 148.633C248.434 148.587 248.409 148.546 248.397 148.497Z" fill="#FF3D00"/>
<path d="M248.828 151.234C248.984 152.308 249.171 153.799 249.242 154.737C249.317 154.918 249.361 154.928 249.356 154.799C249.374 154.92 249.395 154.983 249.369 155.093L249.352 155.066C249.352 155.066 250.896 161.063 248.354 159.766C248.412 159.768 248.16 159.301 248.262 159.71C247.249 157.466 246.318 153.281 246.499 150.617L246.516 150.645C246.998 148.343 245.284 149.236 248.414 148.769C248.293 148.39 248.675 151.139 248.845 151.261L248.828 151.234Z" fill="#FF3D00"/>
<path d="M256.974 167.027C256.974 167.027 257.09 167.031 257.134 167.041C257.08 167.075 257.027 167.051 256.974 167.027Z" fill="#FF3D00"/>
<path d="M266.931 172.022L266.885 172.012C266.885 172.012 266.922 172.008 266.931 172.022Z" fill="#FF3D00"/>
<path d="M259.439 168.106C260.398 168.494 261.758 169.011 262.603 169.338C262.776 169.344 262.817 169.318 262.712 169.27C262.823 169.296 262.889 169.312 262.981 169.368L262.953 169.385C262.858 169.293 268.998 170.173 266.982 171.952C266.993 171.908 266.465 171.97 266.887 172.011C265.85 172.106 264.765 172.003 263.558 171.732C261.494 171.329 259.471 170.656 257.7 169.751C256.024 168.145 255.73 169.895 257.194 167.136C256.734 167.005 259.407 168.145 259.453 168.097L259.439 168.106Z" fill="#FF3D00"/>
<path d="M277.203 167.164C277.203 167.164 277.252 167.059 277.292 167.034C277.277 167.1 277.258 167.131 277.203 167.164Z" fill="#FF3D00"/>
<path d="M285.323 159.808L285.312 159.853C285.312 159.853 285.331 159.822 285.323 159.808Z" fill="#FF3D00"/>
<path d="M279.185 165.483C279.886 164.784 280.853 163.693 281.405 163.03C281.469 162.858 281.452 162.831 281.374 162.917C281.43 162.825 281.476 162.778 281.572 162.719L281.544 162.736C281.544 162.736 284.193 157.314 285.289 159.753C285.25 159.72 285.147 160.256 285.321 159.865C285.068 160.891 284.672 161.836 284.002 162.95C282.993 164.615 281.691 166.783 279.965 167.778L279.992 167.761C277.788 168.655 278.914 169.223 277.417 167.052C277.089 167.406 279.219 165.538 279.194 165.497L279.185 165.483Z" fill="#FF3D00"/>
<path d="M283.401 147.715C283.401 147.715 283.317 147.672 283.3 147.645C283.358 147.646 283.397 147.679 283.401 147.715Z" fill="#FF3D00"/>
<path d="M282.061 145.767C281.515 145.009 280.755 143.874 280.323 143.178C280.184 143.075 280.148 143.078 280.207 143.174C280.157 143.092 280.109 143.046 280.072 142.956L280.089 142.983C280.073 142.804 276.104 139.237 278.812 138.729C278.771 138.754 279.205 138.996 278.92 138.719C280.746 139.836 283.574 142.996 284.391 145.229C284.869 147.37 285.699 146.27 283.331 147.511C283.563 147.764 282.239 145.75 282.079 145.736L282.061 145.767Z" fill="#FF3D00"/>
<path d="M267.878 135.663C267.878 135.663 267.766 135.695 267.721 135.685C267.776 135.651 267.825 135.639 267.878 135.663Z" fill="#FF3D00"/>
<path d="M257.261 131.89L257.307 131.901C257.307 131.901 257.279 131.918 257.261 131.89Z" fill="#FF3D00"/>
<path d="M265.122 135.18C264.064 134.967 262.585 134.655 261.692 134.434C261.514 134.45 261.473 134.476 261.592 134.515C261.467 134.498 261.41 134.496 261.318 134.439L261.345 134.422C261.649 134.669 254.96 133.694 257.232 131.965C257.208 132.017 257.736 131.954 257.328 131.905C259.7 131.739 264.183 132.02 266.528 133.212L266.515 133.221C268.488 134.453 268.291 132.459 267.657 135.612C268.161 135.601 265.163 135.155 265.158 135.177L265.122 135.18Z" fill="#FF3D00"/>
<path d="M245.136 136.288C245.136 136.288 245.094 136.371 245.053 136.396C245.068 136.33 245.087 136.3 245.136 136.288Z" fill="#FF3D00"/>
<path d="M242.977 137.438C242.112 137.842 240.88 138.322 240.101 138.56C239.964 138.644 239.963 138.702 240.075 138.67C239.993 138.721 239.922 138.728 239.828 138.729L239.855 138.712C239.855 138.712 234.707 141.167 235.58 138.339C235.592 138.388 235.949 138.11 235.614 138.242C237.314 137.113 240.589 135.536 242.788 135.061L242.775 135.069C244.82 134.954 243.73 133.929 244.934 136.357C245.181 136.147 243.027 137.275 242.982 137.416L242.977 137.438Z" fill="#FF3D00"/>
<path d="M226.848 145.681C226.848 145.681 226.792 145.773 226.759 145.812C226.775 145.746 226.807 145.707 226.848 145.681Z" fill="#FF3D00"/>
<path d="M224.447 147.264C223.739 147.646 222.275 148.913 221.376 148.865C221.53 148.808 221.06 148.873 221.184 148.89C221.037 149.019 221.027 149.063 221.144 149.009C221.035 149.077 220.981 149.111 220.865 149.107L220.892 149.09C221.319 149.109 214.925 152.053 216.106 149.204C216.118 149.253 216.516 148.95 216.154 149.098C218.185 147.65 221.594 145.802 224.134 144.87L224.106 144.886C226.416 144.437 224.737 143.191 226.621 145.803C226.865 145.557 224.504 147.021 224.433 147.273L224.447 147.264Z" fill="#FF3D00"/>
<path d="M207.237 156.326C207.237 156.326 207.181 156.418 207.126 156.451C207.142 156.385 207.174 156.346 207.237 156.326Z" fill="#FF3D00"/>
<path d="M204.712 157.74C203.684 158.245 202.265 158.823 201.324 159.103C201.16 159.205 201.158 159.263 201.285 159.222C201.167 159.277 201.104 159.297 200.997 159.307L201.024 159.29C201.366 159.323 194.918 161.847 196.268 159.025C196.266 159.083 196.686 158.785 196.325 158.934C198.457 157.649 201.963 156.08 204.564 155.337L204.55 155.346C206.855 155.07 205.331 153.709 207.023 156.439C207.304 156.19 204.813 157.507 204.726 157.732L204.712 157.74Z" fill="#FF3D00"/>
<path d="M186.506 164.89C186.506 164.89 186.427 164.977 186.378 164.989C186.402 164.936 186.434 164.897 186.506 164.89Z" fill="#FF3D00"/>
<path d="M183.751 165.841C182.634 166.174 181.154 166.468 180.136 166.532C179.955 166.607 179.945 166.651 180.065 166.632C179.945 166.651 179.873 166.657 179.771 166.645L179.798 166.628C180.186 166.766 173.191 167.644 175.208 165.26C175.206 165.318 175.672 165.123 175.287 165.173C177.717 164.46 181.348 163.702 184.057 163.44L184.03 163.456C186.299 163.58 185.053 162.028 186.267 164.961C186.54 164.792 183.929 165.579 183.751 165.841Z" fill="#FF3D00"/>
<path d="M164.318 168.573C164.318 168.573 164.223 168.632 164.173 168.644C164.219 168.596 164.269 168.585 164.318 168.573Z" fill="#FF3D00"/>
<path d="M153.44 165.812L153.486 165.823C153.486 165.823 153.458 165.84 153.44 165.812Z" fill="#FF3D00"/>
<path d="M161.408 168.848C160.606 168.835 158.616 169.161 157.903 168.62C158.072 168.648 157.65 168.456 157.737 168.535C157.544 168.56 157.503 168.585 157.636 168.616C157.512 168.599 157.432 168.592 157.349 168.549L157.376 168.532C157.768 168.799 150.66 167.574 153.403 165.873C153.379 165.926 153.889 165.894 153.499 165.814C156.076 165.917 159.575 166.167 162.325 166.578L162.298 166.595C164.429 167.258 163.696 165.407 164.082 168.588C164.109 168.572 162.109 168.791 161.421 168.839L161.408 168.848Z" fill="#FF3D00"/>
<path d="M142.092 164.665C142.092 164.665 141.977 164.661 141.924 164.637C141.979 164.603 142.045 164.619 142.092 164.665Z" fill="#FF3D00"/>
<path d="M139.403 163.253C138.715 162.753 136.921 161.749 136.695 160.774C136.796 160.938 136.594 160.459 136.62 160.594C136.45 160.472 136.415 160.475 136.482 160.585C136.387 160.492 136.345 160.424 136.299 160.32L136.316 160.347C136.432 160.748 132.291 154.585 135.716 155.599C135.666 155.61 135.98 155.964 135.813 155.633C137.417 157.794 138.959 160.221 141.382 161.874C142.782 163.614 143.165 161.487 141.839 164.501C141.839 164.501 140 163.638 139.386 163.225L139.403 163.253Z" fill="#FF3D00"/>
<path d="M132.574 145.017C132.574 145.017 132.556 144.896 132.566 144.852C132.6 144.907 132.598 144.965 132.574 145.017Z" fill="#FF3D00"/>
<path d="M133.643 142.107C134.059 141.376 134.929 139.457 135.848 139.171C135.714 139.292 136.146 139.043 136.012 139.07C136.111 138.895 136.108 138.859 136.007 138.94C136.099 138.845 136.137 138.784 136.241 138.738L136.214 138.755C135.731 138.922 141.513 134.166 140.862 137.536C140.837 137.495 140.531 137.855 140.836 137.647C138.889 139.535 136.643 141.399 135.195 143.941C133.629 145.498 135.371 145.382 132.654 144.779C132.651 144.744 133.267 142.812 133.615 142.124L133.643 142.107Z" fill="#FF3D00"/>
<path d="M149.976 130.902C149.976 130.902 150.063 130.829 150.113 130.817C150.075 130.878 150.034 130.904 149.976 130.902Z" fill="#FF3D00"/>
<path d="M161.045 132.601L161 132.591C161 132.591 161.028 132.573 161.045 132.601Z" fill="#FF3D00"/>
<path d="M152.88 130.16C154.084 129.999 155.631 129.966 156.639 130.097C156.836 130.05 156.864 130.033 156.731 130.002C156.86 129.997 156.94 130.004 157.046 130.053L157.019 130.069C156.713 129.881 163.75 130.564 161.095 132.531C161.119 132.478 160.619 132.524 161 132.59C158.334 132.618 155.154 132.152 152.33 132.504C150.124 132.208 151.228 133.867 150.237 130.835C149.919 130.994 152.462 129.852 152.871 130.146L152.88 130.16Z" fill="#FF3D00"/>
<path d="M172.349 133.642C172.349 133.642 172.457 133.633 172.509 133.657C172.455 133.69 172.388 133.675 172.349 133.642Z" fill="#FF3D00"/>
<path d="M175.083 134.82C176.138 135.394 177.388 136.282 178.144 136.984C178.324 137.062 178.36 137.058 178.265 136.966C178.365 137.036 178.421 137.096 178.494 137.183L178.477 137.156C178.33 136.888 183.663 141.405 180.387 141.547C180.428 141.521 180.008 141.271 180.271 141.543C178.065 140.057 175.671 137.781 173.226 136.367C171.661 134.787 171.485 136.729 172.599 133.771C172.585 133.779 174.469 134.501 175.091 134.833L175.083 134.82Z" fill="#FF3D00"/>
<path d="M189.13 148.73C189.13 148.73 189.222 148.787 189.256 148.842C189.19 148.826 189.151 148.794 189.13 148.73Z" fill="#FF3D00"/>
<path d="M190.71 151.248C191.052 151.981 192.2 153.65 192.031 154.567C191.979 154.392 192.003 154.887 192.034 154.754C192.136 154.918 192.188 154.942 192.162 154.808C192.216 154.925 192.236 154.988 192.232 155.104L192.215 155.077C192.259 154.842 194.03 161.51 191.231 159.769C191.289 159.77 191.081 159.313 191.153 159.704C190.239 157.284 189.212 154.104 188.314 151.467C187.941 149.28 186.691 150.83 189.283 148.976C189.068 148.751 190.433 151.136 190.741 151.266L190.71 151.248Z" fill="#FF3D00"/>
<path d="M193.888 170.763C193.888 170.763 193.934 170.867 193.932 170.925C193.898 170.87 193.873 170.829 193.888 170.763Z" fill="#FF3D00"/>
<path d="M193.626 173.722C193.452 174.509 193.295 176.572 192.563 177.159C192.648 176.992 192.323 177.383 192.433 177.315C192.4 177.505 192.425 177.546 192.5 177.424C192.461 177.543 192.432 177.618 192.353 177.704L192.363 177.66C192.497 177.54 189.736 183.786 188.633 180.634C188.658 180.675 188.803 180.208 188.601 180.522C189.446 178.014 190.77 175.152 191.592 172.393C192.647 170.436 190.679 170.919 193.881 170.994C193.834 170.645 194.064 173.393 193.653 173.705L193.626 173.722Z" fill="#FF3D00"/>
<path d="M182.962 190.386C182.962 190.386 182.914 190.492 182.868 190.539C182.884 190.473 182.908 190.42 182.962 190.386Z" fill="#FF3D00"/>
<path d="M180.506 192.154C179.476 192.717 178.061 193.33 177.098 193.606C176.934 193.707 176.924 193.751 177.058 193.725C176.941 193.779 176.878 193.799 176.77 193.809L176.798 193.792C177.038 193.813 170.662 196.179 172.041 193.283C172.053 193.332 172.471 193.092 172.098 193.191C174.417 192.055 177.619 190.788 180.215 189.764L180.202 189.773C182.377 189.35 180.938 188.522 182.77 190.562C182.77 190.562 181.148 191.756 180.528 192.159L180.506 192.154Z" fill="#FF3D00"/>
<path d="M161.33 196.673C161.33 196.673 161.234 196.732 161.176 196.73C161.231 196.696 161.272 196.671 161.33 196.673Z" fill="#FF3D00"/>
<path d="M150.569 193.216L150.615 193.226C150.615 193.226 150.592 193.221 150.569 193.216Z" fill="#FF3D00"/>
<path d="M158.388 196.683C157.591 196.647 155.584 196.853 154.908 196.251C155.08 196.315 154.638 196.06 154.733 196.152C154.546 196.155 154.505 196.18 154.624 196.22C154.5 196.202 154.433 196.186 154.342 196.13L154.369 196.113C154.369 196.113 148.061 195.205 150.518 193.285C150.494 193.338 150.99 193.314 150.614 193.226C153.097 193.33 156.818 193.876 159.436 194.502L159.409 194.519C161.595 195.394 160.735 193.489 161.054 196.655C161.373 196.59 158.63 196.495 158.38 196.669L158.388 196.683Z" fill="#FF3D00"/>
<path d="M139.172 193.271C139.172 193.271 139.068 193.317 139.01 193.315C139.065 193.281 139.106 193.255 139.172 193.271Z" fill="#FF3D00"/>
<path d="M128.641 189.18L128.686 189.191C128.686 189.191 128.65 189.194 128.641 189.18Z" fill="#FF3D00"/>
<path d="M136.311 192.985C135.185 192.814 133.712 192.48 132.79 192.182C132.603 192.185 132.562 192.21 132.681 192.25C132.557 192.232 132.49 192.217 132.399 192.16L132.426 192.143C132.677 192.366 126.038 190.831 128.587 189.213C128.563 189.266 129.076 189.269 128.683 189.154C131.187 189.321 135.023 190.023 137.614 190.911L137.587 190.928C139.638 191.981 139.249 190.011 138.92 193.2C139.198 193.16 136.612 192.799 136.316 192.963L136.311 192.985Z" fill="#FF3D00"/>
<path d="M117.255 190.381C117.255 190.381 117.159 190.441 117.101 190.439C117.147 190.391 117.197 190.379 117.255 190.381Z" fill="#FF3D00"/>
<path d="M106.177 188.273L106.222 188.283C106.222 188.283 106.194 188.301 106.177 188.273Z" fill="#FF3D00"/>
<path d="M114.414 190.555C113.296 190.549 111.774 190.472 110.828 190.378C110.644 190.417 110.611 190.456 110.735 190.473C110.62 190.469 110.548 190.476 110.443 190.428L110.47 190.411C110.676 190.529 104.026 190.532 106.126 188.342C106.116 188.386 106.618 188.283 106.222 188.283C108.721 187.924 112.659 187.845 115.357 188.326L115.33 188.343C117.533 189.093 116.83 187.167 116.996 190.39C117.297 190.298 114.621 190.37 114.4 190.563L114.414 190.555Z" fill="#FF3D00"/>
<path d="M95.2969 191.845C95.2969 191.845 95.2098 191.918 95.1604 191.929C95.198 191.868 95.239 191.843 95.2969 191.845Z" fill="#FF3D00"/>
<path d="M92.5525 192.601C91.4621 192.823 89.9477 193.063 88.9906 193.165C88.8183 193.253 88.7995 193.283 88.9289 193.279C88.8164 193.311 88.7449 193.317 88.6428 193.305L88.6701 193.288C88.9745 193.383 82.2879 194.637 84.0062 192.135C84.0043 192.193 84.4834 191.991 84.0712 192.057C86.4747 191.21 90.2555 190.359 93.0139 190.236L92.9866 190.253C95.3401 190.513 94.1256 188.829 95.0575 191.917C95.3475 191.775 92.7285 192.397 92.5473 192.623L92.5525 192.601Z" fill="#FF3D00"/>
<path d="M73.9875 197.552C73.9875 197.552 73.9225 197.63 73.8679 197.664C73.8835 197.598 73.9244 197.572 73.9875 197.552Z" fill="#FF3D00"/>
<path d="M71.4009 198.777C70.3627 199.175 68.9155 199.675 68.002 199.939C67.8382 200.041 67.8278 200.085 67.9624 200.058C67.8584 200.104 67.7817 200.133 67.6659 200.129L67.6933 200.112C68.0438 200.159 61.5881 202.517 62.8953 199.78C62.907 199.829 63.3353 199.544 62.9518 199.688C65.1593 198.433 68.7739 196.948 71.4539 196.363L71.4266 196.38C73.7799 196.244 72.3177 194.769 73.7509 197.66C74.048 197.438 71.4834 198.575 71.4094 198.791L71.4009 198.777Z" fill="#FF3D00"/>
<path d="M54.0273 206.904C54.0273 206.904 53.9793 207.01 53.9383 207.035C53.9539 206.969 53.9864 206.93 54.0273 206.904Z" fill="#FF3D00"/>
<path d="M51.7075 208.587C51.0081 208.983 49.6226 210.315 48.7577 210.322C48.9248 210.256 48.4579 210.356 48.5737 210.36C48.4353 210.503 48.4385 210.538 48.5562 210.484C48.447 210.552 48.3924 210.586 48.2936 210.609L48.3209 210.592C48.6512 210.577 42.7906 214.078 43.5384 211.139C43.5638 211.18 43.9362 210.835 43.5729 211.042C45.4992 209.394 48.7739 207.269 51.3008 206.194L51.2872 206.202C53.5517 205.649 51.9116 204.436 53.8088 207.039C54.0447 206.779 51.7646 208.344 51.7075 208.587Z" fill="#FF3D00"/>
<path d="M36.123 219.781C36.123 219.781 36.0971 219.891 36.0646 219.93C36.0665 219.872 36.0906 219.82 36.123 219.781Z" fill="#FF3D00"/>
<path d="M34.2007 220.152C33.4551 220.471 31.9434 221.646 31.0885 221.562C31.259 221.516 30.773 221.564 30.8941 221.581C30.7446 221.705 30.7375 221.74 30.8615 221.707C30.7572 221.752 30.6839 221.788 30.5867 221.798L30.6177 221.79C30.9177 221.791 24.7722 224.656 25.7946 221.8C25.8072 221.846 26.2218 221.534 25.8356 221.705C26.6702 221.163 27.554 220.74 28.6745 220.27C30.4153 219.448 32.227 218.274 34.0435 217.732L34.028 217.736C36.3442 217.441 34.8319 216.037 36.4422 218.845C36.6947 218.61 34.27 219.917 34.1852 220.156L34.2007 220.152Z" fill="#FF3D00"/>
<path d="M20.249 225.045C20.249 225.045 20.1937 225.093 20.1724 225.101C20.1913 225.056 20.2189 225.032 20.249 225.045Z" fill="#FF3D00"/>
<path d="M18.7769 225.195C18.2581 225.188 17.4008 225.073 16.9673 224.944C16.8684 224.972 16.856 225.002 16.9301 225.033C16.8647 225.023 16.8288 225.025 16.782 224.971C16.4409 225.037 13.2513 224.714 14.7089 222.642C14.7636 222.387 18.5262 222.88 19.3686 222.988C19.4836 222.88 19.5577 222.911 19.5761 223.075C20.8958 222.791 20.1304 223.498 20.1274 225.046C20.2931 224.941 18.7918 225.202 18.7918 225.202L18.7769 225.195Z" fill="#FF3D00"/>
<path d="M307.152 71.1926C307.142 71.1073 307.141 71.1355 307.152 71.1926V71.1926Z" fill="#FF3D00"/>
<path d="M278.13 60.427C278.13 60.427 278.11 60.4054 278.096 60.4047C278.07 60.3758 278.065 60.341 278.045 60.3193L278.143 60.4277L278.13 60.427Z" fill="#FF3D00"/>
<path d="M271.749 57.008C271.749 57.008 271.722 56.9924 271.707 56.9917C271.715 56.9849 271.715 56.9707 271.749 57.008Z" fill="#FF3D00"/>
<path d="M286.166 71.2092C286.166 71.2092 286.095 71.2336 286.046 71.2521C286.102 71.227 286.131 71.2145 286.166 71.2092Z" fill="#FF3D00"/>
<path d="M305.476 58.0584C305.476 58.0584 305.482 58.0795 305.481 58.0934C305.475 58.0723 305.469 58.0511 305.464 58.0161L305.482 58.0657L305.476 58.0584Z" fill="#FF3D00"/>
<path d="M305.462 58.2163C305.462 58.2163 305.48 58.2659 305.486 58.3009C305.486 58.3009 305.473 58.2725 305.462 58.2163Z" fill="#FF3D00"/>
<path d="M305.462 58.2163C305.462 58.2163 305.481 58.2526 305.481 58.2667C305.481 58.2667 305.474 58.2593 305.462 58.2163Z" fill="#FF3D00"/>
<path d="M305.481 58.2657C305.481 58.2657 305.479 58.1482 305.475 58.0996C305.528 58.2749 305.555 58.4489 305.567 58.6223C305.54 58.621 305.515 58.4194 305.479 58.2933C305.486 58.3005 305.479 58.2933 305.481 58.2657Z" fill="#FF3D00"/>
<path d="M302.595 38.0126L302.55 38.0528C302.55 38.0528 302.588 38.0052 302.595 38.0126Z" fill="#FF3D00"/>
<path d="M271.879 54.5533L271.855 54.6157C271.855 54.6157 271.849 54.5801 271.857 54.5593C271.857 54.5593 271.865 54.5526 271.872 54.5459L271.879 54.5533Z" fill="#FF3D00"/>
<path d="M298.514 34.0033L298.387 34.0526C298.444 34.0139 298.487 33.9882 298.515 33.9758C298.515 33.9758 298.521 33.983 298.514 34.0033Z" fill="#FF3D00"/>
<path d="M279.108 48.9952C279.108 48.9952 279.136 48.9827 279.143 48.99C279.027 49.095 278.698 49.342 278.268 49.6532L278.201 49.6224L279.102 48.988L279.108 48.9952Z" fill="#FF3D00"/>
<path d="M278.302 49.6758C278.253 49.6942 278.203 49.7263 278.154 49.7447C278.19 49.7119 278.233 49.6863 278.268 49.6672L278.309 49.683L278.302 49.6758Z" fill="#FF3D00"/>
<path d="M286.356 41.9185L285.64 42.5962C288.193 40.7758 289.304 39.8058 291.518 38.2941L291.383 38.3637C291.678 38.1083 292.02 38.1936 295.306 35.3646C295.414 35.2661 295.434 35.2877 295.657 35.0842L295.101 35.5898C297.354 34.149 299.375 32.1927 301.781 30.9942C301.781 30.9942 299.683 32.8362 299.152 33.3845C299.935 32.7653 299.373 33.2361 299.235 33.3885L299.158 33.4055C298.691 33.7772 298.736 33.8416 298.506 34.0379C298.506 34.0379 298.507 34.0241 298.507 34.0104L298.536 33.9841C298.536 33.9841 298.543 33.9775 298.509 33.9828C298.502 33.9755 298.474 33.9742 298.352 34.0721L298.374 34.0524C298.174 34.1949 297.829 34.4687 297.679 34.5791L297.718 34.6224C295.886 35.3645 293.855 37.6865 292.377 38.9776C291.794 39.4544 292.453 38.8292 292.216 39.0045L291.552 39.6087C291.967 39.2968 291.765 39.4944 291.699 39.5673C290.657 40.2641 289.681 41.0331 288.763 41.8671C288.879 41.762 289.096 41.565 289.09 41.544C288.786 41.8336 288.925 41.6537 289.048 41.542C288.5 41.8822 286.514 43.6881 286.329 43.6586L286.342 43.673C286.162 43.6783 286.296 43.4635 285.906 43.6868C285.744 43.8865 285.544 44.029 285.304 44.1281C284.871 44.9575 284.139 45.5308 283.114 45.8552L283.711 45.0889C282.434 46.2099 281.092 47.2586 279.777 48.3225L280.378 47.8812C280.075 48.4472 279.664 48.8077 279.131 48.9759C279.16 48.9496 279.181 48.9299 279.189 48.9233C278.711 49.2392 278.239 49.5623 277.761 49.892C277.562 49.9931 277.39 50.1232 277.232 50.2538C276.56 50.7332 275.9 51.2271 275.248 51.7281L275.3 51.7859C275.68 51.5068 276.245 51.0983 276.839 50.6774C276.743 50.8041 276.646 50.9447 276.57 51.0931C275.16 51.9796 273.86 53.0166 272.552 54.06L272.691 53.9077C271.906 54.4232 270.592 55.1693 270.142 55.9218C270.12 55.9553 270.118 55.9829 270.131 55.9973C270.152 56.0052 270.173 55.9993 270.193 56.0072L270.074 56.0498C270.621 56.3177 271.051 56.7044 271.627 56.946C271.654 56.9611 271.688 56.9697 271.709 56.9776C273.153 57.6958 274.506 58.6032 275.927 59.3963C276.515 59.6662 276.844 59.7233 276.52 59.4245C276.971 59.8191 276.703 59.6267 277.36 60.0588C277.491 60.0719 277.424 60.0272 277.292 59.8966C277.816 60.0666 278.187 60.3883 278.407 60.8618L278.217 60.7836C278.672 61.0955 279.189 61.4172 279.771 61.6798L279.773 61.6247C279.773 61.6247 279.854 61.67 279.888 61.6923C281.664 59.0748 283.805 56.6129 285.515 53.937L285.556 53.9527C287.243 51.7595 288.948 49.4565 290.61 47.2067L290.596 47.2199L290.764 47.0137C290.772 47.0071 290.765 46.9999 290.758 47.0064C290.969 46.7884 291.223 46.3859 291.43 46.0917L291.416 46.1048C293.763 42.9548 296.073 39.2709 298.75 36.323L298.628 36.566C299.157 35.9001 299.353 35.5501 299.829 34.9854L299.8 35.0116C299.853 34.9243 299.977 34.9302 300.571 33.915C300.571 33.915 300.6 33.8887 300.638 33.8145L300.54 33.9964C300.62 33.9104 300.713 33.8388 300.802 33.7049C300.855 33.6037 301.49 32.9083 301.492 32.8669C301.523 32.7855 301.575 32.712 301.627 32.6384C301.689 32.4893 301.779 32.3416 301.882 32.2083C301.882 32.2083 301.857 32.2969 301.817 32.4263C301.86 32.3869 301.897 32.3403 301.954 32.3015C301.954 32.3015 301.848 32.49 301.735 32.685C301.661 32.9372 301.579 33.2097 301.545 33.3325C301.671 33.0206 301.584 33.2583 301.567 33.3128L301.545 33.3325C301.475 33.5157 301.501 33.5308 301.469 33.626L301.477 33.6194C301.477 33.6194 301.47 33.6122 301.469 33.626C301.469 33.626 301.462 33.6326 301.439 33.6799L301.446 33.6733C301.408 33.7475 301.354 33.8762 301.33 33.9373L301.343 33.9517C301.029 34.3168 300.736 35.5329 300.558 36.0773C300.478 36.3084 300.554 36.0149 300.515 36.1167L300.425 36.3958C300.495 36.2402 300.47 36.3288 300.469 36.3564C300.278 36.7274 300.136 37.1076 300.007 37.5023C300.016 37.4543 300.048 37.3591 300.041 37.3519C300.007 37.4885 300.011 37.4057 300.034 37.3584C299.928 37.5469 299.674 38.3986 299.611 38.4163C299.567 38.4557 299.558 38.3585 299.476 38.4859C299.465 38.5752 299.434 38.6429 299.376 38.7092C299.343 38.8044 299.373 38.7644 299.38 38.7716C299.266 38.9804 299.147 39.2995 299.038 39.5707L299.067 39.2404C298.896 39.7782 298.678 40.2931 298.487 40.823L298.588 40.5997C298.592 40.8072 298.535 40.9773 298.418 41.1237C298.425 41.1172 298.426 41.1034 298.426 41.1034C298.175 41.5821 297.952 42.0621 297.755 42.5572L297.775 42.5789C297.898 42.3083 298.137 41.8014 298.284 41.4698L298.291 41.4632C298.212 41.6668 298.097 41.9032 298.043 42.0319C298.026 42.1002 297.976 42.2775 298.05 42.1704C297.711 42.6104 297.494 43.1114 297.384 43.6867L297.401 43.6184C297.354 43.7267 297.321 43.8357 297.275 43.9441C297.119 44.3236 296.969 44.7104 296.833 45.0978L296.775 45.1504C296.66 45.4005 296.488 45.6757 296.413 45.9416C296.413 45.9416 296.398 45.9548 296.404 45.9758C296.215 46.4643 295.951 46.9424 295.74 47.4368C295.675 47.6411 295.67 47.7514 295.765 47.6384C295.641 47.7914 295.693 47.7041 295.572 47.9333C295.576 47.9819 295.591 47.9549 295.628 47.9083C295.563 48.1263 295.553 48.0292 295.484 48.1848C295.434 48.217 295.35 48.2406 295.32 48.2945L295.337 48.2262C295.246 48.3877 295.155 48.563 295.09 48.7672L295.117 48.7686L295.018 48.978L295.037 48.9997L294.899 49.2972L294.915 49.2565C294.884 49.3241 294.769 49.5467 294.735 49.6833L294.743 49.6767C294.627 50.072 294.441 50.3465 294.248 50.7727L294.299 50.7267C294.257 50.8837 294.242 50.7517 294.179 50.9283L294.205 50.9572C294.102 51.0905 294.133 51.1542 294.1 51.2632L294.076 51.1929L293.997 51.3965C293.911 51.6204 293.99 51.5482 294.026 51.5291L293.923 51.6625L293.955 51.6986C293.854 51.7905 293.908 51.8207 293.796 52.0019C293.809 52.0164 293.825 51.9757 293.808 52.044L293.614 52.3388L293.719 52.1641L293.657 52.1681C293.531 52.3487 293.547 52.4393 293.471 52.5739L293.531 52.48C293.417 52.7026 293.437 52.7243 293.389 52.8602C293.398 52.8123 293.408 52.7505 293.362 52.8313C293.348 52.9896 293.279 53.1314 293.156 53.2568C293.156 53.2568 293.156 53.2568 293.17 53.2437C293.148 53.2772 293.12 53.2897 293.109 53.3652L293.166 53.3402C293.072 53.4256 293.018 53.5267 292.992 53.6567L293.028 53.6239L292.741 54.2668L292.768 54.2957C291.136 55.3306 290.417 59.9817 289.433 61.7868C289.448 61.7737 289.442 61.7389 289.429 61.7245C289.389 61.84 289.275 62.0626 289.316 62.0646L289.338 62.0449C289.338 62.0449 289.163 62.3752 289.136 62.519L289.126 62.4356L289.039 62.6595L289.069 62.6057C288.473 63.6761 288.234 64.6183 287.689 65.6152C287.689 65.6152 287.689 65.6152 287.675 65.6283C287.215 66.719 286.721 67.815 286.269 68.8991L286.271 68.844C286.162 69.1014 285.121 71.2355 284.916 71.7786C285.288 71.4923 285.719 71.3123 286.219 71.2532C286.212 71.246 286.199 71.2315 286.157 71.2433C286.283 71.2079 286.346 71.2039 286.537 71.0956L286.374 71.0463C286.742 71.0154 287.086 70.9005 287.4 70.6805L287.246 70.7284L289.195 69.8399L289.193 69.7499C291.614 69.9756 295.632 67.1538 298.248 65.7648C298.28 65.5382 298.305 65.3045 298.315 65.0838C298.343 64.6498 298.422 64.4325 298.441 64.0326L298.425 64.0733C298.432 63.9354 298.473 63.6609 298.491 63.4199C298.488 63.4889 298.492 63.5512 298.513 63.4002C298.669 61.1203 299.047 58.8372 299.307 56.5691L299.299 56.6033C299.639 54.2492 299.91 51.8919 300.105 49.524C300.099 49.6619 300.114 49.6212 300.127 49.5043C300.396 47.0432 300.604 44.5585 300.983 42.1164L300.967 42.1571C301.025 41.6692 301.296 39.1667 301.357 38.6099L301.353 38.6789C301.353 38.2573 301.407 37.8384 301.523 37.4293C301.554 37.2165 301.637 36.64 301.687 36.3176L301.672 36.3307C301.854 35.2682 301.934 34.1802 301.999 33.1053L302.016 31.4269C302.145 31.7716 302.259 32.1295 302.388 32.4742C302.555 32.4407 302.725 32.5109 302.738 32.9607L302.752 32.9476C302.752 32.9476 302.739 33.0783 302.729 33.14C302.706 33.3462 302.733 33.2024 302.751 33.1203C302.741 33.1958 302.744 33.272 302.732 33.3751C302.716 33.4158 302.727 33.3403 302.728 33.3127C302.726 33.3541 302.71 33.3948 302.708 33.4361C306.304 44.2974 306.289 56.8182 308.364 68.0978L308.278 68.1766C308.45 69.6428 309.647 72.8025 308.733 74.3069C308.599 74.5079 308.384 74.6635 308.106 74.6918C307.815 74.7194 307.551 74.5894 307.368 74.3733C307.375 74.3806 307.375 74.3806 307.388 74.395C304.676 71.8474 301.763 69.4562 298.728 67.2941C298.651 67.1798 285.882 72.9716 286.82 72.5533L286.897 72.5362L285.995 72.9079C285.995 72.9079 285.959 72.9408 285.994 72.9355C285.051 73.2915 284.126 73.6967 283.214 74.1301C282.884 73.2299 282.546 72.3362 282.195 71.4419L282.212 71.5187C281.193 68.6854 280.201 65.8534 279.224 63.0083C275.201 60.7024 271.149 58.4366 267.074 56.2182C273.437 51.4347 279.647 46.2501 286.342 41.9316L286.356 41.9185ZM305.59 58.5747C305.013 55.023 304.555 51.5737 303.947 47.9307L304.01 48.0581C303.866 47.1736 302.919 38.0208 302.594 38.0123L302.609 37.9991C302.499 37.5585 302.436 37.1271 302.381 36.6892C302.334 37.2329 302.298 37.7148 302.261 38.0517C302.266 38.0865 302.261 38.0517 302.277 38.011C302.132 39.1581 302.015 40.3066 301.892 41.4479L301.863 41.4741C301.795 42.0375 301.781 42.6311 301.677 43.1998C301.662 43.2405 301.672 43.165 301.674 43.1374L301.64 43.4053C301.635 43.5156 301.647 43.5439 301.66 43.427C301.584 44.1421 301.227 47.4489 301.141 48.2257C301.132 48.1286 301.171 47.8955 301.154 47.8048C301.091 48.1266 301.068 48.4503 301.088 48.776L301.057 48.8299C301.006 49.4839 300.856 50.1609 300.825 50.809C300.834 50.7748 300.824 50.6777 300.805 50.7873C300.884 50.874 300.714 51.8334 300.678 52.0113L300.685 51.8734C300.639 52.2444 300.643 52.4519 300.584 52.6909L300.59 52.553C300.566 52.773 300.543 52.9654 300.559 53.056L300.591 52.8295C300.545 53.2005 300.521 53.4205 300.472 53.7291L300.477 53.6188C300.41 54.0095 300.146 56.07 300.074 56.4259L300.068 56.2598L300.019 56.5684C300.019 56.5684 300.109 56.4207 300.11 56.3931C300.037 57.0668 299.653 60.4899 299.573 61.1564C299.561 61.4046 299.605 61.2063 299.612 61.1997C299.57 61.5018 299.572 61.3291 299.545 61.5904C299.542 61.6594 299.56 61.5773 299.576 61.5366C299.563 61.6535 299.551 61.7566 299.544 61.7631C299.551 61.6252 299.52 61.6791 299.503 61.6161L299.473 61.9463L299.488 61.9332C299.335 62.6654 299.245 63.4074 299.209 64.152C299.217 64.1454 299.243 64.0292 299.255 63.9123C299.204 64.4074 299.119 65.0253 299.036 65.4706C301.836 67.6215 304.563 69.8657 307.217 72.1756C307.197 71.8637 307.185 71.5452 307.159 71.2123C307.17 71.2681 307.194 71.3521 307.248 71.3824C307.176 71.0127 307.129 70.2503 307.029 70.3147L307.024 70.4112C306.952 70.4769 306.934 69.5569 306.841 69.048C306.831 70.6923 305.442 59.6595 305.59 58.5885L305.59 58.5747ZM306.825 68.3632L306.829 68.5569C306.836 68.7092 306.837 68.8267 306.846 68.9239L306.936 69.0664L306.825 68.3632ZM301.438 33.2721C301.438 33.2721 301.422 33.3128 301.414 33.3331C301.429 33.32 301.43 33.2924 301.438 33.2721ZM288.465 62.3904L288.506 62.3923C289.897 59.3073 291.271 56.1317 292.615 53.01L292.593 53.0297L292.738 52.7394C292.745 52.7329 292.739 52.7256 292.731 52.7322C292.913 52.4091 293.111 51.8726 293.276 51.4589L293.254 51.4786C295.192 47.0514 296.931 42.1725 299.236 37.8733L299.152 38.1872C299.59 37.2475 299.737 36.7846 300.134 35.988L300.098 36.0209C300.152 35.906 300.277 35.8843 300.729 34.5237C300.729 34.5237 300.752 34.4764 300.784 34.3812L300.71 34.6196C300.831 34.4042 301.205 33.8 301.391 33.3804L301.398 33.3739C301.398 33.3739 301.392 33.3666 301.362 33.4067C301.318 33.4599 301.251 33.5604 301.222 33.6004L301.235 33.6149C300.943 33.8014 300.438 34.8139 300.22 35.1836C300.109 35.3511 300.223 35.1285 300.171 35.202L300.05 35.4174C300.138 35.311 300.101 35.3715 300.092 35.4056C299.866 35.6643 299.68 35.9388 299.521 36.2422C299.536 36.2015 299.581 36.1345 299.574 36.1273C299.521 36.2284 299.531 36.1667 299.567 36.1338C299.444 36.2593 299.095 36.9061 299.026 36.9028C299.026 36.9028 298.98 36.8523 298.894 36.9311C298.876 36.9993 298.832 37.0525 298.775 37.0913C298.737 37.1655 298.766 37.1392 298.773 37.1464C298.641 37.2922 298.492 37.5339 298.351 37.7276L298.419 37.4544C298.186 37.8511 297.926 38.2326 297.673 38.6213L297.791 38.4611C297.686 38.6358 297.648 38.71 297.565 38.8512C297.565 38.8512 297.58 38.838 297.573 38.8308C297.334 39.0613 297.128 39.3279 296.969 39.6175L296.884 39.6549L296.757 39.8631L296.777 39.8848C296.559 40.1094 296.387 40.3845 296.268 40.7036L296.284 40.6491C296.225 40.7292 296.18 40.81 296.121 40.8901C295.928 41.1712 295.728 41.445 295.556 41.734L295.492 41.7517C295.366 41.9323 295.157 42.1227 295.058 42.3184C295.058 42.3184 295.051 42.325 295.043 42.3315C294.933 42.4714 294.823 42.5975 294.68 42.715C294.625 42.9889 294.477 43.2029 294.22 43.3704C294.13 43.5181 294.118 43.6212 294.219 43.5431C294.083 43.6403 294.148 43.5812 294.002 43.7401C294 43.7815 294.022 43.7618 294.064 43.7362C293.974 43.8977 293.978 43.815 293.896 43.9286C293.841 43.9397 293.764 43.943 293.735 43.9693L293.758 43.922C293.65 44.0205 293.547 44.1538 293.457 44.3016L293.47 44.316L293.36 44.4559L293.38 44.4775L293.211 44.6837L293.24 44.6575C293.196 44.6969 293.064 44.8564 292.997 44.9569C292.845 45.2537 292.636 45.4442 292.4 45.7508L292.456 45.7259C292.395 45.8474 292.401 45.7233 292.312 45.8572L292.338 45.8861C292.217 45.9702 292.235 46.0332 292.196 46.1212L292.192 46.0588L292.088 46.2059C291.977 46.3734 292.061 46.3359 292.096 46.3307L291.995 46.4226L292 46.4574C291.901 46.508 291.948 46.5447 291.831 46.6636C291.837 46.6846 291.866 46.6584 291.843 46.7056L291.634 46.8961L291.757 46.7706L291.703 46.7542C291.566 46.879 291.562 46.948 291.475 47.0405L291.54 46.9814C291.408 47.141 291.414 47.162 291.361 47.2632C291.369 47.229 291.393 47.1679 291.334 47.2343C291.3 47.3708 291.219 47.4707 291.092 47.5337C291.092 47.5337 291.099 47.5409 291.113 47.5278C291.084 47.5541 291.07 47.5672 291.04 47.6073L291.095 47.6099C291.003 47.6539 290.938 47.7268 290.892 47.8213L290.928 47.7885L290.581 48.2626L290.607 48.2915C289.299 48.6232 287.442 52.5014 286.523 53.667C286.537 53.6539 286.545 53.6336 286.526 53.6119C286.473 53.6992 286.341 53.8588 286.375 53.8673L286.397 53.8476C286.397 53.8476 286.192 54.0867 286.152 54.2022L286.156 54.1195L286.044 54.2869L286.08 54.2541C285.346 55.0277 285.051 55.7047 284.403 56.3995C284.403 56.3995 284.403 56.3995 284.396 56.406C283.826 57.2013 283.215 57.9807 282.66 58.7628L282.668 58.7287C282.513 58.9355 280.936 60.8714 280.982 60.9082C280.809 61.2109 280.543 61.4263 280.362 61.7494C280.362 61.7494 280.369 61.7428 280.376 61.7363L280.232 61.8676C280.299 61.8985 280.366 61.9431 280.433 61.9878L280.517 62.2681L280.598 62.2996L280.937 63.3108L280.881 63.1907C280.946 63.408 281.189 64.1244 281.357 64.5125L281.386 64.4862C281.893 65.5952 282.101 66.5795 282.563 67.9144L282.566 67.7141C282.794 68.1396 282.51 67.8704 282.733 68.4062L282.823 68.4036C282.888 68.925 283.064 69.0162 283.228 69.3281L283.068 69.2099L283.309 69.8226C283.588 70.4923 283.595 70.1955 283.615 70.0721L283.695 70.5665L283.823 70.621C283.84 71.0018 283.967 70.9526 284.117 71.5679C284.171 71.5981 284.137 71.4444 284.224 71.642C284.218 71.6348 284.254 71.7471 284.234 71.7254C284.197 71.7859 284.179 71.8541 284.183 71.9303C284.176 71.9231 284.191 71.7648 284.19 71.7786C284.19 71.7786 284.074 71.8837 284.074 71.8975C284.062 72.0006 284.079 72.0774 284.105 72.1201C284.19 72.0689 284.241 72.0091 284.325 71.9993C284.325 71.9993 284.242 71.9953 284.249 71.9888C284.319 71.9782 284.425 71.9211 284.568 71.8311C285.754 68.6674 287.333 65.543 288.509 62.3372L288.465 62.3904Z" fill="#FF3D00"/>
<path d="M277.774 49.906C277.894 49.8495 278.028 49.7937 278.162 49.7379C277.761 50.0229 277.303 50.3605 276.852 50.6914C276.97 50.5312 277.101 50.3992 277.245 50.2679C277.424 50.1451 277.595 50.0288 277.774 49.906Z" fill="#FF3D00"/>
<path d="M296.417 34.6577L296.394 34.678C296.394 34.678 296.418 34.6294 296.417 34.6577Z" fill="#FF3D00"/>
<path d="M283.077 45.9154L283.127 45.8832L282.994 46.0566L283.077 45.9154Z" fill="#FF3D00"/>
<path d="M291.712 39.5819C291.862 39.4715 291.991 39.3809 292.083 39.3231C291.689 39.6291 291.668 39.6351 291.712 39.5819Z" fill="#FF3D00"/>
<path d="M299.241 33.382L299.325 33.3582C299.196 33.4493 299.19 33.4282 299.241 33.382Z" fill="#FF3D00"/>
<path d="M302.765 33.1071C302.764 32.9758 302.764 32.8307 302.794 32.6455C302.802 32.7565 302.78 32.9351 302.765 33.1071Z" fill="#FF3D00"/>
<path d="M302.765 33.1229L302.766 33.1074L302.765 33.1229Z" fill="#FF3D00"/>
<path d="M293.894 43.9564L293.901 43.9496C293.901 43.9496 293.916 43.936 293.931 43.9367L293.901 43.9639L293.894 43.9564Z" fill="#FF3D00"/>
<path d="M284.334 56.5276C284.334 56.5276 284.327 56.5342 284.313 56.5474C284.336 56.4998 284.358 56.4661 284.395 56.4331C284.401 56.4404 284.349 56.5144 284.341 56.5348L284.334 56.5276Z" fill="#FF3D00"/>
<path d="M297.361 39.0766L297.545 38.8435C297.545 38.8435 297.545 38.8435 297.552 38.8369C297.53 38.8704 297.47 38.9643 297.375 39.0773L297.362 39.0628L297.361 39.0766Z" fill="#FF3D00"/>
<path d="M297.401 39.0918C297.298 39.2251 297.166 39.3985 297.085 39.4983C297.055 39.5521 296.993 39.6874 297.072 39.6152C296.979 39.6867 296.893 39.7655 296.805 39.8581C296.959 39.6651 297.21 39.3315 297.387 39.1049L297.401 39.0918Z" fill="#FF3D00"/>
<path d="M298.331 37.7201L298.338 37.7134L298.321 37.7691L298.331 37.7201Z" fill="#FF3D00"/>
<path d="M300.085 35.399C300.085 35.399 300.137 35.325 300.159 35.3052C300.077 35.4195 300.077 35.4195 300.085 35.399Z" fill="#FF3D00"/>
<path d="M301.522 32.7993C301.471 32.8591 301.448 32.8926 301.448 32.8926C301.47 32.8729 301.494 32.8118 301.509 32.7849C301.538 32.7586 301.531 32.7652 301.516 32.7783C301.552 32.7455 301.538 32.7586 301.529 32.7927L301.522 32.7993Z" fill="#FF3D00"/>
<path d="M287.633 65.7581C287.633 65.7581 287.633 65.7581 287.641 65.751C287.641 65.751 287.633 65.7581 287.632 65.7732L287.64 65.766L287.633 65.7581Z" fill="#FF3D00"/>
<path d="M287.641 65.7507C287.641 65.7507 287.674 65.6417 287.704 65.5879C287.711 65.5951 287.671 65.6969 287.67 65.7245C287.686 65.67 287.656 65.7376 287.641 65.7507Z" fill="#FF3D00"/>
<path d="M298.41 41.1301L298.417 41.1235C298.401 41.178 298.353 41.3002 298.276 41.4624L298.249 41.4611L298.403 41.1367L298.41 41.1301Z" fill="#FF3D00"/>
<path d="M300.926 34.1479C300.926 34.1479 300.92 34.1243 300.934 34.1405L300.926 34.1479Z" fill="#FF3D00"/>
<path d="M299.035 39.5989L299.043 39.5781L299.033 39.6553L299.035 39.5989Z" fill="#FF3D00"/>
<path d="M300.469 36.356C300.492 36.2949 300.508 36.2542 300.53 36.2207C300.468 36.3698 300.461 36.3763 300.469 36.356Z" fill="#FF3D00"/>
<path d="M301.572 33.3347L301.594 33.3145C301.594 33.3145 301.57 33.363 301.572 33.3347Z" fill="#FF3D00"/>
</g>
</svg>
