<svg width="52" height="60" viewBox="0 0 52 60" fill="none" xmlns="http://www.w3.org/2000/svg">
<path d="M9.9998 50.249H25.9995C26.9672 50.249 27.7494 51.0329 27.7494 51.9989C27.7494 52.965 26.9672 53.7489 25.9995 53.7489H9.9998C4.62398 53.7489 0.25 49.3749 0.25 43.9991V9.9998C0.25 4.62398 4.62398 0.25 9.9998 0.25H33.9993C39.3751 0.25 43.7491 4.62398 43.7491 9.9998V20.1196C43.7491 21.0857 42.9669 21.8696 41.9991 21.8696C41.0314 21.8696 40.2492 21.0857 40.2492 20.1196V9.9998C40.2492 6.55379 37.4453 3.74992 33.9993 3.74992H9.9998C6.55379 3.74992 3.74992 6.55379 3.74992 9.9998V43.9991C3.74992 47.4451 6.55379 50.249 9.9998 50.249Z" fill="#001D08" stroke="white" stroke-width="0.5"/>
<path d="M25.9997 15.7497H12C11.0322 15.7497 10.25 14.9658 10.25 13.9997C10.25 13.0336 11.0322 12.2498 12 12.2498H25.9997C26.9674 12.2498 27.7496 13.0336 27.7496 13.9997C27.7496 14.9658 26.9674 15.7497 25.9997 15.7497Z" fill="#001D08" stroke="white" stroke-width="0.5"/>
<path d="M28.7196 22.2495C29.6874 22.2495 30.4696 23.0334 30.4696 23.9995C30.4696 24.9655 29.6874 25.7494 28.7196 25.7494H12C11.0322 25.7494 10.25 24.9655 10.25 23.9995C10.25 23.0334 11.0322 22.2495 12 22.2495H28.7196Z" fill="#001D08" stroke="white" stroke-width="0.5"/>
<path d="M23.0397 30.2495C24.0075 30.2495 24.7897 31.0334 24.7897 31.9995C24.7897 32.9655 24.0075 33.7494 23.0397 33.7494H12C11.0322 33.7494 10.25 32.9655 10.25 31.9995C10.25 31.0334 11.0322 30.2495 12 30.2495H23.0397Z" fill="#001D08" stroke="white" stroke-width="0.5"/>
<path d="M10.25 39.9992C10.25 39.0332 11.0322 38.2493 12 38.2493H22.1198C23.0875 38.2493 23.8697 39.0332 23.8697 39.9992C23.8697 40.9653 23.0875 41.7492 22.1198 41.7492H12C11.0322 41.7492 10.25 40.9653 10.25 39.9992Z" fill="#001D08" stroke="white" stroke-width="0.5"/>
<path d="M32.2489 46.9191V46.8076L32.166 46.7331C29.7679 44.5779 28.249 41.4663 28.249 37.9993C28.249 31.5195 33.519 26.2495 39.9988 26.2495C46.4786 26.2495 51.7485 31.5195 51.7485 37.9993C51.7485 41.4683 50.2297 44.5779 47.8316 46.7311L47.7486 46.8056V46.9171V56.9909C47.7486 58.0064 47.1896 58.9378 46.2926 59.4185C45.8816 59.6387 45.4322 59.7468 44.9867 59.7468C44.4546 59.7468 43.9272 59.5946 43.4696 59.2889L40.1381 57.0533L39.9987 56.9598L39.8594 57.0533L36.5363 59.2848C36.5361 59.2849 36.5358 59.285 36.5356 59.2852C35.6843 59.8518 34.6073 59.9046 33.7051 59.4205L33.705 59.4205C32.8079 58.9398 32.2489 58.0084 32.2489 56.9929V46.9191ZM43.8594 55.3345L44.2485 55.5957L44.2487 55.127L44.2507 49.2991L44.2508 48.9453L43.9173 49.0634C42.6878 49.4987 41.374 49.749 40.0008 49.749C38.6273 49.749 37.3136 49.5006 36.0846 49.0635L35.7509 48.9448V49.299V55.1269V55.5958L36.1402 55.3345L39.0241 53.3985L39.0242 53.3985C39.6159 53.0011 40.3837 53.0011 40.9754 53.3985L40.9754 53.3985L43.8594 55.3345ZM31.7489 37.9993C31.7489 42.5492 35.4488 46.2491 39.9988 46.2491C44.5488 46.2491 48.2486 42.5492 48.2486 37.9993C48.2486 33.4493 44.5488 29.7494 39.9988 29.7494C35.4488 29.7494 31.7489 33.4493 31.7489 37.9993Z" fill="#001D08" stroke="white" stroke-width="0.5"/>
</svg>
