<svg width="64" height="64" viewBox="0 0 64 64" fill="none" xmlns="http://www.w3.org/2000/svg">
<path d="M50.9211 47.9336H54.5311C58.6564 47.9336 61.9999 44.59 61.9999 40.4647V25.527C61.9999 21.4017 58.6564 18.0581 54.5311 18.0581H9.46887C5.34357 18.0581 2 21.4017 2 25.527V40.4647C2 44.59 5.34357 47.9336 9.46887 47.9336H13.0788" stroke="#001D08" stroke-width="2.5" stroke-miterlimit="10" stroke-linecap="round" stroke-linejoin="round"/>
<path d="M53.9082 37.9751H10.0908" stroke="#001D08" stroke-width="2.5" stroke-miterlimit="10" stroke-linecap="round" stroke-linejoin="round"/>
<path d="M16.8126 62H47.186C49.2484 62 50.9204 60.328 50.9204 58.2656V37.9751H13.0781V58.2656C13.0781 60.328 14.7502 62 16.8126 62Z" stroke="#001D08" stroke-width="2.5" stroke-miterlimit="10" stroke-linecap="round" stroke-linejoin="round"/>
<path d="M36.979 45.9419H27.0205" stroke="#001D08" stroke-width="2.5" stroke-miterlimit="10" stroke-linecap="round" stroke-linejoin="round"/>
<path d="M36.979 53.9087H27.0205" stroke="#001D08" stroke-width="2.5" stroke-miterlimit="10" stroke-linecap="round" stroke-linejoin="round"/>
<path d="M16.0659 26.0249H10.0908" stroke="#001D08" stroke-width="2.5" stroke-miterlimit="10" stroke-linecap="round" stroke-linejoin="round"/>
<path d="M20.547 2.00003H43.4515C47.5765 2.00003 50.9204 5.34397 50.9204 9.4689V18.0581H13.0781V9.4689C13.0781 5.34397 16.4221 2.00003 20.547 2.00003Z" stroke="#001D08" stroke-width="2.5" stroke-miterlimit="10" stroke-linecap="round" stroke-linejoin="round"/>
</svg>
