<svg width="60" height="60" viewBox="0 0 60 60" fill="none" xmlns="http://www.w3.org/2000/svg">
<path d="M14.2875 14.2232L14.2875 14.2232C14.3858 14.7869 14.1508 15.3581 13.6782 15.6962C13.2069 16.0333 12.5787 16.0807 12.0584 15.8113L12.0584 15.8113L8.69178 14.0686L8.57686 14.0092L8.46194 14.0686L5.0953 15.8113C4.57712 16.0795 3.94897 16.0347 3.47555 15.6962C3.00296 15.3581 2.76804 14.7868 2.86621 14.2232L3.50914 10.532L3.53198 10.4009L3.43596 10.3087L0.712252 7.69464C0.294567 7.29374 0.145241 6.6956 0.324863 6.1515L0.324876 6.15146C0.50455 5.60688 0.983933 5.20724 1.56406 5.12424L5.3281 4.58564L5.45758 4.56712L5.51619 4.45019L7.19945 1.09195C7.45715 0.577848 7.9905 0.25 8.57686 0.25C9.16325 0.25 9.69658 0.577758 9.95427 1.09183L10.1765 0.980423L9.95427 1.09184L11.6378 4.4502L11.6964 4.56712L11.8259 4.58564L15.5898 5.12412C16.1699 5.20712 16.6492 5.60674 16.829 6.15138C17.0085 6.69563 16.8591 7.29376 16.4415 7.69463L13.7178 10.3087L13.6217 10.4009L13.6446 10.532L14.2875 14.2232ZM10.2883 11.4862L10.736 11.718L10.6495 11.2213L10.4593 10.1297C10.4593 10.1297 10.4593 10.1297 10.4593 10.1297C10.3744 9.64212 10.5383 9.14377 10.8996 8.79704L11.7051 8.02411L12.0754 7.66889L11.5675 7.59623L10.4543 7.43698C9.95283 7.36521 9.52101 7.05528 9.2982 6.61078L9.07471 6.72281L9.2982 6.61078L8.80035 5.61762L8.57685 5.17174L8.35336 5.61763L7.85563 6.61068L7.85563 6.61069C7.63282 7.05527 7.20114 7.36509 6.69954 7.43686L5.58637 7.59611L5.07857 7.66876L5.44867 8.02396L6.25417 8.79704C6.61541 9.14377 6.77929 9.64212 6.69444 10.1297C6.69443 10.1297 6.69443 10.1297 6.69443 10.1297L6.50425 11.2213L6.4177 11.718L6.86547 11.4862L7.86105 10.9708L7.86107 10.9708C8.08492 10.8549 8.33081 10.7969 8.57686 10.7969C8.82291 10.7969 9.0688 10.8549 9.29265 10.9708L9.29267 10.9708L10.2883 11.4862Z" fill="#001D08" stroke="white" stroke-width="0.5"/>
<path d="M24.932 10.532L24.9548 10.4009L24.8588 10.3087L22.1351 7.69478C22.1351 7.69477 22.1351 7.69476 22.1351 7.69474C21.7174 7.29371 21.5681 6.69558 21.7477 6.1515L21.7477 6.15146C21.9274 5.60688 22.4068 5.20724 22.9869 5.12424L26.7509 4.58576L26.8804 4.56724L26.939 4.4503L28.6223 1.09195C28.88 0.577848 29.4134 0.25 29.9997 0.25C30.5861 0.25 31.1194 0.577757 31.3771 1.09183L31.6006 0.979805L31.3771 1.09184L33.0606 4.4502L33.1192 4.56712L33.2487 4.58564L37.0126 5.12412C37.5927 5.20712 38.072 5.60674 38.2518 6.15138C38.4313 6.69563 38.282 7.29376 37.8643 7.69463L35.1406 10.3087L35.0446 10.4009L35.0674 10.532L35.7104 14.2232L35.7104 14.2232C35.8086 14.7869 35.5736 15.3581 35.101 15.6962C34.6298 16.0333 34.0016 16.0807 33.4813 15.8113L33.4813 15.8113L30.1146 14.0686L29.9997 14.0092L29.8848 14.0686L26.5182 15.8113C26.5181 15.8113 26.5181 15.8113 26.5181 15.8113C25.9999 16.0795 25.3715 16.0347 24.8984 15.6962C24.4258 15.3581 24.1909 14.7868 24.2891 14.2232L24.932 10.532ZM29.2784 6.61078L29.2784 6.6108C29.0556 7.05538 28.6239 7.36519 28.1223 7.43697C28.1223 7.43697 28.1223 7.43697 28.1223 7.43697L27.0092 7.59611L26.5014 7.66872L26.8715 8.02396L27.677 8.79704C28.0383 9.14377 28.2021 9.64213 28.1173 10.1297C28.1173 10.1297 28.1173 10.1297 28.1173 10.1297L27.9271 11.2213L27.8406 11.718L28.2883 11.4862L29.2839 10.9708L29.2839 10.9708C29.5078 10.8549 29.7537 10.7969 29.9997 10.7969C30.2458 10.7969 30.4916 10.8549 30.7156 10.9709L30.7156 10.9709L31.7112 11.4863L32.159 11.7181L32.0724 11.2214L31.8823 10.1298C31.7974 9.64227 31.9613 9.1439 32.3225 8.79716L33.128 8.02408L33.4981 7.66888L32.9903 7.59623L31.8772 7.43698C31.3757 7.36521 30.9439 7.05528 30.7211 6.61078L30.2232 5.61762L29.9997 5.17177L29.7762 5.61762L29.2784 6.61078Z" fill="#001D08" stroke="white" stroke-width="0.5"/>
<path d="M54.4843 4.45031L54.5429 4.56724L54.6724 4.58576L58.4363 5.12424C59.0164 5.20723 59.4957 5.60686 59.6755 6.1515C59.8552 6.6956 59.7058 7.29374 59.2882 7.69463L56.5644 10.3087L56.4684 10.4009L56.4913 10.532L57.1342 14.2232L57.1342 14.2232C57.2325 14.7869 56.9975 15.3581 56.5249 15.6962C56.0536 16.0333 55.4254 16.0807 54.9051 15.8113L54.9051 15.8113L51.5385 14.0686L51.4235 14.0092L51.3086 14.0686L47.942 15.8114C47.4237 16.0797 46.7955 16.0348 46.3222 15.6963C45.8496 15.3582 45.6147 14.7869 45.7129 14.2233L46.3558 10.5321L46.3787 10.401L46.2826 10.3089L43.559 7.69478C43.5589 7.69477 43.5589 7.69476 43.5589 7.69475C43.1412 7.29372 42.9919 6.69558 43.1715 6.1515L43.1716 6.15146C43.3512 5.60688 43.8306 5.20724 44.4107 5.12424L48.1748 4.58576L48.3043 4.56724L48.3629 4.4503L50.0461 1.09195C50.3038 0.577848 50.8372 0.25 51.4235 0.25C52.0099 0.25 52.5433 0.577757 52.8009 1.09183L54.4843 4.45031ZM53.1349 11.4862L53.5827 11.718L53.4962 11.2213L53.306 10.1297C53.306 10.1297 53.306 10.1297 53.306 10.1297C53.2211 9.64213 53.385 9.14377 53.7462 8.79704L54.5518 8.02411L54.922 7.66889L54.4141 7.59623L53.301 7.43698C52.7995 7.36521 52.3677 7.05528 52.1449 6.61078L51.647 5.61762L51.4235 5.17174L51.2 5.61763L50.7023 6.61067L50.7023 6.61069C50.4795 7.05527 50.0478 7.36509 49.5462 7.43686L48.433 7.59611L47.9252 7.66876L48.2953 8.02396L49.1008 8.79704C49.4621 9.14377 49.626 9.64213 49.5411 10.1297C49.5411 10.1297 49.5411 10.1297 49.5411 10.1297L49.3509 11.2213L49.2644 11.718L49.7121 11.4862L50.7077 10.9708L50.7077 10.9708C50.9316 10.8549 51.1775 10.7969 51.4235 10.7969C51.6696 10.7969 51.9155 10.8549 52.1393 10.9708L52.1394 10.9708L53.1349 11.4862Z" fill="#001D08" stroke="white" stroke-width="0.5"/>
<path d="M10.5596 40.6641C10.5596 30.1439 19.2535 21.5781 29.9474 21.5781C40.6415 21.5781 49.3353 30.1439 49.3353 40.6641C49.3353 51.1842 40.6414 59.75 29.9474 59.75C19.2535 59.75 10.5596 51.1842 10.5596 40.6641ZM13.6301 40.6641C13.6301 49.5291 20.9535 56.7344 29.9474 56.7344C38.9415 56.7344 46.2648 49.5291 46.2648 40.6641C46.2648 31.799 38.9414 24.5938 29.9474 24.5938C20.9535 24.5938 13.6301 31.799 13.6301 40.6641Z" fill="#001D08" stroke="white" stroke-width="0.5"/>
<path d="M21.2011 40.4141H20.894L20.9562 40.7147C21.8097 44.8376 25.5188 47.9453 29.948 47.9453C34.3772 47.9453 38.0863 44.8376 38.9398 40.7147L39.002 40.4141H38.695H21.2011ZM17.7012 38.9062C17.7012 38.0772 18.3849 37.3984 19.2364 37.3984H40.6596C41.5111 37.3984 42.1948 38.0772 42.1948 38.9062C42.1948 45.5493 36.7043 50.9609 29.948 50.9609C23.1917 50.9609 17.7012 45.5493 17.7012 38.9062Z" fill="#001D08" stroke="white" stroke-width="0.5"/>
<path d="M36.8391 31.875C36.8391 32.7041 36.1554 33.3828 35.3038 33.3828C34.4522 33.3828 33.7686 32.7041 33.7686 31.875C33.7686 31.0459 34.4522 30.3672 35.3038 30.3672C36.1554 30.3672 36.8391 31.0459 36.8391 31.875Z" fill="#001D08" stroke="white" stroke-width="0.5"/>
<path d="M26.1272 31.875C26.1272 32.7041 25.4435 33.3828 24.5919 33.3828C23.7403 33.3828 23.0566 32.7041 23.0566 31.875C23.0566 31.0459 23.7403 30.3672 24.5919 30.3672C25.4435 30.3672 26.1272 31.0459 26.1272 31.875Z" fill="#001D08" stroke="white" stroke-width="0.5"/>
</svg>
