<svg width="124" height="123" viewBox="0 0 124 123" fill="none" xmlns="http://www.w3.org/2000/svg">
<path fill-rule="evenodd" clip-rule="evenodd" d="M13.4404 90.8418C11.239 90.126 9.46676 89.5438 7.80426 88.9995C7.88409 88.0225 7.79631 87.4822 7.9899 87.0675C11.2111 80.2745 10.301 78.7353 3.09414 78.6974C2.24792 78.6894 1.39378 78.2329 0.310059 77.9238C1.67718 74.3389 5.50308 75.4216 7.13564 73.2045C9.34101 67.6836 3.98225 66.8602 0.774999 64.0868C2.56922 62.8526 3.94838 61.9893 5.2217 60.9884C7.01593 59.5847 7.28337 57.6109 5.87833 55.7287C5.0361 54.6082 3.95231 53.6571 2.96239 52.6223C5.08592 50.808 7.15164 49.4262 8.71036 47.6158C10.7201 45.2831 7.38914 43.042 8.01183 40.6495C15.4342 37.9259 14.3465 37.2719 12.3507 31.5477C12.2868 31.3703 12.4904 31.0991 12.68 30.5448C13.8995 30.2278 15.3543 29.9746 16.6955 29.4542C18.9807 28.553 19.5435 27.277 19.1324 24.7189C18.9208 23.383 17.2923 22.115 18.8909 20.6734C23.3602 22.1396 25.7838 20.6003 26.1616 16.0558C30.3542 16.5848 33.5721 14.9366 35.8154 11.1111C37.424 11.0393 39.0784 10.9616 40.699 10.8838C41.2958 9.16714 41.7788 7.79939 42.3017 6.28609C44.1179 7.13944 45.8063 7.93099 47.5786 8.75842C49.5245 7.11153 51.201 5.68992 52.7797 4.35407C53.1988 4.33413 53.4662 4.26035 53.6898 4.32416C54.1548 4.45973 54.6158 4.64517 55.0568 4.85651C58.0532 6.28674 60.4302 5.75772 62.1878 3.26944C62.7007 2.52974 63.3214 1.85982 64.1337 0.856934C65.4031 2.65336 66.3551 4.02309 67.349 5.37091C67.4588 5.50449 67.8101 5.45268 68.0476 5.49255C70.3547 4.94226 69.3208 1.01642 72.6937 1.0862C72.8454 2.87067 72.8973 4.56742 73.1468 6.23624C73.4003 7.88911 75.3223 8.73847 76.5836 7.72761C78.0825 6.54129 79.4276 5.16356 80.7149 3.98721C82.7406 4.89639 82.3514 7.25109 84.5309 7.85322C86.0457 8.26793 87.1514 10.1361 88.6223 11.5258C89.5483 10.2119 90.2209 9.1851 90.9673 8.21012C92.3165 6.45158 93.8992 6.61505 95.5537 7.73956C94.5418 9.7254 93.4921 11.6953 92.554 13.719C92.3924 14.064 92.5919 14.8754 92.8853 15.0788C93.4441 15.4457 94.3802 15.8982 94.8452 15.665C96.5496 14.8276 98.1203 13.727 99.7369 12.7241C101.836 15.1845 99.4156 16.7117 99.3398 18.5201C99.3218 18.885 99.7629 19.2598 100.026 19.6865C101.693 18.879 103.327 18.0914 104.884 17.3398C106.662 19.9676 102.928 21.7421 104.672 23.9453C106.311 24.5474 108.167 22.4619 109.895 24.8624C109.159 26.5452 108.321 28.4633 107.349 30.7023C108.61 30.8957 109.456 31.3104 109.943 31.0413C111.458 30.2178 112.795 29.0554 114.294 28.1921C115.39 27.5581 116.837 27.1573 117.561 28.5311C117.883 29.1432 117.434 30.5009 116.889 31.1469C115.937 32.2754 114.624 33.083 113.508 34.0799C111.336 36.0298 111.291 38.4224 112.239 40.9406C113.119 43.2733 115.035 43.4508 117.178 43.2394C118.402 43.1178 119.653 43.1676 120.872 43.3032C121.22 43.3451 121.651 43.9412 121.761 44.352C121.858 44.7587 121.749 45.4885 121.469 45.6799C119.671 46.8921 117.801 48.0007 115.468 49.4382C117.182 51.3662 118.561 52.9174 119.789 54.3011C119.176 56.3089 118.697 57.894 118.266 59.3355C120.182 60.7212 121.715 61.8218 124 63.4826C121.896 64.3739 120.615 64.8743 119.374 65.4645C117.739 66.2381 117.292 67.7933 118.426 69.0573C119.513 70.2696 120.757 71.3323 122.449 72.9513C120.795 73.4298 119.906 73.7468 118.992 73.9362C117.486 74.2532 115.725 74.5543 115.729 76.3707C115.733 77.3815 116.953 78.3665 117.519 79.4152C117.719 79.792 117.611 80.3284 117.659 81.0681C116.783 81.3213 115.815 81.4868 114.933 81.8716C112.474 82.9403 112.017 84.2482 113.338 86.5251C114.045 87.7414 114.933 88.8499 116.017 90.4051C114.68 90.6464 114.011 90.8318 113.338 90.8617C108.997 91.0431 108.882 91.0052 107.96 95.1982C107.622 96.7295 107.351 98.0554 105.942 98.9486C102.146 101.349 100.499 105.582 97.6932 108.694C96.2083 108.672 94.7893 108.645 93.3643 108.623C93.047 109.739 92.8474 110.437 92.6538 111.135C92.4123 112.01 92.1808 112.885 91.9473 113.731C86.2433 112.55 86.2672 112.556 85.6844 117.603C85.6086 118.253 85.1815 118.855 84.8921 119.539C80.6238 116.404 76.8929 116.744 73.6996 120.558C73.4122 120.897 72.8314 120.98 72.1129 121.311C71.4104 120.976 70.4464 120.669 69.6721 120.119C67.0237 118.243 64.5509 118.59 62.0941 120.454C61.3037 121.054 60.4955 121.654 59.6273 122.129C59.2381 122.344 58.6793 122.248 58.1384 122.306C56.911 121.22 55.6417 120.103 54.3843 118.988C52.3526 119.848 50.6022 120.583 48.7521 121.365C48.1394 120.376 47.8121 119.698 47.3471 119.132C44.2017 115.248 42.7308 115.208 39.1663 118.899C38.3161 119.786 37.6016 120.898 35.6916 119.77C35.8952 117.876 36.1287 115.782 36.3981 113.344C32.4704 112.574 28.8958 111.88 25.3693 111.193C25.5589 109.287 25.7126 107.688 25.9242 105.554C23.2278 105.969 21.1762 106.29 18.7552 106.663C19.1584 104.392 19.4458 102.753 19.7791 100.885C17.3362 100.005 15.1069 99.2058 12.8516 98.3863C13.0672 95.5711 13.2488 93.1905 13.4325 90.8358L13.4404 90.8418Z" fill="#4DD100" fill-opacity="0.5"/>
</svg>
