<svg width="819" height="601" viewBox="0 0 819 601" fill="none" xmlns="http://www.w3.org/2000/svg">
<path d="M208.067 479.691C217.484 472.14 207.04 488.642 177.763 520.246L160.293 540.176C161.969 535.868 157.44 530.672 208.071 479.701L208.067 479.691Z" fill="#FF3D00" fill-opacity="0.1"/>
<path d="M336.469 336.827C327.715 349.004 318.984 356.773 308.002 368.497L308.857 364.126C322.344 348.153 331.791 340.57 336.465 336.817L336.469 336.827Z" fill="#FF3D00" fill-opacity="0.1"/>
<path d="M609.88 35.4976L616.258 27.4266C609.88 35.4976 607.473 39.6364 608.248 39.7479C593.944 55.667 578.159 71.2856 583.775 63.0776C594.839 51.2601 596.357 51.5154 609.886 35.4848L609.88 35.4976Z" fill="#FF3D00" fill-opacity="0.1"/>
<path d="M337.488 386.896C381.087 339.366 443.002 267.538 482.711 219.458L555.61 140.295C522.235 180.363 545.085 161.28 548.908 161.908C564.702 146.286 570.447 133.556 588.512 118.33C578.206 130.275 559.978 150.077 553.601 158.148C574.908 138.83 630.454 75.0695 619.874 96.1059L586.527 136.131C595.616 142.112 662.552 84.6961 635.166 130.289C673.153 90.9451 665.004 107.823 690.267 84.5885L668.823 108.442C706.78 69.13 663.871 121.276 670.153 117.704L651.051 141.884C616.124 181.719 629.886 156.655 578.295 216.5C551.198 252.985 633.471 166.329 598.448 210.663C591.975 223.233 616.559 195.388 629.946 183.905C652.149 160.179 650.591 159.96 675.928 132.256C696.223 121.872 582.097 248.86 597.623 242.316C615.87 222.506 665.596 175.946 688.006 143.207L663.517 166.553L686.575 138.456C688.87 138.832 689.524 143.462 714.102 115.63C634.736 207.35 801.566 38.7968 673.365 172.661C690.946 148.216 686.185 152.053 651.425 187.321C649.549 200.63 621.552 241.535 625.275 246.652L663.225 207.354C627.571 247.028 606.047 275.364 598.784 287.839C607.515 280.069 605.793 284.426 623.272 264.493C645.444 240.8 628.456 242.625 695.613 176.201C685.822 197.333 658.556 238.408 610.047 298.714C599.079 306.033 607.113 293.692 556.483 344.663C499.894 390.076 528.139 340.121 461.199 397.528C485.793 369.68 493.025 357.238 519.168 329.613C535.847 309.587 514.561 328.877 549.488 289.042C507.036 323.102 520.088 293.461 517.997 284.093C456.126 355.863 473.043 326.792 445.377 354.174C471.615 322.051 456.676 333.302 453.646 332.778C442.539 344.654 437.093 348.273 419.609 368.219C429.056 360.636 415.558 376.634 410.698 384.96C363.204 436.341 409.291 380.19 409.439 375.63L436.304 348.177C434.129 343.283 509.657 250.951 461.479 297.735L419.32 350.012C394.927 368.859 451.504 296.158 393.021 354.887C379.365 375.448 418.793 340.851 357.751 408.27C325.262 443.933 323.846 439.167 335.811 422.929C390.087 349.864 253.213 491.424 337.495 386.915L337.488 386.896Z" fill="#FF3D00" fill-opacity="0.1"/>
<path d="M240.35 512.059C248.785 513.41 330.56 417.529 327.91 430.727C294.667 466.25 269.938 498.632 269.025 503.078C289.57 483.622 278.382 499.98 280.72 500.298C275.059 508.555 235.455 552.133 232.36 551.665C292.878 475.064 183.035 584.604 240.341 512.062L240.35 512.059Z" fill="#FF3D00" fill-opacity="0.1"/>
<path d="M415.752 308.597C423.53 305.309 346.703 388.346 368.748 369.184C327.626 412.507 366.468 368.792 362.618 368.206L386.384 344.687L415.758 308.585L415.752 308.597Z" fill="#FF3D00" fill-opacity="0.1"/>
<path d="M335.335 440.99C341.601 437.434 326.319 462.233 283.537 509.848C280.325 513.908 258.153 537.601 266.842 529.89C278.777 513.685 279.039 504.62 335.335 440.99Z" fill="#FF3D00" fill-opacity="0.1"/>
<path d="M499.04 244.687C507.698 237.009 509.21 237.277 511.533 237.611C502.86 245.306 483.104 264.857 499.04 244.687Z" fill="#FF3D00" fill-opacity="0.1"/>
<path d="M417.649 354.277C449.379 318.485 427.066 346.725 427.84 346.837L415.116 362.946C406.489 370.593 400.935 374.325 417.649 354.277Z" fill="#FF3D00" fill-opacity="0.1"/>
<path d="M336.808 472.997C326.379 489.483 293.375 515.96 290.799 524.688L284.604 528.176L333.751 472.516L336.821 473.003L336.808 472.997Z" fill="#FF3D00" fill-opacity="0.1"/>
<path d="M296.223 525.477C308.078 513.755 312.78 509.992 303.98 522.218L284.99 541.884C277.094 549.699 297.745 525.742 296.223 525.477Z" fill="#FF3D00" fill-opacity="0.1"/>
<path d="M405.792 397.715C418.389 386.136 393.037 413.857 383.493 425.939C368.458 441.688 400.269 401.415 405.792 397.715Z" fill="#FF3D00" fill-opacity="0.1"/>
<path d="M718.18 75.4501C677.043 118.789 698.542 90.4732 684.402 101.816C698.542 90.4732 721.488 66.8916 718.18 75.4501Z" fill="#FF3D00" fill-opacity="0.1"/>
<path d="M155.1 503.031C167.824 486.921 155.242 498.483 143.372 510.222L129.843 526.252L155.09 503.034L155.1 503.031Z" fill="#FF3D00" fill-opacity="0.1"/>
<path d="M149.587 538.43C197.861 487.148 173.376 510.503 206.022 470.276C212.496 457.706 172.183 496.706 171.55 492.048L143.896 519.405C131.061 540.029 122.032 561.298 149.587 538.43Z" fill="#FF3D00" fill-opacity="0.1"/>
<path d="M385.675 281.092C404.018 256.784 367.675 291.852 365.38 291.476C362.041 300.067 363.473 304.818 362.614 309.179C373.71 297.329 379.263 289.186 385.672 281.083L385.675 281.092Z" fill="#FF3D00" fill-opacity="0.1"/>
<path d="M103.36 508.418C108.716 509.285 76.7634 554.106 139.976 491.573C148.029 479.194 162.275 463.349 168.748 450.779C232.862 383.826 164.555 463.741 168.42 464.311C179.581 447.995 208.783 420.86 215.065 417.288C202.229 437.913 213.821 435.256 220.735 436.342C245.208 413.013 215.566 458.194 275.012 390.57C282.846 387.23 236.839 438.898 225.621 455.289C302.99 381.396 106.154 608.708 198.585 519.024C162.122 558.61 170.653 555.463 169.039 559.706C169.693 564.336 172.509 573.886 238.398 498.135C282.093 446.106 204.619 524.501 246.72 472.298C314.374 387.753 279.767 445.763 340.769 378.38C328.976 390.038 382.094 330.445 360.756 349.796C393.044 323.133 425.922 273.873 465.415 234.81C496.609 189.861 497.368 189.988 572.001 102.064C556.302 113.187 503.959 172.891 473.87 204.429C439.981 235.31 507.526 155.289 488.613 170.463C585.204 67.8717 556.251 85.9343 550.901 85.0545C551.133 76.0213 466.164 175.923 469.577 162.863C512.468 110.755 534.312 100.594 579.652 44.2897L558.375 63.5758C520.394 102.907 472.105 154.206 444.451 181.563C442.917 181.324 440.606 180.964 454.879 165.077C472.241 149.671 507.124 109.863 525.451 85.5706C509.682 101.173 505.702 105.109 490.676 120.855C392.992 236.863 480.664 123.702 418.926 186.549C327.438 271.755 534.048 50.6425 482.19 92.2508C396.471 192.022 430.954 138.521 394.615 173.599C394.711 169.1 418.573 141.083 444.815 108.968C434.543 119.137 427.865 123.14 410.49 141.867C293.584 273.778 187.384 401.537 96.1102 515.786C98.547 513.454 100.853 511.201 103.36 508.418Z" fill="#FF3D00" fill-opacity="0.1"/>
</svg>
