<svg width="466" height="495" viewBox="0 0 466 495" fill="none" xmlns="http://www.w3.org/2000/svg">
<g opacity="0.5" clip-path="url(#clip0_610_424)">
<g style="mix-blend-mode:multiply">
<path d="M129.308 14.7058L2.59822 368.268C1.3957 371.623 3.1413 375.319 6.49676 376.521L98.0613 409.336C101.417 410.539 105.112 408.793 106.315 405.438L233.024 51.8758L129.308 14.7058Z" fill="#9C9BA0"/>
</g>
<path d="M233.015 52.2819L134.589 17.0078L31.8542 303.672L130.281 338.946L233.015 52.2819Z" fill="#E44D2C"/>
<path d="M130.59 346.46L110.104 403.623C108.901 406.979 105.205 408.724 101.85 407.522L10.2853 374.707C6.92986 373.504 5.18424 369.809 6.38677 366.453L26.873 309.29L130.62 346.47L130.59 346.46Z" fill="#E8EBEF"/>
<path d="M130.59 346.46L110.489 402.738C109.897 405.152 107.959 407.323 105.429 407.815C102.875 408.469 100.5 407.004 98.1898 406.312L84.1332 401.275L55.9983 391.26L27.885 381.185L13.8067 376.208L10.3001 374.951C9.1212 374.528 7.9599 373.771 7.20067 372.749C5.53963 370.721 5.4133 367.742 6.50015 365.47L26.7219 309.235L26.776 309.084L26.9272 309.138L130.62 346.47L130.59 346.46ZM130.59 346.46L26.7886 309.43L26.9939 309.333L6.89313 365.611C5.84734 367.863 5.98049 370.537 7.51205 372.451C8.97005 374.474 11.633 374.849 13.9174 375.804L27.974 380.841L56.0656 390.977L84.1788 401.052L98.2138 406.15C100.555 406.853 102.869 408.296 105.351 407.651C107.821 407.137 109.685 405.076 110.308 402.673L130.529 346.438L130.59 346.46Z" fill="#B8B9C0"/>
<g style="mix-blend-mode:multiply">
<path d="M214.04 94.5686L122.385 61.7212L112.678 88.8066L204.333 121.654L214.04 94.5686Z" fill="#B0AFB5"/>
</g>
<g style="mix-blend-mode:multiply">
<path d="M202.978 125.433L111.323 92.5852L101.616 119.671L193.272 152.518L202.978 125.433Z" fill="#C3C5CA"/>
</g>
<g style="mix-blend-mode:multiply">
<path d="M191.918 156.297L100.263 123.449L90.5558 150.535L182.211 183.382L191.918 156.297Z" fill="#F7F8F8"/>
</g>
<g style="mix-blend-mode:hard-light" opacity="0.1">
<path d="M180.856 187.161L89.2012 154.313L79.4943 181.399L171.15 214.246L180.856 187.161Z" fill="#B2B1B7"/>
</g>
<g style="mix-blend-mode:hard-light" opacity="0.2">
<path d="M169.796 218.025L78.1406 185.178L68.4337 212.263L160.089 245.11L169.796 218.025Z" fill="#B8B8BD"/>
</g>
<g style="mix-blend-mode:hard-light" opacity="0.3">
<path d="M158.724 248.919L67.0684 216.072L57.3615 243.157L149.017 276.005L158.724 248.919Z" fill="#D2D4D8"/>
</g>
<g style="mix-blend-mode:hard-light" opacity="0.4">
<path d="M147.662 279.784L56.0068 246.936L46.3 274.022L137.955 306.869L147.662 279.784Z" fill="#E9EAED"/>
</g>
<g style="mix-blend-mode:hard-light" opacity="0.54">
<path d="M136.602 310.648L44.9463 277.8L35.2394 304.886L126.895 337.733L136.602 310.648Z" fill="white"/>
</g>
<g style="mix-blend-mode:soft-light" opacity="0.46">
<path d="M133.449 52.9287C137.053 58.4841 145.241 58.8603 153.624 55.0764C163.393 50.6632 167.807 43.5808 166.047 37.3557C166.047 37.3557 165.567 36.1261 165.301 35.724C163.173 32.812 160.188 30.4802 156.53 29.1693C146.826 25.6918 136.18 30.7455 132.714 40.4189C131.663 43.3511 131.402 46.362 131.795 49.2656C132.358 51.3096 132.964 52.3795 133.48 52.9396L133.449 52.9287Z" fill="white"/>
</g>
<g style="mix-blend-mode:multiply">
<path d="M166.023 35.7096C168.641 40.3999 169.315 46.1335 167.365 51.5747C163.779 61.5806 152.774 66.7787 142.768 63.1928C138.657 61.7194 135.376 58.9747 133.147 55.5831C135.324 59.5017 138.889 62.6896 143.423 64.3146C153.429 67.9005 164.434 62.7025 168.02 52.6966C170.133 46.8018 169.165 40.5538 165.993 35.6988L166.023 35.7096Z" fill="#9C9BA0"/>
</g>
<path d="M133.065 12.8804L26.8423 309.279L130.589 346.46L236.812 50.0612L133.065 12.8804ZM156.442 28.0806C166.448 31.6665 171.646 42.6714 168.05 52.7075C164.453 62.7436 153.459 67.9114 143.453 64.3255C133.447 60.7396 128.249 49.7348 131.835 39.7289C135.421 29.723 146.437 24.4947 156.442 28.0806ZM126.894 337.733L35.239 304.886L44.9459 277.8L136.601 310.648L126.894 337.733ZM137.955 306.869L46.3001 274.022L56.007 246.936L147.662 279.783L137.955 306.869ZM149.016 276.005L57.3612 243.157L67.0681 216.072L158.723 248.919L149.016 276.005ZM160.078 245.141L68.4223 212.293L78.1291 185.208L169.784 218.055L160.078 245.141ZM171.139 214.277L79.4833 181.429L89.1902 154.344L180.845 187.191L171.139 214.277ZM182.2 183.412L90.5444 150.565L100.251 123.48L191.907 156.327L182.2 183.412ZM193.261 152.548L101.605 119.701L111.312 92.6155L202.968 125.463L193.261 152.548ZM204.322 121.684L112.667 88.8368L122.373 61.7514L214.029 94.5987L204.322 121.684Z" fill="#E8EBEF"/>
<g style="mix-blend-mode:multiply">
<path d="M31.8003 311.055C39.8464 313.257 47.7539 315.75 55.6591 318.344C63.586 320.878 71.396 323.643 79.2362 326.418C87.0547 329.254 94.8431 332.08 102.575 335.158C110.318 338.205 118.019 341.272 125.632 344.683C117.586 342.482 109.679 339.989 101.773 337.395C93.8464 334.861 86.0364 332.096 78.1962 329.32C70.3776 326.484 62.5893 323.659 54.8574 320.581C47.1147 317.533 39.413 314.466 31.8003 311.055Z" fill="#D8DADE"/>
</g>
<g style="mix-blend-mode:multiply">
<path d="M228.121 55.372L180.026 38.1357L176.408 48.2323L224.503 65.4685L228.121 55.372Z" fill="#C9CCD2"/>
</g>
<g style="mix-blend-mode:multiply">
<path d="M217.924 65.3619L175.693 50.2274L174.675 53.069L216.905 68.2035L217.924 65.3619Z" fill="#C9CCD2"/>
</g>
<g style="mix-blend-mode:multiply">
<path d="M220.939 75.4139L172.844 58.1777L172.302 59.6892L220.397 76.9254L220.939 75.4139Z" fill="#C9CCD2"/>
</g>
<g style="mix-blend-mode:multiply">
<path d="M219.736 78.7694L171.642 61.5332L171.1 63.0447L219.195 80.2809L219.736 78.7694Z" fill="#C9CCD2"/>
</g>
<g style="mix-blend-mode:multiply">
<path d="M218.523 82.1552L170.428 64.9189L169.886 66.4304L217.981 83.6666L218.523 82.1552Z" fill="#C9CCD2"/>
</g>
<g style="mix-blend-mode:multiply">
<path d="M190.315 75.8664L169.215 68.3046L168.673 69.816L189.773 77.3779L190.315 75.8664Z" fill="#C9CCD2"/>
</g>
<g style="mix-blend-mode:multiply">
<path d="M110.149 387.982C107.571 395.177 99.6456 398.92 92.451 396.342C85.2565 393.763 81.5131 385.838 84.0915 378.643C86.6699 371.449 94.595 367.706 101.79 370.284C108.984 372.862 112.728 380.787 110.149 387.982Z" fill="#D8DADE"/>
</g>
<path d="M109.952 386.342C107.373 393.537 99.4483 397.28 92.2538 394.702C85.0592 392.124 81.3158 384.198 83.8942 377.004C86.4726 369.809 94.3977 366.066 101.592 368.644C108.787 371.223 112.53 379.148 109.952 386.342Z" fill="#57575A"/>
<g style="mix-blend-mode:multiply">
<path d="M110.268 378.132C110.673 380.427 110.618 391.05 99.5785 392.824C89.1088 394.53 84.0713 386.789 83.2794 384.049C84.108 388.781 87.3868 392.958 92.2235 394.691C99.4181 397.269 107.343 393.526 109.922 386.331C110.907 383.581 110.971 380.738 110.278 378.102L110.268 378.132Z" fill="#9C9BA0"/>
</g>
<g style="mix-blend-mode:overlay" opacity="0.33">
<path d="M98.9023 386.715C107.385 383.035 108.472 376.193 106.467 373.222C105.438 372.001 104.151 370.926 102.655 370.151C96.4204 366.893 88.7085 369.28 85.4097 375.534C84.0417 378.114 83.6843 380.92 84.1329 383.571C84.2961 384.448 88.8812 391.071 98.9023 386.715Z" fill="white"/>
</g>
<g style="mix-blend-mode:overlay" opacity="0.33">
<path d="M103.051 376.092C104.302 379.644 101.926 383.705 97.8004 385.126C93.6644 386.577 89.2943 384.875 88.054 381.292C86.8029 377.739 89.1791 373.679 93.3042 372.258C97.4402 370.806 101.81 372.509 103.051 376.092Z" fill="white"/>
</g>
<g style="mix-blend-mode:multiply">
<path d="M174.606 20.3307L33.4011 301.736L6.1634 356.037C4.57873 359.221 5.84243 363.12 9.02681 364.704L95.9612 408.345C99.1456 409.929 103.044 408.666 104.639 405.451L131.866 351.181L273.112 69.7556L174.606 20.3307Z" fill="#9C9BA0"/>
</g>
<path d="M178.294 23.7812L41.7217 295.956L135.173 342.848L271.745 70.6734L178.294 23.7812Z" fill="#DEB338"/>
<path d="M134.587 350.348L107.36 404.618C105.775 407.803 101.866 409.096 98.6925 407.482L11.7581 363.841C8.57369 362.256 7.27976 358.347 8.89467 355.174L36.1216 300.903L134.628 350.328L134.587 350.348Z" fill="#E8EBEF"/>
<path d="M134.587 350.348L107.855 403.807C106.95 406.143 104.764 408.054 102.241 408.242C99.6224 408.599 97.4469 406.865 95.2447 405.871L81.8746 399.203L55.1453 385.837L28.4159 372.472L15.0458 365.804L11.7211 364.135C10.5855 363.591 9.54971 362.674 8.9245 361.563C7.50128 359.348 7.75079 356.367 9.11827 354.265L35.9899 300.89L36.0441 300.739L36.1952 300.793L134.617 350.359L134.587 350.348ZM134.587 350.348L36.0373 301.044L36.2318 300.977L9.50041 354.436C8.20423 356.53 8.02198 359.227 9.2855 361.318C10.4863 363.488 13.1014 364.186 15.2277 365.392L28.5762 372.12L55.2839 385.546L81.9505 398.991L95.2989 405.72C97.5313 406.724 99.6572 408.407 102.193 408.088C104.686 407.89 106.799 406.089 107.704 403.752L134.576 350.378L134.587 350.348Z" fill="#B8B9C0"/>
<g style="mix-blend-mode:multiply">
<path d="M160.783 66.6853L147.879 92.4017L234.901 136.068L247.805 110.352L160.783 66.6853Z" fill="#B0AFB5"/>
</g>
<g style="mix-blend-mode:multiply">
<path d="M146.078 95.986L133.174 121.702L220.196 165.369L233.1 139.652L146.078 95.986Z" fill="#C3C5CA"/>
</g>
<g style="mix-blend-mode:multiply">
<path d="M131.389 125.326L118.485 151.042L205.508 194.709L218.412 168.992L131.389 125.326Z" fill="#F7F8F8"/>
</g>
<g style="mix-blend-mode:hard-light" opacity="0.1">
<path d="M116.655 154.612L103.751 180.329L190.773 223.995L203.677 198.279L116.655 154.612Z" fill="#B2B1B7"/>
</g>
<g style="mix-blend-mode:hard-light" opacity="0.2">
<path d="M101.98 183.924L89.0762 209.64L176.099 253.306L189.003 227.59L101.98 183.924Z" fill="#B8B8BD"/>
</g>
<g style="mix-blend-mode:hard-light" opacity="0.3">
<path d="M87.2751 213.224L74.3711 238.941L161.393 282.607L174.297 256.891L87.2751 213.224Z" fill="#D2D4D8"/>
</g>
<g style="mix-blend-mode:hard-light" opacity="0.4">
<path d="M72.5163 242.569L59.6123 268.286L146.635 311.952L159.539 286.236L72.5163 242.569Z" fill="#E9EAED"/>
</g>
<g style="mix-blend-mode:hard-light" opacity="0.54">
<path d="M57.8415 271.881L44.9375 297.597L131.96 341.263L144.864 315.547L57.8415 271.881Z" fill="white"/>
</g>
<g style="mix-blend-mode:soft-light" opacity="0.46">
<path d="M172.808 59.3247C175.722 65.2811 183.808 66.6098 192.564 63.8804C202.782 60.686 208.036 54.2115 207.032 47.7798C207.032 47.7798 206.705 46.5029 206.481 46.0814C204.713 42.9236 202.021 40.2529 198.586 38.5103C189.395 33.8863 178.2 37.6174 173.576 46.8078C172.173 49.5799 171.548 52.5623 171.594 55.4784C171.903 57.5676 172.386 58.6957 172.808 59.3247Z" fill="white"/>
</g>
<g style="mix-blend-mode:multiply">
<path d="M207.241 46.1492C209.284 51.111 209.256 56.9 206.651 62.0727C201.878 71.5848 190.304 75.4193 180.823 70.6567C176.915 68.7105 174.009 65.5881 172.211 61.9421C173.896 66.0935 177.046 69.6783 181.374 71.8777C190.886 76.6511 202.43 72.8059 207.203 63.2938C210.019 57.7195 209.825 51.4076 207.261 46.1903L207.241 46.1492Z" fill="#9C9BA0"/>
</g>
<path d="M177.285 19.5172L36.0803 300.923L134.586 350.348L275.791 68.9421L177.285 19.5172ZM198.672 37.4153C208.184 42.1887 212.018 53.7623 207.255 63.2442C202.482 72.7563 190.908 76.5907 181.427 71.8281C171.914 67.0547 168.08 55.4811 172.843 45.9992C177.616 36.4871 189.19 32.6527 198.672 37.4153ZM131.987 341.229L44.962 297.556L57.8686 271.822L144.894 315.495L131.987 341.229ZM146.691 311.909L59.6654 268.236L72.5612 242.533L159.586 286.206L146.68 311.94L146.691 311.909ZM161.394 282.589L74.3688 238.916L87.2755 213.182L174.301 256.855L161.405 282.559L161.394 282.589ZM176.097 253.269L89.0723 209.596L101.979 183.862L189.004 227.535L176.097 253.269ZM190.801 223.949L103.776 180.276L116.672 154.573L203.697 198.246L190.79 223.98L190.801 223.949ZM205.504 194.629L118.479 150.956L131.375 125.253L218.4 168.926L205.493 194.66L205.504 194.629ZM220.208 165.309L133.183 121.636L146.089 95.9024L233.114 139.575L220.208 165.309ZM234.911 135.989L147.886 92.3165L160.782 66.6127L247.807 110.286L234.9 136.02L234.911 135.989Z" fill="#E8EBEF"/>
<g style="mix-blend-mode:multiply">
<path d="M40.7606 303.282C48.4709 306.421 56.0317 309.881 63.5708 313.402C71.1317 316.862 78.5756 320.553 86.0195 324.244C93.4418 327.995 100.823 331.766 108.128 335.749C115.445 339.701 122.75 343.684 129.865 348.007C122.155 344.869 114.594 341.409 107.055 337.888C99.4938 334.428 92.0498 330.737 84.6167 327.016C77.1945 323.264 69.8133 319.493 62.5079 315.511C55.1917 311.558 47.8864 307.576 40.7715 303.252L40.7606 303.282Z" fill="#D8DADE"/>
</g>
<g style="mix-blend-mode:multiply">
<path d="M220.842 50.2465L216.032 59.8328L261.696 82.746L266.506 73.1598L220.842 50.2465Z" fill="#C9CCD2"/>
</g>
<g style="mix-blend-mode:multiply">
<path d="M215.096 61.7287L213.742 64.4266L253.838 84.5459L255.192 81.848L215.096 61.7287Z" fill="#C9CCD2"/>
</g>
<g style="mix-blend-mode:multiply">
<path d="M211.293 69.2602L210.573 70.6954L256.212 93.5863L256.932 92.1511L211.293 69.2602Z" fill="#C9CCD2"/>
</g>
<g style="mix-blend-mode:multiply">
<path d="M209.669 72.4761L208.949 73.9111L254.613 96.8244L255.333 95.3893L209.669 72.4761Z" fill="#C9CCD2"/>
</g>
<g style="mix-blend-mode:multiply">
<path d="M208.07 75.6654L207.35 77.1005L253.013 100.014L253.733 98.5786L208.07 75.6654Z" fill="#C9CCD2"/>
</g>
<g style="mix-blend-mode:multiply">
<path d="M206.421 78.8973L205.701 80.3325L225.736 90.3815L226.456 88.9463L206.421 78.8973Z" fill="#C9CCD2"/>
</g>
<g style="mix-blend-mode:multiply">
<path d="M109.24 389.089C105.807 395.909 97.5179 398.669 90.6569 395.255C83.837 391.822 81.0769 383.533 84.5211 376.683C87.9544 369.863 96.2435 367.102 103.063 370.536C109.883 373.969 112.644 382.258 109.24 389.089Z" fill="#D8DADE"/>
</g>
<path d="M109.247 387.454C105.813 394.274 97.5241 397.034 90.6934 393.631C83.8734 390.198 81.1133 381.908 84.5466 375.088C87.98 368.269 96.2691 365.508 103.1 368.912C109.92 372.345 112.68 380.634 109.247 387.454Z" fill="#57575A"/>
<g style="mix-blend-mode:multiply">
<path d="M110.587 379.338C110.707 381.667 109.354 392.2 98.2122 392.641C87.5884 393.064 83.5581 384.797 83.1033 381.973C83.3615 386.773 86.1042 391.304 90.694 393.631C97.5139 397.064 105.833 394.315 109.247 387.454C110.555 384.852 110.953 382.028 110.587 379.338Z" fill="#9C9BA0"/>
</g>
<g style="mix-blend-mode:overlay" opacity="0.33">
<path d="M98.2378 386.476C107.093 383.851 109.01 377.169 107.384 373.995C106.5 372.654 105.359 371.461 103.969 370.485C98.1669 366.495 90.2118 367.943 86.192 373.734C84.5543 376.114 83.8017 378.881 83.9348 381.555C83.9857 382.46 87.7472 389.573 98.2378 386.476Z" fill="white"/>
</g>
<g style="mix-blend-mode:overlay" opacity="0.33">
<path d="M103.643 376.44C104.445 380.104 101.628 383.871 97.3415 384.791C93.0549 385.71 88.9402 383.485 88.1386 379.821C87.3369 376.156 90.1836 372.401 94.44 371.47C98.7266 370.551 102.852 372.745 103.643 376.44Z" fill="white"/>
</g>
<g style="mix-blend-mode:multiply">
<path d="M218.807 32.2489L43.7329 293.943L9.95865 344.401C7.97243 347.373 8.7867 351.383 11.7287 353.358L92.5992 407.447C95.5714 409.433 99.5814 408.619 101.557 405.677L135.331 355.22L310.406 93.5251L218.807 32.2489Z" fill="#9C9BA0"/>
</g>
<path d="M221.811 36.705L52.5303 289.797L139.439 347.926L308.72 94.8339L221.811 36.705Z" fill="#633C8F"/>
<path d="M137.899 355.287L104.125 405.744C102.139 408.717 98.1396 409.501 95.1673 407.514L14.2969 353.426C11.3246 351.44 10.5406 347.44 12.5268 344.468L46.301 294.011L137.899 355.287Z" fill="#E8EBEF"/>
<path d="M137.899 355.287L104.73 405.006C103.564 407.215 101.14 408.837 98.5938 408.708C95.9326 408.71 94.0166 406.727 91.9313 405.502L79.5113 397.23L54.6518 380.646L29.7923 364.062L17.3722 355.79L14.2596 353.72C13.2084 353.036 12.2872 351.989 11.7852 350.82C10.6602 348.439 11.2639 345.517 12.8818 343.572L46.1907 293.938L46.2449 293.786L46.4155 293.882L137.929 355.298L137.899 355.287ZM137.899 355.287L46.2273 294.121L46.4411 294.096L13.2423 343.804C11.6655 345.729 11.1701 348.348 12.1764 350.585C13.0898 352.891 15.5857 353.922 17.5843 355.389L29.9827 363.721L54.7903 380.355L79.5979 396.989L91.9963 405.321C94.101 406.587 95.9976 408.528 98.5573 408.525C101.074 408.642 103.363 407.109 104.56 404.911L137.858 355.307L137.899 355.287Z" fill="#B8B9C0"/>
<g style="mix-blend-mode:multiply">
<path d="M199.132 77.0738L183.136 100.99L264.065 155.119L280.061 131.204L199.132 77.0738Z" fill="#B0AFB5"/>
</g>
<g style="mix-blend-mode:multiply">
<path d="M180.922 104.346L164.922 128.26L245.842 182.404L261.842 158.49L180.922 104.346Z" fill="#C3C5CA"/>
</g>
<g style="mix-blend-mode:multiply">
<path d="M162.677 131.598L146.681 155.514L227.61 209.644L243.606 185.728L162.677 131.598Z" fill="#F7F8F8"/>
</g>
<g style="mix-blend-mode:hard-light" opacity="0.1">
<path d="M144.47 158.849L128.47 182.762L209.39 236.906L225.39 212.993L144.47 158.849Z" fill="#B2B1B7"/>
</g>
<g style="mix-blend-mode:hard-light" opacity="0.2">
<path d="M126.185 186.109L110.188 210.025L191.118 264.154L207.114 240.239L126.185 186.109Z" fill="#B8B8BD"/>
</g>
<g style="mix-blend-mode:hard-light" opacity="0.3">
<path d="M107.97 213.366L91.9697 237.279L172.89 291.423L188.89 267.51L107.97 213.366Z" fill="#D2D4D8"/>
</g>
<g style="mix-blend-mode:hard-light" opacity="0.4">
<path d="M89.7413 240.603L73.7451 264.519L154.675 318.649L170.671 294.733L89.7413 240.603Z" fill="#E9EAED"/>
</g>
<g style="mix-blend-mode:hard-light" opacity="0.54">
<path d="M71.5062 267.899L55.5059 291.812L136.426 345.956L152.426 322.043L71.5062 267.899Z" fill="white"/>
</g>
<g style="mix-blend-mode:soft-light" opacity="0.46">
<path d="M211.992 71.2526C214.147 77.517 222.007 79.8564 231.012 78.2397C241.547 76.3525 247.558 70.5247 247.388 64.0508C247.388 64.0508 247.234 62.7675 247.062 62.2964C245.705 58.9447 243.364 55.9569 240.142 53.8127C231.585 48.0856 220.016 50.3863 214.289 58.9426C212.545 61.5242 211.587 64.3874 211.268 67.2751C211.322 69.4093 211.651 70.5847 211.992 71.2526Z" fill="white"/>
</g>
<g style="mix-blend-mode:multiply">
<path d="M247.79 62.455C249.208 67.6364 248.45 73.3684 245.224 78.1819C239.328 87.0188 227.36 89.3818 218.523 83.4859C214.891 81.0583 212.378 77.5994 211.052 73.7811C212.224 78.1241 214.868 82.0735 218.922 84.7543C227.759 90.6502 239.726 88.2872 245.622 79.4503C249.09 74.2461 249.698 67.9826 247.79 62.455Z" fill="#9C9BA0"/>
</g>
<path d="M221.345 32.3057L46.3008 294.011L137.899 355.287L312.973 93.5927L221.345 32.3057ZM240.329 52.7199C249.166 58.6158 251.529 70.5831 245.633 79.42C239.737 88.2569 227.77 90.6199 218.933 84.724C210.096 78.828 207.733 66.8608 213.629 58.0238C219.525 49.1869 231.492 46.8239 240.329 52.7199ZM136.423 345.889L55.5031 291.749L71.5074 267.841L152.428 321.982L136.423 345.889ZM154.656 318.619L73.736 264.478L89.7404 240.571L170.66 294.711L154.656 318.619ZM172.878 291.378L91.9581 237.238L107.962 213.33L188.883 267.471L172.878 291.378ZM191.111 264.108L110.191 209.967L126.195 186.06L207.115 240.2L191.111 264.108ZM209.333 236.868L128.413 182.727L144.418 158.82L225.338 212.96L209.333 236.868ZM227.566 209.597L146.646 155.457L162.65 131.549L243.57 185.69L227.566 209.597ZM245.799 182.327L164.879 128.186L180.883 104.279L261.803 158.419L245.799 182.327ZM264.021 155.086L183.101 100.946L199.105 77.0382L280.026 131.179L264.021 155.086Z" fill="#E8EBEF"/>
<g style="mix-blend-mode:multiply">
<path d="M50.6436 296.932C57.9164 301.005 64.9794 305.378 72.0208 309.812C79.0838 314.185 85.9996 318.779 92.9457 323.383C99.8399 328.037 106.704 332.68 113.462 337.524C120.22 342.368 126.978 347.212 133.515 352.386C126.242 348.312 119.179 343.939 112.127 339.536C105.064 335.162 98.148 330.569 91.2019 325.965C84.3077 321.311 77.4437 316.668 70.6966 311.794C63.9279 306.98 57.1808 302.106 50.6436 296.932Z" fill="#D8DADE"/>
</g>
<g style="mix-blend-mode:multiply">
<path d="M260.731 68.2015L254.786 77.0898L297.253 105.494L303.198 96.6054L260.731 68.2015Z" fill="#C9CCD2"/>
</g>
<g style="mix-blend-mode:multiply">
<path d="M253.588 78.8998L251.909 81.4086L289.193 106.356L290.872 103.847L253.588 78.8998Z" fill="#C9CCD2"/>
</g>
<g style="mix-blend-mode:multiply">
<path d="M248.922 85.8995L248.029 87.2341L290.496 115.638L291.389 114.303L248.922 85.8995Z" fill="#C9CCD2"/>
</g>
<g style="mix-blend-mode:multiply">
<path d="M246.938 88.887L246.045 90.2216L288.512 118.625L289.404 117.291L246.938 88.887Z" fill="#C9CCD2"/>
</g>
<g style="mix-blend-mode:multiply">
<path d="M244.923 91.8424L244.03 93.1769L286.492 121.588L287.385 120.254L244.923 91.8424Z" fill="#C9CCD2"/>
</g>
<g style="mix-blend-mode:multiply">
<path d="M242.924 94.8313L242.031 96.1658L260.66 108.63L261.553 107.296L242.924 94.8313Z" fill="#C9CCD2"/>
</g>
<g style="mix-blend-mode:multiply">
<path d="M107.957 390.574C103.702 396.929 95.1113 398.626 88.7567 394.37C82.402 390.114 80.705 381.524 84.9608 375.169C89.2167 368.814 97.807 367.117 104.131 371.362C110.486 375.618 112.183 384.208 107.938 390.533L107.957 390.574Z" fill="#D8DADE"/>
</g>
<path d="M108.167 388.943C103.911 395.298 95.3204 396.995 88.9657 392.739C82.6111 388.483 80.9141 379.893 85.1591 373.569C89.4149 367.214 98.0053 365.517 104.33 369.762C110.684 374.018 112.381 382.608 108.136 388.933L108.167 388.943Z" fill="#57575A"/>
<g style="mix-blend-mode:multiply">
<path d="M110.487 381.042C110.303 383.364 107.676 393.645 96.5441 392.726C85.9499 391.829 82.9656 383.118 82.8672 380.252C82.5163 385.038 84.6733 389.87 88.9665 392.739C95.3212 396.995 103.912 395.298 108.167 388.943C109.786 386.522 110.538 383.755 110.487 381.042Z" fill="#9C9BA0"/>
</g>
<g style="mix-blend-mode:overlay" opacity="0.33">
<path d="M97.3717 386.609C106.506 385.107 109.209 378.708 107.984 375.369C107.274 373.921 106.289 372.579 105.013 371.473C99.7458 366.754 91.6903 367.244 86.982 372.482C85.0442 374.653 84.0002 377.28 83.7877 379.967C83.7068 380.859 86.5649 388.399 97.3717 386.609Z" fill="white"/>
</g>
<g style="mix-blend-mode:overlay" opacity="0.33">
<path d="M103.968 377.341C104.301 381.076 101.046 384.447 96.6695 384.857C92.3036 385.237 88.494 382.541 88.1417 378.765C87.8088 375.03 91.0634 371.659 95.4294 371.279C99.7953 370.9 103.605 373.595 103.968 377.341Z" fill="white"/>
</g>
<g style="mix-blend-mode:multiply">
<path d="M262.815 51.4657L55.8345 288.729L15.9286 334.499C13.5928 337.209 13.8777 341.268 16.5472 343.624L89.853 407.589C92.5332 409.914 96.6226 409.639 98.9779 406.97L138.884 361.2L345.875 123.907L262.815 51.4657Z" fill="#9C9BA0"/>
</g>
<path d="M265.229 55.984L65.0605 285.469L143.855 354.197L344.023 124.712L265.229 55.984Z" fill="#9D2025"/>
<path d="M141.401 361.318L101.495 407.087C99.1288 409.787 95.0805 410.042 92.37 407.706L19.0534 343.771C16.3839 341.416 16.0989 337.357 18.4348 334.646L58.3709 288.888L141.431 361.329L141.401 361.318Z" fill="#E8EBEF"/>
<path d="M141.4 361.318L102.18 406.412C100.733 408.452 98.1542 409.745 95.6144 409.312C92.9709 408.979 91.3338 406.789 89.4173 405.283L78.1588 395.484L55.6118 375.873L33.0647 356.263L21.8063 346.463L18.9965 344.024C18.0297 343.2 17.2728 342.076 16.935 340.829C16.1169 338.353 17.105 335.5 18.9408 333.804L58.2907 288.825L58.3945 288.726L58.4937 288.829L141.439 361.4L141.4 361.318ZM141.4 361.318L58.2667 288.987L58.4806 288.961L19.2602 334.055C17.4547 335.762 16.6462 338.304 17.3348 340.665C17.9413 343.066 20.2987 344.388 22.0681 346.114L33.3156 355.944L55.8108 375.604L78.306 395.263L89.5536 405.093C91.4592 406.629 93.1072 408.789 95.6492 409.12C98.1177 409.561 100.614 408.307 102.05 406.297L141.4 361.318Z" fill="#B8B9C0"/>
<g style="mix-blend-mode:multiply">
<path d="M237.582 93.1837L218.669 114.867L292.042 178.867L310.955 157.184L237.582 93.1837Z" fill="#B0AFB5"/>
</g>
<g style="mix-blend-mode:multiply">
<path d="M216.047 117.932L197.13 139.612L270.492 203.624L289.409 181.945L216.047 117.932Z" fill="#C3C5CA"/>
</g>
<g style="mix-blend-mode:multiply">
<path d="M194.491 142.594L175.578 164.276L248.951 228.276L267.864 206.594L194.491 142.594Z" fill="#F7F8F8"/>
</g>
<g style="mix-blend-mode:hard-light" opacity="0.1">
<path d="M172.92 167.338L154.007 189.021L227.38 253.021L246.293 231.338L172.92 167.338Z" fill="#B2B1B7"/>
</g>
<g style="mix-blend-mode:hard-light" opacity="0.2">
<path d="M151.355 192.006L132.442 213.689L205.816 277.689L224.729 256.006L151.355 192.006Z" fill="#B8B8BD"/>
</g>
<g style="mix-blend-mode:hard-light" opacity="0.3">
<path d="M129.805 216.726L110.892 238.409L184.265 302.409L203.178 280.726L129.805 216.726Z" fill="#D2D4D8"/>
</g>
<g style="mix-blend-mode:hard-light" opacity="0.4">
<path d="M108.244 241.441L89.3311 263.123L162.704 327.123L181.617 305.441L108.244 241.441Z" fill="#E9EAED"/>
</g>
<g style="mix-blend-mode:hard-light" opacity="0.54">
<path d="M86.6932 266.161L67.7803 287.843L141.154 351.843L160.066 330.161L86.6932 266.161Z" fill="white"/>
</g>
<g style="mix-blend-mode:soft-light" opacity="0.46">
<path d="M251.086 89.0491C252.444 95.5395 259.916 98.8656 269.089 98.4004C279.786 97.8678 286.49 92.8681 287.132 86.4123C287.132 86.4123 287.151 85.1227 287.019 84.6322C286.122 81.1384 284.184 77.8854 281.245 75.3311C273.474 68.555 261.724 69.3586 254.948 77.1297C252.915 79.4711 251.564 82.1935 250.892 85.0225C250.682 87.1305 250.858 88.3533 251.116 89.0599L251.086 89.0491Z" fill="white"/>
</g>
<g style="mix-blend-mode:multiply">
<path d="M287.715 84.8814C288.439 90.1896 286.973 95.8042 283.168 100.137C276.174 108.137 264.037 108.973 255.997 101.998C252.699 99.1104 250.66 95.3777 249.835 91.3979C250.456 95.8505 252.586 100.093 256.222 103.272C264.222 110.267 276.388 109.442 283.394 101.412C287.501 96.7098 288.899 90.5249 287.726 84.8512L287.715 84.8814Z" fill="#9C9BA0"/>
</g>
<path d="M265.351 51.6239L58.3708 288.887L141.431 361.328L348.411 124.065L265.351 51.6239ZM281.583 74.2924C289.583 81.2869 290.418 93.4231 283.413 101.453C276.419 109.453 264.282 110.288 256.241 103.313C248.242 96.3189 247.406 84.1826 254.381 76.1418C261.376 68.1421 273.512 67.3064 281.553 74.2815L281.583 74.2924ZM141.145 351.845L67.7791 287.859L86.6993 266.19L160.065 330.177L141.145 351.845ZM162.693 327.127L89.3271 263.141L108.247 241.472L181.614 305.459L162.693 327.127ZM184.241 302.409L110.875 238.423L129.806 216.724L203.172 280.71L184.252 302.379L184.241 302.409ZM205.789 277.691L132.434 213.675L151.354 192.006L224.72 255.993L205.8 277.661L205.789 277.691ZM227.337 252.973L153.971 188.987L172.891 167.318L246.258 231.305L227.337 252.973ZM248.885 228.255L175.519 164.269L194.439 142.6L267.806 206.587L248.885 228.255ZM270.433 203.537L197.067 139.551L215.987 117.882L289.343 181.899L270.423 203.568L270.433 203.537ZM291.981 178.819L218.615 114.833L237.535 93.1643L310.891 157.181L291.971 178.85L291.981 178.819Z" fill="#E8EBEF"/>
<g style="mix-blend-mode:multiply">
<path d="M62.3152 292.348C68.9888 297.332 75.4741 302.556 81.8773 307.818C88.3216 313.061 94.6295 318.494 100.907 323.917C107.133 329.389 113.378 334.901 119.468 340.563C125.557 346.225 131.636 351.917 137.455 357.857C130.771 352.903 124.297 347.649 117.893 342.387C111.449 337.144 105.171 331.721 98.8742 326.258C92.6484 320.786 86.4031 315.273 80.3244 309.581C74.2349 303.92 68.1561 298.228 62.3369 292.287L62.3152 292.348Z" fill="#D8DADE"/>
</g>
<g style="mix-blend-mode:multiply">
<path d="M299.837 92.2562L292.807 100.313L331.302 133.903L338.333 125.846L299.837 92.2562Z" fill="#C9CCD2"/>
</g>
<g style="mix-blend-mode:multiply">
<path d="M291.419 101.94L289.435 104.214L323.236 133.708L325.221 131.434L291.419 101.94Z" fill="#C9CCD2"/>
</g>
<g style="mix-blend-mode:multiply">
<path d="M285.874 108.268L284.818 109.478L323.314 143.067L324.37 141.858L285.874 108.268Z" fill="#C9CCD2"/>
</g>
<g style="mix-blend-mode:multiply">
<path d="M320.948 145.776L282.462 112.198L283.515 110.973L322.001 144.55L320.948 145.776Z" fill="#C9CCD2"/>
</g>
<g style="mix-blend-mode:multiply">
<path d="M281.13 113.684L280.074 114.894L318.576 148.477L319.631 147.267L281.13 113.684Z" fill="#C9CCD2"/>
</g>
<g style="mix-blend-mode:multiply">
<path d="M278.766 116.398L277.711 117.609L294.605 132.339L295.66 131.129L278.766 116.398Z" fill="#C9CCD2"/>
</g>
<g style="mix-blend-mode:multiply">
<path d="M107.224 392.528C102.2 398.266 93.4512 398.883 87.713 393.859C81.9748 388.835 81.358 380.085 86.3822 374.347C91.4064 368.609 100.125 367.982 105.894 373.017C111.662 378.052 112.249 386.79 107.224 392.528Z" fill="#D8DADE"/>
</g>
<path d="M107.626 390.932C102.591 396.7 93.8525 397.287 88.1144 392.263C82.3762 387.239 81.7594 378.49 86.7835 372.752C91.8077 367.013 100.557 366.397 106.295 371.421C112.033 376.445 112.65 385.194 107.626 390.932Z" fill="#57575A"/>
<g style="mix-blend-mode:multiply">
<path d="M110.943 383.388C110.476 385.643 106.558 395.53 95.6303 393.183C85.2384 390.959 83.3993 381.909 83.666 379.071C82.7276 383.783 84.2492 388.865 88.1251 392.233C93.8632 397.257 102.601 396.67 107.636 390.902C109.555 388.69 110.659 386.084 110.954 383.358L110.943 383.388Z" fill="#9C9BA0"/>
</g>
<g style="mix-blend-mode:overlay" opacity="0.33">
<path d="M97.2161 387.236C106.447 386.894 109.983 380.929 109.187 377.438C108.673 375.923 107.862 374.472 106.753 373.188C102.149 367.854 94.067 367.277 88.7222 371.911C86.5362 373.823 85.1403 376.29 84.6038 378.929C84.4214 379.819 86.2575 387.64 97.2161 387.236Z" fill="white"/>
</g>
<g style="mix-blend-mode:overlay" opacity="0.33">
<path d="M104.949 378.887C104.794 382.652 101.123 385.566 96.7485 385.397C92.3745 385.228 88.9413 382.053 89.0664 378.277C89.2218 374.513 92.8928 371.598 97.2668 371.767C101.641 371.936 105.074 375.111 104.949 378.887Z" fill="white"/>
</g>
<g style="mix-blend-mode:multiply">
<path d="M306.647 76.6917L69.6033 283.908L23.8844 323.91C21.2012 326.257 20.9267 330.355 23.2739 333.038L87.3222 406.272C89.6694 408.956 93.7668 409.23 96.45 406.883L142.158 366.911L379.182 159.654L306.647 76.6917Z" fill="#9C9BA0"/>
</g>
<path d="M307.965 80.8301L78.7129 281.266L147.533 359.98L376.785 159.544L307.965 80.8301Z" fill="#34B2BB"/>
<path d="M144.185 366.682L98.4769 406.654C95.7937 409.001 91.6963 408.727 89.3491 406.043L25.3008 332.809C22.9536 330.126 23.2281 326.028 25.9113 323.681L71.6193 283.709L144.155 366.671L144.185 366.682Z" fill="#E8EBEF"/>
<path d="M144.185 366.682L99.2618 406.082C97.5555 407.893 94.8219 408.858 92.3711 408.082C89.8164 407.405 88.469 404.978 86.771 403.243L76.916 392.002L57.2364 369.531L37.5567 347.06L27.7018 335.818L25.2251 333.021C24.4031 332.078 23.791 330.835 23.5958 329.571C23.1256 326.981 24.485 324.33 26.5387 322.883L71.5915 283.597L71.6953 283.498L71.7945 283.601L144.226 366.663L144.185 366.682ZM144.185 366.682L71.5459 283.819L71.7489 283.824L26.8256 323.224C24.813 324.652 23.6309 327.094 24.0646 329.501C24.3449 331.955 26.5118 333.618 28.0434 335.532L37.8573 346.792L57.485 369.313L77.1128 391.834L86.9267 403.094C88.6139 404.859 89.9419 407.245 92.4361 407.9C94.8265 408.654 97.4671 407.759 99.1733 405.948L144.226 366.663L144.185 366.682Z" fill="#B8B9C0"/>
<g style="mix-blend-mode:multiply">
<path d="M275.563 113.93L253.902 132.869L317.988 206.167L339.649 187.229L275.563 113.93Z" fill="#B0AFB5"/>
</g>
<g style="mix-blend-mode:multiply">
<path d="M250.905 135.547L229.244 154.485L293.33 227.784L314.99 208.846L250.905 135.547Z" fill="#C3C5CA"/>
</g>
<g style="mix-blend-mode:multiply">
<path d="M226.208 157.098L204.547 176.037L268.632 249.335L290.293 230.397L226.208 157.098Z" fill="#F7F8F8"/>
</g>
<g style="mix-blend-mode:hard-light" opacity="0.1">
<path d="M201.518 178.721L179.857 197.659L243.943 270.958L265.604 252.02L201.518 178.721Z" fill="#B2B1B7"/>
</g>
<g style="mix-blend-mode:hard-light" opacity="0.2">
<path d="M176.85 200.284L155.189 219.222L219.275 292.52L240.936 273.582L176.85 200.284Z" fill="#B8B8BD"/>
</g>
<g style="mix-blend-mode:hard-light" opacity="0.3">
<path d="M152.142 221.865L130.481 240.803L194.567 314.102L216.228 295.164L152.142 221.865Z" fill="#D2D4D8"/>
</g>
<g style="mix-blend-mode:hard-light" opacity="0.4">
<path d="M127.464 243.458L105.803 262.396L169.888 335.694L191.549 316.756L127.464 243.458Z" fill="#E9EAED"/>
</g>
<g style="mix-blend-mode:hard-light" opacity="0.54">
<path d="M102.755 265.039L81.0938 283.977L145.179 357.276L166.84 338.338L102.755 265.039Z" fill="white"/>
</g>
<g style="mix-blend-mode:soft-light" opacity="0.46">
<path d="M289.513 111.655C289.974 118.268 296.927 122.568 306.091 123.362C316.757 124.251 324.069 120.219 325.581 113.905C325.581 113.905 325.773 112.609 325.713 112.11C325.285 108.545 323.809 105.049 321.244 102.117C314.47 94.3676 302.705 93.5965 294.966 100.34C292.625 102.401 290.944 104.902 289.867 107.621C289.364 109.692 289.367 110.921 289.543 111.666L289.513 111.655Z" fill="white"/>
</g>
<g style="mix-blend-mode:multiply">
<path d="M326.376 112.45C326.398 117.813 324.176 123.157 319.804 126.98C311.806 133.972 299.646 133.162 292.654 125.164C289.771 121.879 288.236 117.884 287.981 113.836C287.972 118.335 289.537 122.819 292.726 126.486C299.718 134.484 311.878 135.294 319.876 128.302C324.589 124.192 326.784 118.259 326.376 112.45Z" fill="#9C9BA0"/>
</g>
<path d="M308.674 76.4628L71.6498 283.72L144.185 366.682L381.199 159.455L308.674 76.4628ZM321.703 101.122C328.695 109.119 327.884 121.28 319.887 128.272C311.889 135.264 299.728 134.453 292.736 126.456C285.744 118.458 286.555 106.297 294.552 99.3054C302.55 92.3133 314.711 93.1237 321.703 101.122ZM145.209 357.259L81.1107 283.972L102.773 265.026L166.871 338.313L145.209 357.259ZM169.896 335.679L105.798 262.392L127.461 243.446L191.559 316.732L169.896 335.679ZM194.584 314.098L130.486 240.812L152.148 221.866L216.246 295.152L194.584 314.098ZM219.271 292.518L155.173 219.232L176.836 200.286L240.934 273.572L219.271 292.518ZM243.959 270.938L179.861 197.651L201.523 178.705L265.621 251.992L243.959 270.938ZM268.646 249.357L204.548 176.071L226.211 157.125L290.309 230.411L268.646 249.357ZM293.334 227.777L229.236 154.491L250.898 135.545L314.996 208.831L293.334 227.777ZM318.021 206.197L253.923 132.911L275.586 113.965L339.684 187.251L318.021 206.197Z" fill="#E8EBEF"/>
<g style="mix-blend-mode:multiply">
<path d="M75.1055 287.688C81.0696 293.509 86.7439 299.568 92.4075 305.657C98.0819 311.716 103.59 317.954 109.098 324.192C114.523 330.468 119.979 336.756 125.238 343.212C130.509 349.637 135.768 356.093 140.748 362.756C134.784 356.934 129.11 350.875 123.446 344.786C117.772 338.728 112.264 332.49 106.786 326.263C101.36 319.986 95.9045 313.699 90.6453 307.243C85.3752 300.817 80.116 294.361 75.1357 287.699L75.1055 287.688Z" fill="#D8DADE"/>
</g>
<g style="mix-blend-mode:multiply">
<path d="M337.411 121.369L329.337 128.428L362.944 166.867L371.018 159.807L337.411 121.369Z" fill="#C9CCD2"/>
</g>
<g style="mix-blend-mode:multiply">
<path d="M327.709 129.825L325.437 131.812L354.964 165.585L357.236 163.598L327.709 129.825Z" fill="#C9CCD2"/>
</g>
<g style="mix-blend-mode:multiply">
<path d="M321.362 135.398L320.153 136.455L353.76 174.893L354.969 173.836L321.362 135.398Z" fill="#C9CCD2"/>
</g>
<g style="mix-blend-mode:multiply">
<path d="M318.69 137.745L317.481 138.802L351.109 177.264L352.318 176.207L318.69 137.745Z" fill="#C9CCD2"/>
</g>
<g style="mix-blend-mode:multiply">
<path d="M315.984 140.143L314.775 141.2L348.403 179.662L349.612 178.605L315.984 140.143Z" fill="#C9CCD2"/>
</g>
<g style="mix-blend-mode:multiply">
<path d="M313.267 142.462L312.059 143.519L326.812 160.393L328.021 159.336L313.267 142.462Z" fill="#C9CCD2"/>
</g>
<g style="mix-blend-mode:multiply">
<path d="M106.095 393.011C100.335 398.042 91.6135 397.44 86.5717 391.71C81.5407 385.95 82.1421 377.229 87.8718 372.187C93.6318 367.156 102.364 367.727 107.395 373.487C112.426 379.247 111.825 387.969 106.095 393.011Z" fill="#D8DADE"/>
</g>
<path d="M106.719 391.46C100.959 396.491 92.2375 395.89 87.1956 390.16C82.1646 384.4 82.766 375.678 88.4958 370.637C94.2558 365.606 102.978 366.207 108.019 371.937C113.05 377.697 112.449 386.419 106.719 391.46Z" fill="#57575A"/>
<g style="mix-blend-mode:multiply">
<path d="M111.011 384.436C110.231 386.613 105.036 395.872 94.5275 392.071C84.5216 388.485 83.9053 379.259 84.5563 376.491C82.9615 381.036 83.8199 386.255 87.2069 390.13C92.2379 395.89 100.971 396.461 106.731 391.43C108.927 389.489 110.353 387.032 111.022 384.406L111.011 384.436Z" fill="#9C9BA0"/>
</g>
<g style="mix-blend-mode:overlay" opacity="0.33">
<path d="M96.8983 386.406C106.091 387.312 110.397 381.863 110.071 378.301C109.751 376.719 109.176 375.183 108.222 373.749C104.373 367.833 96.4366 366.183 90.5505 370.043C88.1079 371.623 86.401 373.911 85.5213 376.461C85.2179 377.308 86.0041 385.299 96.8983 386.406Z" fill="white"/>
</g>
<g style="mix-blend-mode:overlay" opacity="0.33">
<path d="M105.693 379.188C105.052 382.881 101.017 385.289 96.6865 384.522C92.3564 383.755 89.3902 380.133 90.0315 376.44C90.6728 372.747 94.7083 370.339 99.0384 371.106C103.369 371.873 106.335 375.495 105.693 379.188Z" fill="white"/>
</g>
<g style="mix-blend-mode:multiply">
<path d="M341.114 102.927L81.3825 280.931L31.2805 315.269C28.3406 317.286 27.5802 321.311 29.5966 324.251L84.58 404.505C86.5964 407.445 90.622 408.205 93.5619 406.189L143.653 371.881L403.395 193.846L341.114 102.927Z" fill="#9C9BA0"/>
</g>
<path d="M341.997 107.716L90.8057 279.861L149.912 366.108L401.103 193.963L341.997 107.716Z" fill="#092E40"/>
<path d="M145.754 372.395L95.6631 406.703C92.7232 408.719 88.6976 407.959 86.6812 405.019L31.6978 324.766C29.6814 321.826 30.4418 317.8 33.3817 315.784L83.4837 281.446L145.765 372.365L145.754 372.395Z" fill="#E8EBEF"/>
<path d="M145.754 372.395L96.5164 406.224C94.6116 407.827 91.764 408.444 89.4408 407.407C86.9643 406.417 85.9346 403.865 84.4441 401.932L75.9944 389.625L59.0647 365.001L42.135 340.377L33.6853 328.07L31.5805 324.997C30.8623 323.955 30.4036 322.664 30.351 321.384C30.1962 318.77 31.8471 316.257 34.0474 315.067L83.3839 281.342L83.518 281.253L83.6064 281.387L145.795 372.376L145.754 372.395ZM145.754 372.395L83.3383 281.564L83.5197 281.629L34.2824 315.458C32.1123 316.659 30.6496 318.932 30.7981 321.373C30.7933 323.862 32.7526 325.724 34.0463 327.825L42.4852 340.161L59.3328 364.824L76.1803 389.487L84.6192 401.824C86.0988 403.787 87.1394 406.309 89.5058 407.225C91.7987 408.252 94.5232 407.693 96.428 406.09L145.765 372.365L145.754 372.395Z" fill="#B8B9C0"/>
<g style="mix-blend-mode:multiply">
<path d="M305.944 136.816L282.21 153.081L337.25 233.394L360.984 217.129L305.944 136.816Z" fill="#B0AFB5"/>
</g>
<g style="mix-blend-mode:multiply">
<path d="M278.847 155.347L255.113 171.612L310.153 251.925L333.887 235.66L278.847 155.347Z" fill="#C3C5CA"/>
</g>
<g style="mix-blend-mode:multiply">
<path d="M251.826 173.897L228.092 190.162L283.132 270.476L306.865 254.21L251.826 173.897Z" fill="#F7F8F8"/>
</g>
<g style="mix-blend-mode:hard-light" opacity="0.1">
<path d="M224.786 192.421L201.052 208.686L256.092 288.999L279.825 272.734L224.786 192.421Z" fill="#B2B1B7"/>
</g>
<g style="mix-blend-mode:hard-light" opacity="0.2">
<path d="M197.734 210.96L174 227.225L229.04 307.539L252.774 291.274L197.734 210.96Z" fill="#B8B8BD"/>
</g>
<g style="mix-blend-mode:hard-light" opacity="0.3">
<path d="M170.678 229.472L146.944 245.737L201.984 326.051L225.718 309.785L170.678 229.472Z" fill="#D2D4D8"/>
</g>
<g style="mix-blend-mode:hard-light" opacity="0.4">
<path d="M143.616 248.042L119.882 264.307L174.922 344.62L198.655 328.355L143.616 248.042Z" fill="#E9EAED"/>
</g>
<g style="mix-blend-mode:hard-light" opacity="0.54">
<path d="M116.586 266.535L92.8525 282.8L147.892 363.114L171.626 346.849L116.586 266.535Z" fill="white"/>
</g>
<g style="mix-blend-mode:soft-light" opacity="0.46">
<path d="M320.025 136.167C319.694 142.802 326.131 147.873 335.12 149.729C345.605 151.884 353.354 148.726 355.573 142.63C355.573 142.63 355.926 141.358 355.896 140.87C355.896 137.254 354.839 133.635 352.646 130.427C346.823 121.927 335.211 119.778 326.752 125.581C324.173 127.352 322.192 129.644 320.835 132.193C320.12 134.189 319.961 135.394 320.025 136.167Z" fill="white"/>
</g>
<g style="mix-blend-mode:multiply">
<path d="M356.527 141.301C355.91 146.64 353.085 151.665 348.299 154.93C339.532 160.93 327.576 158.692 321.546 149.913C319.076 146.334 318.012 142.166 318.234 138.118C317.728 142.576 318.721 147.23 321.445 151.242C327.445 160.01 339.431 162.258 348.209 156.228C353.367 152.687 356.266 147.074 356.538 141.27L356.527 141.301Z" fill="#9C9BA0"/>
</g>
<path d="M343.193 103.502L83.4721 281.476L145.754 372.395L405.485 194.391L343.193 103.502ZM353.245 129.516C359.245 138.284 356.996 150.27 348.259 156.28C339.491 162.28 327.494 160.062 321.494 151.294C315.494 142.526 317.702 130.559 326.481 124.529C335.249 118.529 347.246 120.748 353.245 129.516ZM147.87 363.159L92.8367 282.853L116.572 266.595L171.605 346.9L147.87 363.159ZM174.917 344.607L119.884 264.302L143.62 248.043L198.653 328.349L174.917 344.607ZM201.954 326.086L146.921 245.781L170.656 229.522L225.689 309.827L201.954 326.086ZM229.001 307.535L173.968 227.23L197.703 210.971L252.736 291.276L229.001 307.535ZM256.048 288.983L201.015 208.678L224.751 192.419L279.784 272.725L256.048 288.983ZM283.085 270.462L228.052 190.157L251.787 173.898L306.82 254.203L283.085 270.462ZM310.132 251.911L255.099 171.606L278.835 155.347L333.868 235.652L310.132 251.911ZM337.168 233.39L282.135 153.084L305.871 136.826L360.904 217.131L337.168 233.39Z" fill="#E8EBEF"/>
<g style="mix-blend-mode:multiply">
<path d="M86.4229 285.808C91.641 292.283 96.6105 298.976 101.498 305.708C106.437 312.39 111.149 319.23 115.903 326.05C120.563 332.939 125.234 339.799 129.709 346.826C134.194 353.823 138.638 360.839 142.804 368.063C137.555 361.577 132.616 354.895 127.718 348.193C122.779 341.511 118.066 334.671 113.324 327.821C108.663 320.931 103.992 314.072 99.548 307.056C95.0627 300.059 90.6184 293.042 86.4531 285.819L86.4229 285.808Z" fill="#D8DADE"/>
</g>
<g style="mix-blend-mode:multiply">
<path d="M366.419 151.486L357.599 157.531L386.48 199.674L395.301 193.629L366.419 151.486Z" fill="#C9CCD2"/>
</g>
<g style="mix-blend-mode:multiply">
<path d="M355.817 158.732L353.327 160.438L378.687 197.443L381.177 195.736L355.817 158.732Z" fill="#C9CCD2"/>
</g>
<g style="mix-blend-mode:multiply">
<path d="M348.899 163.514L347.574 164.422L376.456 206.565L377.78 205.657L348.899 163.514Z" fill="#C9CCD2"/>
</g>
<g style="mix-blend-mode:multiply">
<path d="M345.904 165.518L344.579 166.426L373.461 208.569L374.785 207.661L345.904 165.518Z" fill="#C9CCD2"/>
</g>
<g style="mix-blend-mode:multiply">
<path d="M370.517 210.581L341.638 168.473L342.959 167.548L371.827 209.686L370.517 210.581Z" fill="#C9CCD2"/>
</g>
<g style="mix-blend-mode:multiply">
<path d="M351.347 188.974L338.668 170.479L340.019 169.565L352.687 188.09L351.347 188.974Z" fill="#C9CCD2"/>
</g>
<g style="mix-blend-mode:multiply">
<path d="M104.833 394.059C98.5401 398.387 89.9124 396.762 85.6142 390.48C81.2858 384.188 82.9002 375.59 89.1929 371.262C95.4857 366.933 104.113 368.558 108.412 374.84C112.729 381.163 111.115 389.761 104.833 394.059Z" fill="#D8DADE"/>
</g>
<path d="M105.658 392.615C99.3653 396.943 90.7376 395.318 86.4394 389.036C82.111 382.743 83.7362 374.116 90.0181 369.817C96.3109 365.489 104.939 367.114 109.237 373.396C113.565 379.689 111.94 388.317 105.658 392.615Z" fill="#57575A"/>
<g style="mix-blend-mode:multiply">
<path d="M110.739 386.147C109.717 388.236 103.441 396.801 93.467 391.794C83.9852 387.031 84.4251 377.808 85.4087 375.159C83.3109 379.489 83.5275 384.786 86.439 389.036C90.7565 395.359 99.3649 396.943 105.658 392.615C108.061 390.952 109.799 388.675 110.739 386.147Z" fill="#9C9BA0"/>
</g>
<g style="mix-blend-mode:overlay" opacity="0.33">
<path d="M96.5126 386.438C105.559 388.418 110.422 383.509 110.543 379.936C110.437 378.329 109.985 376.734 109.237 375.204C106.108 368.898 98.4356 366.319 92.129 369.448C89.5204 370.731 87.5848 372.8 86.3725 375.231C85.9785 376.045 85.8293 384.076 96.5126 386.438Z" fill="white"/>
</g>
<g style="mix-blend-mode:overlay" opacity="0.33">
<path d="M106.086 380.283C105 383.885 100.732 385.801 96.5146 384.528C92.3276 383.267 89.7852 379.319 90.8713 375.718C91.9575 372.116 96.2257 370.2 100.443 371.473C104.63 372.735 107.172 376.682 106.086 380.283Z" fill="white"/>
</g>
<g style="mix-blend-mode:multiply">
<path d="M372 133.44L93.348 280L39.5935 308.254C36.438 309.92 35.2132 313.813 36.8795 316.969L82.1642 403.059C83.8305 406.215 87.7238 407.439 90.8793 405.773L144.634 377.52L423.316 230.97L372 133.44Z" fill="#9C9BA0"/>
</g>
<path d="M372.507 138.188L102.996 279.945L151.668 372.481L421.179 230.725L372.507 138.188Z" fill="#A91A70"/>
<path d="M146.802 378.228L93.0473 406.482C89.8917 408.148 85.9984 406.923 84.3321 403.768L39.0475 317.677C37.3812 314.522 38.6167 310.598 41.7615 308.962L95.4857 280.698L146.802 378.228Z" fill="#E8EBEF"/>
<path d="M146.802 378.228L93.9591 406.126C91.8968 407.502 88.9955 407.793 86.7807 406.453C84.4319 405.202 83.6788 402.544 82.4564 400.435L75.4895 387.227L61.5556 360.811L47.6218 334.395L40.6549 321.187L38.911 317.867C38.3161 316.767 38.0108 315.43 38.131 314.143C38.2807 311.536 40.2014 309.222 42.5375 308.32L95.4684 280.556L95.5916 280.497L95.6498 280.621L146.832 378.239L146.802 378.228ZM146.802 378.228L95.3623 280.756L95.5739 280.832L42.7314 308.73C40.445 309.685 38.7536 311.739 38.5565 314.193C38.2579 316.644 39.9577 318.754 41.0051 320.972L47.9309 334.199L61.8128 360.664L75.6948 387.13L82.6206 400.357C83.8431 402.467 84.607 405.094 86.8651 406.313C89.0303 407.6 91.7782 407.357 93.8706 405.992L146.791 378.259L146.802 378.228Z" fill="#B8B9C0"/>
<g style="mix-blend-mode:multiply">
<path d="M333.28 162.904L307.815 176.298L353.139 262.469L378.604 249.075L333.28 162.904Z" fill="#B0AFB5"/>
</g>
<g style="mix-blend-mode:multiply">
<path d="M304.264 178.151L278.799 191.545L324.123 277.716L349.587 264.322L304.264 178.151Z" fill="#C3C5CA"/>
</g>
<g style="mix-blend-mode:multiply">
<path d="M275.263 193.427L249.798 206.821L295.122 292.992L320.586 279.598L275.263 193.427Z" fill="#F7F8F8"/>
</g>
<g style="mix-blend-mode:hard-light" opacity="0.1">
<path d="M246.218 208.69L220.753 222.083L266.077 308.254L291.541 294.86L246.218 208.69Z" fill="#B2B1B7"/>
</g>
<g style="mix-blend-mode:hard-light" opacity="0.2">
<path d="M217.201 223.937L191.736 237.331L237.06 323.501L262.525 310.108L217.201 223.937Z" fill="#B8B8BD"/>
</g>
<g style="mix-blend-mode:hard-light" opacity="0.3">
<path d="M188.171 239.227L162.706 252.621L208.03 338.792L233.495 325.398L188.171 239.227Z" fill="#D2D4D8"/>
</g>
<g style="mix-blend-mode:hard-light" opacity="0.4">
<path d="M159.155 254.475L133.69 267.869L179.014 354.039L204.479 340.645L159.155 254.475Z" fill="#E9EAED"/>
</g>
<g style="mix-blend-mode:hard-light" opacity="0.54">
<path d="M130.153 269.751L104.688 283.144L150.012 369.315L175.477 355.921L130.153 269.751Z" fill="white"/>
</g>
<g style="mix-blend-mode:soft-light" opacity="0.46">
<path d="M347.378 163.878C346.297 170.416 352.069 176.203 360.79 179.089C370.943 182.455 379.007 180.228 381.94 174.423C381.94 174.423 382.415 173.194 382.487 172.708C382.882 169.132 382.274 165.401 380.472 161.958C375.689 152.841 364.421 149.349 355.305 154.132C352.541 155.563 350.331 157.637 348.652 160.037C347.706 161.915 347.415 163.107 347.408 163.889L347.378 163.878Z" fill="white"/>
</g>
<g style="mix-blend-mode:multiply">
<path d="M383.024 173.208C381.8 178.432 378.384 183.109 373.255 185.808C363.84 190.757 352.21 187.135 347.25 177.75C345.224 173.886 344.658 169.658 345.317 165.63C344.265 169.995 344.748 174.739 346.998 179.025C351.947 188.439 363.588 192.031 372.992 187.112C378.543 184.189 382.052 178.966 382.983 173.228L383.024 173.208Z" fill="#9C9BA0"/>
</g>
<path d="M374.148 134.107L95.4853 280.698L146.801 378.228L425.464 231.637L374.148 134.107ZM381.11 161.129C386.06 170.544 382.437 182.174 373.023 187.123C363.608 192.072 351.978 188.45 347.028 179.035C342.079 169.621 345.701 157.99 355.116 153.041C364.531 148.092 376.161 151.714 381.11 161.129ZM149.997 369.311L104.674 283.139L130.143 269.752L175.466 355.925L149.986 369.341L149.997 369.311ZM179.013 354.023L133.69 267.851L159.159 254.465L204.482 340.637L179.013 354.023ZM208.018 338.766L162.695 252.594L188.164 239.208L233.487 325.38L208.018 338.766ZM237.023 323.509L191.7 237.336L217.169 223.95L262.492 310.123L237.023 323.509ZM266.028 308.251L220.705 222.079L246.174 208.693L291.497 294.865L266.028 308.251ZM295.044 292.964L249.721 206.792L275.19 193.405L320.513 279.578L295.044 292.964ZM324.049 277.707L278.726 191.534L304.195 178.148L349.518 264.32L324.049 277.707ZM353.054 262.449L307.731 176.277L333.2 162.891L378.523 249.063L353.054 262.449Z" fill="#E8EBEF"/>
<g style="mix-blend-mode:multiply">
<path d="M97.9511 285.334C102.384 292.381 106.52 299.594 110.614 306.826C114.749 314.039 118.638 321.368 122.557 328.708C126.393 336.087 130.23 343.465 133.832 350.93C137.463 358.406 141.095 365.882 144.387 373.543C139.953 366.496 135.818 359.283 131.724 352.051C127.589 344.838 123.7 337.509 119.822 330.15C115.986 322.771 112.149 315.392 108.547 307.928C104.916 300.452 101.295 292.946 97.9921 285.315L97.9511 285.334Z" fill="#D8DADE"/>
</g>
<g style="mix-blend-mode:multiply">
<path d="M391.655 184.441L382.163 189.434L405.946 234.65L415.439 229.658L391.655 184.441Z" fill="#C9CCD2"/>
</g>
<g style="mix-blend-mode:multiply">
<path d="M380.314 190.461L377.643 191.866L398.526 231.569L401.197 230.164L380.314 190.461Z" fill="#C9CCD2"/>
</g>
<g style="mix-blend-mode:multiply">
<path d="M395.204 240.305L371.421 195.112L372.85 194.361L396.633 239.555L395.204 240.305Z" fill="#C9CCD2"/>
</g>
<g style="mix-blend-mode:multiply">
<path d="M392.008 241.991L368.266 196.778L369.665 196.017L393.436 241.241L392.008 241.991Z" fill="#C9CCD2"/>
</g>
<g style="mix-blend-mode:multiply">
<path d="M388.853 243.657L365.07 198.464L366.498 197.713L390.281 242.907L388.853 243.657Z" fill="#C9CCD2"/>
</g>
<g style="mix-blend-mode:multiply">
<path d="M372.338 219.966L361.883 200.119L363.312 199.369L373.767 219.216L372.338 219.966Z" fill="#C9CCD2"/>
</g>
<g style="mix-blend-mode:multiply">
<path d="M103.655 394.967C96.8922 398.513 88.5398 395.929 84.9939 389.166C81.4177 382.393 84.0319 374.051 90.7947 370.505C97.5575 366.959 105.91 369.543 109.456 376.306C113.002 383.069 110.418 391.421 103.644 394.997L103.655 394.967Z" fill="#D8DADE"/>
</g>
<path d="M104.638 393.648C97.8756 397.194 89.5232 394.61 85.9471 387.837C82.4012 381.074 84.9851 372.722 91.7479 369.176C98.5107 365.63 106.863 368.214 110.439 374.987C114.015 381.761 111.401 390.102 104.628 393.679L104.638 393.648Z" fill="#57575A"/>
<g style="mix-blend-mode:multiply">
<path d="M110.447 387.816C109.195 389.789 101.971 397.57 92.6119 391.419C83.7231 385.573 85.2775 376.476 86.5332 373.924C83.9539 377.98 83.5312 383.252 85.9174 387.826C89.4634 394.589 97.846 397.183 104.609 393.637C107.179 392.273 109.144 390.214 110.417 387.805L110.447 387.816Z" fill="#9C9BA0"/>
</g>
<g style="mix-blend-mode:overlay" opacity="0.33">
<path d="M96.2379 386.442C104.976 389.471 110.416 385.144 110.921 381.641C110.988 380.027 110.75 378.407 110.196 376.81C107.806 370.154 100.508 366.721 93.8528 369.111C91.1192 370.076 88.9247 371.916 87.4728 374.159C86.9989 374.91 85.8756 382.899 96.2271 386.472L96.2379 386.442Z" fill="white"/>
</g>
<g style="mix-blend-mode:overlay" opacity="0.33">
<path d="M106.486 381.45C105.007 384.911 100.517 386.304 96.5031 384.558C92.4894 382.813 90.4095 378.622 91.9188 375.172C93.398 371.711 97.8882 370.319 101.902 372.064C105.916 373.809 107.985 378.03 106.486 381.45Z" fill="white"/>
</g>
</g>
<defs>
<clipPath id="clip0_610_424">
<rect width="353.296" height="398.06" fill="white" transform="translate(132.954 0.628296) rotate(19.7166)"/>
</clipPath>
</defs>
</svg>
