<svg width="90" height="112" viewBox="0 0 90 112" fill="none" xmlns="http://www.w3.org/2000/svg">
<g opacity="0.5" clip-path="url(#clip0_610_666)">
<path d="M21.7899 15.8951C22.5433 14.3711 22.5047 12.5072 21.5108 10.9875C20.0785 8.79755 17.2146 8.12966 14.9559 9.3842L35.3257 40.5287C36.615 39.9 38.1977 40.3003 39.0027 41.5311C39.8757 42.8658 39.505 44.6593 38.1635 45.5366C36.8221 46.414 35.0304 46.0348 34.1574 44.7001C33.3525 43.4693 33.62 41.8588 34.7128 40.9296L14.3392 9.77927C12.2941 11.3478 11.7487 14.2373 13.181 16.4273C14.1787 17.9527 15.873 18.7256 17.5653 18.6499L23.5368 55.1444L38.6751 63.0302L53.9857 53.0165L52.8281 35.9866L21.7899 15.8951Z" fill="#F5B030"/>
<path d="M53.9854 53.0165L38.6748 63.0303L41.3429 67.1097L56.6535 57.0959L53.9854 53.0165Z" fill="#F5B030"/>
<g style="mix-blend-mode:multiply">
<path d="M34.7093 40.9238L14.3395 9.77921C16.5956 14.9201 31.3555 36.4018 34.7093 40.9238Z" fill="#C3C5CA"/>
</g>
<g style="mix-blend-mode:overlay">
<g style="mix-blend-mode:multiply">
<path d="M17.5705 18.671L22.8393 50.8978C22.6576 47.9064 20.7734 26.7236 17.5705 18.671Z" fill="white"/>
</g>
<g style="mix-blend-mode:multiply">
<path d="M17.5407 18.6497C16.7865 18.1529 15.9085 18.0095 15.0163 17.0998C13.5925 15.655 12.7838 14.2039 12.5361 12.5757C12.2295 13.8487 12.4065 15.2427 13.1813 16.4272C14.1714 17.9411 15.8503 18.7157 17.5407 18.6497Z" fill="white"/>
</g>
<g style="mix-blend-mode:multiply">
<path d="M14.9521 9.37842L35.322 40.523C23.9475 20.292 15.5842 10.2438 14.9521 9.37842Z" fill="white"/>
</g>
</g>
<g style="mix-blend-mode:multiply">
<path d="M39.968 27.6585C42.3628 30.1842 51.2202 37.9458 49.8382 43.9234C47.9041 52.2503 41.8131 47.4561 40.2439 51.6834C37.5395 58.9714 32.1786 59.648 32.1786 59.648L38.6751 63.0302L53.9857 53.0164L52.8281 35.9866L39.968 27.6585Z" fill="#C3C5CA"/>
</g>
<g style="mix-blend-mode:multiply">
<path d="M47.2146 62.0895C45.1197 63.6576 43.1289 65.1577 40.7893 66.2506L41.3449 67.1L56.6554 57.0863L53.9873 53.0069C54.8339 56.8256 50.056 59.9588 47.2166 62.0799L47.2146 62.0895Z" fill="#C3C5CA"/>
</g>
<path d="M59.5562 55.1975L38.4463 69.0043L64.3035 108.539L85.4134 94.732L59.5562 55.1975Z" fill="#34B2BB"/>
<g style="mix-blend-mode:multiply">
<path d="M55.4625 57.8749L71.834 82.9061C71.834 82.9061 78.3439 91.774 73.7222 98.5918C69.1005 105.41 64.3073 108.545 64.3073 108.545L85.4171 94.7378L59.5599 55.2033L55.4721 57.8769L55.4625 57.8749Z" fill="#C3C5CA"/>
</g>
<g style="mix-blend-mode:overlay" opacity="0.27">
<path d="M16.412 16.9622C17.1106 16.8188 17.1454 16.1525 17.0206 15.5577L14.6737 11.9694C14.1321 11.6967 13.4348 11.4762 13.4839 12.8136C13.5787 15.4576 15.3639 17.1774 16.4157 16.968L16.412 16.9622Z" fill="white"/>
<path d="M20.7563 14.6815C22.0762 12.1682 19.9765 9.21031 17.6413 9.40116C17.346 9.4293 16.3246 9.66005 16.7328 10.2841L19.8798 14.5783C20.1466 14.9483 20.6609 14.8511 20.7563 14.6815Z" fill="white"/>
<path d="M39.3336 29.377C39.3154 29.2734 25.0507 18.861 23.4931 18.4359C23.4702 18.4262 23.4547 18.4528 23.4602 18.474C23.8013 20.1566 30.6655 29.8818 33.1463 33.2835C34.3479 34.9314 35.777 36.4222 37.2065 37.8632C38.207 38.8753 39.7924 40.2391 40.3688 42.7991C41.1334 46.1518 36.0938 49.2004 33.4613 45.2132C30.8229 41.2298 32.4781 41.4507 30.7009 38.0014C29.0386 34.7656 21.5625 23.4359 19.8268 20.2646C19.4467 19.2922 23.0359 35.8619 23.6283 41.2989C23.8778 43.5612 24.3132 54.8924 31.1063 54.7394C37.8994 54.5864 37.749 50.6835 39.5218 48.2948C41.2713 45.9461 46.0017 49.0891 48.2047 43.2181C49.9696 38.5328 43.6349 32.0912 39.3183 29.3788L39.3336 29.377Z" fill="white"/>
</g>
<g style="mix-blend-mode:overlay" opacity="0.51">
<path d="M52.0923 62.3397C51.6406 62.4949 51.2157 62.6656 50.8041 62.844C48.4514 63.4753 40.2849 68.4452 41.1432 69.9216C47.7266 81.2495 54.4953 90.3111 55.6619 92.2211C58.5143 96.8978 63.3644 105.21 63.885 102.32C64.5951 98.3821 60.6585 81.2559 59.4524 77.5816C58.0186 73.2311 55.8964 69.1659 54.4607 64.8249C54.1642 63.9299 52.6151 62.1546 52.0943 62.3302L52.0923 62.3397Z" fill="white"/>
</g>
</g>
<defs>
<clipPath id="clip0_610_666">
<rect width="35" height="110" fill="white" transform="translate(0 19.1577) rotate(-33.1864)"/>
</clipPath>
</defs>
</svg>
