<svg width="291" height="273" viewBox="0 0 291 273" fill="none" xmlns="http://www.w3.org/2000/svg">
<path d="M79.7473 4.47682C79.0673 6.13682 77.1773 6.93682 75.5073 6.26682C73.8473 5.58682 73.0473 3.69682 73.7173 2.02682C74.3973 0.366817 76.2873 -0.433183 77.9573 0.236817C79.6173 0.916817 80.4173 2.80682 79.7473 4.47682Z" fill="#FF3D00"/>
<path d="M109.847 16.7168C109.167 18.3768 107.277 19.1768 105.607 18.5068C103.947 17.8268 103.147 15.9368 103.817 14.2768C104.497 12.6168 106.387 11.8168 108.057 12.4868C109.717 13.1668 110.517 15.0568 109.847 16.7268V16.7168Z" fill="#FF3D00"/>
<path d="M139.956 28.9668C139.276 30.6268 137.386 31.4268 135.716 30.7568C134.056 30.0768 133.256 28.1868 133.926 26.5168C134.606 24.8568 136.496 24.0568 138.166 24.7268C139.826 25.4068 140.626 27.2968 139.956 28.9668Z" fill="#FF3D00"/>
<path d="M170.057 41.2068C169.377 42.8668 167.487 43.6668 165.817 42.9968C164.157 42.3168 163.357 40.4268 164.027 38.7568C164.707 37.0968 166.597 36.2968 168.267 36.9668C169.927 37.6468 170.727 39.5368 170.057 41.2068Z" fill="#FF3D00"/>
<path d="M200.167 53.4568C199.487 55.1168 197.597 55.9168 195.927 55.2468C194.267 54.5668 193.467 52.6768 194.137 51.0068C194.817 49.3468 196.707 48.5468 198.377 49.2168C200.037 49.8968 200.837 51.7868 200.167 53.4568Z" fill="#FF3D00"/>
<path d="M230.267 65.7068C229.587 67.3668 227.697 68.1668 226.027 67.4968C224.367 66.8168 223.567 64.9268 224.237 63.2568C224.917 61.5968 226.807 60.7968 228.477 61.4668C230.137 62.1468 230.937 64.0368 230.267 65.7068Z" fill="#FF3D00"/>
<path d="M260.376 77.9468C259.696 79.6068 257.806 80.4068 256.136 79.7368C254.476 79.0568 253.676 77.1668 254.346 75.4968C255.026 73.8368 256.916 73.0368 258.586 73.7068C260.246 74.3868 261.046 76.2768 260.376 77.9468Z" fill="#FF3D00"/>
<path d="M290.477 90.1968C289.797 91.8568 287.907 92.6568 286.237 91.9868C284.577 91.3068 283.777 89.4168 284.447 87.7568C285.127 86.0968 287.017 85.2968 288.687 85.9668C290.347 86.6468 291.147 88.5368 290.477 90.1968Z" fill="#FF3D00"/>
<path d="M67.4973 34.5769C66.8173 36.2369 64.9273 37.0369 63.2573 36.3669C61.5973 35.6869 60.7973 33.7969 61.4673 32.1269C62.1473 30.4669 64.0373 29.6669 65.7073 30.3369C67.3773 31.0069 68.1673 32.9069 67.4973 34.5769Z" fill="#FF3D00"/>
<path d="M97.6067 46.8269C96.9267 48.4869 95.0367 49.2869 93.3667 48.6169C91.7067 47.9369 90.9067 46.0469 91.5767 44.3769C92.2567 42.7169 94.1467 41.9169 95.8167 42.5869C97.4767 43.2669 98.2767 45.1569 97.6067 46.8269Z" fill="#FF3D00"/>
<path d="M127.706 59.0669C127.026 60.7269 125.136 61.5269 123.466 60.8569C121.806 60.1769 121.006 58.2869 121.676 56.6169C122.356 54.9569 124.246 54.1569 125.916 54.8269C127.576 55.5069 128.376 57.3969 127.706 59.0669Z" fill="#FF3D00"/>
<path d="M157.817 71.3169C157.137 72.9769 155.247 73.7769 153.587 73.1069C151.927 72.4269 151.127 70.5369 151.797 68.8669C152.477 67.2069 154.367 66.4069 156.027 67.0769C157.687 67.7569 158.487 69.6469 157.817 71.3069V71.3169Z" fill="#FF3D00"/>
<path d="M187.917 83.5669C187.237 85.2269 185.347 86.0269 183.687 85.3569C182.027 84.6769 181.227 82.7869 181.897 81.1169C182.577 79.4569 184.467 78.6569 186.127 79.3269C187.787 80.0069 188.587 81.8969 187.917 83.5669Z" fill="#FF3D00"/>
<path d="M218.027 95.8069C217.347 97.4669 215.457 98.2669 213.787 97.5969C212.127 96.9169 211.327 95.0269 211.997 93.3569C212.677 91.6969 214.567 90.8969 216.227 91.5669C217.887 92.2469 218.687 94.1369 218.017 95.8069H218.027Z" fill="#FF3D00"/>
<path d="M248.126 108.057C247.446 109.717 245.556 110.517 243.886 109.847C242.226 109.167 241.426 107.277 242.096 105.607C242.776 103.947 244.666 103.147 246.336 103.817C248.006 104.487 248.796 106.387 248.126 108.057Z" fill="#FF3D00"/>
<path d="M278.227 120.297C277.547 121.957 275.657 122.757 273.987 122.087C272.327 121.407 271.527 119.517 272.197 117.847C272.877 116.187 274.767 115.387 276.437 116.057C278.097 116.737 278.897 118.627 278.227 120.287V120.297Z" fill="#FF3D00"/>
<path d="M55.2571 64.6768C54.5771 66.3368 52.687 67.1368 51.017 66.4668C49.357 65.7868 48.5571 63.8968 49.2271 62.2268C49.9071 60.5668 51.797 59.7668 53.467 60.4368C55.127 61.1168 55.9271 63.0068 55.2571 64.6768Z" fill="#FF3D00"/>
<path d="M85.3567 76.9268C84.6767 78.5868 82.7867 79.3868 81.1167 78.7168C79.4567 78.0368 78.6567 76.1468 79.3267 74.4768C80.0067 72.8168 81.8967 72.0168 83.5667 72.6868C85.2267 73.3668 86.0267 75.2568 85.3567 76.9268Z" fill="#FF3D00"/>
<path d="M115.467 89.1768C114.787 90.8368 112.897 91.6368 111.227 90.9668C109.567 90.2868 108.767 88.3968 109.437 86.7268C110.117 85.0668 112.007 84.2668 113.677 84.9368C115.337 85.6168 116.137 87.5068 115.467 89.1768Z" fill="#FF3D00"/>
<path d="M145.567 101.417C144.887 103.077 142.997 103.877 141.327 103.207C139.667 102.527 138.867 100.637 139.537 98.9668C140.217 97.3068 142.107 96.5068 143.777 97.1768C145.437 97.8568 146.237 99.7468 145.567 101.417Z" fill="#FF3D00"/>
<path d="M175.667 113.667C174.987 115.327 173.097 116.127 171.427 115.457C169.767 114.777 168.967 112.887 169.637 111.217C170.317 109.557 172.207 108.757 173.877 109.427C175.537 110.107 176.337 111.997 175.667 113.667Z" fill="#FF3D00"/>
<path d="M205.777 125.917C205.097 127.577 203.207 128.377 201.537 127.707C199.877 127.027 199.077 125.137 199.747 123.467C200.427 121.807 202.317 121.007 203.987 121.677C205.647 122.357 206.447 124.247 205.777 125.917Z" fill="#FF3D00"/>
<path d="M235.876 138.157C235.196 139.817 233.306 140.617 231.636 139.947C229.976 139.267 229.176 137.377 229.846 135.707C230.526 134.047 232.416 133.247 234.086 133.917C235.746 134.597 236.546 136.487 235.876 138.157Z" fill="#FF3D00"/>
<path d="M265.988 150.407C265.308 152.067 263.418 152.867 261.748 152.197C260.088 151.517 259.288 149.627 259.958 147.957C260.638 146.297 262.528 145.497 264.198 146.167C265.858 146.847 266.658 148.737 265.988 150.407Z" fill="#FF3D00"/>
<path d="M43.0071 94.7869C42.3271 96.4469 40.437 97.2469 38.767 96.5769C37.107 95.8969 36.3071 94.0069 36.9771 92.3369C37.6571 90.6769 39.547 89.8769 41.217 90.5469C42.877 91.2269 43.6771 93.1169 43.0071 94.7869Z" fill="#FF3D00"/>
<path d="M73.1164 107.037C72.4364 108.697 70.5464 109.497 68.8764 108.827C67.2164 108.147 66.4164 106.257 67.0864 104.587C67.7664 102.927 69.6564 102.127 71.3264 102.797C72.9864 103.477 73.7864 105.367 73.1164 107.037Z" fill="#FF3D00"/>
<path d="M103.217 119.277C102.537 120.937 100.647 121.737 98.977 121.067C97.317 120.387 96.517 118.497 97.187 116.827C97.867 115.167 99.757 114.367 101.427 115.037C103.087 115.717 103.887 117.607 103.217 119.277Z" fill="#FF3D00"/>
<path d="M133.317 131.527C132.637 133.187 130.747 133.987 129.087 133.317C127.427 132.637 126.627 130.747 127.297 129.077C127.977 127.417 129.867 126.617 131.527 127.287C133.187 127.967 133.987 129.857 133.317 131.527Z" fill="#FF3D00"/>
<path d="M163.427 143.767C162.747 145.427 160.857 146.227 159.197 145.557C157.537 144.877 156.737 142.987 157.407 141.317C158.087 139.657 159.977 138.857 161.637 139.527C163.297 140.207 164.097 142.097 163.427 143.767Z" fill="#FF3D00"/>
<path d="M193.527 156.017C192.847 157.677 190.957 158.477 189.287 157.807C187.627 157.127 186.827 155.237 187.497 153.567C188.177 151.907 190.067 151.107 191.737 151.777C193.397 152.457 194.197 154.347 193.527 156.017Z" fill="#FF3D00"/>
<path d="M223.637 168.267C222.957 169.927 221.067 170.727 219.397 170.057C217.737 169.377 216.937 167.487 217.607 165.817C218.287 164.157 220.177 163.357 221.847 164.027C223.507 164.707 224.307 166.597 223.637 168.267Z" fill="#FF3D00"/>
<path d="M253.738 180.507C253.058 182.167 251.168 182.967 249.498 182.297C247.838 181.617 247.038 179.727 247.708 178.057C248.388 176.397 250.278 175.597 251.948 176.267C253.608 176.947 254.408 178.837 253.738 180.507Z" fill="#FF3D00"/>
<path d="M30.7571 124.887C30.0771 126.547 28.1871 127.347 26.5171 126.677C24.8571 125.997 24.0571 124.107 24.7271 122.437C25.4071 120.777 27.2971 119.977 28.9671 120.647C30.6271 121.327 31.4271 123.217 30.7571 124.887Z" fill="#FF3D00"/>
<path d="M60.8664 137.137C60.1864 138.797 58.2964 139.597 56.6264 138.927C54.9664 138.247 54.1664 136.357 54.8364 134.687C55.5164 133.027 57.4064 132.227 59.0764 132.897C60.7364 133.577 61.5364 135.467 60.8664 137.137Z" fill="#FF3D00"/>
<path d="M90.967 149.387C90.287 151.047 88.397 151.847 86.727 151.177C85.067 150.497 84.267 148.607 84.937 146.937C85.617 145.277 87.507 144.477 89.177 145.147C90.837 145.827 91.637 147.717 90.967 149.387Z" fill="#FF3D00"/>
<path d="M121.077 161.627C120.397 163.287 118.507 164.087 116.837 163.417C115.177 162.737 114.377 160.847 115.047 159.177C115.727 157.517 117.617 156.717 119.287 157.387C120.947 158.067 121.747 159.957 121.077 161.627Z" fill="#FF3D00"/>
<path d="M151.177 173.877C150.497 175.537 148.607 176.337 146.937 175.667C145.277 174.987 144.477 173.097 145.147 171.427C145.827 169.767 147.717 168.967 149.387 169.637C151.047 170.317 151.847 172.207 151.177 173.877Z" fill="#FF3D00"/>
<path d="M181.286 186.127C180.606 187.787 178.716 188.587 177.046 187.917C175.386 187.237 174.586 185.347 175.256 183.677C175.926 182.007 177.826 181.217 179.496 181.887C181.156 182.567 181.956 184.457 181.286 186.127Z" fill="#FF3D00"/>
<path d="M211.387 198.367C210.707 200.027 208.817 200.827 207.147 200.157C205.487 199.477 204.687 197.587 205.357 195.917C206.037 194.257 207.927 193.457 209.597 194.127C211.257 194.807 212.057 196.697 211.387 198.367Z" fill="#FF3D00"/>
<path d="M241.488 210.617C240.808 212.277 238.918 213.077 237.248 212.407C235.588 211.727 234.788 209.837 235.458 208.167C236.138 206.507 238.028 205.707 239.698 206.377C241.358 207.057 242.158 208.947 241.488 210.617Z" fill="#FF3D00"/>
<path d="M18.5168 154.997C17.8368 156.657 15.9468 157.457 14.2768 156.787C12.6168 156.107 11.8168 154.217 12.4868 152.557C13.1668 150.897 15.0568 150.097 16.7268 150.767C18.3868 151.447 19.1868 153.337 18.5168 155.007V154.997Z" fill="#FF3D00"/>
<path d="M48.6168 167.237C47.9368 168.897 46.0468 169.697 44.3768 169.027C42.7068 168.357 41.9168 166.457 42.5868 164.787C43.2668 163.127 45.1568 162.327 46.8268 162.997C48.4868 163.677 49.2868 165.567 48.6168 167.237Z" fill="#FF3D00"/>
<path d="M78.7275 179.487C78.0475 181.147 76.1575 181.947 74.4975 181.277C72.8375 180.597 72.0375 178.707 72.7075 177.037C73.3875 175.377 75.2775 174.577 76.9475 175.247C78.6075 175.927 79.4075 177.817 78.7375 179.487H78.7275Z" fill="#FF3D00"/>
<path d="M108.827 191.737C108.147 193.397 106.257 194.197 104.597 193.527C102.937 192.847 102.137 190.957 102.807 189.287C103.487 187.627 105.377 186.827 107.037 187.497C108.697 188.177 109.497 190.067 108.827 191.737Z" fill="#FF3D00"/>
<path d="M138.936 203.977C138.256 205.637 136.366 206.437 134.706 205.767C133.046 205.087 132.247 203.197 132.917 201.537C133.597 199.877 135.487 199.077 137.147 199.747C138.807 200.427 139.606 202.317 138.936 203.987V203.977Z" fill="#FF3D00"/>
<path d="M169.036 216.227C168.356 217.887 166.466 218.687 164.796 218.017C163.136 217.337 162.336 215.447 163.006 213.777C163.686 212.117 165.576 211.317 167.246 211.987C168.906 212.667 169.706 214.557 169.036 216.227Z" fill="#FF3D00"/>
<path d="M199.137 228.477C198.457 230.137 196.567 230.937 194.897 230.267C193.237 229.587 192.437 227.697 193.107 226.027C193.787 224.367 195.677 223.567 197.347 224.237C199.007 224.917 199.807 226.807 199.137 228.477Z" fill="#FF3D00"/>
<path d="M229.247 240.717C228.567 242.377 226.677 243.177 225.007 242.507C223.337 241.837 222.547 239.937 223.217 238.267C223.897 236.607 225.787 235.807 227.457 236.477C229.117 237.157 229.917 239.047 229.247 240.717Z" fill="#FF3D00"/>
<path d="M6.26682 185.097C5.58682 186.757 3.69682 187.557 2.02682 186.887C0.366817 186.207 -0.433183 184.317 0.236817 182.657C0.916817 180.997 2.80682 180.197 4.47682 180.867C6.13682 181.547 6.93682 183.437 6.26682 185.097Z" fill="#FF3D00"/>
<path d="M36.3772 197.347C35.6972 199.007 33.8072 199.807 32.1372 199.137C30.4772 198.457 29.6772 196.567 30.3472 194.897C31.0272 193.237 32.9172 192.437 34.5872 193.107C36.2472 193.787 37.0472 195.677 36.3772 197.347Z" fill="#FF3D00"/>
<path d="M66.4768 209.587C65.7968 211.247 63.9068 212.047 62.2368 211.377C60.5768 210.697 59.7768 208.807 60.4468 207.137C61.1268 205.477 63.0168 204.677 64.6868 205.347C66.3468 206.027 67.1468 207.917 66.4768 209.587Z" fill="#FF3D00"/>
<path d="M96.5774 221.837C95.8974 223.497 94.0074 224.297 92.3374 223.627C90.6774 222.947 89.8774 221.057 90.5474 219.387C91.2274 217.727 93.1174 216.927 94.7874 217.597C96.4474 218.277 97.2474 220.167 96.5774 221.837Z" fill="#FF3D00"/>
<path d="M126.687 234.087C126.007 235.747 124.117 236.547 122.447 235.877C120.787 235.197 119.987 233.307 120.657 231.647C121.337 229.987 123.227 229.187 124.897 229.857C126.557 230.537 127.357 232.427 126.687 234.097V234.087Z" fill="#FF3D00"/>
<path d="M156.786 246.327C156.106 247.987 154.216 248.787 152.546 248.117C150.886 247.437 150.086 245.547 150.756 243.877C151.426 242.207 153.326 241.417 154.996 242.087C156.656 242.767 157.456 244.657 156.786 246.327Z" fill="#FF3D00"/>
<path d="M186.897 258.577C186.217 260.237 184.327 261.037 182.657 260.367C180.997 259.687 180.197 257.797 180.867 256.137C181.547 254.477 183.437 253.677 185.107 254.347C186.767 255.027 187.567 256.917 186.897 258.577Z" fill="#FF3D00"/>
<path d="M216.997 270.827C216.317 272.487 214.427 273.287 212.757 272.617C211.097 271.937 210.297 270.047 210.967 268.377C211.647 266.717 213.537 265.917 215.207 266.587C216.867 267.267 217.667 269.157 216.997 270.827Z" fill="#FF3D00"/>
</svg>
