<svg width="32" height="36" viewBox="0 0 32 36" fill="none" xmlns="http://www.w3.org/2000/svg">
<path d="M29.2088 4.68159H28.7891C29.5892 3.35601 29.2937 1.57636 28.0097 0.606835C26.6261 -0.43771 24.66 -0.101481 23.6944 1.3669L21.5148 4.68166H2.79111C1.25208 4.68166 0 5.95584 0 7.52202V25.6816C0 27.2478 1.25208 28.522 2.79111 28.522H13.6326L12.8134 32.0233H11.0455C9.89321 32.0233 8.95577 32.9772 8.95577 34.1498V34.5938H6.77626C6.39467 34.5938 6.08534 34.9086 6.08534 35.2969C6.08534 35.6851 6.39467 36 6.77626 36H25.2237C25.6053 36 25.9147 35.6851 25.9147 35.2969C25.9147 34.9086 25.6053 34.5938 25.2237 34.5938H23.0442V34.1498C23.0442 32.9772 22.1068 32.0233 20.9545 32.0233H19.1866L18.3674 28.522H29.2089C30.7479 28.522 32 27.2478 32 25.6816V21.6858V7.52195C32 5.95577 30.7479 4.68159 29.2088 4.68159ZM19.3092 17.0422C18.2289 17.8118 16.2052 16.7658 14.2725 17.8152C13.801 15.3224 14.0983 12.9778 16.5528 12.4603C16.87 12.393 17.2115 12.3626 17.5022 12.3685C18.333 12.9958 19.1733 13.6302 20.0017 14.2557C20.3644 15.3292 20.2283 16.3876 19.3092 17.0422ZM20.0055 9.50572L21.9613 10.9824L20.4572 12.8485C19.838 12.381 19.3057 11.9791 18.6865 11.5116C18.8151 11.316 19.888 9.68438 20.0055 9.50572ZM24.8429 2.14897C25.3662 1.35298 26.4335 1.16778 27.1863 1.73625C27.9394 2.30478 28.0743 3.39784 27.4775 4.13829C26.4187 5.45192 23.9014 8.57522 22.8385 9.8939L20.7748 8.33567L24.8429 2.14897ZM21.6623 34.1498V34.5938H10.3376V34.1498C10.3376 33.7526 10.6552 33.4295 11.0455 33.4295H20.9545C21.3448 33.4295 21.6623 33.7526 21.6623 34.1498ZM17.766 32.0233H14.2339L15.0531 28.522H16.9469L17.766 32.0233ZM30.6182 25.6816C30.6182 26.4724 29.986 27.1157 29.2089 27.1157C28.1121 27.1157 4.02433 27.1157 2.79118 27.1157C2.0141 27.1157 1.38191 26.4724 1.38191 25.6816V22.3889H3.35628C3.73787 22.3889 4.0472 22.0741 4.0472 21.6858C4.0472 21.2976 3.73787 20.9827 3.35628 20.9827H1.38177V7.52195C1.38177 6.73116 2.01396 6.08781 2.79104 6.08781H20.5902C19.9283 7.09446 17.9972 10.0312 17.3855 10.9614C16.0315 10.9738 14.6798 11.4538 13.7948 12.5051C12.5906 13.9356 12.3791 16.1833 13.166 19.1858C13.3005 19.6992 13.93 19.8831 14.3109 19.5128C16.0975 17.7757 18.3225 19.6706 20.315 18.0293C21.5313 17.0274 21.8192 15.4346 21.3605 13.9451C21.9805 13.1759 27.0719 6.85885 27.6934 6.08781H29.2088C29.9858 6.08781 30.618 6.73116 30.618 7.52195V20.9826H8.8835C8.5019 20.9826 8.19258 21.2975 8.19258 21.6857C8.19258 22.074 8.5019 22.3889 8.8835 22.3889H30.6182V25.6816Z" fill="#FF3D00"/>
<path d="M5.98617 20.9962C5.65356 21.0654 5.43066 21.3579 5.43066 21.686C5.43066 22.1258 5.82581 22.4626 6.25633 22.3751C6.6389 22.2961 6.87195 21.9209 6.79871 21.5482C6.72181 21.1636 6.3552 20.9206 5.98617 20.9962Z" fill="#FF3D00"/>
</svg>
