<svg width="36" height="36" viewBox="0 0 36 36" fill="none" xmlns="http://www.w3.org/2000/svg">
<path d="M32.25 27H27.75C27.336 27 27 26.664 27 26.25C27 25.836 27.336 25.5 27.75 25.5H32.25C33.4905 25.5 34.5 24.4905 34.5 23.25V12.75C34.5 11.5095 33.4905 10.5 32.25 10.5H3.75C2.5095 10.5 1.5 11.5095 1.5 12.75V23.25C1.5 24.4905 2.5095 25.5 3.75 25.5H8.25C8.664 25.5 9 25.836 9 26.25C9 26.664 8.664 27 8.25 27H3.75C1.6815 27 0 25.317 0 23.25V12.75C0 10.683 1.6815 9 3.75 9H32.25C34.3185 9 36 10.683 36 12.75V23.25C36 25.317 34.3185 27 32.25 27Z" fill="#FF3D00"/>
<path d="M21.75 31.5H12.75C12.336 31.5 12 31.164 12 30.75C12 30.336 12.336 30 12.75 30H21.75C22.164 30 22.5 30.336 22.5 30.75C22.5 31.164 22.164 31.5 21.75 31.5Z" fill="#FF3D00"/>
<path d="M21.75 28.5H12.75C12.336 28.5 12 28.164 12 27.75C12 27.336 12.336 27 12.75 27H21.75C22.164 27 22.5 27.336 22.5 27.75C22.5 28.164 22.164 28.5 21.75 28.5Z" fill="#FF3D00"/>
<path d="M15.75 25.5H12.75C12.336 25.5 12 25.164 12 24.75C12 24.336 12.336 24 12.75 24H15.75C16.164 24 16.5 24.336 16.5 24.75C16.5 25.164 16.164 25.5 15.75 25.5Z" fill="#FF3D00"/>
<path d="M27.75 10.5C27.336 10.5 27 10.164 27 9.75V3.75C27 2.5095 25.9905 1.5 24.75 1.5H11.25C10.0095 1.5 9 2.5095 9 3.75V9.75C9 10.164 8.664 10.5 8.25 10.5C7.836 10.5 7.5 10.164 7.5 9.75V3.75C7.5 1.683 9.1815 0 11.25 0H24.75C26.8185 0 28.5 1.683 28.5 3.75V9.75C28.5 10.164 28.164 10.5 27.75 10.5Z" fill="#FF3D00"/>
<path d="M24.75 36H11.25C9.1815 36 7.5 34.317 7.5 32.25V20.25C7.5 19.836 7.836 19.5 8.25 19.5H27.75C28.164 19.5 28.5 19.836 28.5 20.25V32.25C28.5 34.317 26.8185 36 24.75 36ZM9 21V32.25C9 33.4905 10.0095 34.5 11.25 34.5H24.75C25.9905 34.5 27 33.4905 27 32.25V21H9Z" fill="#FF3D00"/>
</svg>
