<svg width="32" height="36" viewBox="0 0 32 36" fill="none" xmlns="http://www.w3.org/2000/svg">
<path d="M5.81522 23.5211L5.81425 23.532C5.80747 23.6089 5.77363 23.6806 5.71915 23.7346C5.66473 23.7886 5.5932 23.8215 5.51725 23.8281L5.50647 23.8291H5.49565H4.32C3.8466 23.8291 3.39219 23.6425 3.05684 23.3099C2.72142 22.9772 2.53261 22.5255 2.53261 22.0541V18.3278C2.53261 18.0944 2.57895 17.8633 2.66894 17.6478C2.75893 17.4323 2.89077 17.2367 3.05684 17.0719C3.2229 16.9072 3.41994 16.7766 3.63665 16.6876C3.85336 16.5986 4.08556 16.5528 4.32 16.5528H5.49565H5.50695L5.51819 16.5538C5.59895 16.5611 5.67445 16.5982 5.72962 16.6584C5.72962 16.6584 5.72963 16.6584 5.72963 16.6584L5.54532 16.8273C5.5582 16.8413 5.5653 16.8597 5.56522 16.8787L5.81522 23.5211ZM5.81522 23.5211V23.5101V16.8789V23.5211ZM26.4931 16.5528H26.5043H27.68C28.1534 16.5528 28.6078 16.7393 28.9432 17.0719C29.2786 17.4047 29.4674 17.8564 29.4674 18.3278V22.0541C29.4674 22.5255 29.2786 22.9772 28.9432 23.3099C28.6078 23.6425 28.1534 23.8291 27.68 23.8291H26.5043H26.4935L26.4827 23.8281C26.4068 23.8215 26.3353 23.7886 26.2809 23.7346L26.2808 23.7346C26.2264 23.6806 26.1925 23.6089 26.1857 23.532L26.1848 23.5211V23.5101L26.1848 16.8797C26.1848 16.8795 26.1848 16.8793 26.1848 16.8792V16.8787H26.4348C26.4347 16.8597 26.4418 16.8413 26.4547 16.8273L26.4931 16.5528ZM26.4931 16.5528L26.4818 16.5538C26.401 16.5611 26.3255 16.5982 26.2704 16.6584L26.4931 16.5528ZM21.7425 30.4663L21.8173 30.6596L22.0211 30.6219C23.1023 30.4219 24.1029 29.9179 24.9038 29.1695C25.7047 28.4211 26.2721 27.4598 26.5381 26.4001L26.6107 26.1109L26.3132 26.0899C25.6556 26.0435 25.0408 25.7509 24.5933 25.2719C24.1458 24.793 23.8989 24.1635 23.9022 23.5113V23.5101V16.8792C23.9036 16.2069 24.1691 15.5612 24.643 15.0793C25.117 14.5974 25.7621 14.3174 26.4414 14.2994L26.6848 14.2929V14.0495V13.111C26.6848 10.2988 25.5586 7.60226 23.5546 5.61439C21.5506 3.62659 18.8331 2.51021 16 2.51021C13.1669 2.51021 10.4494 3.62659 8.44543 5.61439C6.44143 7.60226 5.31522 10.2988 5.31522 13.111V14.0495V14.2929L5.55858 14.2994C6.23792 14.3174 6.88301 14.5974 7.35698 15.0793C7.83078 15.5611 8.0963 16.2066 8.09783 16.8787C8.09783 16.8789 8.09783 16.879 8.09783 16.8792V23.5095C8.09783 23.5096 8.09783 23.5097 8.09783 23.5098C8.09605 24.1927 7.8218 24.8476 7.33436 25.3311C6.84675 25.8148 6.18548 26.0876 5.49505 26.0893H4.32C3.23992 26.0893 2.20448 25.6636 1.44136 24.9067C0.678307 24.1498 0.25 23.1236 0.25 22.0541V18.3281C0.251837 17.5122 0.503088 16.7158 0.970839 16.0442C1.43866 15.3725 2.10112 14.857 2.87095 14.5662L3.03261 14.5052V14.3324V13.111C3.03261 9.70069 4.39832 6.42967 6.82995 4.01761C9.26166 1.60548 12.5602 0.25 16 0.25C19.4398 0.25 22.7383 1.60548 25.17 4.01761C27.6017 6.42967 28.9674 9.70069 28.9674 13.111V14.3324V14.5052L29.129 14.5662C29.8989 14.857 30.5613 15.3725 31.0292 16.0442C31.497 16.7159 31.7482 17.5123 31.75 18.3283V22.0536C31.7486 22.8801 31.4918 23.6864 31.0138 24.3638C30.5359 25.0413 29.8597 25.5574 29.0763 25.8421L28.9334 25.894L28.9138 26.0448C28.6881 27.7813 27.89 29.3953 26.6432 30.6357C25.3965 31.876 23.771 32.673 22.0197 32.9022L21.8641 32.9226L21.8148 33.0716C21.5574 33.85 21.0586 34.5283 20.3892 35.0094C19.7198 35.4906 18.914 35.7498 18.087 35.75H15.3043C14.263 35.75 13.2647 35.3396 12.529 34.6098C11.7934 33.8801 11.3804 32.8908 11.3804 31.8597C11.3804 30.8286 11.7934 29.8393 12.529 29.1095C13.2647 28.3797 14.263 27.9694 15.3043 27.9694H18.0865C18.8793 27.9709 19.6528 28.2105 20.3054 28.6563C20.9579 29.1021 21.4588 29.7332 21.7425 30.4663ZM15.3043 33.4898H18.087C18.5216 33.4898 18.9389 33.3185 19.2468 33.0131C19.5548 32.7075 19.7283 32.2927 19.7283 31.8597C19.7283 31.4267 19.5548 31.0119 19.2468 30.7063C18.9389 30.4008 18.5216 30.2296 18.087 30.2296H15.3043C14.8697 30.2296 14.4524 30.4008 14.1445 30.7063C13.8365 31.0119 13.663 31.4267 13.663 31.8597C13.663 32.2927 13.8365 32.7075 14.1445 33.0131C14.4524 33.3185 14.8697 33.4898 15.3043 33.4898Z" fill="#FF3D00" stroke="#FFF3F0" stroke-width="0.5"/>
</svg>
