<svg width="211" height="347" viewBox="0 0 211 347" fill="none" xmlns="http://www.w3.org/2000/svg">
<path d="M74.3894 99.2729H62.6196C41.6601 99.2729 56.0808 84.9024 44.2756 82.2542C32.5058 79.6414 11.4756 93.0233 2.25065 84.3374C-3.26314 79.1824 1.47307 68.8723 15.1515 58.7035C40.7765 39.637 47.2446 12.167 58.0247 19.4758C70.1127 27.6674 27.2394 49.5586 25.2955 60.6808C23.3162 71.8029 40.3524 71.1321 53.4299 60.6808C66.5075 50.2295 83.473 32.5046 99.9084 7.04725C110.052 -8.62969 126.488 5.1759 114.046 16.2981C94.4299 33.8464 62.9023 60.6808 94.0058 60.6808H112.986V232.668C112.986 232.668 112.173 257.102 122.67 257.737C133.132 258.408 147.73 223.347 156.213 235.246C163.494 245.45 138.328 255.195 119.772 281.182C106.129 300.284 122.388 313.489 134.546 301.378C148.614 287.326 175.193 261.409 183.039 249.652C190.886 237.894 201.666 219.851 208.558 226.772C216.087 234.292 205.271 244.426 188.907 257.49C172.542 270.554 151.264 295.094 133.274 313.066C118.818 327.507 110.264 336.369 101.852 342.477C92.2739 349.433 78.2773 350.351 78.2773 330.72C78.2773 307.981 97.6816 293.293 92.6627 284.925C87.8911 276.945 74.3187 297.247 74.3187 273.803V99.2023L74.3894 99.2729Z" fill="url(#paint0_linear_298_253)"/>
<defs>
<linearGradient id="paint0_linear_298_253" x1="186.609" y1="72.615" x2="-1.23172" y2="260.649" gradientUnits="userSpaceOnUse">
<stop stop-color="#00EAFF"/>
<stop offset="1" stop-color="#009DFF"/>
</linearGradient>
</defs>
</svg>
