<svg width="40" height="40" viewBox="0 0 40 40" fill="none" xmlns="http://www.w3.org/2000/svg">
<path d="M29.8391 6.74039C24.4755 2.11486 19.9999 7.70663 19.9999 7.70663C19.9999 7.70663 15.5242 2.11486 10.1606 6.74039C4.79706 11.3659 9.66467 19.643 19.9999 25.3473C30.827 18.9329 35.2026 11.3698 29.8391 6.74039Z" fill="#07CBEB"/>
<g style="mix-blend-mode:multiply" opacity="0.5">
<path d="M20.0006 23.3101C13.1331 19.5189 8.68547 14.5946 8.04152 10.361C7.27758 14.9749 11.9972 20.9275 20.0006 25.3435C28.2959 20.4269 32.7995 14.839 32.0396 10.4114C31.3877 14.4432 27.068 19.1192 20.0006 23.3062V23.3101Z" fill="#919191"/>
</g>
<path d="M18.1559 32.6387C17.524 32.2157 2.69316 22.2157 0.46534 14.0939C-0.590575 10.2406 0.169364 6.58129 2.55317 4.05122C4.88899 1.57159 8.5087 0.461771 12.2364 1.08265L12.0164 2.3244C8.72468 1.77725 5.54494 2.73961 3.5091 4.90492C1.40127 7.14396 0.765317 10.291 1.72124 13.7718C3.82507 21.4435 18.7439 31.5017 18.8919 31.6026L18.1559 32.6387Z" fill="#07CBEB"/>
<g style="mix-blend-mode:multiply" opacity="0.5">
<path d="M1.72151 13.7719C0.765583 10.2911 1.40153 7.14011 3.50936 4.90495C5.5452 2.74353 8.72495 1.78117 12.0167 2.32443L12.1527 1.55222C8.66895 1.03223 5.30522 2.09161 3.12139 4.41213C0.849576 6.82191 0.125634 10.3105 1.13355 13.9814C3.25338 21.723 17.3923 31.2534 17.9962 31.657L18.3202 31.203C15.5524 29.2666 3.59336 20.5821 1.72551 13.768L1.72151 13.7719Z" fill="#919191"/>
</g>
<path d="M21.8438 32.6387C22.4757 32.2157 37.3065 22.2157 39.5343 14.0939C40.5903 10.2406 39.8303 6.58129 37.4505 4.05122C35.1147 1.57159 31.495 0.461771 27.7673 1.08265L27.9873 2.3244C31.279 1.77725 34.4588 2.73961 36.4946 4.90492C38.6024 7.14396 39.2384 10.291 38.2824 13.7718C36.1786 21.4435 21.2598 31.5017 21.1118 31.6026L21.8478 32.6387H21.8438Z" fill="#07CBEB"/>
<g style="mix-blend-mode:multiply" opacity="0.5">
<path d="M38.2789 13.7719C39.2348 10.2911 38.5988 7.14011 36.491 4.90495C34.4552 2.74353 31.2754 1.78117 27.9837 2.32443L27.8477 1.55222C31.3314 1.03223 34.6951 2.09161 36.879 4.41213C39.1468 6.82191 39.8747 10.3105 38.8668 13.9814C36.747 21.723 22.6081 31.2534 22.0041 31.657L21.6802 31.203C24.448 29.2666 36.407 20.5821 38.2749 13.768L38.2789 13.7719Z" fill="#919191"/>
</g>
<path d="M31.1995 20.5199C27.9957 23.2479 20.0683 30 20.0003 30.0465C19.9324 30.0038 12.005 23.2518 8.80124 20.5199C8.0213 19.8564 6.87739 19.7788 6.00946 20.3337C4.75756 21.1369 4.61357 22.8638 5.72148 23.8494C8.89323 26.6666 14.6888 31.7578 17.2526 33.6321V37.3341C17.2526 38.8048 18.4845 40 20.0003 40C21.5162 40 22.7481 38.8048 22.7481 37.3341V33.6321C25.3079 31.7578 31.1075 26.6666 34.2792 23.8494C35.3871 22.8676 35.2431 21.1369 33.9912 20.3337C33.1233 19.7788 31.9834 19.8525 31.1995 20.5199Z" fill="#1745B3"/>
<g style="mix-blend-mode:overlay" opacity="0.3">
<path d="M19.9996 33.0927C20.0836 33.0345 29.6989 24.8467 34.4825 20.7722C34.7665 21.102 34.9384 21.4979 34.9984 21.9053C34.9144 21.2922 34.5745 20.714 33.9865 20.3376C33.1186 19.7827 31.9787 19.8564 31.1947 20.5239C27.991 23.2518 20.0636 30.0039 19.9956 30.0504C19.9276 30.0078 12.0003 23.2557 8.79653 20.5239C8.01659 19.8603 6.87268 19.7827 6.00475 20.3376C5.81276 20.4618 5.64878 20.6092 5.50879 20.7722C10.2964 24.8506 19.9076 33.0345 19.9916 33.0927H19.9996Z" fill="#07CBEB"/>
</g>
<g style="mix-blend-mode:multiply" opacity="0.5">
<path d="M17.8762 20.0816V17.1867H14.8965V13.0695H17.8762V10.1747H22.1239V13.0695H25.1037V17.1867H22.1239V20.0816H17.8762Z" fill="#919191"/>
</g>
<path d="M24.6514 13.6128H21.5597V10.6132H18.4399V13.6128H15.3481V16.6395H18.4399V19.643H21.5597V16.6395H24.6514V13.6128Z" fill="white"/>
<path d="M10.7967 0H12.0966C13.0406 0 13.8045 0.741172 13.8045 1.65697C13.8045 2.57276 13.0406 3.31393 12.0966 3.31393H10.7967C9.85281 3.31393 9.08887 2.57276 9.08887 1.65697C9.08887 0.741172 9.85281 0 10.7967 0Z" fill="#1745B3"/>
<g style="mix-blend-mode:overlay" opacity="0.3">
<path d="M12.101 0H10.8011C9.8572 0 9.09326 0.741172 9.09326 1.65697H13.8089C13.8089 0.741172 13.0449 0 12.101 0Z" fill="#07CBEB"/>
</g>
<path d="M27.8993 0H29.1992C30.1431 0 30.907 0.741172 30.907 1.65697C30.907 2.57276 30.1431 3.31393 29.1992 3.31393H27.8993C26.9553 3.31393 26.1914 2.57276 26.1914 1.65697C26.1914 0.741172 26.9553 0 27.8993 0Z" fill="#1745B3"/>
<g style="mix-blend-mode:overlay" opacity="0.3">
<path d="M29.2031 0H27.9032C26.9593 0 26.1953 0.741172 26.1953 1.65697H30.9109C30.9109 0.741172 30.147 0 29.2031 0Z" fill="#07CBEB"/>
</g>
</svg>
