<svg width="49" height="37" viewBox="0 0 49 37" fill="none" xmlns="http://www.w3.org/2000/svg">
<path d="M7.42617 37L4.42617 34C8.09284 30.6667 10.3928 27.6 11.3262 24.8C12.3262 22 12.6928 19.7667 12.4262 18.1L9.32617 20L0.326172 10L11.3262 -6.19888e-06C14.9928 1.26666 17.7928 3.2 19.7262 5.8C21.6595 8.33333 22.6262 11.7333 22.6262 16C22.6262 19.2667 21.9262 22.2667 20.5262 25C19.1928 27.6667 17.3595 30.0333 15.0262 32.1C12.7595 34.1 10.2262 35.7333 7.42617 37ZM33.4262 37L30.4262 34C34.0928 30.6667 36.3928 27.6 37.3262 24.8C38.3262 22 38.6928 19.7667 38.4262 18.1L35.3262 20L26.3262 10L37.3262 -6.19888e-06C40.9928 1.26666 43.7928 3.2 45.7262 5.8C47.6595 8.33333 48.6262 11.7333 48.6262 16C48.6262 19.2667 47.9262 22.2667 46.5262 25C45.1928 27.6667 43.3595 30.0333 41.0262 32.1C38.7595 34.1 36.2262 35.7333 33.4262 37Z" fill="#FF3D00" fill-opacity="0.3"/>
</svg>
