<svg width="36" height="36" viewBox="0 0 36 36" fill="none" xmlns="http://www.w3.org/2000/svg">
<path d="M34.1999 23.9999H28.387L33.4185 21.0946C33.8332 20.8573 34.1364 20.4648 34.2611 20.0034C34.3861 19.5419 34.3221 19.05 34.0834 18.6361L29.8823 11.3615C29.643 10.9479 29.2489 10.6463 28.7872 10.5235C28.3255 10.3983 27.8328 10.4642 27.4202 10.7062L22.3877 13.6123L25.2922 8.58224C25.5333 8.16861 25.5995 7.67587 25.4765 7.21307C25.3534 6.75027 25.0508 6.35559 24.636 6.11664L17.3625 1.91547C16.9486 1.67761 16.4572 1.61417 15.9966 1.73886C15.536 1.86356 15.1438 2.16595 14.9062 2.57986L12.0001 7.61407V1.80011C11.999 0.806397 11.1937 0.00109863 10.2 0H1.80011C0.806397 0.00109863 0.00109863 0.806397 0 1.80011V34.1999C0.00109863 35.1936 0.806397 35.9989 1.80011 36H34.1999C35.1936 35.9989 35.9989 35.1936 36 34.1999V25.8C35.9989 24.8063 35.1936 24.001 34.1999 23.9999ZM1.80011 23.9999C1.59521 24.0021 1.39224 24.0395 1.19998 24.1106V18H6.00348L2.53949 23.9999H1.80011ZM25.9871 23.9999H17.7822L15.0334 19.2448L21.2679 15.6448L26.0656 23.9549L25.9871 23.9999ZM20.3085 14.8129L13.2053 18.9149L8.44711 16.1675L12.0457 9.93466L20.3552 14.7321L20.3085 14.8129ZM10.8001 9.69214L7.1131 16.0785C7.11118 16.0815 7.10815 16.0829 7.10623 16.0862L7.10294 16.0958L6.69644 16.8H1.19998V9.60013H10.8001V9.69214ZM7.84726 17.2068L12.0053 19.6078L4.3992 23.9999H3.92514L7.84726 17.2068ZM13.4975 20.1319L13.5052 20.1275L13.9944 19.8449L16.3963 23.9999H6.79916L13.4975 20.1319ZM10.8001 25.1999H18V34.8H10.8001V25.1999ZM19.2 25.1999H26.3999V34.8H19.2V25.1999ZM28.0226 11.7441C28.1593 11.6634 28.3233 11.6411 28.4768 11.6823C28.6317 11.7241 28.7639 11.8251 28.8446 11.9638L33.0433 19.2346C33.1232 19.3727 33.1447 19.537 33.1026 19.6911C33.0606 19.8449 32.959 19.9759 32.82 20.0542L27.1046 23.3542L22.3072 15.0444L28.0226 11.7441ZM15.9467 3.17807C16.0252 3.04019 16.1557 2.93912 16.3092 2.89737C16.4625 2.85562 16.6262 2.8765 16.764 2.9556L24.0337 7.1543C24.1735 7.23477 24.2757 7.36743 24.3177 7.52316C24.3589 7.6778 24.3361 7.84232 24.2542 7.97992L20.9556 13.6928L12.6458 8.89536L15.9467 3.17807ZM1.80011 1.19998H10.2C10.5312 1.20053 10.7996 1.46887 10.8001 1.80011V8.39987H1.19998V1.80011C1.20053 1.46887 1.46887 1.20053 1.80011 1.19998ZM1.19998 34.1999V25.8C1.20053 25.4688 1.46887 25.2004 1.80011 25.1999H9.60013V34.8H1.80011C1.46887 34.7995 1.20053 34.5311 1.19998 34.1999ZM34.8 34.1999C34.7995 34.5311 34.5311 34.7995 34.1999 34.8H27.6001V25.1999H34.1999C34.5311 25.2004 34.7995 25.4688 34.8 25.8V34.1999Z" fill="#FF3D00"/>
<path d="M5.99957 27.6001C4.67407 27.6001 3.59961 28.6746 3.59961 30.0001C3.59961 31.3256 4.67407 32.4 5.99957 32.4C7.32507 32.4 8.39954 31.3256 8.39954 30.0001C8.39816 28.6751 7.32452 27.6015 5.99957 27.6001ZM5.99957 31.2C5.33682 31.2 4.79959 30.6628 4.79959 30.0001C4.79959 29.3373 5.33682 28.8001 5.99957 28.8001C6.66232 28.8001 7.19955 29.3373 7.19955 30.0001C7.19901 30.6625 6.66205 31.1992 5.99957 31.2Z" fill="#FF3D00"/>
</svg>
