<svg width="410" height="294" viewBox="0 0 410 294" fill="none" xmlns="http://www.w3.org/2000/svg">
<g opacity="0.5">
<path d="M282.77 75.8297C282.77 75.8297 282.763 75.9103 282.749 75.9189C282.738 75.8691 282.748 75.8245 282.77 75.8297Z" fill="#FF3D00"/>
<path d="M281.752 76.8386C281.354 77.1419 280.608 77.5853 280.223 77.7865C280.166 77.8782 280.183 77.9055 280.246 77.8853C279.843 78.2107 277.482 80.0714 277.011 77.6046C276.842 77.3316 280.075 75.2323 280.813 74.7753C282.362 74.6839 280.458 72.9541 282.678 75.9244C282.746 75.7306 281.755 76.8744 281.76 76.8523L281.752 76.8386Z" fill="#FF3D00"/>
<path d="M270.986 87.2725C270.986 87.2725 270.973 87.3754 270.949 87.4286C270.929 87.365 270.953 87.3118 270.986 87.2725Z" fill="#FF3D00"/>
<path d="M269.475 89.683C268.813 90.5658 267.864 91.7779 267.252 92.4976C267.175 92.6777 267.191 92.705 267.27 92.6185C267.2 92.7187 267.162 92.7798 267.067 92.8391L267.094 92.8222C267.285 92.7037 263.447 98.1256 262.864 95.1425C262.889 95.1835 263.105 94.7093 262.854 95.0353C264.06 92.7754 266.226 89.5622 268.197 87.6218L268.184 87.6302C270.1 86.2718 268.099 85.7555 270.832 87.4815C270.954 87.1602 269.425 89.4496 269.462 89.6914L269.475 89.683Z" fill="#FF3D00"/>
<path d="M259.378 105.978C259.378 105.978 259.388 106.085 259.372 106.152C259.338 106.097 259.34 106.039 259.378 105.978Z" fill="#FF3D00"/>
<path d="M258.354 108.654C257.884 109.664 257.179 111.026 256.706 111.849C256.673 112.039 256.69 112.067 256.76 111.966C256.712 112.072 256.683 112.147 256.596 112.219L256.623 112.202C256.857 112.001 253.927 118.126 252.907 115.262C252.946 115.294 253.066 114.786 252.884 115.163C253.642 112.728 255.163 109.177 256.705 106.879C258.295 105.176 256.261 105.095 259.277 106.211C259.332 105.874 258.281 108.415 258.376 108.659L258.354 108.654Z" fill="#FF3D00"/>
<path d="M251.425 126.556C251.425 126.556 251.457 126.669 251.447 126.713C251.413 126.658 251.388 126.617 251.425 126.556Z" fill="#FF3D00"/>
<path d="M246.867 136.884L246.878 136.838C246.878 136.838 246.881 136.875 246.867 136.884Z" fill="#FF3D00"/>
<path d="M250.94 129.37C250.663 130.448 250.236 131.923 249.943 132.822C249.946 133.009 249.971 133.05 250.011 132.931C249.985 133.042 249.969 133.108 249.913 133.2L249.896 133.173C250.099 132.952 248.542 139.492 246.923 136.943C246.976 136.967 246.98 136.455 246.864 136.847C247.072 134.318 247.881 130.472 248.977 127.941C250.218 125.981 248.186 126.239 251.368 126.799C251.36 126.482 250.801 129.116 250.94 129.37Z" fill="#FF3D00"/>
<path d="M248.338 148.217C248.338 148.217 248.397 148.312 248.423 148.353C248.375 148.307 248.35 148.266 248.338 148.217Z" fill="#FF3D00"/>
<path d="M248.769 150.954C248.925 152.029 249.112 153.519 249.184 154.457C249.258 154.638 249.302 154.648 249.298 154.519C249.316 154.64 249.336 154.703 249.31 154.814L249.293 154.786C249.293 154.786 250.838 160.783 248.296 159.486C248.353 159.488 248.101 159.021 248.204 159.43C247.19 157.186 246.259 153.001 246.441 150.338L246.458 150.365C246.939 148.063 245.225 148.956 248.356 148.489C248.235 148.111 248.616 150.86 248.786 150.981L248.769 150.954Z" fill="#FF3D00"/>
<path d="M256.915 166.747C256.915 166.747 257.031 166.751 257.075 166.761C257.021 166.795 256.968 166.771 256.915 166.747Z" fill="#FF3D00"/>
<path d="M266.872 171.742L266.827 171.732C266.827 171.732 266.864 171.728 266.872 171.742Z" fill="#FF3D00"/>
<path d="M259.38 167.826C260.339 168.214 261.699 168.732 262.544 169.058C262.717 169.064 262.758 169.039 262.653 168.99C262.763 169.016 262.83 169.032 262.922 169.088L262.894 169.105C262.799 169.013 268.938 169.893 266.923 171.672C266.933 171.628 266.405 171.691 266.828 171.731C265.79 171.826 264.706 171.724 263.499 171.452C261.435 171.049 259.412 170.376 257.641 169.471C255.965 167.865 255.671 169.615 257.135 166.856C256.675 166.725 259.347 167.865 259.394 167.818L259.38 167.826Z" fill="#FF3D00"/>
<path d="M277.145 166.885C277.145 166.885 277.193 166.779 277.234 166.754C277.218 166.82 277.199 166.851 277.145 166.885Z" fill="#FF3D00"/>
<path d="M285.264 159.528L285.253 159.573C285.253 159.573 285.272 159.542 285.264 159.528Z" fill="#FF3D00"/>
<path d="M279.126 165.203C279.827 164.505 280.794 163.413 281.346 162.75C281.41 162.578 281.393 162.551 281.314 162.637C281.371 162.546 281.417 162.498 281.513 162.439L281.485 162.456C281.485 162.456 284.134 157.035 285.23 159.473C285.191 159.441 285.088 159.976 285.262 159.586C285.009 160.611 284.613 161.556 283.943 162.671C282.934 164.335 281.632 166.503 279.906 167.498L279.933 167.481C277.729 168.375 278.855 168.943 277.358 166.772C277.03 167.126 279.16 165.258 279.134 165.217L279.126 165.203Z" fill="#FF3D00"/>
<path d="M283.341 147.435C283.341 147.435 283.257 147.392 283.24 147.365C283.299 147.367 283.338 147.399 283.341 147.435Z" fill="#FF3D00"/>
<path d="M282.001 145.487C281.456 144.729 280.696 143.594 280.264 142.898C280.125 142.795 280.089 142.799 280.148 142.894C280.098 142.812 280.05 142.766 280.013 142.676L280.03 142.703C280.014 142.524 276.044 138.957 278.753 138.449C278.712 138.475 279.145 138.716 278.86 138.439C280.687 139.556 283.515 142.716 284.332 144.949C284.81 147.091 285.639 145.99 283.272 147.231C283.504 147.484 282.18 145.471 282.02 145.456L282.001 145.487Z" fill="#FF3D00"/>
<path d="M267.819 135.383C267.819 135.383 267.706 135.415 267.662 135.405C267.716 135.371 267.766 135.359 267.819 135.383Z" fill="#FF3D00"/>
<path d="M257.202 131.61L257.247 131.621C257.247 131.621 257.219 131.638 257.202 131.61Z" fill="#FF3D00"/>
<path d="M265.063 134.9C264.005 134.687 262.526 134.375 261.633 134.154C261.454 134.171 261.414 134.196 261.533 134.236C261.408 134.218 261.35 134.216 261.259 134.16L261.286 134.143C261.59 134.389 254.901 133.415 257.173 131.685C257.149 131.737 257.677 131.675 257.269 131.626C259.641 131.459 264.124 131.741 266.469 132.932L266.456 132.941C268.429 134.174 268.232 132.179 267.598 135.332C268.102 135.322 265.104 134.875 265.098 134.897L265.063 134.9Z" fill="#FF3D00"/>
<path d="M245.077 136.008C245.077 136.008 245.034 136.091 244.993 136.117C245.009 136.05 245.027 136.02 245.077 136.008Z" fill="#FF3D00"/>
<path d="M242.918 137.158C242.053 137.562 240.821 138.043 240.042 138.28C239.905 138.365 239.903 138.422 240.016 138.39C239.934 138.441 239.862 138.448 239.769 138.449L239.796 138.432C239.796 138.432 234.648 140.887 235.521 138.059C235.533 138.109 235.89 137.831 235.555 137.962C237.255 136.833 240.53 135.256 242.729 134.781L242.715 134.789C244.76 134.674 243.671 133.649 244.875 136.077C245.122 135.867 242.968 136.995 242.923 137.136L242.918 137.158Z" fill="#FF3D00"/>
<path d="M226.788 145.401C226.788 145.401 226.732 145.493 226.699 145.532C226.715 145.466 226.747 145.427 226.788 145.401Z" fill="#FF3D00"/>
<path d="M224.387 146.985C223.679 147.367 222.216 148.633 221.317 148.586C221.47 148.528 221 148.593 221.124 148.61C220.978 148.739 220.967 148.784 221.085 148.729C220.976 148.797 220.921 148.831 220.805 148.827L220.833 148.81C221.26 148.829 214.865 151.773 216.047 148.924C216.058 148.973 216.456 148.67 216.095 148.819C218.126 147.37 221.534 145.522 224.074 144.59L224.047 144.607C226.357 144.157 224.678 142.912 226.561 145.523C226.806 145.277 224.444 146.741 224.373 146.993L224.387 146.985Z" fill="#FF3D00"/>
<path d="M207.178 156.046C207.178 156.046 207.121 156.138 207.067 156.172C207.082 156.105 207.115 156.066 207.178 156.046Z" fill="#FF3D00"/>
<path d="M204.653 157.46C203.624 157.966 202.206 158.543 201.265 158.824C201.101 158.925 201.099 158.983 201.226 158.943C201.108 158.997 201.045 159.017 200.938 159.027L200.965 159.01C201.307 159.043 194.859 161.567 196.209 158.746C196.207 158.804 196.627 158.505 196.266 158.654C198.398 157.37 201.904 155.801 204.505 155.058L204.491 155.066C206.796 154.79 205.272 153.43 206.964 156.16C207.244 155.91 204.754 157.227 204.666 157.452L204.653 157.46Z" fill="#FF3D00"/>
<path d="M186.448 164.611C186.448 164.611 186.369 164.697 186.32 164.709C186.344 164.656 186.376 164.617 186.448 164.611Z" fill="#FF3D00"/>
<path d="M183.693 165.561C182.576 165.894 181.096 166.188 180.078 166.252C179.897 166.327 179.886 166.371 180.007 166.353C179.886 166.371 179.815 166.378 179.713 166.365L179.74 166.348C180.128 166.486 173.133 167.365 175.15 164.98C175.148 165.038 175.614 164.844 175.229 164.893C177.659 164.18 181.29 163.422 183.999 163.16L183.972 163.177C186.241 163.301 184.995 161.749 186.209 164.681C186.482 164.512 183.871 165.299 183.693 165.561Z" fill="#FF3D00"/>
<path d="M164.259 168.293C164.259 168.293 164.163 168.352 164.114 168.364C164.16 168.317 164.209 168.305 164.259 168.293Z" fill="#FF3D00"/>
<path d="M153.38 165.533L153.426 165.543C153.426 165.543 153.398 165.561 153.38 165.533Z" fill="#FF3D00"/>
<path d="M161.348 168.568C160.546 168.555 158.556 168.881 157.843 168.341C158.012 168.369 157.59 168.176 157.677 168.255C157.484 168.28 157.443 168.305 157.576 168.336C157.452 168.319 157.372 168.312 157.288 168.269L157.316 168.252C157.708 168.519 150.6 167.295 153.343 165.594C153.319 165.646 153.829 165.614 153.439 165.534C156.016 165.637 159.515 165.887 162.265 166.299L162.238 166.315C164.369 166.979 163.636 165.127 164.021 168.309C164.049 168.292 162.049 168.511 161.361 168.559L161.348 168.568Z" fill="#FF3D00"/>
<path d="M142.033 164.385C142.033 164.385 141.918 164.381 141.865 164.357C141.92 164.323 141.986 164.339 142.033 164.385Z" fill="#FF3D00"/>
<path d="M139.344 162.973C138.656 162.473 136.862 161.469 136.635 160.494C136.737 160.658 136.534 160.179 136.561 160.314C136.391 160.192 136.356 160.196 136.423 160.305C136.328 160.212 136.286 160.144 136.24 160.04L136.257 160.068C136.373 160.468 132.232 154.305 135.657 155.319C135.607 155.331 135.921 155.684 135.754 155.353C137.358 157.514 138.9 159.941 141.323 161.594C142.723 163.334 143.106 161.207 141.78 164.221C141.78 164.221 139.941 163.358 139.327 162.946L139.344 162.973Z" fill="#FF3D00"/>
<path d="M132.516 144.737C132.516 144.737 132.498 144.616 132.508 144.572C132.542 144.627 132.54 144.685 132.516 144.737Z" fill="#FF3D00"/>
<path d="M133.584 141.827C134 141.096 134.87 139.177 135.789 138.891C135.656 139.012 136.088 138.763 135.953 138.79C136.052 138.615 136.049 138.579 135.948 138.66C136.041 138.565 136.078 138.504 136.182 138.459L136.155 138.476C135.673 138.642 141.454 133.886 140.804 137.256C140.778 137.215 140.472 137.575 140.778 137.367C138.83 139.255 136.585 141.119 135.137 143.661C133.57 145.218 135.312 145.102 132.595 144.5C132.592 144.464 133.209 142.532 133.557 141.844L133.584 141.827Z" fill="#FF3D00"/>
<path d="M149.918 130.622C149.918 130.622 150.005 130.549 150.054 130.537C150.016 130.598 149.975 130.624 149.918 130.622Z" fill="#FF3D00"/>
<path d="M160.986 132.322L160.941 132.311C160.941 132.311 160.969 132.293 160.986 132.322Z" fill="#FF3D00"/>
<path d="M152.821 129.88C154.025 129.719 155.573 129.686 156.58 129.817C156.778 129.77 156.805 129.753 156.672 129.722C156.802 129.718 156.882 129.725 156.987 129.773L156.96 129.79C156.654 129.601 163.691 130.284 161.037 132.251C161.061 132.198 160.56 132.244 160.941 132.31C158.275 132.338 155.095 131.872 152.271 132.224C150.066 131.928 151.17 133.587 150.178 130.555C149.861 130.714 152.403 129.572 152.813 129.867L152.821 129.88Z" fill="#FF3D00"/>
<path d="M172.29 133.363C172.29 133.363 172.397 133.353 172.45 133.377C172.395 133.411 172.329 133.395 172.29 133.363Z" fill="#FF3D00"/>
<path d="M175.024 134.54C176.079 135.114 177.328 136.002 178.085 136.705C178.265 136.782 178.301 136.779 178.206 136.686C178.306 136.757 178.362 136.816 178.435 136.903L178.418 136.876C178.271 136.608 183.604 141.126 180.328 141.267C180.369 141.241 179.949 140.991 180.212 141.263C178.006 139.777 175.612 137.501 173.167 136.088C171.602 134.507 171.426 136.449 172.54 133.491C172.526 133.499 174.41 134.221 175.032 134.554L175.024 134.54Z" fill="#FF3D00"/>
<path d="M189.072 148.451C189.072 148.451 189.164 148.507 189.197 148.562C189.131 148.546 189.092 148.514 189.072 148.451Z" fill="#FF3D00"/>
<path d="M190.652 150.968C190.993 151.701 192.141 153.37 191.973 154.287C191.921 154.112 191.944 154.607 191.976 154.475C192.077 154.638 192.13 154.662 192.103 154.528C192.157 154.645 192.177 154.709 192.173 154.824L192.156 154.797C192.2 154.562 193.972 161.23 191.172 159.489C191.23 159.491 191.023 159.034 191.094 159.424C190.18 157.005 189.154 153.824 188.256 151.187C187.882 149 186.632 150.55 189.225 148.697C189.01 148.471 190.375 150.856 190.682 150.987L190.652 150.968Z" fill="#FF3D00"/>
<path d="M193.83 170.483C193.83 170.483 193.875 170.587 193.873 170.645C193.839 170.59 193.814 170.549 193.83 170.483Z" fill="#FF3D00"/>
<path d="M193.567 173.442C193.394 174.23 193.236 176.292 192.504 176.879C192.59 176.712 192.265 177.103 192.374 177.035C192.341 177.226 192.366 177.267 192.442 177.144C192.402 177.263 192.373 177.338 192.294 177.425L192.305 177.38C192.438 177.26 189.678 183.506 188.574 180.355C188.599 180.396 188.744 179.928 188.542 180.242C189.387 177.734 190.712 174.872 191.534 172.114C192.588 170.156 190.62 170.639 193.822 170.714C193.776 170.365 194.006 173.113 193.594 173.425L193.567 173.442Z" fill="#FF3D00"/>
<path d="M182.904 190.106C182.904 190.106 182.856 190.212 182.81 190.259C182.825 190.193 182.849 190.14 182.904 190.106Z" fill="#FF3D00"/>
<path d="M180.448 191.874C179.417 192.437 178.002 193.05 177.039 193.326C176.875 193.427 176.865 193.472 177 193.445C176.882 193.499 176.819 193.519 176.712 193.529L176.739 193.512C176.979 193.533 170.603 195.899 171.982 193.003C171.994 193.052 172.412 192.812 172.039 192.911C174.358 191.775 177.56 190.509 180.157 189.485L180.143 189.493C182.319 189.07 180.88 188.243 182.711 190.282C182.711 190.282 181.089 191.476 180.47 191.879L180.448 191.874Z" fill="#FF3D00"/>
<path d="M161.271 196.393C161.271 196.393 161.176 196.452 161.118 196.45C161.172 196.417 161.213 196.391 161.271 196.393Z" fill="#FF3D00"/>
<path d="M150.51 192.936L150.555 192.947C150.555 192.947 150.533 192.941 150.51 192.936Z" fill="#FF3D00"/>
<path d="M158.33 196.403C157.533 196.368 155.525 196.573 154.85 195.971C155.022 196.035 154.58 195.78 154.675 195.872C154.488 195.875 154.447 195.9 154.566 195.94C154.442 195.922 154.375 195.907 154.284 195.85L154.311 195.833C154.311 195.833 148.003 194.925 150.46 193.005C150.436 193.058 150.931 193.034 150.556 192.946C153.039 193.05 156.76 193.597 159.378 194.222L159.351 194.239C161.537 195.114 160.677 193.209 160.996 196.375C161.315 196.31 158.572 196.215 158.321 196.389L158.33 196.403Z" fill="#FF3D00"/>
<path d="M139.113 192.991C139.113 192.991 139.009 193.037 138.951 193.035C139.005 193.001 139.046 192.976 139.113 192.991Z" fill="#FF3D00"/>
<path d="M128.582 188.9L128.628 188.911C128.628 188.911 128.591 188.914 128.582 188.9Z" fill="#FF3D00"/>
<path d="M136.252 192.705C135.126 192.534 133.653 192.2 132.731 191.902C132.544 191.905 132.503 191.93 132.622 191.97C132.498 191.953 132.431 191.937 132.34 191.88L132.367 191.864C132.618 192.086 125.979 190.552 128.528 188.933C128.504 188.986 129.017 188.99 128.624 188.874C131.127 189.041 134.964 189.743 137.555 190.631L137.528 190.648C139.579 191.701 139.189 189.731 138.861 192.92C139.139 192.881 136.552 192.519 136.257 192.683L136.252 192.705Z" fill="#FF3D00"/>
<path d="M117.196 190.102C117.196 190.102 117.1 190.161 117.043 190.159C117.089 190.111 117.138 190.1 117.196 190.102Z" fill="#FF3D00"/>
<path d="M106.119 187.993L106.164 188.004C106.164 188.004 106.136 188.021 106.119 187.993Z" fill="#FF3D00"/>
<path d="M114.356 190.275C113.237 190.269 111.715 190.192 110.769 190.098C110.585 190.137 110.553 190.176 110.677 190.193C110.561 190.19 110.49 190.196 110.384 190.148L110.412 190.131C110.617 190.249 103.967 190.253 106.068 188.062C106.057 188.107 106.56 188.003 106.163 188.003C108.662 187.644 112.6 187.565 115.298 188.046L115.271 188.063C117.475 188.814 116.772 186.887 116.937 190.111C117.239 190.018 114.562 190.09 114.342 190.283L114.356 190.275Z" fill="#FF3D00"/>
<path d="M95.2378 191.565C95.2378 191.565 95.1507 191.638 95.1013 191.65C95.139 191.588 95.1799 191.563 95.2378 191.565Z" fill="#FF3D00"/>
<path d="M92.4939 192.321C91.4035 192.543 89.8891 192.783 88.932 192.885C88.7597 192.973 88.7409 193.003 88.8703 192.999C88.7578 193.031 88.6863 193.037 88.5842 193.025L88.6115 193.008C88.9159 193.103 82.2293 194.357 83.9476 191.856C83.9457 191.914 84.4248 191.711 84.0126 191.778C86.4161 190.93 90.1969 190.079 92.9553 189.956L92.928 189.973C95.2815 190.234 94.067 188.549 94.9989 191.637C95.2889 191.495 92.6699 192.117 92.4887 192.343L92.4939 192.321Z" fill="#FF3D00"/>
<path d="M73.9284 197.272C73.9284 197.272 73.8634 197.35 73.8088 197.384C73.8244 197.318 73.8653 197.293 73.9284 197.272Z" fill="#FF3D00"/>
<path d="M71.3418 198.497C70.3036 198.895 68.8564 199.396 67.9429 199.66C67.7791 199.761 67.7687 199.805 67.9033 199.779C67.7993 199.824 67.7226 199.853 67.6069 199.849L67.6342 199.832C67.9847 199.879 61.529 202.238 62.8362 199.5C62.8479 199.549 63.2763 199.265 62.8927 199.408C65.1002 198.153 68.7148 196.668 71.3948 196.083L71.3675 196.1C73.7208 195.964 72.2587 194.49 73.6918 197.38C73.9889 197.158 71.4243 198.295 71.3503 198.511L71.3418 198.497Z" fill="#FF3D00"/>
<path d="M53.9692 206.625C53.9692 206.625 53.9212 206.73 53.8802 206.755C53.8958 206.689 53.9283 206.65 53.9692 206.625Z" fill="#FF3D00"/>
<path d="M51.6494 208.308C50.95 208.703 49.5645 210.035 48.6996 210.042C48.8667 209.976 48.3998 210.077 48.5156 210.08C48.3772 210.223 48.3804 210.259 48.4981 210.205C48.3889 210.272 48.3343 210.306 48.2355 210.33L48.2628 210.313C48.5931 210.297 42.7325 213.798 43.4803 210.859C43.5057 210.9 43.8781 210.556 43.5147 210.762C45.4411 209.114 48.7158 206.989 51.2427 205.914L51.2291 205.923C53.4936 205.369 51.8534 204.156 53.7507 206.759C53.9866 206.5 51.7065 208.064 51.6494 208.308Z" fill="#FF3D00"/>
<path d="M36.063 219.501C36.063 219.501 36.037 219.612 36.0046 219.651C36.0065 219.593 36.0305 219.54 36.063 219.501Z" fill="#FF3D00"/>
<path d="M34.1406 219.872C33.395 220.191 31.8833 221.366 31.0284 221.282C31.1989 221.236 30.7129 221.285 30.834 221.302C30.6845 221.425 30.6774 221.461 30.8014 221.427C30.6971 221.472 30.6238 221.508 30.5266 221.518L30.5576 221.51C30.8577 221.512 24.7121 224.377 25.7345 221.52C25.7471 221.566 26.1617 221.254 25.7755 221.426C26.6102 220.883 27.494 220.46 28.6145 219.99C30.3553 219.168 32.167 217.995 33.9834 217.452L33.9679 217.456C36.2841 217.161 34.7718 215.757 36.3822 218.565C36.6346 218.33 34.21 219.637 34.1251 219.876L34.1406 219.872Z" fill="#FF3D00"/>
<path d="M20.1895 224.765C20.1895 224.765 20.1342 224.813 20.1128 224.822C20.1317 224.776 20.1593 224.753 20.1895 224.765Z" fill="#FF3D00"/>
<path d="M18.7174 224.916C18.1985 224.908 17.3412 224.793 16.9077 224.664C16.8088 224.692 16.7965 224.722 16.8706 224.753C16.8051 224.743 16.7693 224.746 16.7224 224.691C16.3813 224.758 13.1918 224.434 14.6494 222.363C14.704 222.107 18.4666 222.6 19.3091 222.709C19.4241 222.6 19.4982 222.631 19.5165 222.795C20.8363 222.511 20.0708 223.218 20.0679 224.766C20.2335 224.662 18.7322 224.922 18.7322 224.922L18.7174 224.916Z" fill="#FF3D00"/>
<path d="M307.094 70.9128C307.084 70.8275 307.082 70.8557 307.094 70.9128V70.9128Z" fill="#FF3D00"/>
<path d="M278.071 60.1472C278.071 60.1472 278.051 60.1256 278.037 60.1249C278.011 60.096 278.006 60.0612 277.986 60.0396L278.084 60.1479L278.071 60.1472Z" fill="#FF3D00"/>
<path d="M271.69 56.7283C271.69 56.7283 271.662 56.7126 271.648 56.712C271.656 56.7052 271.656 56.6909 271.69 56.7283Z" fill="#FF3D00"/>
<path d="M286.107 70.9294C286.107 70.9294 286.036 70.9538 285.987 70.9723C286.043 70.9472 286.072 70.9347 286.107 70.9294Z" fill="#FF3D00"/>
<path d="M305.417 57.7786C305.417 57.7786 305.423 57.7997 305.422 57.8136C305.417 57.7925 305.411 57.7713 305.405 57.7363L305.424 57.7859L305.417 57.7786Z" fill="#FF3D00"/>
<path d="M305.403 57.9365C305.403 57.9365 305.421 57.9861 305.427 58.0211C305.427 58.0211 305.414 57.9927 305.403 57.9365Z" fill="#FF3D00"/>
<path d="M305.403 57.9365C305.403 57.9365 305.422 57.9728 305.422 57.9869C305.422 57.9869 305.415 57.9795 305.403 57.9365Z" fill="#FF3D00"/>
<path d="M305.421 57.986C305.421 57.986 305.42 57.8684 305.416 57.8198C305.469 57.9951 305.496 58.1692 305.508 58.3425C305.481 58.3412 305.456 58.1396 305.42 58.0135C305.427 58.0208 305.42 58.0135 305.421 57.986Z" fill="#FF3D00"/>
<path d="M302.535 37.7328L302.491 37.7731C302.491 37.7731 302.528 37.7254 302.535 37.7328Z" fill="#FF3D00"/>
<path d="M271.82 54.2735L271.796 54.3359C271.796 54.3359 271.791 54.3003 271.799 54.2795C271.799 54.2795 271.806 54.2728 271.813 54.2661L271.82 54.2735Z" fill="#FF3D00"/>
<path d="M298.455 33.7236L298.328 33.7728C298.385 33.7341 298.428 33.7085 298.456 33.696C298.456 33.696 298.463 33.7032 298.455 33.7236Z" fill="#FF3D00"/>
<path d="M279.049 48.7154C279.049 48.7154 279.078 48.703 279.084 48.7102C278.969 48.8153 278.639 49.0622 278.21 49.3735L278.142 49.3426L279.043 48.7082L279.049 48.7154Z" fill="#FF3D00"/>
<path d="M278.243 49.396C278.194 49.4144 278.144 49.4465 278.095 49.4649C278.131 49.4321 278.174 49.4065 278.209 49.3874L278.25 49.4032L278.243 49.396Z" fill="#FF3D00"/>
<path d="M286.297 41.6387L285.581 42.3164C288.134 40.496 289.244 39.5261 291.459 38.0143L291.324 38.0839C291.619 37.8285 291.961 37.9138 295.246 35.0848C295.355 34.9863 295.375 35.0079 295.598 34.8044L295.042 35.31C297.294 33.8692 299.315 31.9129 301.722 30.7144C301.722 30.7144 299.623 32.5564 299.093 33.1047C299.876 32.4855 299.314 32.9563 299.176 33.1087L299.099 33.1258C298.632 33.4974 298.677 33.5618 298.447 33.7581C298.447 33.7581 298.447 33.7444 298.448 33.7306L298.477 33.7043C298.477 33.7043 298.484 33.6977 298.449 33.703C298.443 33.6958 298.415 33.6945 298.293 33.7923L298.315 33.7726C298.115 33.9151 297.77 34.1889 297.62 34.2993L297.659 34.3426C295.827 35.0847 293.795 37.4068 292.317 38.6978C291.735 39.1746 292.394 38.5494 292.157 38.7248L291.493 39.3289C291.908 39.017 291.706 39.2146 291.64 39.2875C290.598 39.9843 289.621 40.7533 288.704 41.5873C288.82 41.4822 289.036 41.2852 289.031 41.2642C288.727 41.5538 288.866 41.3739 288.989 41.2622C288.441 41.6024 286.455 43.4083 286.269 43.3788L286.283 43.3932C286.103 43.3985 286.237 43.1838 285.847 43.407C285.685 43.6067 285.485 43.7492 285.245 43.8483C284.812 44.6777 284.08 45.251 283.055 45.5755L283.652 44.8091C282.375 45.9301 281.033 46.9788 279.718 48.0427L280.319 47.6014C280.016 48.1674 279.605 48.528 279.072 48.6961C279.101 48.6698 279.122 48.6501 279.13 48.6436C278.652 48.9594 278.18 49.2825 277.701 49.6122C277.503 49.7133 277.331 49.8434 277.173 49.974C276.501 50.4534 275.841 50.9473 275.189 51.4483L275.241 51.5061C275.621 51.227 276.186 50.8186 276.78 50.3976C276.684 50.5243 276.587 50.6649 276.511 50.8133C275.101 51.6998 273.801 52.7368 272.493 53.7803L272.632 53.6279C271.847 54.1434 270.533 54.8895 270.083 55.642C270.061 55.6755 270.059 55.7031 270.072 55.7175C270.093 55.7254 270.114 55.7195 270.134 55.7274L270.015 55.7701C270.562 56.0379 270.992 56.4247 271.568 56.6663C271.595 56.6814 271.629 56.6899 271.65 56.6978C273.094 57.416 274.447 58.3234 275.867 59.1165C276.456 59.3864 276.785 59.4435 276.46 59.1447C276.912 59.5393 276.644 59.347 277.301 59.779C277.432 59.7921 277.365 59.7475 277.233 59.6168C277.757 59.7868 278.128 60.1086 278.348 60.582L278.158 60.5038C278.613 60.8157 279.13 61.1374 279.712 61.4001L279.714 61.3449C279.714 61.3449 279.795 61.3902 279.828 61.4125C281.605 58.795 283.746 56.3331 285.456 53.6572L285.497 53.673C287.183 51.4797 288.889 49.1767 290.551 46.9269L290.537 46.9401L290.705 46.7339C290.713 46.7273 290.706 46.7201 290.699 46.7267C290.91 46.5086 291.164 46.1061 291.371 45.8119L291.357 45.8251C293.704 42.675 296.014 38.9911 298.691 36.0432L298.568 36.2862C299.098 35.6203 299.294 35.2703 299.77 34.7056L299.741 34.7318C299.794 34.6445 299.918 34.6504 300.512 33.6352C300.512 33.6352 300.541 33.6089 300.579 33.5347L300.48 33.7166C300.561 33.6306 300.654 33.559 300.743 33.4251C300.796 33.3239 301.431 32.6285 301.432 32.5871C301.464 32.5057 301.516 32.4322 301.568 32.3586C301.63 32.2096 301.72 32.0618 301.823 31.9285C301.823 31.9285 301.798 32.0172 301.757 32.1465C301.801 32.1071 301.838 32.0605 301.895 32.0217C301.895 32.0217 301.789 32.2102 301.676 32.4052C301.602 32.6574 301.52 32.9299 301.486 33.0527C301.612 32.7408 301.524 32.9785 301.508 33.033L301.486 33.0527C301.415 33.2359 301.442 33.251 301.41 33.3462L301.417 33.3397C301.417 33.3397 301.411 33.3324 301.41 33.3462C301.41 33.3462 301.403 33.3528 301.38 33.4001L301.387 33.3935C301.349 33.4677 301.295 33.5964 301.271 33.6575L301.284 33.6719C300.97 34.037 300.677 35.2532 300.499 35.7975C300.419 36.0287 300.495 35.7351 300.456 35.8369L300.366 36.116C300.436 35.9604 300.411 36.049 300.41 36.0766C300.219 36.4476 300.077 36.8278 299.948 37.2225C299.957 37.1745 299.989 37.0793 299.982 37.0721C299.948 37.2087 299.952 37.1259 299.975 37.0787C299.869 37.2671 299.615 38.1188 299.552 38.1365C299.508 38.1759 299.499 38.0788 299.417 38.2062C299.406 38.2955 299.375 38.3631 299.317 38.4294C299.284 38.5246 299.314 38.4846 299.321 38.4918C299.207 38.7006 299.088 39.0197 298.978 39.2909L299.008 38.9607C298.837 39.4985 298.619 40.0133 298.428 40.5432L298.529 40.3199C298.533 40.5274 298.476 40.6975 298.359 40.8439C298.366 40.8374 298.367 40.8236 298.367 40.8236C298.116 41.3023 297.893 41.7823 297.696 42.2774L297.716 42.2991C297.839 42.0286 298.078 41.5216 298.225 41.19L298.232 41.1834C298.153 41.387 298.038 41.6234 297.984 41.7521C297.967 41.8204 297.917 41.9977 297.991 41.8907C297.652 42.3306 297.435 42.8317 297.325 43.4069L297.342 43.3386C297.295 43.4469 297.262 43.5559 297.216 43.6643C297.059 44.0438 296.91 44.4306 296.774 44.818L296.716 44.8706C296.601 45.1208 296.429 45.3959 296.354 45.6618C296.354 45.6618 296.339 45.675 296.345 45.696C296.156 46.1845 295.891 46.6626 295.681 47.1571C295.616 47.3613 295.611 47.4716 295.706 47.3587C295.582 47.5117 295.634 47.4243 295.513 47.6535C295.517 47.7021 295.532 47.6752 295.569 47.6285C295.503 47.8465 295.494 47.7494 295.425 47.905C295.375 47.9372 295.291 47.9608 295.261 48.0147L295.278 47.9464C295.187 48.1079 295.096 48.2832 295.031 48.4875L295.058 48.4888L294.959 48.6982L294.978 48.7199L294.84 49.0174L294.855 48.9767C294.825 49.0443 294.71 49.2669 294.676 49.4035L294.683 49.3969C294.568 49.7922 294.382 50.0667 294.189 50.4929L294.24 50.4469C294.198 50.6039 294.183 50.4719 294.119 50.6485L294.146 50.6774C294.043 50.8107 294.074 50.8744 294.041 50.9834L294.017 50.9132L293.938 51.1167C293.852 51.3406 293.931 51.2684 293.967 51.2494L293.863 51.3827L293.896 51.4188C293.795 51.5107 293.849 51.5409 293.737 51.7222C293.75 51.7366 293.766 51.6959 293.749 51.7642L293.555 52.059L293.66 51.8844L293.598 51.8883C293.471 52.0689 293.488 52.1595 293.412 52.2941L293.472 52.2002C293.358 52.4228 293.378 52.4445 293.33 52.5804C293.339 52.5325 293.349 52.4708 293.303 52.5515C293.289 52.7098 293.22 52.8516 293.097 52.977C293.097 52.977 293.097 52.977 293.111 52.9639C293.089 52.9974 293.06 53.0099 293.05 53.0854L293.106 53.0604C293.013 53.1458 292.959 53.2469 292.932 53.3769L292.969 53.3441L292.682 53.987L292.709 54.0159C291.077 55.0509 290.358 59.7019 289.374 61.507C289.389 61.4939 289.383 61.4591 289.37 61.4447C289.33 61.5602 289.216 61.7829 289.257 61.7848L289.279 61.7651C289.279 61.7651 289.104 62.0954 289.077 62.2392L289.067 62.1558L288.98 62.3798L289.01 62.3259C288.414 63.3963 288.175 64.3386 287.63 65.3354C287.63 65.3354 287.63 65.3354 287.616 65.3485C287.156 66.4392 286.662 67.5352 286.21 68.6193L286.212 68.5642C286.103 68.8216 285.062 70.9557 284.856 71.4988C285.229 71.2125 285.659 71.0325 286.16 70.9734C286.153 70.9662 286.14 70.9517 286.098 70.9635C286.224 70.9281 286.287 70.9241 286.478 70.8158L286.315 70.7665C286.682 70.7356 287.027 70.6207 287.341 70.4007L287.187 70.4487L289.136 69.5601L289.134 69.4701C291.555 69.6958 295.573 66.874 298.189 65.485C298.221 65.2585 298.246 65.0247 298.256 64.8041C298.284 64.37 298.363 64.1527 298.382 63.7528L298.366 63.7935C298.373 63.6556 298.413 63.3811 298.432 63.1401C298.429 63.2091 298.433 63.2715 298.454 63.1204C298.61 60.8406 298.988 58.5574 299.248 56.2893L299.24 56.3235C299.58 53.9694 299.851 51.6121 300.046 49.2442C300.04 49.3821 300.055 49.3414 300.068 49.2245C300.337 46.7634 300.545 44.2787 300.924 41.8366L300.908 41.8773C300.966 41.3894 301.237 38.887 301.298 38.3301L301.294 38.3991C301.294 37.9775 301.348 37.5586 301.464 37.1495C301.495 36.9367 301.578 36.3602 301.628 36.0378L301.613 36.0509C301.795 34.9884 301.875 33.9004 301.939 32.8255L301.957 31.1471C302.086 31.4918 302.2 31.8497 302.329 32.1944C302.496 32.1609 302.666 32.2312 302.679 32.681L302.693 32.6678C302.693 32.6678 302.68 32.7985 302.67 32.8602C302.647 33.0664 302.674 32.9226 302.692 32.8405C302.681 32.916 302.685 32.9922 302.673 33.0953C302.657 33.136 302.668 33.0605 302.669 33.0329C302.667 33.0743 302.651 33.115 302.649 33.1564C306.245 44.0176 306.23 56.5384 308.305 67.818L308.219 67.8968C308.391 69.363 309.588 72.5227 308.674 74.0271C308.54 74.2281 308.325 74.3837 308.047 74.412C307.756 74.4396 307.492 74.3096 307.309 74.0935C307.316 74.1008 307.316 74.1008 307.329 74.1152C304.617 71.5677 301.704 69.1764 298.669 67.0143C298.592 66.9 285.822 72.6918 286.761 72.2735L286.838 72.2564L285.936 72.6281C285.936 72.6281 285.9 72.661 285.935 72.6557C284.992 73.0117 284.067 73.4169 283.155 73.8503C282.825 72.9501 282.487 72.0565 282.136 71.1621L282.153 71.239C281.134 68.4056 280.142 65.5736 279.165 62.7285C275.142 60.4226 271.09 58.1569 267.014 55.9384C273.378 51.155 279.588 45.9703 286.283 41.6518L286.297 41.6387ZM305.531 58.2949C304.954 54.7432 304.496 51.2939 303.888 47.6509L303.951 47.7783C303.807 46.8938 302.86 37.741 302.535 37.7325L302.55 37.7194C302.439 37.2788 302.377 36.8474 302.322 36.4094C302.275 36.9531 302.239 37.4351 302.202 37.7719C302.207 37.8067 302.202 37.7719 302.218 37.7312C302.073 38.8784 301.956 40.0268 301.833 41.1681L301.804 41.1943C301.736 41.7577 301.721 42.3513 301.618 42.92C301.603 42.9607 301.613 42.8852 301.614 42.8576L301.581 43.1255C301.576 43.2359 301.588 43.2641 301.601 43.1472C301.525 43.8623 301.168 47.1692 301.082 47.946C301.073 47.8488 301.112 47.6157 301.095 47.5251C301.032 47.8468 301.009 48.1705 301.028 48.4962L300.998 48.5501C300.946 49.2041 300.797 49.8811 300.766 50.5292C300.775 50.4951 300.765 50.3979 300.746 50.5075C300.825 50.5942 300.655 51.5536 300.619 51.7315L300.626 51.5936C300.58 51.9646 300.584 52.1721 300.524 52.4111L300.531 52.2733C300.507 52.4932 300.484 52.6856 300.5 52.7762L300.532 52.5497C300.486 52.9207 300.462 53.1407 300.413 53.4493L300.418 53.339C300.351 53.7297 300.087 55.7902 300.015 56.1461L300.009 55.98L299.96 56.2886C299.96 56.2886 300.05 56.1409 300.051 56.1133C299.978 56.787 299.594 60.2101 299.514 60.8766C299.502 61.1248 299.546 60.9265 299.553 60.9199C299.511 61.222 299.513 61.0493 299.486 61.3107C299.483 61.3796 299.501 61.2975 299.516 61.2568C299.504 61.3737 299.492 61.4768 299.485 61.4833C299.492 61.3455 299.461 61.3993 299.444 61.3363L299.414 61.6666L299.429 61.6534C299.276 62.3856 299.186 63.1276 299.15 63.8722C299.157 63.8657 299.184 63.7494 299.196 63.6325C299.145 64.1277 299.06 64.7456 298.977 65.1908C301.777 67.3417 304.504 69.5859 307.158 71.8958C307.138 71.5839 307.126 71.2654 307.1 70.9325C307.111 70.9883 307.135 71.0724 307.189 71.1026C307.116 70.7329 307.07 69.9705 306.97 70.0349L306.965 70.1314C306.893 70.1971 306.875 69.2771 306.781 68.7682C306.772 70.4125 305.383 59.3797 305.53 58.3087L305.531 58.2949ZM306.766 68.0834L306.77 68.2771C306.777 68.4294 306.778 68.547 306.787 68.6441L306.877 68.7866L306.766 68.0834ZM301.379 32.9923C301.379 32.9923 301.363 33.033 301.355 33.0534C301.369 33.0402 301.371 33.0127 301.379 32.9923ZM288.406 62.1106L288.447 62.1125C289.837 59.0275 291.212 55.8519 292.556 52.7302L292.534 52.7499L292.679 52.4596C292.686 52.4531 292.68 52.4459 292.672 52.4524C292.854 52.1293 293.052 51.5928 293.217 51.1792L293.195 51.1989C295.133 46.7717 296.871 41.8927 299.177 37.5935L299.093 37.9074C299.531 36.9677 299.678 36.5048 300.075 35.7082L300.039 35.7411C300.093 35.6262 300.218 35.6045 300.67 34.2439C300.67 34.2439 300.693 34.1966 300.725 34.1014L300.651 34.3398C300.772 34.1244 301.146 33.5202 301.332 33.1006L301.339 33.0941C301.339 33.0941 301.333 33.0869 301.303 33.1269C301.259 33.1801 301.192 33.2806 301.163 33.3206L301.176 33.3351C300.884 33.5216 300.379 34.5342 300.161 34.9039C300.05 35.0713 300.164 34.8487 300.112 34.9222L299.991 35.1376C300.079 35.0313 300.042 35.0917 300.033 35.1258C299.807 35.3845 299.621 35.659 299.462 35.9624C299.477 35.9217 299.522 35.8547 299.515 35.8475C299.462 35.9486 299.472 35.8869 299.508 35.8541C299.385 35.9795 299.036 36.6263 298.967 36.623C298.967 36.623 298.921 36.5725 298.834 36.6513C298.817 36.7196 298.773 36.7728 298.716 36.8115C298.678 36.8857 298.707 36.8594 298.714 36.8667C298.582 37.0124 298.433 37.2541 298.292 37.4478L298.36 37.1746C298.127 37.5713 297.867 37.9528 297.614 38.3415L297.732 38.1813C297.627 38.356 297.589 38.4302 297.506 38.5714C297.506 38.5714 297.521 38.5582 297.514 38.551C297.275 38.7815 297.069 39.0481 296.91 39.3377L296.825 39.3752L296.698 39.5833L296.718 39.605C296.5 39.8296 296.328 40.1047 296.209 40.4238L296.225 40.3693C296.166 40.4495 296.121 40.5302 296.062 40.6103C295.869 40.8914 295.669 41.1652 295.496 41.4542L295.433 41.4719C295.307 41.6525 295.098 41.8429 294.999 42.0386C294.999 42.0386 294.992 42.0452 294.984 42.0517C294.874 42.1916 294.764 42.3177 294.621 42.4352C294.566 42.7091 294.418 42.9231 294.161 43.0906C294.071 43.2384 294.059 43.3414 294.16 43.2633C294.024 43.3605 294.089 43.3014 293.943 43.4603C293.941 43.5017 293.963 43.482 294.005 43.4564C293.915 43.6179 293.919 43.5352 293.837 43.6488C293.781 43.6599 293.705 43.6632 293.676 43.6895L293.699 43.6422C293.591 43.7407 293.488 43.874 293.398 44.0218L293.411 44.0362L293.301 44.1761L293.321 44.1978L293.152 44.404L293.181 44.3777C293.137 44.4171 293.005 44.5767 292.938 44.6771C292.786 44.9739 292.577 45.1644 292.341 45.4711L292.397 45.4461C292.336 45.5676 292.342 45.4435 292.253 45.5774L292.279 45.6063C292.158 45.6904 292.175 45.7534 292.137 45.8414L292.133 45.779L292.029 45.9261C291.917 46.0936 292.002 46.0561 292.037 46.0509L291.936 46.1428L291.941 46.1776C291.842 46.2282 291.889 46.265 291.772 46.3838C291.778 46.4048 291.807 46.3786 291.784 46.4258L291.575 46.6163L291.698 46.4909L291.644 46.4744C291.506 46.5992 291.503 46.6682 291.416 46.7608L291.481 46.7017C291.349 46.8612 291.355 46.8822 291.302 46.9834C291.31 46.9492 291.334 46.8882 291.275 46.9545C291.241 47.0911 291.16 47.1909 291.033 47.2539C291.033 47.2539 291.04 47.2611 291.054 47.248C291.025 47.2743 291.011 47.2874 290.981 47.3275L291.036 47.3301C290.944 47.3741 290.879 47.447 290.833 47.5415L290.869 47.5087L290.522 47.9828L290.548 48.0117C289.24 48.3434 287.383 52.2217 286.464 53.3873C286.478 53.3741 286.486 53.3538 286.467 53.3321C286.414 53.4194 286.282 53.579 286.316 53.5875L286.338 53.5678C286.338 53.5678 286.133 53.8069 286.093 53.9224L286.097 53.8397L285.985 54.0072L286.021 53.9743C285.287 54.7479 284.992 55.4249 284.344 56.1197C284.344 56.1197 284.344 56.1197 284.337 56.1263C283.767 56.9215 283.156 57.701 282.601 58.4831L282.609 58.4489C282.454 58.6558 280.876 60.5916 280.923 60.6284C280.75 60.9311 280.484 61.1465 280.303 61.4696C280.303 61.4696 280.31 61.463 280.317 61.4565L280.173 61.5878C280.24 61.6187 280.307 61.6633 280.374 61.708L280.458 61.9883L280.539 62.0199L280.878 63.0311L280.821 62.9109C280.887 63.1282 281.129 63.8446 281.298 64.2327L281.326 64.2064C281.833 65.3154 282.042 66.2997 282.504 67.6346L282.507 67.4344C282.735 67.8598 282.451 67.5906 282.674 68.1264L282.764 68.1238C282.829 68.6452 283.005 68.7364 283.169 69.0483L283.009 68.9302L283.25 69.5428C283.529 70.2125 283.536 69.9157 283.556 69.7923L283.636 70.2867L283.764 70.3412C283.781 70.7221 283.908 70.6728 284.058 71.2881C284.112 71.3183 284.078 71.1646 284.165 71.3623C284.158 71.355 284.195 71.4673 284.175 71.4457C284.137 71.5061 284.12 71.5744 284.124 71.6505C284.117 71.6433 284.132 71.4851 284.131 71.4988C284.131 71.4988 284.015 71.6039 284.015 71.6177C284.003 71.7208 284.02 71.7976 284.046 71.8403C284.131 71.7891 284.182 71.7293 284.265 71.7195C284.265 71.7195 284.183 71.7155 284.19 71.709C284.26 71.6985 284.366 71.6413 284.508 71.5513C285.695 68.3876 287.274 65.2632 288.45 62.0574L288.406 62.1106Z" fill="#FF3D00"/>
<path d="M277.714 49.6262C277.834 49.5698 277.968 49.5139 278.102 49.4581C277.702 49.7431 277.243 50.0807 276.792 50.4116C276.91 50.2514 277.041 50.1194 277.186 49.9881C277.364 49.8653 277.536 49.749 277.714 49.6262Z" fill="#FF3D00"/>
<path d="M296.357 34.3779L296.335 34.3982C296.335 34.3982 296.359 34.3496 296.357 34.3779Z" fill="#FF3D00"/>
<path d="M283.018 45.6356L283.068 45.6034L282.935 45.7768L283.018 45.6356Z" fill="#FF3D00"/>
<path d="M291.653 39.3021C291.803 39.1918 291.932 39.1011 292.024 39.0433C291.63 39.3494 291.609 39.3553 291.653 39.3021Z" fill="#FF3D00"/>
<path d="M299.182 33.1022L299.267 33.0784C299.137 33.1695 299.131 33.1484 299.182 33.1022Z" fill="#FF3D00"/>
<path d="M302.706 32.8273C302.705 32.696 302.705 32.5509 302.734 32.3657C302.743 32.4767 302.721 32.6553 302.706 32.8273Z" fill="#FF3D00"/>
<path d="M302.706 32.8432L302.707 32.8276L302.706 32.8432Z" fill="#FF3D00"/>
<path d="M293.834 43.6766L293.842 43.6698C293.842 43.6698 293.857 43.6562 293.871 43.6569L293.841 43.6841L293.834 43.6766Z" fill="#FF3D00"/>
<path d="M284.275 56.2478C284.275 56.2478 284.268 56.2544 284.253 56.2676C284.276 56.22 284.299 56.1864 284.335 56.1533C284.342 56.1606 284.289 56.2346 284.281 56.2551L284.275 56.2478Z" fill="#FF3D00"/>
<path d="M297.302 38.7968L297.486 38.5637C297.486 38.5637 297.486 38.5637 297.493 38.5571C297.471 38.5906 297.411 38.6845 297.316 38.7975L297.303 38.783L297.302 38.7968Z" fill="#FF3D00"/>
<path d="M297.342 38.812C297.239 38.9453 297.107 39.1187 297.026 39.2185C296.996 39.2723 296.934 39.4076 297.013 39.3354C296.92 39.407 296.833 39.4858 296.746 39.5784C296.9 39.3853 297.151 39.0517 297.328 38.8251L297.342 38.812Z" fill="#FF3D00"/>
<path d="M298.271 37.4403L298.278 37.4336L298.262 37.4893L298.271 37.4403Z" fill="#FF3D00"/>
<path d="M300.026 35.1192C300.026 35.1192 300.078 35.0452 300.1 35.0254C300.018 35.1397 300.018 35.1397 300.026 35.1192Z" fill="#FF3D00"/>
<path d="M301.463 32.5195C301.412 32.5793 301.389 32.6128 301.389 32.6128C301.411 32.5931 301.435 32.532 301.45 32.5051C301.479 32.4788 301.471 32.4854 301.457 32.4985C301.493 32.4657 301.479 32.4788 301.47 32.513L301.463 32.5195Z" fill="#FF3D00"/>
<path d="M287.574 65.4784C287.574 65.4784 287.574 65.4784 287.582 65.4712C287.582 65.4712 287.574 65.4784 287.573 65.4934L287.581 65.4862L287.574 65.4784Z" fill="#FF3D00"/>
<path d="M287.582 65.471C287.582 65.471 287.615 65.362 287.645 65.3081C287.652 65.3153 287.612 65.4171 287.611 65.4447C287.627 65.3902 287.596 65.4578 287.582 65.471Z" fill="#FF3D00"/>
<path d="M298.351 40.8503L298.358 40.8438C298.342 40.8983 298.295 41.0204 298.218 41.1826L298.19 41.1813L298.344 40.8569L298.351 40.8503Z" fill="#FF3D00"/>
<path d="M300.867 33.8681C300.867 33.8681 300.86 33.8445 300.875 33.8607L300.867 33.8681Z" fill="#FF3D00"/>
<path d="M298.976 39.3192L298.984 39.2983L298.974 39.3755L298.976 39.3192Z" fill="#FF3D00"/>
<path d="M300.409 36.0762C300.433 36.0151 300.449 35.9744 300.471 35.9409C300.409 36.09 300.402 36.0965 300.409 36.0762Z" fill="#FF3D00"/>
<path d="M301.513 33.0549L301.535 33.0347C301.535 33.0347 301.512 33.0832 301.513 33.0549Z" fill="#FF3D00"/>
</g>
</svg>
