<svg width="928" height="469" viewBox="0 0 928 469" fill="none" xmlns="http://www.w3.org/2000/svg">
<path d="M148.215 360.02C162.629 355.132 143.138 370.188 94.8203 395.021L65.5273 411.11C69.3701 406.725 66.2455 398.612 148.215 360.033V360.02Z" fill="#001D08" fill-opacity="0.02"/>
<path d="M361.961 246.061C346.338 256.72 332.642 262.163 314.575 271.322L317.473 266.51C340.34 253.394 354.804 248.48 361.961 246.049V246.061Z" fill="#001D08" fill-opacity="0.02"/>
<path d="M815.908 6.81613L826.945 0C815.908 6.81613 811.272 10.6841 812.141 11.1502C788.329 23.8502 762.891 35.5548 773.084 28.2473C791.29 19.0121 792.978 19.9696 815.921 6.80353L815.908 6.81613Z" fill="#001D08" fill-opacity="0.02"/>
<path d="M341.576 305.857C413.731 268.324 518.064 209.889 585.848 170.025L706.359 107.634C649.536 140.732 684.839 127.969 689.098 130.363C714.548 118.659 726.845 106.047 754.815 95.7911C737.453 105.505 707.316 121.115 696.279 127.932C729.856 114.224 823.165 62.605 801.558 82.9778L744.786 116.038C752.975 127.05 857.044 87.8663 804.934 130.099C866.909 99.8481 849.976 116.34 889.928 99.6969L854.235 118.722C916.159 88.4962 842.832 131.799 851.816 130.275L818.755 150.698C760.195 182.851 787.308 159.077 700.374 207.76C652.535 239.32 787.384 172.091 726.769 209.536C713.679 221.644 754.815 199.243 775.629 191.406C812.166 172.86 810.415 171.928 852.383 150.018C880.907 146.465 690.925 247.762 712.142 246.704C742.304 231.093 821.301 197.353 861.971 168.211L822.888 185.321L862.323 161.962C864.881 163.398 863.659 169.169 904.782 146.78C771.194 221.266 1041.55 93.4351 831.922 196.811C863.293 175.418 855.999 177.912 799.605 204.723C791.642 219.691 740.83 256.103 743.035 263.775L804.947 233.563C745.592 265.212 707.87 289.515 693.885 301.17C707.581 295.727 703.662 300.149 732.968 284.06C769.455 265.539 748.54 260.374 856.754 210.607C836.042 231.433 786.023 268.362 702.541 318.922C686.389 322.865 701.231 311.703 619.261 350.281C532.629 379.7 587.637 332.668 483.568 371.838C524.717 349.437 538.651 337.808 581.539 316.339C609.937 299.796 576.398 313.479 634.959 281.326C569.973 303.387 598.22 273.88 599.782 261.873C495.525 320.257 528.106 293.094 483.518 313.618C528.459 286.857 505.906 293.749 502.542 291.821C484.261 301.107 476.248 303.047 446.93 319.149C461.394 314.235 438.501 327.376 429.152 335.15C350.723 375.568 429.543 328.888 431.685 323.546L475.353 302.593C474.887 295.853 604.192 218.986 526.934 253.658L454.439 297.44C417.41 309.258 515.797 247.485 421.177 291.872C396.13 310.354 457.765 286.353 356.367 339.937C302.493 368.197 302.871 361.935 324.05 347.849C419.867 284.652 196.648 393.408 341.576 305.882V305.857Z" fill="#001D08" fill-opacity="0.02"/>
<path d="M172.508 412.319C181.92 417.561 320.158 339.181 311.326 353.683C256.62 381.452 213.355 409.17 210.356 414.045C243.089 399.846 222.779 414.411 225.412 415.797C215.144 423.142 149.427 457.714 145.962 455.824C250.698 391.128 73.3152 473.589 172.496 412.319H172.508Z" fill="#001D08" fill-opacity="0.02"/>
<path d="M468.071 246.804C478.705 246.263 351.869 311.551 386.252 298.347C318.847 331.962 383.72 296.899 379.411 294.542L417.712 276.916L468.084 246.792L468.071 246.804Z" fill="#001D08" fill-opacity="0.02"/>
<path d="M315.696 369.054C324.654 367.542 295.853 390.346 224.63 428.333C219.074 431.76 182.586 450.281 196.206 444.888C217.335 430.827 221.556 420.194 315.696 369.054Z" fill="#001D08" fill-opacity="0.02"/>
<path d="M594.314 206.979C607.883 201.611 609.559 202.581 612.167 203.98C598.572 209.36 566.734 224.013 594.314 206.979Z" fill="#001D08" fill-opacity="0.02"/>
<path d="M450.621 301.774C503.65 273.036 465.034 296.886 465.903 297.352L443.88 310.959C430.361 316.301 422.172 318.33 450.621 301.774Z" fill="#001D08" fill-opacity="0.02"/>
<path d="M303.638 407.633C284.173 422.676 233.65 439.823 226.834 449.059L217.989 450.52L300.224 405.743L303.651 407.645L303.638 407.633Z" fill="#001D08" fill-opacity="0.02"/>
<path d="M232.921 452.334C252.021 443.553 259.215 441.121 243.516 451.818L212.535 466.937C199.81 472.795 234.609 453.304 232.921 452.334Z" fill="#001D08" fill-opacity="0.02"/>
<path d="M417.837 348.152C437.756 339.862 395.764 361.784 379.246 371.989C354.64 384.173 409.698 350.155 417.837 348.152Z" fill="#001D08" fill-opacity="0.02"/>
<path d="M926.993 100.907C859.563 134.534 897.247 110.243 875.602 117.588C897.247 110.243 934.603 92.1881 926.993 100.907Z" fill="#001D08" fill-opacity="0.02"/>
<path d="M75.3924 364.833C97.4157 351.226 77.5216 359.504 58.3962 368.298L35.4531 381.464L75.3798 364.833H75.3924Z" fill="#001D08" fill-opacity="0.02"/>
<path d="M53.5963 404.42C132.908 364.455 93.8253 381.578 149.854 347.976C162.944 335.868 98.361 364.707 99.6209 358.912L55.0578 379.411C30.9556 398.322 11.0868 419.64 53.5963 404.42Z" fill="#001D08" fill-opacity="0.02"/>
<path d="M444.296 201.221C476.512 180.319 418.329 206.21 415.771 204.774C408.111 213.518 407.758 219.767 404.86 224.567C423.117 215.307 433.208 208.05 444.296 201.208V201.221Z" fill="#001D08" fill-opacity="0.02"/>
<path d="M11.7676 348.895C17.7396 352.234 -39.4479 391.581 62.4161 344.725C77.2957 333.524 101.007 320.887 114.098 308.78C218.935 257.073 103.54 322.336 107.874 324.68C128.133 310.153 174.435 290.587 183.418 289.062C159.316 307.973 174.196 309.825 181.919 314.097C220.976 297 166.372 337.77 265.968 283.254C276.69 282.674 199.898 324.075 179.538 338.665C303.072 284.451 -28.1717 468.99 120.019 402.555C59.7451 433.751 71.2103 433.7 67.4684 438.034C66.2463 443.805 65.4651 456.341 176.199 394.97C250.408 352.146 124.807 411.652 197.202 367.933C313.819 296.899 247.8 350.735 349.135 297.176C330.135 305.907 418.77 258.182 385.143 271.915C434.897 254.238 495.096 210.028 558.734 180.76C615.077 140.934 615.921 141.413 742.266 69.3835C718.869 75.7964 631.103 123.988 581.853 148.393C528.383 170.378 642.921 104.661 613.969 114.488C772.655 34.5469 730.561 43.4671 724.602 40.1157C728.772 29.5072 585.016 111.276 594.692 97.2654C667.981 53.9999 698.244 51.3793 776.245 4.19556L742.719 17.8782C680.756 48.1161 601.42 88.0932 556.857 108.592C555.143 107.647 552.56 106.223 576.322 93.5486C603.536 82.7764 662.034 50.636 694.225 29.7466C668.812 41.4386 662.4 44.3868 637.806 56.5702C472.039 151.946 624.716 55.6252 524.464 103.489C379.322 165.024 719.474 -7.95001 640.086 18.9995C495.499 100.289 559.427 51.7447 501.244 77.6485C503.298 72.3569 543.653 49.4391 588.594 22.6911C572.039 30.3136 562.4 32.1782 533.737 46.8814C338.337 152.815 157.414 258.446 0 354.502C3.89313 352.788 7.59728 351.113 11.7676 348.895Z" fill="#001D08" fill-opacity="0.02"/>
</svg>
