<svg width="518" height="568" viewBox="0 0 518 568" fill="none" xmlns="http://www.w3.org/2000/svg">
<path d="M40.944 220.797L163.675 343.528L162.872 344.331L40.1411 221.6L40.944 220.797Z" fill="#FF3D00" fill-opacity="0.1"/>
<path d="M139.61 351.795L143.619 355.804L142.816 356.607L138.807 352.598L139.61 351.795Z" fill="#FF3D00" fill-opacity="0.1"/>
<path d="M85.1709 297.33L102.938 315.097L102.136 315.9L84.3681 298.133L85.1709 297.33Z" fill="#FF3D00" fill-opacity="0.1"/>
<path d="M149.235 361.422L165.269 377.456L164.466 378.258L148.432 362.225L149.235 361.422Z" fill="#FF3D00" fill-opacity="0.1"/>
<path d="M170.884 383.081L207.901 420.098L207.099 420.901L170.082 383.884L170.884 383.081Z" fill="#FF3D00" fill-opacity="0.1"/>
<path d="M108.547 320.725L116.764 328.941L115.961 329.744L107.745 321.528L108.547 320.725Z" fill="#FF3D00" fill-opacity="0.1"/>
<path d="M122.383 334.559L134.008 346.184L133.205 346.987L121.58 335.362L122.383 334.559Z" fill="#FF3D00" fill-opacity="0.1"/>
<path d="M145.615 191.965L149.625 195.974L148.822 196.777L144.813 192.767L145.615 191.965Z" fill="#FF3D00" fill-opacity="0.1"/>
<path d="M186.303 232.639L204.07 250.406L203.267 251.209L185.5 233.441L186.303 232.639Z" fill="#FF3D00" fill-opacity="0.1"/>
<path d="M123.964 170.337L139.997 186.371L139.194 187.173L123.161 171.14L123.964 170.337Z" fill="#FF3D00" fill-opacity="0.1"/>
<path d="M81.3336 127.696L118.351 164.713L117.548 165.516L80.5308 128.499L81.3336 127.696Z" fill="#FF3D00" fill-opacity="0.1"/>
<path d="M172.469 218.845L180.686 227.061L179.883 227.864L171.666 219.648L172.469 218.845Z" fill="#FF3D00" fill-opacity="0.1"/>
<path d="M155.232 201.59L166.856 213.214L166.054 214.017L154.429 202.392L155.232 201.59Z" fill="#FF3D00" fill-opacity="0.1"/>
<path d="M443.675 303.23L447.685 307.24L446.882 308.043L442.872 304.033L443.675 303.23Z" fill="#FF3D00" fill-opacity="0.1"/>
<path d="M484.362 343.917L502.13 361.685L501.327 362.488L483.559 344.72L484.362 343.917Z" fill="#FF3D00" fill-opacity="0.1"/>
<path d="M422.023 281.571L438.057 297.604L437.254 298.407L421.22 282.373L422.023 281.571Z" fill="#FF3D00" fill-opacity="0.1"/>
<path d="M379.399 238.962L416.416 275.979L415.613 276.782L378.596 239.765L379.399 238.962Z" fill="#FF3D00" fill-opacity="0.1"/>
<path d="M470.524 330.083L478.74 338.299L477.937 339.102L469.721 330.886L470.524 330.083Z" fill="#FF3D00" fill-opacity="0.1"/>
<path d="M453.297 312.849L464.922 324.474L464.119 325.276L452.494 313.652L453.297 312.849Z" fill="#FF3D00" fill-opacity="0.1"/>
<path d="M368.907 201.817L377.32 210.23L376.517 211.033L368.104 202.62L368.907 201.817Z" fill="#FF3D00" fill-opacity="0.1"/>
<path d="M408.788 241.699L472.927 305.837L472.124 306.64L407.985 242.502L408.788 241.699Z" fill="#FF3D00" fill-opacity="0.1"/>
<path d="M382.13 215.041L384.938 217.848L384.135 218.651L381.327 215.844L382.13 215.041Z" fill="#FF3D00" fill-opacity="0.1"/>
<path d="M392.148 225.067L401.566 234.485L400.764 235.288L391.345 225.87L392.148 225.067Z" fill="#FF3D00" fill-opacity="0.1"/>
<path d="M178.446 97.5288L182.455 101.538L181.652 102.341L177.643 98.3316L178.446 97.5288Z" fill="#FF3D00" fill-opacity="0.1"/>
<path d="M124 43.0835L141.768 60.8511L140.965 61.6539L123.197 43.8863L124 43.0835Z" fill="#FF3D00" fill-opacity="0.1"/>
<path d="M188.071 107.163L204.104 123.196L203.302 123.999L187.268 107.965L188.071 107.163Z" fill="#FF3D00" fill-opacity="0.1"/>
<path d="M209.713 128.802L246.73 165.819L245.928 166.622L208.911 129.605L209.713 128.802Z" fill="#FF3D00" fill-opacity="0.1"/>
<path d="M147.382 66.4722L155.599 74.6885L154.796 75.4913L146.58 67.275L147.382 66.4722Z" fill="#FF3D00" fill-opacity="0.1"/>
<path d="M161.208 80.295L172.833 91.9199L172.03 92.7227L160.405 81.0979L161.208 80.295Z" fill="#FF3D00" fill-opacity="0.1"/>
<path d="M65.0647 211.488L69.0742 215.498L68.2714 216.3L64.2619 212.291L65.0647 211.488Z" fill="#FF3D00" fill-opacity="0.1"/>
<path d="M10.6084 157.051L28.376 174.819L27.5732 175.622L9.80557 157.854L10.6084 157.051Z" fill="#FF3D00" fill-opacity="0.1"/>
<path d="M74.6862 221.104L90.7197 237.138L89.9169 237.941L73.8834 221.907L74.6862 221.104Z" fill="#FF3D00" fill-opacity="0.1"/>
<path d="M96.3346 242.731L133.352 279.748L132.549 280.551L95.5318 243.534L96.3346 242.731Z" fill="#FF3D00" fill-opacity="0.1"/>
<path d="M34.0014 180.416L42.2178 188.632L41.415 189.435L33.1986 181.219L34.0014 180.416Z" fill="#FF3D00" fill-opacity="0.1"/>
<path d="M47.8273 194.248L59.4521 205.873L58.6493 206.676L47.0245 195.051L47.8273 194.248Z" fill="#FF3D00" fill-opacity="0.1"/>
<path d="M406.54 369.275L410.55 373.285L409.747 374.088L405.737 370.078L406.54 369.275Z" fill="#FF3D00" fill-opacity="0.1"/>
<path d="M447.232 409.967L465 427.735L464.197 428.538L446.43 410.77L447.232 409.967Z" fill="#FF3D00" fill-opacity="0.1"/>
<path d="M384.884 347.62L400.918 363.654L400.115 364.456L384.082 348.423L384.884 347.62Z" fill="#FF3D00" fill-opacity="0.1"/>
<path d="M342.265 305.001L379.282 342.018L378.479 342.821L341.462 305.804L342.265 305.001Z" fill="#FF3D00" fill-opacity="0.1"/>
<path d="M433.39 396.121L441.606 404.338L440.804 405.14L432.587 396.924L433.39 396.121Z" fill="#FF3D00" fill-opacity="0.1"/>
<path d="M416.163 378.894L427.788 390.519L426.985 391.321L415.36 379.697L416.163 378.894Z" fill="#FF3D00" fill-opacity="0.1"/>
<path d="M449.438 484.737L453.447 488.747L452.644 489.549L448.635 485.54L449.438 484.737Z" fill="#FF3D00" fill-opacity="0.1"/>
<path d="M394.993 430.292L412.761 448.059L411.958 448.862L394.19 431.095L394.993 430.292Z" fill="#FF3D00" fill-opacity="0.1"/>
<path d="M459.05 494.345L475.084 510.379L474.281 511.181L458.248 495.148L459.05 494.345Z" fill="#FF3D00" fill-opacity="0.1"/>
<path d="M480.714 516.022L517.731 553.039L516.929 553.841L479.912 516.824L480.714 516.022Z" fill="#FF3D00" fill-opacity="0.1"/>
<path d="M418.375 453.674L426.592 461.89L425.789 462.693L417.573 454.477L418.375 453.674Z" fill="#FF3D00" fill-opacity="0.1"/>
<path d="M432.2 467.497L443.825 479.122L443.022 479.925L431.398 468.3L432.2 467.497Z" fill="#FF3D00" fill-opacity="0.1"/>
<path d="M89.4406 54.4453L93.4502 58.4548L92.6474 59.2577L88.6378 55.2481L89.4406 54.4453Z" fill="#FF3D00" fill-opacity="0.1"/>
<path d="M34.9951 -3.98932e-05L52.7627 17.7676L51.9599 18.5704L34.1923 0.802782L34.9951 -3.98932e-05Z" fill="#FF3D00" fill-opacity="0.1"/>
<path d="M99.0768 64.0551L115.11 80.0886L114.308 80.8914L98.274 64.8579L99.0768 64.0551Z" fill="#FF3D00" fill-opacity="0.1"/>
<path d="M120.702 85.7252L157.719 122.742L156.916 123.545L119.899 86.528L120.702 85.7252Z" fill="#FF3D00" fill-opacity="0.1"/>
<path d="M58.395 23.3648L66.6113 31.5811L65.8085 32.3839L57.5922 24.1676L58.395 23.3648Z" fill="#FF3D00" fill-opacity="0.1"/>
<path d="M72.2033 37.2118L83.8281 48.8367L83.0253 49.6395L71.4004 38.0146L72.2033 37.2118Z" fill="#FF3D00" fill-opacity="0.1"/>
<path d="M256.115 116.806L260.125 120.815L259.322 121.618L255.313 117.608L256.115 116.806Z" fill="#FF3D00" fill-opacity="0.1"/>
<path d="M201.666 62.3559L219.434 80.1235L218.631 80.9264L200.863 63.1588L201.666 62.3559Z" fill="#FF3D00" fill-opacity="0.1"/>
<path d="M265.737 126.429L281.771 142.462L280.968 143.265L264.934 127.231L265.737 126.429Z" fill="#FF3D00" fill-opacity="0.1"/>
<path d="M287.385 148.075L324.402 185.092L323.6 185.895L286.583 148.878L287.385 148.075Z" fill="#FF3D00" fill-opacity="0.1"/>
<path d="M225.048 85.7446L233.265 93.9609L232.462 94.7638L224.246 86.5474L225.048 85.7446Z" fill="#FF3D00" fill-opacity="0.1"/>
<path d="M238.878 99.5722L250.503 111.197L249.7 112L238.075 100.375L238.878 99.5722Z" fill="#FF3D00" fill-opacity="0.1"/>
<path d="M290.038 412.094L294.048 416.104L293.245 416.907L289.236 412.897L290.038 412.094Z" fill="#FF3D00" fill-opacity="0.1"/>
<path d="M330.718 452.747L348.485 470.515L347.683 471.318L329.915 453.55L330.718 452.747Z" fill="#FF3D00" fill-opacity="0.1"/>
<path d="M268.393 390.435L284.427 406.468L283.624 407.271L267.59 391.237L268.393 390.435Z" fill="#FF3D00" fill-opacity="0.1"/>
<path d="M225.761 347.783L262.778 384.8L261.975 385.603L224.959 348.586L225.761 347.783Z" fill="#FF3D00" fill-opacity="0.1"/>
<path d="M316.899 438.936L325.115 447.152L324.312 447.955L316.096 439.739L316.899 438.936Z" fill="#FF3D00" fill-opacity="0.1"/>
<path d="M299.661 421.7L311.286 433.325L310.483 434.128L298.858 422.503L299.661 421.7Z" fill="#FF3D00" fill-opacity="0.1"/>
<path d="M307.142 498.913L311.151 502.923L310.349 503.725L306.339 499.716L307.142 498.913Z" fill="#FF3D00" fill-opacity="0.1"/>
<path d="M252.703 444.487L270.471 462.255L269.668 463.058L251.9 445.29L252.703 444.487Z" fill="#FF3D00" fill-opacity="0.1"/>
<path d="M316.761 508.534L332.795 524.568L331.992 525.37L315.959 509.337L316.761 508.534Z" fill="#FF3D00" fill-opacity="0.1"/>
<path d="M338.41 530.18L375.427 567.197L374.624 568L337.607 530.983L338.41 530.18Z" fill="#FF3D00" fill-opacity="0.1"/>
<path d="M276.073 467.85L284.289 476.066L283.486 476.869L275.27 468.653L276.073 467.85Z" fill="#FF3D00" fill-opacity="0.1"/>
<path d="M289.904 481.673L301.529 493.298L300.726 494.101L289.102 482.476L289.904 481.673Z" fill="#FF3D00" fill-opacity="0.1"/>
<path d="M206.058 227.747L250.562 272.251L249.759 273.054L205.255 228.55L206.058 227.747Z" fill="#FF3D00" fill-opacity="0.1"/>
<path d="M123.003 144.691L193.303 214.99L192.5 215.793L122.2 145.494L123.003 144.691Z" fill="#FF3D00" fill-opacity="0.1"/>
<path d="M261.584 343.66L460.078 542.155L459.275 542.958L260.781 344.463L261.584 343.66Z" fill="#FF3D00" fill-opacity="0.1"/>
<path d="M0.802566 102.147L199.297 300.641L198.494 301.444L-0.000255826 102.95L0.802566 102.147Z" fill="#FF3D00" fill-opacity="0.1"/>
<path d="M269.515 278.446L468.01 476.94L467.207 477.743L268.713 279.249L269.515 278.446Z" fill="#FF3D00" fill-opacity="0.1"/>
<path d="M269.518 192.272L468.013 390.766L467.21 391.569L268.716 193.075L269.518 192.272Z" fill="#FF3D00" fill-opacity="0.1"/>
</svg>
