<svg width="45" height="37" viewBox="0 0 45 37" fill="none" xmlns="http://www.w3.org/2000/svg">
<path d="M6.45583 11.7911C9.46901 11.7911 11.9117 9.3484 11.9117 6.33523C11.9117 3.32205 9.46901 0.879395 6.45583 0.879395C3.44266 0.879395 1 3.32205 1 6.33523C1 9.3484 3.44266 11.7911 6.45583 11.7911Z" stroke="#FF3D00" stroke-width="1.5" stroke-miterlimit="10" stroke-linecap="round" stroke-linejoin="round"/>
<path d="M30.8911 0.879395H38.726C41.7392 0.879395 44.1818 3.3221 44.1818 6.33523C44.1818 9.34844 41.7391 11.7911 38.726 11.7911H6.45605" stroke="#FF3D00" stroke-width="1.5" stroke-miterlimit="10" stroke-linecap="round" stroke-linejoin="round"/>
<path d="M6.45605 0.879395H23.0052" stroke="#FF3D00" stroke-width="1.5" stroke-miterlimit="10" stroke-linecap="round" stroke-linejoin="round"/>
<circle cx="6.45563" cy="6.33527" r="0.879462" fill="#FF3D00"/>
<path d="M6.45583 22.7029C9.46901 22.7029 11.9117 20.2603 11.9117 17.2471C11.9117 14.2339 9.46901 11.7913 6.45583 11.7913C3.44266 11.7913 1 14.2339 1 17.2471C1 20.2603 3.44266 22.7029 6.45583 22.7029Z" stroke="#FF3D00" stroke-width="1.5" stroke-miterlimit="10" stroke-linecap="round" stroke-linejoin="round"/>
<path d="M15.7476 22.7024H6.45605" stroke="#FF3D00" stroke-width="1.5" stroke-miterlimit="10" stroke-linecap="round" stroke-linejoin="round"/>
<path d="M38.7253 11.791C41.7392 11.791 44.1815 14.2342 44.1815 17.2472C44.1815 18.7537 43.5711 20.1178 42.5835 21.1045C41.5959 22.0922 40.2327 22.7025 38.7253 22.7025H38.0771" stroke="#FF3D00" stroke-width="1.5" stroke-miterlimit="10" stroke-linecap="round" stroke-linejoin="round"/>
<circle cx="6.45563" cy="17.2471" r="0.879462" fill="#FF3D00"/>
<circle cx="26.9478" cy="0.879462" r="0.879462" fill="#FF3D00"/>
<path d="M15.7471 11.791V32.097C15.7471 34.2525 17.4944 35.9998 19.6499 35.9998H20.0308" stroke="#FF3D00" stroke-width="1.5" stroke-miterlimit="10" stroke-linecap="round" stroke-linejoin="round"/>
<path d="M38.0771 30.3495V11.791" stroke="#FF3D00" stroke-width="1.5" stroke-miterlimit="10" stroke-linecap="round" stroke-linejoin="round"/>
<path d="M38.0776 30.6477H20.0312C21.5092 30.6477 22.7074 31.8459 22.7074 33.3238C22.7074 34.8018 21.5092 35.9999 20.0312 35.9999H38.0776C39.5555 35.9999 40.7537 34.8018 40.7537 33.3238C40.7537 31.8458 39.5556 30.6477 38.0776 30.6477Z" stroke="#FF3D00" stroke-width="1.5" stroke-miterlimit="10" stroke-linecap="round" stroke-linejoin="round"/>
<path d="M20.8083 26.3697H33.088C33.4211 26.3697 33.6332 26.0138 33.4747 25.7208L31.4144 21.9116C31.3071 21.7133 31.0672 21.6283 30.859 21.7147L28.5156 22.6882C28.3698 22.7488 28.2028 22.7266 28.0779 22.63L23.5487 19.1274C23.3155 18.9472 22.9744 19.0428 22.869 19.318L20.3977 25.7728C20.2874 26.0607 20.4999 26.3697 20.8083 26.3697Z" stroke="#FF3D00" stroke-width="1.5" stroke-miterlimit="10" stroke-linecap="round" stroke-linejoin="round"/>
<path d="M30.006 18.6372C30.9774 18.6372 31.7649 17.8497 31.7649 16.8783C31.7649 15.9069 30.9774 15.1194 30.006 15.1194C29.0346 15.1194 28.2471 15.9069 28.2471 16.8783C28.2471 17.8497 29.0346 18.6372 30.006 18.6372Z" stroke="#FF3D00" stroke-width="1.5" stroke-miterlimit="10" stroke-linecap="round" stroke-linejoin="round"/>
</svg>
