<svg width="36" height="36" viewBox="0 0 36 36" fill="none" xmlns="http://www.w3.org/2000/svg">
<path d="M35.5359 17.9181C36.3951 16.1983 36.0393 14.1568 34.6506 12.8379L32.6349 10.9237C32.1699 10.4823 31.8857 9.98409 31.7402 9.35581L31.1096 6.63263C30.6753 4.75632 29.1057 3.42374 27.2039 3.31673L24.4438 3.16139C23.8071 3.12554 23.2728 2.92878 22.7623 2.54222L20.5493 0.866122C19.0247 -0.288634 16.9756 -0.288781 15.4507 0.866122L13.2377 2.54214C12.7272 2.92878 12.1928 3.12554 11.5562 3.16139L8.79613 3.31673C6.8944 3.42374 5.32479 4.75632 4.89039 6.63263L4.25978 9.35588C4.11437 9.98409 3.8301 10.4823 3.36521 10.9238L1.34944 12.8379C-0.03934 14.1567 -0.395119 16.1983 0.464094 17.9181L1.71125 20.4143C1.99893 20.9901 2.09766 21.5566 2.02194 22.1972L1.69382 24.9745C1.46784 26.8879 2.49228 28.6832 4.24308 29.4419L6.78428 30.543C7.37039 30.797 7.80595 31.1668 8.15505 31.7067L9.66812 34.0476C10.7105 35.6603 12.6358 36.3694 14.4591 35.8119L17.1053 35.0028C17.7157 34.8161 18.2843 34.8161 18.8946 35.0028L21.5407 35.8119C21.9556 35.9387 22.3756 36 22.7893 36C24.1942 35.9999 25.5265 35.2934 26.3317 34.0476L27.8449 31.7067C28.1939 31.1668 28.6295 30.797 29.2156 30.543L31.7568 29.4418C33.5076 28.6831 34.5321 26.8878 34.306 24.9744L33.9779 22.1971C33.9022 21.5566 34.0009 20.99 34.2886 20.4142L35.5359 17.9181ZM33.2522 19.8842C32.8619 20.6655 32.722 21.4677 32.8248 22.3367L33.1529 25.114C33.3198 26.5267 32.5923 27.8015 31.2997 28.3617L28.7585 29.4628C27.9632 29.8075 27.3464 30.3311 26.8729 31.0636L25.3598 33.4044C24.5902 34.5952 23.2229 35.0986 21.8768 34.687L19.2307 33.8779C18.8166 33.7513 18.4084 33.688 18 33.688C17.5917 33.688 17.1833 33.7513 16.7693 33.8779L14.1232 34.687C12.7771 35.0985 11.4099 34.5952 10.6402 33.4044L9.12715 31.0636C8.65355 30.331 8.03673 29.8074 7.24154 29.4628L4.70034 28.3617C3.4076 27.8016 2.68022 26.5267 2.84711 25.114L3.17523 22.3367C3.27795 21.4676 3.13814 20.6654 2.7478 19.8841L1.50065 17.388C0.866333 16.1181 1.11888 14.6686 2.14426 13.6948L4.16003 11.7806C4.79079 11.1817 5.19332 10.4762 5.39063 9.6239L6.02125 6.90065C6.34197 5.51534 7.45649 4.5691 8.86059 4.49014L11.6207 4.3348C12.4844 4.28618 13.241 4.00751 13.9336 3.48302L16.1467 1.80692C17.2725 0.954334 18.7275 0.95426 19.8532 1.80692L22.0663 3.48302C22.7589 4.00751 23.5156 4.28618 24.3793 4.3348L27.1393 4.49014C28.5435 4.56917 29.658 5.51534 29.9787 6.90072L30.6093 9.6239C30.8066 10.4763 31.2092 11.1817 31.84 11.7806L33.8557 13.6948C34.881 14.6685 35.1336 16.1181 34.4993 17.388L33.2522 19.8842ZM18.0001 5.98688C11.4536 5.98688 6.12774 11.3755 6.12774 17.9991C6.12774 24.6227 11.4536 30.0113 18.0001 30.0113C24.5465 30.0113 29.8724 24.6227 29.8724 17.9991C29.8724 11.3755 24.5465 5.98688 18.0001 5.98688ZM18.0001 28.8361C12.0941 28.8361 7.28924 23.9746 7.28924 17.9991C7.28924 12.0235 12.0941 7.16205 18.0001 7.16205C23.906 7.16205 28.7109 12.0235 28.7109 17.9991C28.7109 23.9746 23.906 28.8361 18.0001 28.8361ZM22.9432 12.5543C22.9403 12.5543 22.9374 12.5543 22.9345 12.5543C22.3542 12.5566 21.81 12.7874 21.4022 13.2042L16.5863 18.1253L14.5974 16.1129C14.1867 15.6973 13.6405 15.4685 13.0595 15.4685C12.4783 15.4685 11.9322 15.6973 11.5214 16.113C10.6735 16.971 10.6735 18.3671 11.5214 19.2251L15.0539 22.7992C15.4779 23.2281 16.0348 23.4426 16.5918 23.4426C17.1488 23.4426 17.7059 23.2282 18.1299 22.7992C19.4691 21.444 20.8205 20.0572 22.1274 18.7161C22.9126 17.9101 23.698 17.1043 24.4852 16.3003C25.3274 15.4404 25.323 14.0469 24.4753 13.194C24.0652 12.7812 23.5214 12.5543 22.9432 12.5543ZM23.6602 15.473C22.8722 16.2777 22.0862 17.0843 21.3002 17.891C19.9948 19.2307 18.6449 20.616 17.3085 21.9681C16.9134 22.3679 16.2703 22.3679 15.8752 21.9681L12.3428 18.394C11.9477 17.9942 11.9477 17.3436 12.3428 16.9438C12.5342 16.7502 12.7887 16.6435 13.0595 16.6435C13.3302 16.6435 13.5847 16.7502 13.7761 16.9438L16.1777 19.3737C16.2867 19.4839 16.4343 19.5458 16.5884 19.5458H16.5898C16.7444 19.5455 16.8924 19.4827 17.001 19.3717L22.2276 14.0309C22.4168 13.8375 22.6695 13.7304 22.939 13.7294H22.9431C23.2123 13.7294 23.4655 13.835 23.6564 14.0271C24.0506 14.424 24.0524 15.0725 23.6602 15.473Z" fill="#FF3D00"/>
</svg>
