<svg width="36" height="36" viewBox="0 0 36 36" fill="none" xmlns="http://www.w3.org/2000/svg">
<path d="M32.677 6.69423C32.4773 6.69423 32.2798 6.6125 32.1411 6.45313C31.8917 6.16571 31.9281 5.73596 32.2237 5.4935C33.3572 4.56315 34.1719 3.33722 34.5796 1.94988C34.6868 1.58755 35.077 1.38391 35.4455 1.4813C35.8175 1.58483 36.0332 1.96214 35.9274 2.32311C35.4427 3.97198 34.4745 5.42811 33.1281 6.53349C32.9964 6.64178 32.8367 6.69423 32.677 6.69423Z" fill="#FF3D00"/>
<path d="M19.564 15.1836C19.3293 15.1836 19.1002 15.0692 18.9671 14.8608C18.764 14.5407 18.8649 14.1211 19.1941 13.9229C23.2425 11.4847 27.5206 8.71547 32.2716 5.45586C32.5876 5.23996 33.024 5.31283 33.2482 5.62C33.4709 5.92716 33.3953 6.35215 33.0793 6.56941C28.3059 9.84468 24.0053 12.6282 19.9318 15.0814C19.8176 15.1509 19.6901 15.1836 19.564 15.1836Z" fill="#FF3D00"/>
<path d="M30.0276 16.8578C29.828 16.8578 29.6297 16.7754 29.491 16.6153C29.2416 16.3279 29.2794 15.8982 29.5758 15.6564L31.1562 14.3637C31.4525 14.1199 31.8945 14.158 32.1425 14.4461C32.3919 14.7335 32.3541 15.1633 32.0578 15.4051L30.4774 16.6977C30.3464 16.8053 30.1859 16.8578 30.0276 16.8578Z" fill="#FF3D00"/>
<path d="M30.0265 16.8578C29.7148 16.8578 29.4304 16.6542 29.3484 16.347L27.4745 9.28634C27.3778 8.92197 27.6041 8.55078 27.9782 8.45611C28.3529 8.36349 28.7347 8.58143 28.8321 8.9458L30.706 16.0065C30.8027 16.3708 30.5764 16.742 30.2023 16.8367C30.1435 16.851 30.0847 16.8578 30.0265 16.8578Z" fill="#FF3D00"/>
<path d="M31.6087 15.5651C31.2255 15.5651 30.9131 15.2661 30.9082 14.8935L30.7989 6.83099C30.794 6.45435 31.1036 6.14583 31.4896 6.14038H31.4994C31.8826 6.14038 32.195 6.43937 32.1999 6.81192L32.3092 14.8744C32.3141 15.2511 32.0045 15.5596 31.6185 15.5651C31.615 15.5651 31.6115 15.5651 31.6087 15.5651Z" fill="#FF3D00"/>
<path d="M20.8774 18.2899C20.5432 18.2899 20.2476 18.057 20.1881 17.726L19.5555 14.2096C19.4889 13.8391 19.7439 13.4863 20.125 13.4216C20.5047 13.3589 20.8697 13.6055 20.9355 13.9753L21.5681 17.4917C21.6347 17.8622 21.3797 18.215 20.9986 18.2797C20.9586 18.2865 20.9173 18.2899 20.8774 18.2899Z" fill="#FF3D00"/>
<path d="M22.0429 17.5123C21.9883 17.5123 21.9337 17.5062 21.8783 17.4939C21.5028 17.4054 21.271 17.0376 21.3613 16.6719L22.4731 12.1809C22.5634 11.8158 22.9403 11.5924 23.3186 11.6782C23.6941 11.7668 23.926 12.1346 23.8356 12.5003L22.7239 16.9913C22.6461 17.3032 22.3589 17.5123 22.0429 17.5123Z" fill="#FF3D00"/>
<path d="M20.8789 18.29C20.6561 18.29 20.4369 18.1872 20.301 17.9944C20.0817 17.6846 20.163 17.2609 20.4817 17.0471L21.6446 16.2693C21.9633 16.0561 22.3991 16.1358 22.619 16.445C22.8383 16.7549 22.757 17.1785 22.4383 17.3924L21.2754 18.1702C21.1542 18.2512 21.0162 18.29 20.8789 18.29Z" fill="#FF3D00"/>
<path d="M9.03659 30.3389C8.93081 30.3389 8.82223 30.3157 8.72135 30.266C8.37599 30.0964 8.23798 29.6864 8.41242 29.3506L9.60472 27.0575C9.77845 26.7217 10.2002 26.5862 10.5462 26.7571C10.8916 26.9267 11.0296 27.3367 10.8552 27.6725L9.66287 29.9656C9.53957 30.2027 9.29228 30.3389 9.03659 30.3389Z" fill="#FF3D00"/>
<path d="M10.23 28.0455C9.85034 28.0455 9.5386 27.7506 9.52949 27.3801C9.52039 27.0042 9.82722 26.6922 10.2139 26.6834L11.2108 26.6609L11.7271 26.2849C11.8181 26.2182 11.9246 26.1746 12.0374 26.1569L13.035 26.003L14.5621 25.3219C14.6013 25.3049 14.6406 25.2913 14.6819 25.2804L15.9162 24.9766L16.9993 24.0429L17.1716 23.6288C16.7611 23.2739 16.3471 22.9225 15.9309 22.5731C15.6556 22.3422 15.608 21.9452 15.821 21.6584L16.1173 21.26L16.0991 20.6232L15.608 19.686L15.0161 18.7836C14.8087 18.4656 14.9061 18.0453 15.2332 17.8437C15.5611 17.6421 15.9933 17.7368 16.1999 18.0549L16.8241 19.0125L17.4196 20.141C17.4665 20.2309 17.4924 20.3297 17.4959 20.4311L17.5261 21.4521C17.5303 21.6019 17.4833 21.749 17.3937 21.8702L17.3334 21.9506C17.7166 22.2762 18.0977 22.6024 18.4767 22.9327C18.6959 23.1248 18.7681 23.4292 18.6574 23.6955L18.2378 24.7021C18.1972 24.7995 18.1341 24.886 18.0529 24.9555L16.7197 26.1051C16.6364 26.1773 16.5355 26.2291 16.4276 26.2563L15.0903 26.586L13.5337 27.28C13.4756 27.3059 13.4139 27.3236 13.3509 27.3331L12.4304 27.4755L11.8735 27.8807C11.7565 27.9658 11.6157 28.0135 11.47 28.0169L10.2489 28.0448C10.2412 28.0455 10.2356 28.0455 10.23 28.0455Z" fill="#FF3D00"/>
<path d="M15.9693 31.9102C12.4001 31.9102 8.84494 30.7605 6.0246 28.5899L5.78992 28.4081C5.48659 28.1745 5.43546 27.7461 5.67644 27.4519C5.91672 27.157 6.35806 27.1066 6.65998 27.3415L6.89466 27.5227C10.6145 30.3852 15.7403 31.3026 20.2727 29.9112C25.3558 28.3529 29.243 24.0438 30.1768 18.9323C30.2448 18.5625 30.6041 18.316 30.9887 18.3807C31.3698 18.4467 31.6234 18.7995 31.5562 19.17C30.5327 24.7746 26.2692 29.5012 20.6944 31.2107C19.1596 31.6806 17.5623 31.9102 15.9693 31.9102Z" fill="#FF3D00"/>
<path d="M4.22002 26.6128C4.01897 26.6128 3.82002 26.5297 3.68131 26.3683C-0.570908 21.4101 -1.20139 14.3276 2.11353 8.74555C4.99341 3.89496 10.3686 0.94115 16.1164 1.00517C16.5038 1.01062 16.8128 1.31983 16.8072 1.69578C16.8016 2.07241 16.4653 2.37276 16.0968 2.36731C16.0338 2.36663 15.97 2.36595 15.907 2.36595C10.8043 2.36595 5.88168 5.12225 3.32615 9.42662C0.350991 14.4366 0.939437 21.045 4.75593 25.4958C5.00392 25.7853 4.96399 26.2144 4.66696 26.4548C4.53666 26.561 4.37834 26.6128 4.22002 26.6128Z" fill="#FF3D00"/>
<path d="M19.0849 13.5511C19.005 13.5511 18.9237 13.5375 18.8432 13.5089L15.5549 12.3361C15.1913 12.2074 15.0057 11.8151 15.1388 11.4623C15.2712 11.1095 15.6733 10.927 16.0375 11.0577L19.3258 12.2305C19.6894 12.3592 19.8751 12.7515 19.742 13.1043C19.6383 13.3802 19.37 13.5511 19.0849 13.5511Z" fill="#FF3D00"/>
<path d="M19.1799 15.2941C18.7756 15.2941 18.3777 15.1211 18.087 14.7921C17.6114 14.2534 17.6044 13.5049 18.0709 12.9736C18.321 12.6862 18.7637 12.6522 19.058 12.8974C19.3529 13.1405 19.3879 13.5709 19.1364 13.857C19.128 13.8665 19.1259 13.8713 19.1259 13.8713C19.1287 13.8856 19.1644 13.9265 19.1869 13.9319C19.5161 13.7337 19.9525 13.8291 20.1557 14.1485C20.3595 14.4686 20.2615 14.8841 19.9329 15.0816C19.6961 15.2246 19.4362 15.2941 19.1799 15.2941Z" fill="#FF3D00"/>
<path d="M18.6025 14.0966C18.4421 14.0966 18.2803 14.0435 18.1486 13.9345C17.8543 13.6907 17.8186 13.261 18.0694 12.9742C21.4137 9.15409 25.1679 5.6384 28.7966 2.23849L29.1315 1.9252C29.4096 1.66367 29.8523 1.67184 30.122 1.94222C30.391 2.21329 30.3826 2.64441 30.1045 2.90526L29.769 3.21923C26.164 6.59599 22.4358 10.0878 19.1363 13.8569C18.9976 14.0149 18.8008 14.0966 18.6025 14.0966Z" fill="#FF3D00"/>
<path d="M18.9415 11.2826C18.683 11.2826 18.4336 11.143 18.3124 10.9019L17.607 9.50772L17.1607 8.8103C17.0283 8.60053 17.022 8.33832 17.1453 8.12242L17.6119 7.30513C17.7254 7.10626 17.9334 6.97549 18.1674 6.95642L19.2091 6.87401L19.317 6.79773L19.2336 6.60567C19.0213 6.6765 18.7867 6.64381 18.6038 6.51781L17.5033 5.76455L17.1817 5.82312C16.9646 5.8633 16.7383 5.80064 16.5758 5.65353L16.0707 5.19858C15.988 5.12434 15.925 5.03103 15.8865 4.92819L15.635 4.24099L14.697 3.47887L13.6125 3.32767C13.2749 3.28068 13.0206 3.0028 13.0122 2.67112L12.9905 1.86064C12.9807 1.48469 13.2861 1.1714 13.6728 1.16187C14.0287 1.16255 14.3817 1.4486 14.3915 1.82523L14.3978 2.06156L15.0935 2.15895C15.2224 2.17666 15.3428 2.22979 15.4423 2.31083L16.6802 3.3161C16.7768 3.39374 16.849 3.4959 16.8917 3.61032L17.1495 4.31523L17.2693 4.42284L17.5355 4.37448C17.7225 4.33906 17.9138 4.38061 18.0693 4.48686L19.1124 5.20198L19.3821 5.10595C19.7324 4.98063 20.1233 5.14682 20.2683 5.4819L20.8259 6.76981C20.952 7.06131 20.8553 7.39912 20.5919 7.58505L19.8753 8.09109C19.7716 8.16396 19.649 8.20823 19.5201 8.21913L18.6571 8.28792L18.5709 8.43844L18.8343 8.85321L19.572 10.3039C19.7422 10.641 19.5993 11.0497 19.2525 11.2158C19.1509 11.2594 19.0452 11.2826 18.9415 11.2826Z" fill="#FF3D00"/>
<path d="M16.7885 11.4033C16.4207 11.4033 16.1111 11.1241 16.0901 10.7617C16.0676 10.3865 16.3626 10.0643 16.7486 10.0425L21.2901 9.78643C21.6677 9.766 22.0074 10.0514 22.0299 10.4266C22.0523 10.8019 21.7574 11.1241 21.3714 11.1459L16.8298 11.4019C16.8158 11.4026 16.8018 11.4033 16.7885 11.4033Z" fill="#FF3D00"/>
<path d="M15.7965 12.3785C15.6186 12.3785 15.4399 12.3124 15.3033 12.1816C15.0287 11.9167 15.0259 11.4856 15.2984 11.2179L16.2918 10.2426C16.565 9.97564 17.007 9.9736 17.283 10.2379C17.5576 10.5028 17.5604 10.9339 17.2879 11.2016L16.2946 12.1769C16.1566 12.311 15.9765 12.3785 15.7965 12.3785Z" fill="#FF3D00"/>
<path d="M24.391 29.4072C24.344 29.4072 24.2957 29.4024 24.2481 29.3929C23.8691 29.3166 23.6253 28.9556 23.7044 28.5872L23.9006 27.6664C23.9104 27.6234 23.9237 27.5812 23.9412 27.5397L24.2922 26.7306L24.1731 26.0924L23.7002 25.6545L22.8498 25.4699C22.6193 25.4202 22.4295 25.2594 22.3468 25.0442L21.9468 24.0063C21.9146 23.9232 21.8999 23.8346 21.9027 23.7461L21.9433 22.5004C21.9496 22.2975 22.0484 22.1088 22.213 21.9842L23.3857 21.0967L24.3146 20.1364C24.4253 20.0213 24.5738 19.9478 24.7342 19.9273L25.5861 19.819L25.8362 19.5493C25.9924 19.3804 26.2257 19.2994 26.4575 19.3321L27.6218 19.4976C27.7983 19.5228 27.9581 19.612 28.0695 19.7482L28.632 20.4375L29.2064 20.8999C29.2793 20.9578 29.3388 21.0293 29.3822 21.111L29.8509 21.9889C29.8908 22.0632 29.9161 22.1442 29.9252 22.2266L30.0471 23.2775C30.0905 23.6514 29.8138 23.9886 29.4292 24.0308C29.0383 24.0662 28.6971 23.804 28.6544 23.4301L28.5479 22.5045L28.2047 21.8623L27.6835 21.4427C27.6449 21.4128 27.6106 21.378 27.5812 21.3412L27.1455 20.8073L26.6264 20.7337L26.454 20.9197C26.3426 21.0402 26.1906 21.1178 26.0253 21.1383L25.1658 21.2479L24.3707 22.0693C24.3461 22.0952 24.3195 22.119 24.2908 22.1401L23.3346 22.8641L23.3093 23.6555L23.5279 24.2229L24.1976 24.3686C24.3216 24.3952 24.4351 24.4544 24.5276 24.5396L25.3066 25.2601C25.4137 25.3596 25.4866 25.4903 25.5132 25.632L25.7101 26.6883C25.7339 26.8184 25.7192 26.9526 25.6659 27.0745L25.2603 28.0096L25.0782 28.865C25.0074 29.1865 24.716 29.4072 24.391 29.4072Z" fill="#FF3D00"/>
<path d="M35.2563 2.8175C35.1925 2.8175 35.1274 2.80932 35.0643 2.79162C34.6923 2.68877 34.4759 2.31214 34.5824 1.95049C34.6419 1.74685 34.534 1.59089 34.4843 1.533C34.4345 1.4751 34.3021 1.34638 34.085 1.36341C33.7067 1.39814 33.3592 1.12095 33.3242 0.746358C33.2892 0.371768 33.5736 0.040767 33.9589 0.00671346C34.562 -0.0443669 35.1666 0.198095 35.5631 0.663948C35.9603 1.13048 36.0976 1.75094 35.9295 2.32372C35.8419 2.62271 35.5603 2.8175 35.2563 2.8175Z" fill="#FF3D00"/>
<path d="M29.6182 3.09631C29.4136 3.09631 29.2112 3.00981 29.0732 2.84363C28.8294 2.55077 28.8763 2.12169 29.1768 1.88604C30.5485 0.807908 32.201 0.158165 33.958 0.00628645C34.3384 -0.026405 34.6837 0.25011 34.7173 0.624699C34.7517 0.999289 34.4673 1.32961 34.0813 1.36298C32.6038 1.49102 31.2119 2.03724 30.0581 2.94443C29.9278 3.04659 29.773 3.09631 29.6182 3.09631Z" fill="#FF3D00"/>
<path d="M28.5804 4.06877C28.5342 4.06877 28.4858 4.064 28.4389 4.05447L20.3155 2.43147C19.9365 2.35587 19.6921 1.99559 19.7705 1.62713C19.849 1.25867 20.2196 1.02097 20.5978 1.09725L28.7219 2.72093C29.1009 2.79653 29.3454 3.15682 29.2669 3.52527C29.1976 3.84742 28.9061 4.06877 28.5804 4.06877Z" fill="#FF3D00"/>
<path d="M25.6319 6.8303C25.5311 6.8303 25.4295 6.80987 25.3328 6.76492L18.5538 3.64493C18.2042 3.4842 18.0543 3.0776 18.2196 2.73774C18.3849 2.39789 18.8046 2.25146 19.1527 2.41287L25.9318 5.53286C26.2813 5.6936 26.4312 6.1002 26.2659 6.44005C26.1461 6.6866 25.8946 6.8303 25.6319 6.8303Z" fill="#FF3D00"/>
<path d="M18.8551 3.71027C18.6513 3.71027 18.4488 3.62446 18.3108 3.45828C18.067 3.1661 18.1133 2.73702 18.4131 2.50069L20.0166 1.23594C20.3185 0.998247 20.7592 1.04388 21.0015 1.33538C21.2453 1.62756 21.1991 2.05663 20.8993 2.29296L19.2958 3.55771C19.1655 3.65987 19.0092 3.71027 18.8551 3.71027Z" fill="#FF3D00"/>
<path d="M4.01426 36.0002C1.98973 36.0002 0.660821 35.236 0.25101 33.8248C-0.394179 31.6018 1.08324 29.1023 2.6125 26.9501C6.25946 21.8189 11.0686 17.648 15.2928 14.2447C15.5912 14.0029 16.0326 14.0445 16.2785 14.3346C16.5257 14.6241 16.4844 15.0538 16.186 15.2929C12.036 18.6369 7.31516 22.7295 3.76487 27.7245C2.95156 28.8694 1.04681 31.5494 1.60023 33.455C1.90777 34.5175 3.26189 34.6857 4.34141 34.6306C8.14179 34.4542 11.9478 32.477 15.3061 30.7314L15.4672 30.6476C15.8084 30.4706 16.2336 30.5959 16.4158 30.9269C16.5986 31.2586 16.469 31.672 16.1285 31.8491L15.9667 31.9328C12.4781 33.7452 8.52358 35.8 4.40866 35.9907C4.27416 35.9968 4.14316 36.0002 4.01426 36.0002Z" fill="#FF3D00"/>
<path d="M17.4693 17.594C17.3558 17.594 17.2409 17.5674 17.1338 17.5102C16.1152 16.9688 15.3607 16.033 15.0637 14.9419C14.9642 14.5782 15.1877 14.2057 15.5618 14.109C15.9345 14.0136 16.3197 14.2295 16.4185 14.5932C16.6175 15.324 17.1233 15.9519 17.8056 16.315C18.1446 16.4954 18.27 16.9088 18.0837 17.2385C17.9569 17.4666 17.7173 17.594 17.4693 17.594Z" fill="#FF3D00"/>
<path d="M6.78303 34.5283C5.93539 34.5283 5.09895 34.3846 4.36129 33.9834C3.35043 33.4249 2.92941 32.2222 3.37775 31.1842C4.56935 28.5458 6.53434 26.2805 8.44399 24.1862C10.5659 21.8576 12.9526 19.7804 15.2139 17.8516C15.6174 17.5069 16.0349 17.1759 16.4525 16.8443L17.022 16.3893C17.3197 16.1475 17.7625 16.1891 18.0083 16.4785C18.2556 16.7687 18.2143 17.1977 17.9166 17.4375L17.3379 17.8999C16.9337 18.2207 16.5295 18.5408 16.1379 18.8752C13.9088 20.7754 11.5606 22.8207 9.49198 25.0893C7.58023 27.187 5.77076 29.2725 4.66462 31.7216C4.49509 32.1139 4.65832 32.5811 5.04921 32.797C6.2198 33.4338 7.95151 33.1294 9.32946 32.7936C11.5242 32.2576 13.5691 31.3974 15.2805 30.6264C15.6307 30.4664 16.0476 30.6162 16.2101 30.9581C16.3726 31.2993 16.2206 31.7039 15.8689 31.8619C14.0994 32.6594 11.9775 33.5503 9.66992 34.1142C8.79075 34.3294 7.77988 34.5283 6.78303 34.5283Z" fill="#FF3D00"/>
<path d="M13.0374 17.6587C12.7341 17.6587 12.4553 17.4667 12.3656 17.1697L12.0027 15.9704L10.9884 14.991C10.828 14.8357 10.7544 14.615 10.7908 14.3984L10.9162 13.6547L10.5239 13.1568C10.395 12.9934 10.3495 12.7816 10.3992 12.5813L10.8819 10.658L10.5702 10.0668C10.4903 9.91563 10.4714 9.74059 10.5176 9.57577L11.0437 7.71032C11.125 7.4229 11.3891 7.21994 11.6959 7.21041L11.7611 7.20768L11.759 6.15952L11.4815 4.66252L10.9414 3.96374L10.0651 4.07816L9.34843 4.52971C9.02969 4.73199 8.60377 4.64822 8.38871 4.3431L8.05385 3.86703C7.83529 3.55578 7.91795 3.13215 8.23739 2.91966C8.53162 2.72623 8.92391 2.77663 9.15579 3.02863L9.4353 2.85223C9.52217 2.79706 9.62094 2.76165 9.72252 2.74871L11.1614 2.56073C11.415 2.52804 11.663 2.62952 11.8157 2.82703L12.7026 3.97464C12.7684 4.05977 12.8126 4.15853 12.8322 4.26341L13.1495 5.97971C13.1572 6.01921 13.1607 6.05872 13.1607 6.0989L13.1635 7.86696C13.1642 8.23474 12.8644 8.53646 12.4868 8.54872L12.2598 8.55689L11.9425 9.68338L12.2493 10.265C12.3257 10.4108 12.3467 10.5783 12.3068 10.737L11.8416 12.5909L12.2136 13.0635C12.3313 13.2127 12.3796 13.402 12.3488 13.5873L12.2332 14.2752L13.1194 15.1313C13.2028 15.2116 13.2644 15.3124 13.2973 15.4221L13.7106 16.789C13.8199 17.15 13.6077 17.5286 13.2364 17.6342C13.1684 17.6499 13.1026 17.6587 13.0374 17.6587Z" fill="#FF3D00"/>
</svg>
